<svg width="133" height="133" viewBox="0 0 133 133" fill="none" xmlns="http://www.w3.org/2000/svg">
<path d="M99.1549 100.224C80.5075 118.281 50.7526 117.802 32.6955 99.1548C24.4541 90.644 5.00012 66.5 5.00012 66.5C5.00012 66.5 23.6276 42.5111 33.7642 32.6953C52.4116 14.6382 82.1665 15.1167 100.224 33.7641C118.281 52.4115 117.802 82.1664 99.1549 100.224Z" fill="#01A16F"/>
<path d="M99.1549 100.224C80.5075 118.281 50.7526 117.802 32.6955 99.1548C24.4541 90.644 5.00012 66.5 5.00012 66.5C5.00012 66.5 23.6276 42.5111 33.7642 32.6953C52.4116 14.6382 82.1665 15.1167 100.224 33.7641C118.281 52.4115 117.802 82.1664 99.1549 100.224Z" stroke="#AA2AE1"/>
<path d="M58.4262 74.0755C59.1516 73.4995 59.4822 73.2328 59.4182 73.2755C61.5089 71.5475 63.1516 70.1288 64.3462 69.0195C65.5622 67.9101 66.5862 66.7475 67.4182 65.5315C68.2502 64.3155 68.6662 63.1315 68.6662 61.9795C68.6662 61.1048 68.4636 60.4221 68.0582 59.9315C67.6529 59.4408 67.0449 59.1955 66.2342 59.1955C65.4236 59.1955 64.7836 59.5048 64.3142 60.1235C63.8662 60.7208 63.6422 61.5741 63.6422 62.6835H58.3622C58.4049 60.8701 58.7889 59.3555 59.5142 58.1395C60.2609 56.9235 61.2316 56.0275 62.4262 55.4515C63.6422 54.8755 64.9862 54.5875 66.4582 54.5875C68.9969 54.5875 70.9062 55.2381 72.1862 56.5395C73.4876 57.8408 74.1382 59.5368 74.1382 61.6275C74.1382 63.9101 73.3596 66.0328 71.8022 67.9955C70.2449 69.9368 68.2609 71.8355 65.8502 73.6915H74.4902V78.1395H58.4262V74.0755Z" fill="white"/>
</svg>
