<svg width="171" height="170" viewBox="0 0 171 170" fill="none" xmlns="http://www.w3.org/2000/svg">
<rect x="0.808594" y="84.853" width="120" height="120" rx="32" transform="rotate(-45 0.808594 84.853)" fill="#F7EAFC"/>
<path d="M86 86.2249C87.4958 86.2248 88.9574 86.6631 90.1971 87.4833C91.4367 88.3035 92.3978 89.4683 92.9569 90.8279C93.5159 92.1875 93.6473 93.6799 93.3343 95.1133C93.0212 96.5467 92.2779 97.8556 91.2 98.8718L86.425 103.375H93.5V108.275H78.5V104.051L87.7325 95.3414C88.0304 95.0607 88.2527 94.7121 88.3794 94.3267C88.5062 93.9413 88.5335 93.5311 88.4589 93.1328C88.3843 92.7345 88.2102 92.3605 87.952 92.0443C87.6938 91.7282 87.3597 91.4796 86.9795 91.321C86.5994 91.1623 86.185 91.0984 85.7735 91.1351C85.362 91.1718 84.9662 91.3079 84.6215 91.5312C84.2767 91.7545 83.9939 92.058 83.7982 92.4147C83.6025 92.7713 83.5 93.17 83.5 93.5749H78.5C78.5 91.6256 79.2902 89.7561 80.6967 88.3777C82.1032 86.9993 84.0109 86.2249 86 86.2249ZM101 86.2249V96.0249H106V86.2249H111V108.275H106V100.925H96V86.2249H101ZM66 83.7749C65.9969 86.7139 66.6696 89.6158 67.968 92.265C69.2664 94.9143 71.1572 97.2428 73.5 99.0776V104.997C69.698 102.847 66.541 99.7538 64.3466 96.0283C62.1522 92.3028 60.998 88.0765 61 83.7749H66ZM86 59.2749C98.9625 59.2749 109.623 68.9451 110.875 81.3249H105.845C105.337 77.3748 103.613 73.6701 100.904 70.7036C98.194 67.7371 94.6269 65.6495 90.6769 64.7185C86.7269 63.7875 82.5813 64.0573 78.7917 65.492C75.002 66.9267 71.748 69.4583 69.4625 72.7499H76V77.6499H61V62.9499H66V69.0749C68.326 66.0293 71.345 63.5575 74.817 61.8563C78.289 60.155 82.1182 59.2711 86 59.2749Z" fill="#AA2AE1"/>
</svg>
