<svg width="94" height="94" viewBox="0 0 94 94" fill="none" xmlns="http://www.w3.org/2000/svg">
<path d="M94 47C94 21.0426 72.9574 0 47 0H0V47C0 72.9574 21.0426 94 47 94C72.9574 94 94 72.9574 94 47Z" fill="#F3852D"/>
<path d="M94 47C94 21.0426 72.9574 0 47 0H0V47C0 72.9574 21.0426 94 47 94C72.9574 94 94 72.9574 94 47Z" stroke="#AA2AE1"/>
<path d="M39.257 41.232C39.3423 38.9493 40.089 37.1893 41.497 35.952C42.905 34.7147 44.8143 34.096 47.225 34.096C48.825 34.096 50.1903 34.3733 51.321 34.928C52.473 35.4827 53.337 36.24 53.913 37.2C54.5103 38.16 54.809 39.2373 54.809 40.432C54.809 41.84 54.457 42.992 53.753 43.888C53.049 44.7627 52.2277 45.36 51.289 45.68V45.808C52.505 46.2133 53.465 46.8853 54.169 47.824C54.873 48.7627 55.225 49.968 55.225 51.44C55.225 52.7627 54.9157 53.936 54.297 54.96C53.6997 55.9627 52.8143 56.752 51.641 57.328C50.489 57.904 49.113 58.192 47.513 58.192C44.953 58.192 42.905 57.5627 41.369 56.304C39.8543 55.0453 39.0543 53.1467 38.969 50.608H44.281C44.3023 51.5467 44.569 52.2933 45.081 52.848C45.593 53.3813 46.3397 53.648 47.321 53.648C48.153 53.648 48.793 53.4133 49.241 52.944C49.7103 52.4533 49.945 51.8133 49.945 51.024C49.945 50 49.6143 49.264 48.953 48.816C48.313 48.3467 47.2783 48.112 45.849 48.112H44.825V43.664H45.849C46.937 43.664 47.8117 43.4827 48.473 43.12C49.1557 42.736 49.497 42.064 49.497 41.104C49.497 40.336 49.2837 39.7387 48.857 39.312C48.4303 38.8853 47.8437 38.672 47.097 38.672C46.2863 38.672 45.6783 38.9173 45.273 39.408C44.889 39.8987 44.665 40.5067 44.601 41.232H39.257Z" fill="white"/>
</svg>
