<svg width="95" height="94" viewBox="0 0 95 94" fill="none" xmlns="http://www.w3.org/2000/svg">
<path d="M0.918945 47C0.918945 21.0426 21.9616 0 47.9189 0H94.9189V47C94.9189 72.9574 73.8763 94 47.9189 94C21.9616 94 0.918945 72.9574 0.918945 47Z" fill="#BD4A89"/>
<path d="M0.918945 47C0.918945 21.0426 21.9616 0 47.9189 0H94.9189V47C94.9189 72.9574 73.8763 94 47.9189 94C21.9616 94 0.918945 72.9574 0.918945 47Z" stroke="#AA2AE1"/>
<path d="M51.0765 40.944C50.9058 40.1547 50.6071 39.568 50.1805 39.184C49.7538 38.7787 49.1458 38.576 48.3565 38.576C47.1405 38.576 46.2658 39.1093 45.7325 40.176C45.1991 41.2213 44.9218 42.8853 44.9005 45.168C45.3698 44.4213 46.0418 43.8347 46.9165 43.408C47.8125 42.9813 48.7938 42.768 49.8605 42.768C51.9511 42.768 53.6258 43.4293 54.8845 44.752C56.1645 46.0747 56.8045 47.92 56.8045 50.288C56.8045 51.8453 56.4845 53.2107 55.8445 54.384C55.2258 55.5573 54.3085 56.4747 53.0925 57.136C51.8978 57.7973 50.4791 58.128 48.8365 58.128C45.5511 58.128 43.2685 57.104 41.9885 55.056C40.7085 52.9867 40.0685 50.0213 40.0685 46.16C40.0685 42.1067 40.7405 39.0987 42.0845 37.136C43.4498 35.152 45.6258 34.16 48.6125 34.16C50.2125 34.16 51.5565 34.48 52.6445 35.12C53.7538 35.7387 54.5858 36.56 55.1405 37.584C55.7165 38.608 56.0578 39.728 56.1645 40.944H51.0765ZM48.5485 47.088C47.6311 47.088 46.8631 47.3653 46.2445 47.92C45.6471 48.4533 45.3485 49.2213 45.3485 50.224C45.3485 51.248 45.6258 52.048 46.1805 52.624C46.7565 53.2 47.5671 53.488 48.6125 53.488C49.5511 53.488 50.2871 53.2107 50.8205 52.656C51.3751 52.08 51.6525 51.3013 51.6525 50.32C51.6525 49.3173 51.3858 48.528 50.8525 47.952C50.3191 47.376 49.5511 47.088 48.5485 47.088Z" fill="white"/>
</svg>
