<svg width="133" height="133" viewBox="0 0 133 133" fill="none" xmlns="http://www.w3.org/2000/svg">
<path d="M33.764 100.224C52.4114 118.281 82.1663 117.802 100.223 99.1548C108.465 90.644 127.919 66.5 127.919 66.5C127.919 66.5 109.291 42.5111 99.1547 32.6953C80.5073 14.6382 50.7524 15.1167 32.6953 33.7641C14.6381 52.4115 15.1166 82.1664 33.764 100.224Z" fill="#04B1E8"/>
<path d="M33.764 100.224C52.4114 118.281 82.1663 117.802 100.223 99.1548C108.465 90.644 127.919 66.5 127.919 66.5C127.919 66.5 109.291 42.5111 99.1547 32.6953C80.5073 14.6382 50.7524 15.1167 32.6953 33.7641C14.6381 52.4115 15.1166 82.1664 33.764 100.224Z" stroke="#AA2AE1"/>
<path d="M71.9944 59.8675H62.0104V64.2835C62.4371 63.8141 63.0344 63.4301 63.8024 63.1315C64.5704 62.8328 65.4024 62.6835 66.2984 62.6835C67.8984 62.6835 69.2211 63.0461 70.2664 63.7715C71.3331 64.4968 72.1118 65.4355 72.6024 66.5875C73.0931 67.7395 73.3384 68.9875 73.3384 70.3315C73.3384 72.8275 72.6344 74.8115 71.2264 76.2835C69.8184 77.7341 67.8344 78.4595 65.2744 78.4595C63.5678 78.4595 62.0851 78.1715 60.8264 77.5955C59.5678 76.9981 58.5971 76.1768 57.9144 75.1315C57.2318 74.0861 56.8584 72.8808 56.7944 71.5155H62.1384C62.2664 72.1768 62.5758 72.7315 63.0664 73.1795C63.5571 73.6061 64.2291 73.8195 65.0824 73.8195C66.0851 73.8195 66.8318 73.4995 67.3224 72.8595C67.8131 72.2195 68.0584 71.3661 68.0584 70.2995C68.0584 69.2541 67.8024 68.4541 67.2904 67.8995C66.7784 67.3448 66.0318 67.0675 65.0504 67.0675C64.3251 67.0675 63.7278 67.2488 63.2584 67.6115C62.7891 67.9528 62.4798 68.4115 62.3304 68.9875H57.0504V55.0675H71.9944V59.8675Z" fill="white"/>
</svg>
