<svg width="95" height="94" viewBox="0 0 95 94" fill="none" xmlns="http://www.w3.org/2000/svg">
<path d="M0.918945 47C0.918945 72.9574 21.9616 94 47.9189 94H94.9189V47C94.9189 21.0426 73.8763 0 47.9189 0C21.9616 0 0.918945 21.0426 0.918945 47Z" fill="#C3D431"/>
<path d="M0.918945 47C0.918945 72.9574 21.9616 94 47.9189 94H94.9189V47C94.9189 21.0426 73.8763 0 47.9189 0C21.9616 0 0.918945 21.0426 0.918945 47Z" stroke="#AA2AE1"/>
<path d="M38.9118 54.84V50.424L49.0238 35.96H55.1358V50.104H57.7598V54.84H55.1358V59H49.6638V54.84H38.9118ZM50.0478 41.976L44.6718 50.104H50.0478V41.976Z" fill="white"/>
</svg>
