<svg width="533" height="535" viewBox="0 0 533 535" fill="none" xmlns="http://www.w3.org/2000/svg">
<g clip-path="url(#clip0_234_382)">
<mask id="mask0_234_382" style="mask-type:luminance" maskUnits="userSpaceOnUse" x="-29" y="-73" width="586" height="586">
<path d="M556.626 -72.6035H-28.3511V512.91H556.626V-72.6035Z" fill="white"/>
</mask>
<g mask="url(#mask0_234_382)">
<path d="M503.814 332.923H436.249L437.454 328.333H502.621L503.814 332.923Z" fill="#FFD68E"/>
<path d="M502.621 343.134H437.454L436.249 338.532H503.814L502.621 343.134Z" fill="#FF9746"/>
<path d="M504.867 330.522H435.208V340.933H504.867V330.522Z" fill="#FFBD4A"/>
<path d="M504.996 304.151H437.431L438.625 299.549H503.803L504.996 304.151Z" fill="#FFD68E"/>
<path d="M503.803 314.35H438.625L437.431 309.76H504.996L503.803 314.35Z" fill="#FF9746"/>
<path d="M506.037 301.75H436.378V312.16H506.037V301.75Z" fill="#FFBD4A"/>
<path d="M499.73 289.841H432.166L433.359 285.25H498.537L499.73 289.841Z" fill="#FFD68E"/>
<path d="M498.537 300.052H433.359L432.166 295.45H499.73L498.537 300.052Z" fill="#FF9746"/>
<path d="M500.784 287.44H431.125V297.851H500.784V287.44Z" fill="#FFBD4A"/>
<path d="M503.346 275.238H435.781L436.986 270.648H502.152L503.346 275.238Z" fill="#FFD68E"/>
<path d="M502.152 285.45H436.986L435.781 280.847H503.346L502.152 285.45Z" fill="#FF9746"/>
<path d="M504.399 272.838H434.74V283.248H504.399V272.838Z" fill="#FFBD4A"/>
<path d="M496.724 260.437H429.159L430.353 255.846H495.519L496.724 260.437Z" fill="#FFD68E"/>
<path d="M495.519 270.648H430.353L429.159 266.046H496.724L495.519 270.648Z" fill="#FF9746"/>
<path d="M497.765 258.036H428.106V268.446H497.765V258.036Z" fill="#FFBD4A"/>
<path d="M499.73 245.635H432.166L433.359 241.044H498.537L499.73 245.635Z" fill="#FFD68E"/>
<path d="M498.537 255.846H433.359L432.166 251.244H499.73L498.537 255.846Z" fill="#FF9746"/>
<path d="M500.784 243.234H431.125V253.644H500.784V243.234Z" fill="#FFBD4A"/>
<path d="M497.765 230.833H430.188L431.394 226.242H496.56L497.765 230.833Z" fill="#FFD68E"/>
<path d="M496.56 241.044H431.394L430.188 236.442H497.765L496.56 241.044Z" fill="#FF9746"/>
<path d="M498.806 228.432H429.147V238.843H498.806V228.432Z" fill="#FFBD4A"/>
<path d="M495.074 216.031H427.509L428.703 211.441H493.881L495.074 216.031Z" fill="#FFD68E"/>
<path d="M493.881 226.242H428.703L427.509 221.64H495.074L493.881 226.242Z" fill="#FF9746"/>
<path d="M496.127 213.63H426.468V224.041H496.127V213.63Z" fill="#FFBD4A"/>
<path d="M501.146 201.229H433.57L434.775 196.639H499.941L501.146 201.229Z" fill="#FFD68E"/>
<path d="M499.941 211.441H434.775L433.57 206.838H501.146L499.941 211.441Z" fill="#FF9746"/>
<path d="M502.188 198.829H432.529V209.239H502.188V198.829Z" fill="#FFBD4A"/>
<path d="M498.69 318.601H431.125L432.318 314.011H497.485L498.69 318.601Z" fill="#FFD68E"/>
<path d="M497.485 328.813H432.318L431.125 324.21H498.69L497.485 328.813Z" fill="#FF9746"/>
<path d="M499.731 316.201H430.072V326.611H499.731V316.201Z" fill="#FFBD4A"/>
<g style="mix-blend-mode:multiply" opacity="0.6">
<path d="M254.707 36.1301L246.389 29.7012L238.082 36.1301L229.776 29.7012L221.469 36.1301L213.162 29.7012L204.856 36.1301L196.549 29.7012L188.242 36.1301L179.936 29.7012L171.629 36.1301L163.322 29.7012L155.016 36.1301L146.709 29.7012L138.402 36.1301L130.096 29.7012V44.1633V53.5784V81.0624V152.507V179.991V189.406V203.868L138.402 197.72L146.709 203.868L155.016 197.72L163.322 203.868L171.629 197.72L179.936 203.868L188.242 197.72L196.549 203.868L204.856 197.72L213.162 203.868L221.469 197.72L229.776 203.868L238.082 197.72L246.389 203.868L254.707 197.72L263.026 203.868V189.406V179.991V152.507V81.0624V53.5784V44.1633V29.7012L254.707 36.1301Z" fill="#C0E9FD"/>
</g>
<path d="M251.443 36.0483L243.137 29.6194L234.83 36.0483L226.512 29.6194L218.205 36.0483L209.898 29.6194L201.592 36.0483L193.285 29.6194L184.978 36.0483L176.672 29.6194L168.365 36.0483L160.058 29.6194L151.752 36.0483L143.445 29.6194L135.138 36.0483L126.832 29.6194V44.0816V53.4966V80.9806V152.425V179.909V189.324V203.786L135.138 197.638L143.445 203.786L151.752 197.638L160.058 203.786L168.365 197.638L176.672 203.786L184.978 197.638L193.285 203.786L201.592 197.638L209.898 203.786L218.205 197.638L226.512 203.786L234.83 197.638L243.137 203.786L251.443 197.638L259.762 203.786V189.324V179.909V152.425V80.9806V53.4966V44.0816V29.6194L251.443 36.0483Z" fill="url(#paint0_linear_234_382)"/>
<path style="mix-blend-mode:multiply" opacity="0.7" d="M244.003 80.149H142.146C139.491 80.149 137.338 77.9943 137.338 75.3361C137.338 72.6779 139.491 70.5232 142.146 70.5232H244.003C246.658 70.5232 248.811 72.6779 248.811 75.3361C248.811 77.9943 246.658 80.149 244.003 80.149ZM248.811 94.2365C248.811 91.5782 246.658 89.4236 244.003 89.4236H142.146C139.491 89.4236 137.338 91.5782 137.338 94.2365C137.338 96.8947 139.491 99.0494 142.146 99.0494H244.003C246.658 99.0494 248.811 96.8947 248.811 94.2365ZM248.811 113.137C248.811 110.479 246.658 108.324 244.003 108.324H142.146C139.491 108.324 137.338 110.479 137.338 113.137C137.338 115.795 139.491 117.95 142.146 117.95H244.003C246.658 117.95 248.811 115.795 248.811 113.137ZM248.811 132.037C248.811 129.379 246.658 127.224 244.003 127.224H142.146C139.491 127.224 137.338 129.379 137.338 132.037C137.338 134.695 139.491 136.85 142.146 136.85H244.003C246.658 136.85 248.811 134.695 248.811 132.037ZM216.661 151.511V150.375C216.661 148.033 214.765 146.125 212.414 146.125H141.573C139.233 146.125 137.326 148.022 137.326 150.375V151.511C137.326 153.853 139.222 155.762 141.573 155.762H212.414C214.754 155.762 216.661 153.865 216.661 151.511Z" fill="url(#paint1_linear_234_382)"/>
<g opacity="0.8">
<g style="mix-blend-mode:multiply" opacity="0.3">
<path d="M233.73 321.002C233.73 322.91 186.382 324.468 127.978 324.468C69.5741 324.468 22.2261 322.91 22.2261 321.002C22.2261 319.093 69.5741 317.535 127.978 317.535C186.382 317.535 233.73 319.093 233.73 321.002Z" fill="#A1BAD0"/>
</g>
<g style="mix-blend-mode:multiply" opacity="0.4">
<path d="M204.634 321.002C204.634 322.383 170.319 323.519 127.99 323.519C85.6609 323.519 51.3462 322.395 51.3462 321.002C51.3462 319.608 85.6609 318.484 127.99 318.484C170.319 318.484 204.634 319.608 204.634 321.002Z" fill="#A1BAD0"/>
</g>
</g>
<path d="M35.6221 153.369H220.334C223.435 153.369 225.95 155.887 225.95 158.99V315.334C225.95 318.437 223.435 320.955 220.334 320.955H35.6221C32.5217 320.955 30.0063 318.437 30.0063 315.334V158.99C30.0063 155.887 32.5217 153.369 35.6221 153.369Z" fill="white"/>
<path d="M225.95 157.889V185.971H30.0063V157.889C30.0063 154.775 32.51 152.269 35.6221 152.269H220.334C223.447 152.269 225.95 154.775 225.95 157.889Z" fill="#AA2AE1"/>
<path opacity="0.2" d="M162.843 202.751H146.358C145.085 202.751 144.053 203.784 144.053 205.058V221.558C144.053 222.832 145.085 223.865 146.358 223.865H162.843C164.116 223.865 165.147 222.832 165.147 221.558V205.058C165.147 203.784 164.116 202.751 162.843 202.751Z" fill="#A1BAD0"/>
<path opacity="0.2" d="M188.757 202.751H172.273C171 202.751 169.968 203.784 169.968 205.058V221.558C169.968 222.832 171 223.865 172.273 223.865H188.757C190.03 223.865 191.062 222.832 191.062 221.558V205.058C191.062 203.784 190.03 202.751 188.757 202.751Z" fill="#A1BAD0"/>
<path opacity="0.2" d="M214.66 202.751H198.175C196.903 202.751 195.871 203.784 195.871 205.058V221.558C195.871 222.832 196.903 223.865 198.175 223.865H214.66C215.933 223.865 216.965 222.832 216.965 221.558V205.058C216.965 203.784 215.933 202.751 214.66 202.751Z" fill="#A1BAD0"/>
<path opacity="0.2" d="M59.2318 230.692H42.7472C41.4743 230.692 40.4424 231.725 40.4424 232.999V249.499C40.4424 250.773 41.4743 251.806 42.7472 251.806H59.2318C60.5048 251.806 61.5367 250.773 61.5367 249.499V232.999C61.5367 231.725 60.5048 230.692 59.2318 230.692Z" fill="#A1BAD0"/>
<path opacity="0.2" d="M85.1347 230.692H68.65C67.3771 230.692 66.3452 231.725 66.3452 232.999V249.499C66.3452 250.773 67.3771 251.806 68.65 251.806H85.1347C86.4076 251.806 87.4395 250.773 87.4395 249.499V232.999C87.4395 231.725 86.4076 230.692 85.1347 230.692Z" fill="#A1BAD0"/>
<path opacity="0.2" d="M111.038 230.692H94.5529C93.2799 230.692 92.248 231.725 92.248 232.999V249.499C92.248 250.773 93.2799 251.806 94.5529 251.806H111.038C112.31 251.806 113.342 250.773 113.342 249.499V232.999C113.342 231.725 112.31 230.692 111.038 230.692Z" fill="#A1BAD0"/>
<path opacity="0.2" d="M136.94 230.692H120.456C119.183 230.692 118.151 231.725 118.151 232.999V249.499C118.151 250.773 119.183 251.806 120.456 251.806H136.94C138.213 251.806 139.245 250.773 139.245 249.499V232.999C139.245 231.725 138.213 230.692 136.94 230.692Z" fill="#A1BAD0"/>
<path opacity="0.2" d="M162.843 230.692H146.358C145.085 230.692 144.053 231.725 144.053 232.999V249.499C144.053 250.773 145.085 251.806 146.358 251.806H162.843C164.116 251.806 165.147 250.773 165.147 249.499V232.999C165.147 231.725 164.116 230.692 162.843 230.692Z" fill="#A1BAD0"/>
<path opacity="0.2" d="M188.758 230.692H172.273C171 230.692 169.968 231.725 169.968 232.999V249.499C169.968 250.773 171 251.806 172.273 251.806H188.758C190.031 251.806 191.063 250.773 191.063 249.499V232.999C191.063 231.725 190.031 230.692 188.758 230.692Z" fill="#A1BAD0"/>
<path opacity="0.2" d="M214.66 230.692H198.175C196.903 230.692 195.871 231.725 195.871 232.999V249.499C195.871 250.773 196.903 251.806 198.175 251.806H214.66C215.933 251.806 216.965 250.773 216.965 249.499V232.999C216.965 231.725 215.933 230.692 214.66 230.692Z" fill="#A1BAD0"/>
<path opacity="0.2" d="M59.2318 258.621H42.7472C41.4743 258.621 40.4424 259.654 40.4424 260.928V277.428C40.4424 278.702 41.4743 279.735 42.7472 279.735H59.2318C60.5048 279.735 61.5367 278.702 61.5367 277.428V260.928C61.5367 259.654 60.5048 258.621 59.2318 258.621Z" fill="#A1BAD0"/>
<path d="M85.1347 258.621H68.65C67.3771 258.621 66.3452 259.654 66.3452 260.928V277.428C66.3452 278.702 67.3771 279.735 68.65 279.735H85.1347C86.4076 279.735 87.4395 278.702 87.4395 277.428V260.928C87.4395 259.654 86.4076 258.621 85.1347 258.621Z" fill="#FFCC73"/>
<path opacity="0.2" d="M111.038 258.621H94.5529C93.2799 258.621 92.248 259.654 92.248 260.928V277.428C92.248 278.702 93.2799 279.735 94.5529 279.735H111.038C112.31 279.735 113.342 278.702 113.342 277.428V260.928C113.342 259.654 112.31 258.621 111.038 258.621Z" fill="#A1BAD0"/>
<path opacity="0.2" d="M136.94 258.621H120.456C119.183 258.621 118.151 259.654 118.151 260.928V277.428C118.151 278.702 119.183 279.735 120.456 279.735H136.94C138.213 279.735 139.245 278.702 139.245 277.428V260.928C139.245 259.654 138.213 258.621 136.94 258.621Z" fill="#A1BAD0"/>
<path opacity="0.2" d="M162.843 258.621H146.358C145.085 258.621 144.053 259.654 144.053 260.928V277.428C144.053 278.702 145.085 279.735 146.358 279.735H162.843C164.116 279.735 165.147 278.702 165.147 277.428V260.928C165.147 259.654 164.116 258.621 162.843 258.621Z" fill="#A1BAD0"/>
<path opacity="0.2" d="M188.758 258.621H172.273C171 258.621 169.968 259.654 169.968 260.928V277.428C169.968 278.702 171 279.735 172.273 279.735H188.758C190.031 279.735 191.063 278.702 191.063 277.428V260.928C191.063 259.654 190.031 258.621 188.758 258.621Z" fill="#A1BAD0"/>
<path opacity="0.2" d="M214.66 258.621H198.175C196.903 258.621 195.871 259.654 195.871 260.928V277.428C195.871 278.702 196.903 279.735 198.175 279.735H214.66C215.933 279.735 216.965 278.702 216.965 277.428V260.928C216.965 259.654 215.933 258.621 214.66 258.621Z" fill="#A1BAD0"/>
<path opacity="0.2" d="M59.2318 286.562H42.7472C41.4743 286.562 40.4424 287.595 40.4424 288.869V305.369C40.4424 306.643 41.4743 307.676 42.7472 307.676H59.2318C60.5048 307.676 61.5367 306.643 61.5367 305.369V288.869C61.5367 287.595 60.5048 286.562 59.2318 286.562Z" fill="#A1BAD0"/>
<path opacity="0.2" d="M85.1347 286.562H68.65C67.3771 286.562 66.3452 287.595 66.3452 288.869V305.369C66.3452 306.643 67.3771 307.676 68.65 307.676H85.1347C86.4076 307.676 87.4395 306.643 87.4395 305.369V288.869C87.4395 287.595 86.4076 286.562 85.1347 286.562Z" fill="#A1BAD0"/>
<path opacity="0.2" d="M111.038 286.562H94.5529C93.2799 286.562 92.248 287.595 92.248 288.869V305.369C92.248 306.643 93.2799 307.676 94.5529 307.676H111.038C112.31 307.676 113.342 306.643 113.342 305.369V288.869C113.342 287.595 112.31 286.562 111.038 286.562Z" fill="#A1BAD0"/>
<path style="mix-blend-mode:multiply" opacity="0.5" d="M220.334 320.756H35.6221C32.51 320.756 30.0063 323.121 30.0063 326.061V473.458C30.0063 476.385 32.51 478.762 35.6221 478.762H220.334C223.447 478.762 225.95 476.397 225.95 473.458V326.061C225.95 323.133 223.447 320.756 220.334 320.756Z" fill="url(#paint2_linear_234_382)"/>
<path d="M463.217 129.633V83.5645H293.176V129.633C293.176 165.314 315.112 195.854 346.221 208.501C348.035 209.239 348.035 211.827 346.221 212.565C315.112 225.212 293.176 255.752 293.176 291.433V337.501H463.217V291.433C463.217 255.752 441.28 225.212 410.171 212.565C408.358 211.827 408.358 209.239 410.171 208.501C441.28 195.854 463.217 165.314 463.217 129.633Z" fill="#CFE2F0"/>
<path style="mix-blend-mode:screen" opacity="0.6" d="M302.84 327.841V291.434C302.84 260.577 321.29 233.14 349.86 221.523C354.341 219.696 357.243 215.387 357.243 210.527C357.243 205.668 354.341 201.358 349.86 199.531C321.302 187.915 302.84 160.478 302.84 129.621V89.2793H453.553V129.621C453.553 160.478 435.103 187.915 406.533 199.531C402.052 201.358 399.15 205.668 399.15 210.527C399.15 215.387 402.052 219.696 406.533 221.523C435.091 233.14 453.553 260.577 453.553 291.434V327.841H302.84Z" fill="url(#paint3_linear_234_382)"/>
<path d="M446.814 147.362C441.327 168.815 426.059 186.732 404.836 195.362C402.426 196.346 400.344 197.845 398.694 199.718C393.488 205.644 386.129 209.251 378.255 209.251H378.126C372.861 209.251 367.831 207.635 363.525 204.801C361.384 203.395 359.407 201.686 357.687 199.718C356.049 197.845 353.967 196.346 351.545 195.362C330.334 186.732 315.054 168.803 309.567 147.362H446.814Z" fill="#FFB86E"/>
<path d="M415.576 170.138C421.426 163.428 426.048 155.723 429.206 147.362H309.579C315.054 168.815 330.334 186.732 351.557 195.362C353.967 196.346 356.049 197.845 357.699 199.718C359.43 201.686 361.396 203.395 363.537 204.801C370.089 203.641 376.067 200.163 380.56 195.058C382.303 193.067 384.514 191.474 387.088 190.432C396.951 186.427 405.608 180.525 412.71 173.253C412.921 174.319 413.728 175.256 415.132 175.256C418.291 175.256 418.443 170.595 415.576 170.138Z" fill="#FFCC73"/>
<path d="M447.481 324.386H308.9C308.9 306.586 321.875 292.159 337.868 292.159H418.513C426.515 292.159 433.757 295.766 438.999 301.598C444.24 307.429 447.481 315.486 447.481 324.386Z" fill="#FFB86E"/>
<path d="M425.088 324.386H308.912C308.912 306.586 321.886 292.159 337.88 292.159H396.132C404.134 292.159 411.365 295.766 416.606 301.598C421.847 307.429 425.088 315.486 425.088 324.386Z" fill="#FFCC73"/>
<path d="M470.658 74.1025H285.735V89.2908H470.658V74.1025Z" fill="#4F6490"/>
<path d="M470.658 74.1025H285.735V89.2908H470.658V74.1025Z" fill="#AA2AE1" style="mix-blend-mode:color"/>
<path d="M473.817 61.0222H282.588V83.5645H473.817V61.0222Z" fill="#687AA0"/>
<path d="M473.817 61.0222H282.588V83.5645H473.817V61.0222Z" fill="#AA2AE1" style="mix-blend-mode:color"/>
<g style="mix-blend-mode:screen" opacity="0.2">
<path d="M282.588 83.5645L378.197 83.5645V61.0222L282.588 61.0222V83.5645Z" fill="#687AA0"/>
</g>
<g style="mix-blend-mode:screen" opacity="0.5">
<path d="M473.817 61.0222H282.588V66.3738H473.817V61.0222Z" fill="#687AA0"/>
</g>
<path d="M470.658 327.688H285.735V342.876H470.658V327.688Z" fill="#4F6490"/>
<path d="M473.817 333.415H282.588V356.332H473.817V333.415Z" fill="#687AA0"/>
<g style="mix-blend-mode:screen" opacity="0.2">
<path d="M282.588 356.332H378.197V333.415H282.588V356.332Z" fill="#687AA0"/>
</g>
<g style="mix-blend-mode:screen" opacity="0.5">
<path d="M473.817 333.415H282.588V338.86H473.817V333.415Z" fill="#687AA0"/>
</g>
<path d="M446.814 147.362C446.814 149.001 416.091 150.325 378.196 150.325C340.302 150.325 309.579 149.001 309.579 147.362C309.579 145.722 340.302 144.399 378.196 144.399C416.091 144.399 446.814 145.722 446.814 147.362Z" fill="#FFEA81"/>
<path d="M330.099 166.18C326.788 166.18 326.777 171.333 330.099 171.333C333.422 171.333 333.422 166.18 330.099 166.18Z" fill="#FFB86E"/>
<path d="M337.353 174.389C334.042 174.389 334.031 179.542 337.353 179.542C340.676 179.542 340.676 174.389 337.353 174.389Z" fill="#FFB86E"/>
<path d="M339.261 167.328C335.95 167.328 335.938 172.481 339.261 172.481C342.583 172.481 342.583 167.328 339.261 167.328Z" fill="#FFB86E"/>
<path d="M332.685 312.5C329.374 312.5 329.363 317.653 332.685 317.653C336.008 317.653 336.008 312.5 332.685 312.5Z" fill="#FFB86E"/>
<path d="M335.54 304.479C332.229 304.479 332.217 309.631 335.54 309.631C338.863 309.631 338.863 304.479 335.54 304.479Z" fill="#FFB86E"/>
<path d="M322.951 312.5C319.64 312.5 319.628 317.653 322.951 317.653C326.274 317.653 326.274 312.5 322.951 312.5Z" fill="#FFB86E"/>
<path d="M418.841 314.795C415.53 314.795 415.518 319.948 418.841 319.948C422.163 319.948 422.163 314.795 418.841 314.795Z" fill="#FFB86E"/>
<path d="M405.386 304.186C402.075 304.186 402.063 309.339 405.386 309.339C408.709 309.339 408.709 304.186 405.386 304.186Z" fill="#FFB86E"/>
<path d="M429.148 303.905C425.837 303.905 425.825 309.057 429.148 309.057C432.47 309.057 432.47 303.905 429.148 303.905Z" fill="#FFCC73"/>
<path d="M426.001 167.234C422.69 167.234 422.678 172.387 426.001 172.387C429.323 172.387 429.323 167.234 426.001 167.234Z" fill="#FFCC73"/>
<path d="M412.265 179.834C408.954 179.834 408.943 184.987 412.265 184.987C415.588 184.987 415.588 179.834 412.265 179.834Z" fill="#FFCC73"/>
<path d="M400.239 186.135C396.928 186.135 396.916 191.287 400.239 191.287C403.561 191.287 403.561 186.135 400.239 186.135Z" fill="#FFCC73"/>
<path style="mix-blend-mode:screen" opacity="0.8" d="M314.364 99.0337C314.364 99.0337 304.688 169.811 355.874 186.135C334.873 147.362 344.713 99.0337 344.713 99.0337H314.364Z" fill="url(#paint4_radial_234_382)"/>
<path style="mix-blend-mode:screen" opacity="0.8" d="M314.364 324.503C314.364 324.503 304.688 248.105 355.874 230.469C334.873 272.334 344.713 324.503 344.713 324.503H314.364Z" fill="url(#paint5_radial_234_382)"/>
<path style="mix-blend-mode:multiply" opacity="0.5" d="M282.588 356.332V379.248H285.735V384.975H293.176V421.218C293.176 456.899 315.113 487.44 346.222 500.087C348.035 500.824 348.035 503.412 346.222 504.15C315.113 516.797 293.176 547.338 293.176 583.019V623.361H285.735V629.087H282.588V651.629H473.817V629.087H470.67V623.361H463.229V583.019C463.229 547.338 441.292 516.797 410.183 504.15C408.37 503.412 408.37 500.824 410.183 500.087C441.292 487.44 463.229 456.899 463.229 421.218V384.975H470.67V379.248H473.817V356.332H282.588Z" fill="url(#paint6_linear_234_382)"/>
<path style="mix-blend-mode:multiply" opacity="0.3" d="M497.497 358.381C497.497 362.163 441.713 365.231 372.896 365.231C304.08 365.231 248.296 362.163 248.296 358.381C248.296 354.598 304.08 351.53 372.896 351.53C441.713 351.53 497.497 354.598 497.497 358.381Z" fill="url(#paint7_linear_234_382)"/>
<path style="mix-blend-mode:multiply" opacity="0.4" d="M463.205 358.381C463.205 361.121 422.771 363.346 372.896 363.346C323.021 363.346 282.587 361.121 282.587 358.381C282.587 355.641 323.021 353.416 372.896 353.416C422.771 353.416 463.205 355.641 463.205 358.381Z" fill="url(#paint8_linear_234_382)"/>
<path style="mix-blend-mode:multiply" opacity="0.5" d="M359.699 494.583C359.524 433.221 309.777 383.535 248.436 383.535C187.096 383.535 137.349 433.221 137.174 494.583C137.174 494.688 137.174 494.794 137.174 494.911C137.174 556.425 186.99 606.287 248.448 606.287C309.906 606.287 359.723 556.425 359.723 494.911C359.723 494.806 359.723 494.688 359.723 494.583H359.699Z" fill="url(#paint9_linear_234_382)"/>
<g opacity="0.8">
<g style="mix-blend-mode:multiply" opacity="0.3">
<path d="M248.425 389.718C293.235 389.718 329.561 387.841 329.561 385.525C329.561 383.21 293.235 381.333 248.425 381.333C203.615 381.333 167.289 383.21 167.289 385.525C167.289 387.841 203.615 389.718 248.425 389.718Z" fill="#A1BAD0"/>
</g>
<g style="mix-blend-mode:multiply" opacity="0.4">
<path d="M307.238 385.525C307.238 387.2 280.903 388.558 248.425 388.558C215.947 388.558 189.611 387.2 189.611 385.525C189.611 383.851 215.947 382.492 248.425 382.492C280.903 382.492 307.238 383.851 307.238 385.525Z" fill="#A1BAD0"/>
</g>
</g>
<path d="M248.425 385.877C309.88 385.877 359.699 336.012 359.699 274.5C359.699 212.989 309.88 163.124 248.425 163.124C186.97 163.124 137.15 212.989 137.15 274.5C137.15 336.012 186.97 385.877 248.425 385.877Z" fill="#8BB0CA"/>
<path d="M248.425 385.877C309.88 385.877 359.699 336.012 359.699 274.5C359.699 212.989 309.88 163.124 248.425 163.124C186.97 163.124 137.15 212.989 137.15 274.5C137.15 336.012 186.97 385.877 248.425 385.877Z" fill="#AA2AE1" style="mix-blend-mode:color"/>
<g style="mix-blend-mode:multiply" opacity="0.3">
<path d="M248.425 374.623C303.67 374.623 348.456 329.796 348.456 274.5C348.456 219.204 303.67 174.377 248.425 174.377C193.179 174.377 148.394 219.204 148.394 274.5C148.394 329.796 193.179 374.623 248.425 374.623Z" fill="#A9C4DB"/>
</g>
<path style="mix-blend-mode:screen" d="M359.699 274.5C359.699 275.613 359.676 276.714 359.641 277.803C357.897 217.834 308.771 167.316 248.425 167.316C188.078 167.316 138.952 217.823 137.209 277.803C137.174 276.702 137.15 275.601 137.15 274.5C137.15 212.986 186.967 163.124 248.425 163.124C309.882 163.124 359.699 212.986 359.699 274.5Z" fill="url(#paint10_linear_234_382)"/>
<path d="M248.424 369.658C300.93 369.658 343.495 327.054 343.495 274.5C343.495 221.946 300.93 179.343 248.424 179.343C195.919 179.343 153.354 221.946 153.354 274.5C153.354 327.054 195.919 369.658 248.424 369.658Z" fill="white"/>
<path opacity="0.5" d="M259.562 269.711L260.311 201.979C297.153 202.389 327.233 232.835 327.233 269.711C327.233 286.211 321.207 302.148 310.315 314.514L259.562 269.711Z" fill="#FFCC73"/>
<path opacity="0.7" d="M259.562 269.711L260.311 201.979C273.122 202.119 285.629 205.902 296.369 212.869C307.109 219.837 315.662 229.732 321.02 241.372L259.551 269.711H259.562Z" fill="#FFCC73"/>
<g style="mix-blend-mode:multiply" opacity="0.4">
<path d="M343.495 274.5C343.495 276.725 343.425 278.939 343.261 281.117C339.868 231.664 298.697 192.599 248.424 192.599C198.152 192.599 156.981 231.664 153.588 281.117C153.436 278.927 153.354 276.725 153.354 274.5C153.354 273.142 153.389 271.784 153.448 270.425C155.565 219.767 197.274 179.343 248.413 179.343C299.551 179.343 341.26 219.755 343.378 270.425C343.436 271.784 343.471 273.13 343.471 274.5H343.495Z" fill="#CADBE9"/>
</g>
<g style="mix-blend-mode:multiply" opacity="0.4">
<path d="M343.401 270.425C343.366 271.221 343.32 271.994 343.261 272.791C339.868 223.338 298.698 184.261 248.425 184.261C198.152 184.261 156.981 223.338 153.588 272.791C153.541 271.994 153.483 271.221 153.448 270.425C155.565 219.767 197.274 179.343 248.413 179.343C299.552 179.343 341.26 219.755 343.378 270.425H343.401Z" fill="#CADBE9"/>
</g>
<path d="M248.425 282.053C252.592 282.053 255.971 278.672 255.971 274.5C255.971 270.329 252.592 266.947 248.425 266.947C244.257 266.947 240.878 270.329 240.878 274.5C240.878 278.672 244.257 282.053 248.425 282.053Z" fill="#7C909A"/>
<path d="M248.425 272.111C246.693 272.111 245.289 270.706 245.289 268.973V212.307C245.289 210.574 246.693 209.169 248.425 209.169C250.156 209.169 251.56 210.574 251.56 212.307V268.973C251.56 270.706 250.156 272.111 248.425 272.111Z" fill="#7C909A"/>
<path d="M250.203 276.081C251.35 274.781 253.338 274.676 254.637 275.823L296.931 313.507C298.23 314.655 298.335 316.645 297.188 317.945C296.042 319.245 294.053 319.35 292.754 318.203L250.46 280.519C249.162 279.372 249.056 277.381 250.203 276.081Z" fill="#7C909A"/>
<path d="M125.907 367.328H58.3423L59.5473 362.737H124.714L125.907 367.328Z" fill="#FFD68E"/>
<path d="M124.714 377.539H59.5473L58.3423 372.949H125.907L124.714 377.539Z" fill="#FF9746"/>
<path d="M126.96 364.939H57.3013V375.349H126.96V364.939Z" fill="#FFBD4A"/>
<path d="M127.089 338.555H59.5239L60.7173 333.965H125.895L127.089 338.555Z" fill="#FFD68E"/>
<path d="M125.895 348.767H60.7173L59.5239 344.177H127.089L125.895 348.767Z" fill="#FF9746"/>
<path d="M128.142 336.155H58.4829V346.565H128.142V336.155Z" fill="#FFBD4A"/>
<path d="M121.824 324.257H54.2593L55.4643 319.655H120.631L121.824 324.257Z" fill="#FFD68E"/>
<path d="M120.631 334.457H55.4643L54.2593 329.867H121.824L120.631 334.457Z" fill="#FF9746"/>
<path d="M122.877 321.857H53.2183V332.267H122.877V321.857Z" fill="#FFBD4A"/>
<path d="M125.451 309.655H57.874L59.0791 305.052H124.245L125.451 309.655Z" fill="#FFD68E"/>
<path d="M124.245 319.854H59.0791L57.874 315.264H125.451L124.245 319.854Z" fill="#FF9746"/>
<path d="M126.492 307.254H56.833V317.664H126.492V307.254Z" fill="#FFBD4A"/>
<path d="M120.783 353.006H53.2183L54.4116 348.416H119.59L120.783 353.006Z" fill="#FFD68E"/>
<path d="M119.59 363.217H54.4116L53.2183 358.627H120.783L119.59 363.217Z" fill="#FF9746"/>
<path d="M121.824 350.617H52.165V361.027H121.824V350.617Z" fill="#FFBD4A"/>
<path style="mix-blend-mode:multiply" opacity="0.5" d="M125.896 421.113L126.469 418.923H128.142V408.513H126.469L125.896 406.311H119.671L120.151 404.473H121.824V394.062H120.151L119.706 392.341H124.714L125.287 390.151H126.96V379.741H125.287L124.714 377.539H59.5474L58.9742 379.741H57.3011V390.151H58.9742L59.4187 391.861H54.4113L53.8381 394.062H52.165V404.473H53.8381L54.4113 406.662H60.6355L60.1441 408.513H58.4828V418.923H60.1441L60.5887 420.621H55.4643L54.891 422.811H53.218V433.233H54.891L55.4643 435.423H59.021L58.5062 437.414H56.8332V447.836H58.5062L59.0795 450.026H124.246L124.819 447.836H126.492V437.414H124.819L124.246 435.224H120.678L121.204 433.233H122.877V422.811H121.204L120.759 421.113H125.896Z" fill="url(#paint11_linear_234_382)"/>
<g opacity="0.8">
<g style="mix-blend-mode:multiply" opacity="0.3">
<path d="M177.69 400.105C177.69 401.849 163.79 403.255 146.639 403.255C129.487 403.255 115.588 401.838 115.588 400.105C115.588 398.372 129.487 396.955 146.639 396.955C163.79 396.955 177.69 398.372 177.69 400.105Z" fill="#A1BAD0"/>
</g>
<g style="mix-blend-mode:multiply" opacity="0.4">
<path d="M169.149 400.105C169.149 401.37 159.075 402.388 146.651 402.388C134.226 402.388 124.152 401.37 124.152 400.105C124.152 398.84 134.226 397.821 146.651 397.821C159.075 397.821 169.149 398.84 169.149 400.105Z" fill="#A1BAD0"/>
</g>
</g>
<path d="M145.738 399.39C170.395 399.39 190.384 379.384 190.384 354.704C190.384 330.024 170.395 310.018 145.738 310.018C121.081 310.018 101.093 330.024 101.093 354.704C101.093 379.384 121.081 399.39 145.738 399.39Z" fill="#FFCC73"/>
<g style="mix-blend-mode:multiply">
<path d="M145.738 394.214C167.539 394.214 185.213 376.525 185.213 354.704C185.213 332.883 167.539 315.193 145.738 315.193C123.937 315.193 106.264 332.883 106.264 354.704C106.264 376.525 123.937 394.214 145.738 394.214Z" fill="#FFCC73"/>
</g>
<path d="M145.738 389.718C165.058 389.718 180.72 374.041 180.72 354.704C180.72 335.366 165.058 319.69 145.738 319.69C126.418 319.69 110.756 335.366 110.756 354.704C110.756 374.041 126.418 389.718 145.738 389.718Z" fill="#FFCC73"/>
<g style="mix-blend-mode:multiply" opacity="0.6">
<path d="M156.629 383.138C172.333 377.126 180.194 359.511 174.188 343.793C168.182 328.075 150.583 320.207 134.88 326.218C119.176 332.23 111.315 349.845 117.321 365.563C123.327 381.28 140.926 389.149 156.629 383.138Z" fill="#FFCC73"/>
</g>
<path d="M145.738 381.579C160.567 381.579 172.589 369.547 172.589 354.704C172.589 339.861 160.567 327.829 145.738 327.829C130.909 327.829 118.888 339.861 118.888 354.704C118.888 369.547 130.909 381.579 145.738 381.579Z" fill="#FFCC73"/>
<path d="M309.028 319.655H458.396C460.643 319.655 462.468 321.482 462.468 323.73V416.839C462.468 419.087 460.643 420.914 458.396 420.914H309.028C306.782 420.914 304.957 419.087 304.957 416.839V323.73C304.957 321.482 306.782 319.655 309.028 319.655Z" fill="#AA2AE1"/>
<path d="M462.48 337.677H304.957V358.756H462.48V337.677Z" fill="#004571"/>
<g style="mix-blend-mode:screen" opacity="0.5">
<path d="M446.755 380.713H406.661C402.847 380.713 399.77 377.621 399.77 373.815C399.77 369.998 402.859 366.918 406.661 366.918H446.755C450.569 366.918 453.646 370.009 453.646 373.815C453.646 377.633 450.558 380.713 446.755 380.713Z" fill="#FFBA6F"/>
</g>
<g style="mix-blend-mode:screen" opacity="0.4">
<path d="M346.151 390.783H317.277C315.784 390.783 314.574 391.995 314.574 393.489V407.576C314.574 409.07 315.784 410.281 317.277 410.281H346.151C347.644 410.281 348.854 409.07 348.854 407.576V393.489C348.854 391.995 347.644 390.783 346.151 390.783Z" fill="#FFBA6F"/>
</g>
<path style="mix-blend-mode:multiply" opacity="0.5" d="M458.783 420.926H308.654C306.612 420.926 304.957 422.582 304.957 424.626V500.286C304.957 502.33 306.612 503.986 308.654 503.986H458.783C460.824 503.986 462.48 502.33 462.48 500.286V424.626C462.48 422.582 460.824 420.926 458.783 420.926Z" fill="url(#paint12_linear_234_382)"/>
</g>
<path d="M219.796 388.172L218.462 391.193L222.99 393.207L224.429 389.94L219.796 388.172Z" fill="#E6B491"/>
<path d="M218.884 390.151H218.919C218.966 390.268 219.036 390.397 219.141 390.526C219.913 391.521 221.153 392.024 222.405 391.978L223.54 391.942L226.208 394.062L227.062 393.945C229.425 393.605 231.613 395.549 231.344 397.926C231.344 397.938 231.344 397.962 231.344 397.973L224.441 397.844L215.257 393.769L216.169 391.72C216.637 390.654 217.737 390.022 218.895 390.151H218.884Z" fill="#E16D19"/>
<path d="M231.461 398.957L224.429 398.816L214.602 394.448L215.034 393.477L224.687 397.763L231.461 397.985V398.957Z" fill="#F5ECEA"/>
<path d="M238 334.621L232.42 359.142L218.392 387.715C217.994 388.406 224.324 392.048 224.721 391.357L242.903 364.025C243.055 363.779 243.195 363.498 243.289 363.206L243.464 362.69L251.513 338.38L238.012 334.609L238 334.621Z" fill="#1F3867"/>
<path d="M244.587 287.616C244.587 287.616 246.705 286.234 247.489 284.513C248.273 282.791 248.132 279.782 248.132 279.782C248.132 279.782 246.307 276.655 246.553 273.142C246.799 269.629 250.098 267.017 254.918 268.013C260.276 269.114 260.078 280.18 259.305 281.655C258.685 282.861 255.936 282.147 255.48 281.995C255.023 281.843 254.286 283.623 254.672 285.391C255.07 287.159 255.854 287.85 255.854 287.85L244.576 287.604L244.587 287.616Z" fill="#E6B491"/>
<path d="M244.95 287.112C244.95 287.112 244.775 284.817 246.097 284.384C250.472 282.979 256.1 285.297 256.1 285.297L256.474 287.546L244.95 287.124V287.112Z" fill="#F9EDE5"/>
<path d="M263.669 391.65V394.858H268.478V391.38L263.669 391.65Z" fill="#E6B491"/>
<path d="M263.646 393.758H263.682C263.763 393.828 263.88 393.91 264.033 393.992C265.109 394.566 266.408 394.531 267.507 393.992L268.502 393.512L275.077 395.221C276.656 395.631 277.908 396.837 278.388 398.407H261.856V396.217C261.856 395.093 262.582 394.086 263.658 393.746L263.646 393.758Z" fill="#E16D19"/>
<path d="M278.797 398.418H261.4V399.671H278.797V398.418Z" fill="#F5ECEA"/>
<path d="M213.945 320.245L210.118 326.605L212.674 328.146L216.501 321.786L213.945 320.245Z" fill="#E6B491"/>
<path d="M294.461 269.241L290.148 275.281L292.575 277.018L296.888 270.977L294.461 269.241Z" fill="#E6B491"/>
<path d="M245.36 300.392L240.013 290.321L222.99 300.602L222.581 300.848C222.031 301.188 221.551 301.668 221.224 302.277L209.559 323.601L215.561 327.255L228.255 308.308L245.36 300.392Z" fill="#F57C28"/>
<path d="M265.436 297.195C265.436 297.195 265.424 297.101 265.413 297.054C264.453 290.813 258.826 286.339 252.52 286.339H249.115C242.879 286.339 237.275 290.696 236.257 296.843C236.105 297.745 236.023 298.682 236.023 299.642V330.475C236.023 332.255 265.6 332.255 265.6 330.475V299.642C265.6 298.893 265.565 298.167 265.459 297.452C265.448 297.37 265.448 297.277 265.424 297.195H265.436Z" fill="#FF9746"/>
<path d="M265.612 330.487C265.612 332.091 236.012 332.091 236.012 330.487V331.049C236.012 339.024 242.47 345.5 250.449 345.5H251.174C259.142 345.5 265.612 339.036 265.612 331.049V330.487Z" fill="#324975"/>
<path d="M269.531 392.142V360.723C269.508 360.419 269.461 360.079 269.367 359.774L269.215 359.271L261.529 332.888L248.261 337.42L258.101 362.561L262.464 392.762C262.511 393.652 269.589 393.032 269.531 392.142Z" fill="#324975"/>
<path d="M265.612 299.642V302.64L257.539 301.364L265.471 297.441C265.577 298.155 265.612 298.881 265.612 299.631V299.642Z" fill="#F57C28"/>
<path d="M291.608 270.296L278.13 285.286L254.521 291.223L257.761 302.148L281.921 293.822L282.319 293.682C283.044 293.436 283.699 292.967 284.179 292.312L297.06 274.735C295.773 272.779 294.053 271.21 291.608 270.296Z" fill="#FF9746"/>
<path d="M294.533 271.936L294.03 271.491C292.977 270.577 292.872 268.973 293.784 267.931L297.657 263.493C297.657 263.493 297.657 263.493 297.668 263.493L300.394 265.882C301.26 266.643 301.354 267.954 300.593 268.821L298.078 271.702C297.165 272.755 295.562 272.861 294.521 271.947L294.533 271.936Z" fill="#E6B491"/>
<path d="M296.99 264.336L298.92 261.888L298.955 261.842C298.955 261.842 299.049 261.748 299.107 261.724L300.991 260.916C301.201 260.823 301.435 260.916 301.529 261.127C301.611 261.315 301.529 261.525 301.377 261.642L299.645 262.743L299.833 262.579L298.054 265.132C297.844 265.437 297.434 265.507 297.13 265.296C296.826 265.085 296.756 264.675 296.966 264.371C296.966 264.371 296.978 264.348 296.99 264.336Z" fill="#E6B491"/>
<path d="M295.551 263.774L295.668 265.729V265.776L295.645 265.87L295.013 268.715C294.931 269.078 294.58 269.301 294.217 269.219C293.855 269.137 293.632 268.786 293.714 268.423C293.714 268.399 293.714 268.376 293.726 268.364L294.638 265.589L294.615 265.729L294.732 263.774C294.744 263.551 294.943 263.376 295.165 263.387C295.376 263.399 295.539 263.563 295.551 263.774Z" fill="#E6B491"/>
<path d="M297.727 265.015L299.294 263.598C299.517 263.399 299.868 263.411 300.067 263.633C300.23 263.809 300.254 264.066 300.137 264.277L299.096 266.116C298.85 266.549 298.312 266.69 297.879 266.455C297.446 266.209 297.306 265.671 297.54 265.237C297.586 265.156 297.645 265.074 297.715 265.015H297.727Z" fill="#E6B491"/>
<path d="M298.71 265.823L300.277 264.406C300.5 264.207 300.851 264.219 301.05 264.441C301.213 264.617 301.237 264.875 301.12 265.085L300.079 266.924C299.833 267.357 299.295 267.498 298.862 267.263C298.429 267.029 298.288 266.479 298.522 266.046C298.569 265.964 298.628 265.882 298.698 265.823H298.71Z" fill="#E6B491"/>
<path d="M299.564 266.42L301.108 265.483C301.365 265.319 301.705 265.413 301.868 265.671C301.985 265.87 301.974 266.116 301.833 266.291L300.734 267.732C300.429 268.13 299.88 268.2 299.482 267.907C299.084 267.603 299.014 267.053 299.306 266.654C299.376 266.561 299.458 266.49 299.552 266.432L299.564 266.42Z" fill="#E6B491"/>
<path d="M211.946 326.037L212.051 326.096C213.244 326.81 213.63 328.368 212.917 329.562L210.296 333.918C210.296 333.918 210.296 333.918 210.284 333.918L207.652 332.337C206.669 331.74 206.342 330.464 206.938 329.48L208.494 326.904C209.208 325.709 210.764 325.323 211.957 326.037H211.946Z" fill="#E6B491"/>
<path d="M210.752 333.064L209.43 335.546L209.407 335.593C209.407 335.593 209.337 335.698 209.29 335.722L207.746 336.741C207.57 336.858 207.348 336.811 207.231 336.635C207.126 336.483 207.161 336.272 207.289 336.155L208.658 334.902L208.518 335.078L209.688 332.525C209.828 332.22 210.179 332.092 210.483 332.232C210.788 332.373 210.916 332.724 210.776 333.028C210.776 333.028 210.776 333.052 210.764 333.064H210.752Z" fill="#E6B491"/>
<path d="M209.594 332.291L208.272 334.773L208.249 334.82C208.249 334.82 208.179 334.925 208.132 334.949L206.587 335.968C206.412 336.085 206.19 336.038 206.073 335.862C205.967 335.71 206.003 335.499 206.131 335.382L207.5 334.129L207.36 334.305L208.53 331.752C208.67 331.447 209.021 331.319 209.325 331.459C209.629 331.6 209.758 331.951 209.618 332.255C209.618 332.255 209.618 332.279 209.606 332.291H209.594Z" fill="#E6B491"/>
<path d="M208.623 331.67L206.646 333.673L206.611 333.708C206.611 333.708 206.517 333.778 206.459 333.801L204.68 334.34C204.481 334.399 204.283 334.293 204.224 334.094C204.166 333.918 204.259 333.731 204.423 333.649L206.096 332.841L205.909 332.97L207.769 330.85C207.991 330.604 208.366 330.581 208.611 330.792C208.857 331.014 208.88 331.389 208.67 331.635C208.67 331.635 208.658 331.658 208.646 331.658L208.623 331.67Z" fill="#E6B491"/>
<path d="M207.371 331.283L205.3 332.173H205.265C205.265 332.173 205.172 332.22 205.125 332.209L203.651 332.068C203.487 332.056 203.37 331.904 203.382 331.74C203.393 331.588 203.51 331.483 203.662 331.471L205.148 331.377L204.973 331.412L206.985 330.405C207.219 330.288 207.512 330.382 207.629 330.616C207.746 330.85 207.652 331.143 207.418 331.26C207.418 331.26 207.395 331.26 207.395 331.272L207.371 331.283Z" fill="#E6B491"/>
<path d="M212.121 333.333L211.712 331.611V331.576V331.494L211.829 328.859C211.841 328.531 212.121 328.274 212.449 328.286C212.777 328.297 213.034 328.578 213.022 328.906C213.022 328.93 213.022 328.941 213.022 328.965L212.66 331.576V331.447L212.87 333.204C212.894 333.403 212.753 333.59 212.543 333.614C212.355 333.637 212.18 333.508 212.133 333.333H212.121Z" fill="#E6B491"/>
<path d="M245.266 275.414C245.266 275.414 246.869 279.7 248.132 279.782C249.408 279.863 250.741 279.161 250.741 279.161C250.741 279.161 251.771 277.908 252.04 276.877C252.309 275.847 251.268 273.528 251.9 272.755C252.531 271.982 254.017 272.17 254.626 273.739C255.234 275.308 255.07 275.835 255.07 275.835L255.749 275.648C255.749 275.648 255.702 273.13 255.936 272.615C256.17 272.1 257.352 271.198 257.235 269.793L257.597 269.828C257.597 269.828 260.078 267.556 259.329 265.647C258.58 263.738 254.719 262.661 252.812 265.132C248.179 264.546 241.709 269.207 245.266 275.425V275.414Z" fill="#324975"/>
<path style="mix-blend-mode:multiply" opacity="0.5" d="M301.857 506.001C301.693 506.211 301.354 506.27 301.096 506.153L300.792 506.001L301.12 506.457C301.237 506.621 301.213 506.82 301.049 506.961C300.851 507.136 300.5 507.148 300.277 506.996L299.821 506.668L300.125 507.101C300.242 507.265 300.219 507.464 300.055 507.605C299.856 507.781 299.505 507.792 299.283 507.64L298.827 507.312L299.774 508.389L301.365 509.186C301.529 509.268 301.599 509.443 301.517 509.596C301.424 509.76 301.19 509.842 300.979 509.771L299.096 509.127C299.037 509.104 298.979 509.069 298.944 509.034L298.908 508.998L297.563 507.64L295.668 505.919V505.965L295.551 507.511C295.551 507.675 295.375 507.804 295.165 507.816C294.942 507.816 294.743 507.687 294.732 507.511L294.626 506.036L293.924 504.338L293.784 504.209C293.094 503.577 292.989 502.71 293.421 502.007L293.187 501.738C292.696 501.961 292.17 502.16 291.608 502.335L278.13 490.449L261.177 487.065C259.785 488.002 258.147 488.716 256.369 489.138L256.1 490.426C256.1 490.426 255.527 490.613 254.602 490.836C254.474 492.065 255.094 493.154 255.491 493.049C255.948 492.932 258.697 492.37 259.317 493.318C259.926 494.243 260.171 499.946 257.586 502.71C257.597 502.71 257.609 502.71 257.609 502.71C257.609 502.71 260.089 504.513 259.341 506.024C258.592 507.535 254.731 508.401 252.824 506.434C248.191 506.902 241.721 503.202 245.278 498.272C245.278 498.272 246.881 494.876 248.144 494.806C248.144 494.806 248.261 492.815 247.676 491.421C247.138 491.363 246.612 491.281 246.108 491.152C244.938 490.859 244.939 489.407 244.95 489.068C242.669 488.47 240.621 487.416 239.089 485.999L223.002 478.282L222.592 478.083C222.043 477.814 221.563 477.439 221.235 476.947L209.571 460.026L211.314 459.183L210.706 458.375C209.84 458.375 208.986 458.047 208.518 457.415L206.973 455.365C206.763 455.096 206.681 454.792 206.681 454.487L205.066 453.843L203.709 453.773C203.569 453.773 203.452 453.679 203.429 453.562C203.417 453.433 203.534 453.316 203.698 453.304L205.172 453.199C205.172 453.199 205.265 453.199 205.312 453.222H205.347L206.903 453.761C206.938 453.703 206.985 453.644 207.032 453.585L205.991 452.649L204.458 452.063C204.294 452.005 204.212 451.852 204.259 451.712C204.318 451.56 204.528 451.466 204.715 451.513L206.494 451.934C206.494 451.934 206.599 451.969 206.646 452.005L206.681 452.028L207.874 452.988L208.143 452.859L207.406 451.583L206.143 450.67C206.014 450.576 205.979 450.412 206.084 450.295C206.201 450.154 206.424 450.119 206.599 450.213L208.143 451.021C208.143 451.021 208.237 451.079 208.26 451.126L208.284 451.161L209.115 452.391L209.325 452.286L208.565 450.974L207.301 450.061C207.172 449.967 207.137 449.803 207.243 449.686C207.36 449.545 207.582 449.51 207.757 449.604L209.302 450.412C209.302 450.412 209.395 450.47 209.419 450.517L209.442 450.552L210.366 451.934L211.712 453.703V453.667L212.121 452.297C212.168 452.157 212.332 452.051 212.531 452.075C212.73 452.098 212.882 452.239 212.858 452.403L212.659 453.726L212.952 455.342C213.326 455.869 213.361 456.466 213.127 456.993L213.853 457.942L215.573 457.11L228.267 472.146L236.047 475.003V454.546C236.047 454.546 236.082 454.464 236.129 454.429C236.07 454.464 236.035 454.511 236.035 454.546V454.101C236.035 452.356 236.538 450.693 237.427 449.217L232.432 431.816L218.404 409.145C218.287 408.981 218.767 408.618 219.492 408.196L218.942 407.213H218.907C217.76 407.306 216.649 406.803 216.181 405.971L215.35 404.473L215.058 404.578L214.625 403.805L224.453 400.339L231.484 400.222V400.995H231.355C231.355 400.995 231.355 401.018 231.355 401.03C231.624 402.915 229.437 404.449 227.073 404.18L226.219 404.086L223.552 405.772L223.844 406.288C224.312 406.159 224.64 406.124 224.722 406.241L242.903 427.928C243.055 428.127 243.195 428.35 243.289 428.572L243.464 428.982L249.185 442.695C249.607 442.66 250.039 442.648 250.461 442.648H251.186C251.268 442.648 251.35 442.648 251.432 442.648L258.112 429.088L262.476 405.117C262.488 404.929 262.979 404.836 263.681 404.8V404.344H263.646C262.57 404.063 261.844 403.266 261.844 402.376V400.643H261.4V399.648H278.797V400.643H278.376C277.896 401.885 276.644 402.845 275.065 403.173L268.49 404.531V405.152C269.133 405.281 269.554 405.445 269.543 405.62V430.551C269.519 430.797 269.472 431.055 269.379 431.301L269.227 431.699L263.283 447.871C264.746 449.662 265.612 451.805 265.612 454.101V454.546C265.612 454.546 265.576 454.475 265.53 454.44C265.576 454.475 265.6 454.511 265.6 454.546V479.008C265.6 479.008 265.6 479.114 265.6 479.172L281.909 483.634L282.307 483.739C283.032 483.938 283.687 484.301 284.167 484.828L297.048 498.775C296.604 499.314 296.089 499.794 295.527 500.239L295.785 500.532C296.615 500.426 297.493 500.649 298.078 501.188L300.593 503.471C300.991 503.834 301.143 504.291 301.096 504.724L301.822 505.474C301.95 505.614 301.974 505.813 301.857 505.965V506.001Z" fill="url(#paint13_linear_234_382)"/>
</g>
<defs>
<linearGradient id="paint0_linear_234_382" x1="192.829" y1="175.108" x2="193.825" y2="51.9157" gradientUnits="userSpaceOnUse">
<stop stop-color="#D8E4EF"/>
<stop offset="1" stop-color="white"/>
</linearGradient>
<linearGradient id="paint1_linear_234_382" x1="163.077" y1="78.533" x2="247.109" y2="175.816" gradientUnits="userSpaceOnUse">
<stop stop-color="#C4D3EF"/>
<stop offset="1" stop-color="white"/>
</linearGradient>
<linearGradient id="paint2_linear_234_382" x1="126.528" y1="317.348" x2="128.051" y2="403.313" gradientUnits="userSpaceOnUse">
<stop stop-color="#A9C4DB"/>
<stop offset="0.33" stop-color="#A6C0D6" stop-opacity="0.63"/>
<stop offset="0.65" stop-color="#A3BCD3" stop-opacity="0.29"/>
<stop offset="0.88" stop-color="#A1BAD0" stop-opacity="0.08"/>
<stop offset="1" stop-color="#A1BAD0" stop-opacity="0"/>
</linearGradient>
<linearGradient id="paint3_linear_234_382" x1="377.963" y1="277.709" x2="378.654" y2="72.8381" gradientUnits="userSpaceOnUse">
<stop stop-color="#F9FBFC" stop-opacity="0.8"/>
<stop offset="0.29" stop-color="#EDF3F6" stop-opacity="0.74"/>
<stop offset="0.89" stop-color="#D1DFE8" stop-opacity="0.6"/>
</linearGradient>
<radialGradient id="paint4_radial_234_382" cx="0" cy="0" r="1" gradientUnits="userSpaceOnUse" gradientTransform="translate(337.318 92.4759) scale(91.1277 91.2112)">
<stop stop-color="#A9C4DB"/>
<stop offset="1" stop-color="#A1BAD0" stop-opacity="0"/>
</radialGradient>
<radialGradient id="paint5_radial_234_382" cx="0" cy="0" r="1" gradientUnits="userSpaceOnUse" gradientTransform="translate(337.634 229.743) scale(74.6665 74.7349)">
<stop stop-color="#A9C4DB"/>
<stop offset="1" stop-color="#A1BAD0" stop-opacity="0"/>
</radialGradient>
<linearGradient id="paint6_linear_234_382" x1="380.466" y1="356.355" x2="378.649" y2="474.523" gradientUnits="userSpaceOnUse">
<stop stop-color="#A9C4DB"/>
<stop offset="0.33" stop-color="#A6C0D6" stop-opacity="0.63"/>
<stop offset="0.65" stop-color="#A3BCD3" stop-opacity="0.29"/>
<stop offset="0.88" stop-color="#A1BAD0" stop-opacity="0.08"/>
<stop offset="1" stop-color="#A1BAD0" stop-opacity="0"/>
</linearGradient>
<linearGradient id="paint7_linear_234_382" x1="320.494" y1="359.189" x2="481.024" y2="356.734" gradientUnits="userSpaceOnUse">
<stop stop-color="#A9C4DB"/>
<stop offset="1" stop-color="#A1BAD0" stop-opacity="0"/>
</linearGradient>
<linearGradient id="paint8_linear_234_382" x1="334.908" y1="358.966" x2="451.271" y2="357.189" gradientUnits="userSpaceOnUse">
<stop stop-color="#A9C4DB"/>
<stop offset="1" stop-color="#A1BAD0" stop-opacity="0"/>
</linearGradient>
<linearGradient id="paint9_linear_234_382" x1="247.384" y1="380.595" x2="248.356" y2="487.569" gradientUnits="userSpaceOnUse">
<stop stop-color="#A9C4DB"/>
<stop offset="0.1" stop-color="#A8C3DA" stop-opacity="0.96"/>
<stop offset="0.25" stop-color="#A7C2D9" stop-opacity="0.86"/>
<stop offset="0.43" stop-color="#A6C0D7" stop-opacity="0.68"/>
<stop offset="0.65" stop-color="#A4BED4" stop-opacity="0.45"/>
<stop offset="0.89" stop-color="#A2BBD1" stop-opacity="0.15"/>
<stop offset="1" stop-color="#A1BAD0" stop-opacity="0"/>
</linearGradient>
<linearGradient id="paint10_linear_234_382" x1="244.225" y1="135.57" x2="246.791" y2="220.235" gradientUnits="userSpaceOnUse">
<stop stop-color="#A9C4DB"/>
<stop offset="1" stop-color="#A1BAD0" stop-opacity="0"/>
</linearGradient>
<linearGradient id="paint11_linear_234_382" x1="89.6387" y1="377.609" x2="90.1192" y2="404.543" gradientUnits="userSpaceOnUse">
<stop stop-color="#ABCDEB"/>
<stop offset="0.36" stop-color="#A8C9E6" stop-opacity="0.59"/>
<stop offset="0.67" stop-color="#A5C6E2" stop-opacity="0.27"/>
<stop offset="0.89" stop-color="#A4C4E0" stop-opacity="0.08"/>
<stop offset="1" stop-color="#A4C4E0" stop-opacity="0"/>
</linearGradient>
<linearGradient id="paint12_linear_234_382" x1="383.168" y1="422.893" x2="384.2" y2="496.995" gradientUnits="userSpaceOnUse">
<stop stop-color="#A9C4DB"/>
<stop offset="0.1" stop-color="#A8C3DA" stop-opacity="0.96"/>
<stop offset="0.25" stop-color="#A7C2D9" stop-opacity="0.86"/>
<stop offset="0.43" stop-color="#A6C0D7" stop-opacity="0.68"/>
<stop offset="0.65" stop-color="#A4BED4" stop-opacity="0.45"/>
<stop offset="0.89" stop-color="#A2BBD1" stop-opacity="0.15"/>
<stop offset="1" stop-color="#A1BAD0" stop-opacity="0"/>
</linearGradient>
<linearGradient id="paint13_linear_234_382" x1="254.953" y1="401.17" x2="251.894" y2="505.684" gradientUnits="userSpaceOnUse">
<stop stop-color="#A9C4DB"/>
<stop offset="0.1" stop-color="#A8C3DA" stop-opacity="0.96"/>
<stop offset="0.25" stop-color="#A7C2D9" stop-opacity="0.86"/>
<stop offset="0.43" stop-color="#A6C0D7" stop-opacity="0.68"/>
<stop offset="0.65" stop-color="#A4BED4" stop-opacity="0.45"/>
<stop offset="0.89" stop-color="#A2BBD1" stop-opacity="0.15"/>
<stop offset="1" stop-color="#A1BAD0" stop-opacity="0"/>
</linearGradient>
<clipPath id="clip0_234_382">
<rect width="533" height="582" fill="white"/>
</clipPath>
</defs>
</svg>
