<svg width="23" height="25" viewBox="0 0 23 25" fill="none" xmlns="http://www.w3.org/2000/svg">
<path d="M2.97232 13.0353L11.9891 4.01855C12.4233 3.58444 12.9388 3.24011 13.5061 3.00522C14.0734 2.77033 14.6814 2.64947 15.2954 2.64955C15.9094 2.64963 16.5173 2.77064 17.0846 3.00568C17.6518 3.24072 18.1672 3.58518 18.6013 4.0194C19.0354 4.45361 19.3797 4.96908 19.6146 5.53637C19.8495 6.10365 19.9703 6.71165 19.9703 7.32565C19.9702 7.93964 19.8492 8.54761 19.6141 9.11484C19.3791 9.68206 19.0346 10.1974 18.6004 10.6315L7.78162 21.4503C7.38283 21.8491 6.84195 22.0732 6.27797 22.0732C5.71399 22.0732 5.17311 21.8491 4.77432 21.4503C4.37553 21.0516 4.15149 20.5107 4.15149 19.9467C4.15149 19.3827 4.37553 18.8418 4.77432 18.443L14.3912 8.82615C14.6164 8.58445 14.739 8.26477 14.7332 7.93446C14.7274 7.60415 14.5936 7.28899 14.36 7.05539C14.1264 6.82179 13.8112 6.68798 13.4809 6.68215C13.1506 6.67632 12.8309 6.79893 12.5892 7.02415L2.97232 16.641C2.09538 17.518 1.60272 18.7074 1.60272 19.9475C1.60272 21.1877 2.09538 22.3771 2.97232 23.254C3.84926 24.131 5.03864 24.6236 6.27882 24.6236C7.519 24.6236 8.70838 24.131 9.58532 23.254L20.4024 12.4335C21.7313 11.0733 22.4704 9.24405 22.4593 7.34247C22.4482 5.44089 21.6879 3.62034 20.3433 2.2757C18.9986 0.931055 17.1781 0.170742 15.2765 0.159669C13.3749 0.148595 11.5456 0.887653 10.1854 2.21655L1.17032 11.2316C0.945105 11.4733 0.822496 11.793 0.828324 12.1233C0.834152 12.4536 0.967962 12.7688 1.20156 13.0024C1.43517 13.236 1.75032 13.3698 2.08063 13.3756C2.41094 13.3815 2.73062 13.2589 2.97232 13.0336V13.0353Z" fill="#AA2AE1"/>
</svg>
