<svg width="34" height="25" viewBox="0 0 34 25" fill="none" xmlns="http://www.w3.org/2000/svg">
<g clip-path="url(#clip0_394_1718)">
<path d="M0 0H33.3333V25H0V0Z" fill="#000066"/>
<path d="M0 0V1.45573L15.9915 13.0208H18.0044V11.5651L2.01286 0H0ZM18.0044 0V1.45573L2.01286 13.0208H0V11.5651L15.9915 0H18.0044Z" fill="white"/>
<path d="M7.50182 0V13.0208H10.5026V0H7.50177H7.50182ZM0 4.34026V8.68052H18.0044V4.34026H0Z" fill="white"/>
<path d="M0 5.20833V7.8125H18.0044V5.20833H0ZM8.10198 0V13.0208H9.90239V0H8.10198ZM0 13.0208L6.00146 8.68052H7.34338L1.34193 13.0208H0ZM0 0L6.00146 4.34026H4.65953L0 0.970469V0ZM10.6609 4.34026L16.6625 0H18.0044L12.0029 4.34026H10.6609ZM18.0044 13.0208L12.003 8.68052H13.3449L18.0045 12.0503V13.0208H18.0044Z" fill="#CC0000"/>
<path fill-rule="evenodd" clip-rule="evenodd" d="M15.614 20.4441L13.3404 20.6418L13.6536 22.9025L12.0814 21.2482L10.5092 22.9025L10.8224 20.6418L8.54883 20.4441L10.5113 19.2794L9.24862 17.3786L11.3825 18.1866L12.0814 16.014L12.7804 18.1865L14.9142 17.3785L13.6516 19.2792M25.3414 22.5277L24.7926 21.702L25.7202 22.0532L26.0236 21.1091L26.327 22.0532L27.2544 21.7021L26.7056 22.5278L27.5582 23.0339L26.5704 23.1199L26.7067 24.1016L26.0236 23.3833L25.3404 24.1017L25.4766 23.1199L24.4889 23.034M25.3414 7.83529L24.7926 7.00946L25.7202 7.3606L26.0236 6.41675L26.327 7.3605L27.2544 7.00946L26.7056 7.83524L27.5582 8.34133L26.5704 8.42727L26.7067 9.40904L26.0236 8.69065L25.3404 9.40909L25.4766 8.42732L24.4889 8.34138M19.8317 13.804L19.2829 12.9784L20.2104 13.3295L20.5138 12.3855L20.8172 13.3295L21.7447 12.9784L21.196 13.804L22.0486 14.3103L21.0608 14.3962L21.197 15.378L20.5138 14.6595L19.8307 15.378L19.967 14.3962L18.9792 14.3103M30.2403 12.3348L29.6904 11.5091L30.6186 11.8602L30.9198 10.9162L31.2247 11.8602L32.1503 11.5091L31.603 12.3348L32.4552 12.841L31.4672 12.9269L31.603 13.9087L30.9198 13.1903L30.2366 13.9087L30.3725 12.9269L29.3863 12.841M28.2274 16.6636L27.6874 16.9982L27.8392 16.3815L27.354 15.972L27.9876 15.9253L28.2274 15.3373L28.4673 15.9253L29.1009 15.9721L28.6157 16.3816L28.7673 16.9983" fill="white"/>
</g>
<defs>
<clipPath id="clip0_394_1718">
<rect width="33.3333" height="25" rx="3" fill="white"/>
</clipPath>
</defs>
</svg>
