<svg width="26" height="25" viewBox="0 0 26 25" fill="none" xmlns="http://www.w3.org/2000/svg">
<path d="M11.4767 24.5062L0.459095 13.6419C0.292161 13.4773 0.173637 13.299 0.103525 13.107C0.0334125 12.9149 -0.00108681 12.7092 2.60837e-05 12.4897C2.60837e-05 12.2702 0.0350826 12.0644 0.105195 11.8724C0.175307 11.6804 0.293274 11.502 0.459095 11.3374L11.4767 0.473191C11.7828 0.171407 12.1656 0.0139309 12.6252 0.000762181C13.0849 -0.0124066 13.4811 0.145069 13.8138 0.473191C14.1477 0.774975 14.3218 1.15248 14.3363 1.6057C14.3508 2.05893 14.1905 2.4496 13.8555 2.77772L5.67578 10.8436H24.3307C24.8036 10.8436 25.2004 11.0016 25.5209 11.3177C25.8414 11.6337 26.0011 12.0244 26 12.4897C26 12.9561 25.8403 13.3473 25.5209 13.6633C25.2015 13.9794 24.8047 14.1369 24.3307 14.1358H5.67578L13.8555 22.2016C14.1616 22.5034 14.3218 22.8875 14.3363 23.3539C14.3508 23.8203 14.1905 24.2044 13.8555 24.5062C13.5495 24.8354 13.16 25 12.687 25C12.214 25 11.8106 24.8354 11.4767 24.5062Z" fill="black"/>
</svg>
