<svg width="18" height="18" viewBox="0 0 18 18" fill="none" xmlns="http://www.w3.org/2000/svg">
<path fill-rule="evenodd" clip-rule="evenodd" d="M14.25 16.1249H4.5C3.80381 16.1249 3.13613 15.8483 2.64384 15.3561C2.15156 14.8638 1.875 14.1961 1.875 13.4999V3.70716C1.875 2.90691 2.667 2.39916 3.36375 2.64066C3.4635 2.67516 3.561 2.72541 3.654 2.79216L3.78525 2.88591C4.10449 3.11243 4.48641 3.2338 4.87785 3.23313C5.26929 3.23245 5.65079 3.10977 5.96925 2.88216C6.41628 2.56402 6.95132 2.39307 7.5 2.39307C8.04868 2.39307 8.58372 2.56402 9.03075 2.88216C9.34921 3.10977 9.73071 3.23245 10.1221 3.23313C10.5136 3.2338 10.8955 3.11243 11.2147 2.88591L11.346 2.79216C12.0907 2.25966 13.125 2.79216 13.125 3.70716V9.37491H15.75C15.8992 9.37491 16.0423 9.43417 16.1477 9.53966C16.2532 9.64515 16.3125 9.78822 16.3125 9.93741V14.0624C16.3125 14.6094 16.0952 15.134 15.7084 15.5208C15.3216 15.9076 14.797 16.1249 14.25 16.1249ZM13.3125 10.4999V14.0624C13.3125 14.311 13.4113 14.5495 13.5871 14.7253C13.7629 14.9011 14.0014 14.9999 14.25 14.9999C14.4986 14.9999 14.7371 14.9011 14.9129 14.7253C15.0887 14.5495 15.1875 14.311 15.1875 14.0624V10.4999H13.3125ZM10.125 7.31241C10.125 7.16322 10.0657 7.02015 9.96025 6.91466C9.85476 6.80917 9.71168 6.74991 9.5625 6.74991H5.0625C4.91332 6.74991 4.77024 6.80917 4.66475 6.91466C4.55926 7.02015 4.5 7.16322 4.5 7.31241C4.5 7.46159 4.55926 7.60467 4.66475 7.71015C4.77024 7.81564 4.91332 7.87491 5.0625 7.87491H9.5625C9.71168 7.87491 9.85476 7.81564 9.96025 7.71015C10.0657 7.60467 10.125 7.46159 10.125 7.31241ZM9.375 9.56241C9.375 9.41322 9.31574 9.27015 9.21025 9.16466C9.10476 9.05917 8.96168 8.99991 8.8125 8.99991H5.0625C4.91332 8.99991 4.77024 9.05917 4.66475 9.16466C4.55926 9.27015 4.5 9.41322 4.5 9.56241C4.5 9.71159 4.55926 9.85466 4.66475 9.96015C4.77024 10.0656 4.91332 10.1249 5.0625 10.1249H8.8125C8.96168 10.1249 9.10476 10.0656 9.21025 9.96015C9.31574 9.85466 9.375 9.71159 9.375 9.56241ZM9.5625 11.2499C9.71168 11.2499 9.85476 11.3092 9.96025 11.4147C10.0657 11.5201 10.125 11.6632 10.125 11.8124C10.125 11.9616 10.0657 12.1047 9.96025 12.2102C9.85476 12.3156 9.71168 12.3749 9.5625 12.3749H5.0625C4.91332 12.3749 4.77024 12.3156 4.66475 12.2102C4.55926 12.1047 4.5 11.9616 4.5 11.8124C4.5 11.6632 4.55926 11.5201 4.66475 11.4147C4.77024 11.3092 4.91332 11.2499 5.0625 11.2499H9.5625Z" fill="#AA2AE1"/>
</svg>
