<svg width="43" height="43" viewBox="0 0 43 43" fill="none" xmlns="http://www.w3.org/2000/svg">
<path d="M2.6875 8.0625C2.6875 7.34973 2.97065 6.66615 3.47465 6.16215C3.97865 5.65815 4.66223 5.375 5.375 5.375H37.625C38.3378 5.375 39.0213 5.65815 39.5253 6.16215C40.0294 6.66615 40.3125 7.34973 40.3125 8.0625H2.6875ZM21.5 29.5625C22.9255 29.5625 24.2927 28.9962 25.3007 27.9882C26.3087 26.9802 26.875 25.613 26.875 24.1875C26.875 22.762 26.3087 21.3948 25.3007 20.3868C24.2927 19.3788 22.9255 18.8125 21.5 18.8125C20.0745 18.8125 18.7073 19.3788 17.6993 20.3868C16.6913 21.3948 16.125 22.762 16.125 24.1875C16.125 25.613 16.6913 26.9802 17.6993 27.9882C18.7073 28.9962 20.0745 29.5625 21.5 29.5625Z" fill="#AA2AE1"/>
<path d="M0 13.4375C0 12.7247 0.283147 12.0412 0.787151 11.5372C1.29115 11.0331 1.97473 10.75 2.6875 10.75H40.3125C41.0253 10.75 41.7088 11.0331 42.2128 11.5372C42.7169 12.0412 43 12.7247 43 13.4375V34.9375C43 35.6503 42.7169 36.3338 42.2128 36.8378C41.7088 37.3419 41.0253 37.625 40.3125 37.625H2.6875C1.97473 37.625 1.29115 37.3419 0.787151 36.8378C0.283147 36.3338 0 35.6503 0 34.9375V13.4375ZM8.0625 13.4375C8.0625 14.863 7.49621 16.2302 6.4882 17.2382C5.48019 18.2462 4.11304 18.8125 2.6875 18.8125V29.5625C4.11304 29.5625 5.48019 30.1288 6.4882 31.1368C7.49621 32.1448 8.0625 33.512 8.0625 34.9375H34.9375C34.9375 33.512 35.5038 32.1448 36.5118 31.1368C37.5198 30.1288 38.887 29.5625 40.3125 29.5625V18.8125C38.887 18.8125 37.5198 18.2462 36.5118 17.2382C35.5038 16.2302 34.9375 14.863 34.9375 13.4375H8.0625Z" fill="#AA2AE1"/>
</svg>
