<svg width="26" height="26" viewBox="0 0 26 26" fill="none" xmlns="http://www.w3.org/2000/svg">
<path d="M17.6875 11.1249C17.6875 11.3735 17.5887 11.612 17.4129 11.7878C17.2371 11.9636 16.9986 12.0624 16.75 12.0624H9.25C9.00136 12.0624 8.7629 11.9636 8.58709 11.7878C8.41127 11.612 8.3125 11.3735 8.3125 11.1249C8.3125 10.8762 8.41127 10.6378 8.58709 10.462C8.7629 10.2862 9.00136 10.1874 9.25 10.1874H16.75C16.9986 10.1874 17.2371 10.2862 17.4129 10.462C17.5887 10.6378 17.6875 10.8762 17.6875 11.1249ZM16.75 13.9374H9.25C9.00136 13.9374 8.7629 14.0362 8.58709 14.212C8.41127 14.3878 8.3125 14.6262 8.3125 14.8749C8.3125 15.1235 8.41127 15.362 8.58709 15.5378C8.7629 15.7136 9.00136 15.8124 9.25 15.8124H16.75C16.9986 15.8124 17.2371 15.7136 17.4129 15.5378C17.5887 15.362 17.6875 15.1235 17.6875 14.8749C17.6875 14.6262 17.5887 14.3878 17.4129 14.212C17.2371 14.0362 16.9986 13.9374 16.75 13.9374ZM25.1875 12.9999C25.188 15.104 24.6436 17.1724 23.6075 19.0038C22.5714 20.8352 21.0788 22.3671 19.275 23.4505C17.4712 24.5338 15.4177 25.1317 13.3142 25.186C11.2108 25.2402 9.12913 24.749 7.27187 23.76L3.28164 25.0901C2.95127 25.2003 2.59675 25.2163 2.2578 25.1363C1.91886 25.0563 1.60889 24.8835 1.36264 24.6372C1.11638 24.391 0.94358 24.081 0.863591 23.7421C0.783602 23.4031 0.799591 23.0486 0.909765 22.7182L2.23984 18.728C1.37049 17.0935 0.884918 15.2824 0.819997 13.4323C0.755075 11.5821 1.11251 9.74145 1.86516 8.05004C2.61781 6.35863 3.7459 4.86091 5.16381 3.67058C6.58171 2.48024 8.25216 1.62857 10.0484 1.18021C11.8446 0.731845 13.7193 0.698579 15.5303 1.08293C17.3412 1.46729 19.0409 2.25916 20.5001 3.39844C21.9593 4.53773 23.1399 5.99448 23.952 7.65812C24.7642 9.32176 25.1867 11.1486 25.1875 12.9999ZM23.3125 12.9999C23.3121 11.418 22.9477 9.85742 22.2476 8.43888C21.5475 7.02034 20.5305 5.78188 19.2752 4.8193C18.0199 3.85672 16.5599 3.19583 15.0083 2.88776C13.4567 2.57969 11.8551 2.6327 10.3272 3.04269C8.79939 3.45268 7.38636 4.20866 6.19744 5.25214C5.00853 6.29562 4.07561 7.59862 3.47085 9.06035C2.8661 10.5221 2.60572 12.1033 2.70988 13.6818C2.81403 15.2602 3.27991 16.7936 4.07148 18.1632C4.13792 18.2781 4.17917 18.4059 4.19251 18.5381C4.20584 18.6702 4.19095 18.8036 4.14883 18.9296L2.6875 23.3124L7.07031 21.8511C7.16577 21.8185 7.26594 21.8019 7.3668 21.8018C7.53145 21.8021 7.69312 21.8458 7.83555 21.9284C9.40328 22.8355 11.1823 23.3136 12.9935 23.3148C14.8047 23.3159 16.5843 22.84 18.1532 21.9349C19.7221 21.0298 21.0249 19.7275 21.9306 18.159C22.8363 16.5905 23.3129 14.8111 23.3125 12.9999Z" fill="#AA2AE1"/>
</svg>
