<svg width="42" height="42" viewBox="0 0 42 42" fill="none" xmlns="http://www.w3.org/2000/svg">
<g clip-path="url(#clip0_578_9141)">
<path d="M34.2779 19.1993C34.2779 19.1993 34.8318 21.9122 34.9565 22.4805H32.5218L33.6886 19.3082C33.6742 19.3305 33.9288 18.6441 34.0745 18.2214L34.2779 19.1993ZM41.9994 8.16638V33.8336C41.999 34.7619 41.6301 35.652 40.9737 36.3084C40.3173 36.9648 39.4272 37.3337 38.4989 37.3341H3.49848C2.57022 37.3337 1.68007 36.9648 1.02369 36.3084C0.367301 35.652 -0.00160526 34.7619 -0.00195312 33.8336V8.16638C-0.00160526 7.23811 0.367301 6.34796 1.02369 5.69158C1.68007 5.03519 2.57022 4.66629 3.49848 4.66594H38.4989C39.4272 4.66629 40.3173 5.03519 40.9737 5.69158C41.6301 6.34796 41.999 7.23811 41.9994 8.16638ZM11.1189 26.4836L15.727 15.1673H12.6282L9.76305 22.8966L9.44936 21.3294L8.42823 16.1228C8.26023 15.4009 7.74311 15.1961 7.1013 15.1673H2.38417L2.33298 15.393C3.41327 15.658 4.44951 16.078 5.40948 16.6399L8.02005 26.4836H11.1189ZM18.0029 26.4981L19.8404 15.1673H16.9096L15.08 26.4981H18.0029ZM28.2037 22.7942C28.2181 21.504 27.4306 20.5196 25.7467 19.7098C24.719 19.1914 24.0916 18.8423 24.0916 18.3094C24.106 17.8277 24.6245 17.3316 25.7755 17.3316C26.5253 17.3104 27.2702 17.4575 27.9556 17.7621L28.2181 17.8854L28.6197 15.435C27.7818 15.1142 26.8919 14.9509 25.9947 14.9533C23.0994 14.9533 21.065 16.4994 21.0505 18.7005C21.0282 20.3267 22.5087 21.231 23.6178 21.777C24.7479 22.3309 25.135 22.6958 25.135 23.184C25.1206 23.9426 24.2163 24.2917 23.3776 24.2917C22.2108 24.2917 21.5834 24.1093 20.6279 23.6867L20.242 23.5043L19.8339 26.0492C20.519 26.3629 21.7882 26.6398 23.1007 26.6543C26.1772 26.6608 28.1827 25.137 28.205 22.7903L28.2037 22.7942ZM38.4989 26.4981L36.1364 15.1673H33.8684C33.1689 15.1673 32.636 15.372 32.3367 16.1083L27.9832 26.4994H31.0597C31.0597 26.4994 31.5624 25.0989 31.6726 24.801H35.4355C35.5235 25.2026 35.786 26.4994 35.786 26.4994L38.4989 26.4981Z" fill="#2A2A6D"/>
</g>
<defs>
<clipPath id="clip0_578_9141">
<rect width="42" height="42" fill="white"/>
</clipPath>
</defs>
</svg>
