<svg width="30" height="30" viewBox="0 0 30 30" fill="none" xmlns="http://www.w3.org/2000/svg">
<g clip-path="url(#clip0_1185_5855)">
<path d="M15 2.5C21.9037 2.5 27.5 8.09625 27.5 15C27.5 21.9037 21.9037 27.5 15 27.5C8.09625 27.5 2.5 21.9037 2.5 15C2.5 8.09625 8.09625 2.5 15 2.5ZM12.3487 10.58C12.1243 10.3534 11.8218 10.2212 11.5031 10.2104C11.1843 10.1996 10.8735 10.311 10.6343 10.5218C10.395 10.7327 10.2454 11.027 10.216 11.3445C10.1866 11.6621 10.2797 11.9788 10.4762 12.23L10.5812 12.3487L13.2312 14.9987L10.5812 17.6512C10.3547 17.8757 10.2225 18.1782 10.2116 18.4969C10.2008 18.8157 10.3122 19.1265 10.5231 19.3657C10.7339 19.605 11.0282 19.7546 11.3458 19.784C11.6633 19.8134 11.9801 19.7203 12.2312 19.5237L12.3487 19.42L15 16.7675L17.6512 19.42C17.8757 19.6466 18.1782 19.7788 18.4969 19.7896C18.8157 19.8004 19.1265 19.689 19.3657 19.4782C19.605 19.2673 19.7546 18.973 19.784 18.6555C19.8134 18.3379 19.7203 18.0211 19.5237 17.77L19.42 17.6512L16.7675 15L19.42 12.3487C19.6466 12.1243 19.7788 11.8218 19.7896 11.5031C19.8004 11.1843 19.689 10.8735 19.4782 10.6343C19.2673 10.395 18.973 10.2454 18.6555 10.216C18.3379 10.1866 18.0211 10.2797 17.77 10.4762L17.6512 10.58L15 13.2325L12.3487 10.58Z" fill="white"/>
</g>
<defs>
<clipPath id="clip0_1185_5855">
<rect width="30" height="30" fill="white"/>
</clipPath>
</defs>
</svg>
