<svg width="430" height="304" viewBox="0 0 430 304" fill="none" xmlns="http://www.w3.org/2000/svg">
<path d="M58.6054 203.304C59.3371 203.384 59.9974 202.852 60.0746 202.121C60.1546 201.389 59.623 200.729 58.8912 200.652C58.1595 200.572 57.4992 201.103 57.422 201.835C57.342 202.566 57.8737 203.227 58.6054 203.304Z" fill="#F7EAFC"/>
<path d="M67.1445 204.23C67.8762 204.31 68.5365 203.778 68.6137 203.046C68.6937 202.315 68.162 201.654 67.4303 201.577C66.6986 201.497 66.0383 202.029 65.9611 202.761C65.8811 203.492 66.4127 204.152 67.1445 204.23Z" fill="#F7EAFC"/>
<path d="M75.6913 205.153C76.4231 205.233 77.0834 204.701 77.1605 203.97C77.2406 203.238 76.7089 202.578 75.9772 202.501C75.2454 202.421 74.5851 202.952 74.508 203.684C74.4279 204.416 74.9596 205.076 75.6913 205.153Z" fill="#F7EAFC"/>
<path d="M84.2304 206.076C84.9621 206.156 85.6224 205.625 85.6996 204.893C85.7796 204.161 85.248 203.501 84.5162 203.424C83.7845 203.344 83.1242 203.876 83.047 204.607C82.967 205.339 83.4987 205.999 84.2304 206.076Z" fill="#F7EAFC"/>
<path d="M92.7773 207.002C93.509 207.082 94.1693 206.551 94.2465 205.819C94.3265 205.087 93.7948 204.427 93.0631 204.35C92.3314 204.27 91.6711 204.801 91.5939 205.533C91.5139 206.265 92.0455 206.925 92.7773 207.002Z" fill="#F7EAFC"/>
<path d="M101.316 207.925C102.048 208.005 102.708 207.474 102.786 206.742C102.866 206.01 102.334 205.35 101.602 205.273C100.87 205.193 100.21 205.725 100.133 206.456C100.053 207.188 100.585 207.848 101.316 207.925Z" fill="#F7EAFC"/>
<path d="M109.863 208.849C110.595 208.929 111.255 208.397 111.332 207.666C111.412 206.934 110.881 206.274 110.149 206.196C109.417 206.116 108.757 206.648 108.68 207.38C108.6 208.111 109.131 208.772 109.863 208.849Z" fill="#F7EAFC"/>
<path d="M118.41 209.775C119.142 209.855 119.802 209.323 119.879 208.591C119.959 207.86 119.428 207.199 118.696 207.122C117.964 207.042 117.304 207.574 117.227 208.305C117.147 209.037 117.678 209.697 118.41 209.775Z" fill="#F7EAFC"/>
<path d="M126.949 210.698C127.681 210.778 128.341 210.246 128.418 209.515C128.498 208.783 127.967 208.123 127.235 208.046C126.503 207.966 125.843 208.497 125.766 209.229C125.686 209.96 126.217 210.621 126.949 210.698Z" fill="#F7EAFC"/>
<path d="M135.496 211.621C136.228 211.701 136.888 211.169 136.965 210.437C137.045 209.706 136.514 209.046 135.782 208.968C135.05 208.888 134.39 209.42 134.313 210.152C134.233 210.883 134.764 211.544 135.496 211.621Z" fill="#F7EAFC"/>
<path d="M144.035 212.547C144.767 212.627 145.427 212.095 145.504 211.364C145.584 210.632 145.053 209.972 144.321 209.895C143.589 209.815 142.929 210.346 142.852 211.078C142.772 211.81 143.303 212.47 144.035 212.547Z" fill="#F7EAFC"/>
<path d="M152.582 213.47C153.314 213.55 153.974 213.018 154.051 212.287C154.131 211.555 153.6 210.895 152.868 210.818C152.136 210.738 151.476 211.269 151.399 212.001C151.319 212.732 151.85 213.393 152.582 213.47Z" fill="#F7EAFC"/>
<path d="M161.129 214.393C161.861 214.473 162.521 213.942 162.598 213.21C162.678 212.478 162.146 211.818 161.415 211.741C160.683 211.661 160.023 212.192 159.945 212.924C159.865 213.656 160.397 214.316 161.129 214.393Z" fill="#F7EAFC"/>
<path d="M169.668 215.319C170.4 215.399 171.06 214.868 171.137 214.136C171.217 213.405 170.685 212.744 169.954 212.667C169.222 212.587 168.562 213.119 168.485 213.85C168.405 214.582 168.936 215.242 169.668 215.319Z" fill="#F7EAFC"/>
<path d="M178.215 216.242C178.947 216.322 179.607 215.791 179.684 215.059C179.764 214.327 179.232 213.667 178.501 213.59C177.769 213.51 177.109 214.042 177.031 214.773C176.951 215.505 177.483 216.165 178.215 216.242Z" fill="#F7EAFC"/>
<path d="M186.754 217.166C187.486 217.246 188.146 216.714 188.223 215.982C188.303 215.251 187.771 214.591 187.04 214.513C186.308 214.433 185.648 214.965 185.57 215.697C185.49 216.428 186.022 217.088 186.754 217.166Z" fill="#F7EAFC"/>
<path d="M195.301 218.091C196.032 218.171 196.693 217.64 196.77 216.908C196.85 216.177 196.318 215.516 195.587 215.439C194.855 215.359 194.195 215.891 194.117 216.622C194.037 217.354 194.569 218.014 195.301 218.091Z" fill="#F7EAFC"/>
<path d="M203.84 219.015C204.572 219.095 205.232 218.563 205.309 217.832C205.389 217.1 204.857 216.44 204.126 216.362C203.394 216.282 202.734 216.814 202.656 217.546C202.576 218.277 203.108 218.938 203.84 219.015Z" fill="#F7EAFC"/>
<path d="M212.387 219.938C213.118 220.018 213.779 219.487 213.856 218.755C213.936 218.023 213.404 217.363 212.672 217.286C211.941 217.206 211.28 217.737 211.203 218.469C211.123 219.201 211.655 219.861 212.387 219.938Z" fill="#F7EAFC"/>
<path d="M220.926 220.864C221.657 220.944 222.318 220.412 222.395 219.681C222.475 218.949 221.943 218.289 221.212 218.212C220.48 218.132 219.82 218.663 219.742 219.395C219.662 220.127 220.194 220.787 220.926 220.864Z" fill="#F7EAFC"/>
<path d="M229.473 221.787C230.204 221.867 230.865 221.336 230.942 220.604C231.022 219.872 230.49 219.212 229.758 219.135C229.027 219.055 228.366 219.586 228.289 220.318C228.209 221.05 228.741 221.71 229.473 221.787Z" fill="#F7EAFC"/>
<path d="M238.012 222.71C238.743 222.79 239.404 222.259 239.481 221.527C239.561 220.795 239.029 220.135 238.297 220.058C237.566 219.978 236.905 220.509 236.828 221.241C236.748 221.973 237.28 222.633 238.012 222.71Z" fill="#F7EAFC"/>
<path d="M246.559 223.636C247.29 223.716 247.951 223.185 248.028 222.453C248.108 221.721 247.576 221.061 246.844 220.984C246.113 220.904 245.452 221.436 245.375 222.167C245.295 222.899 245.827 223.559 246.559 223.636Z" fill="#F7EAFC"/>
<path d="M255.105 224.559C255.837 224.639 256.497 224.108 256.575 223.376C256.655 222.644 256.123 221.984 255.391 221.907C254.659 221.827 253.999 222.358 253.922 223.09C253.842 223.822 254.374 224.482 255.105 224.559Z" fill="#F7EAFC"/>
<path d="M263.644 225.483C264.376 225.563 265.036 225.031 265.114 224.299C265.194 223.568 264.662 222.907 263.93 222.83C263.199 222.75 262.538 223.282 262.461 224.013C262.381 224.745 262.913 225.405 263.644 225.483Z" fill="#F7EAFC"/>
<path d="M272.191 226.409C272.923 226.489 273.583 225.957 273.661 225.226C273.741 224.494 273.209 223.834 272.477 223.757C271.745 223.676 271.085 224.208 271.008 224.94C270.928 225.671 271.46 226.332 272.191 226.409Z" fill="#F7EAFC"/>
<path d="M280.73 227.332C281.462 227.412 282.122 226.88 282.2 226.148C282.28 225.417 281.748 224.757 281.016 224.679C280.284 224.599 279.624 225.131 279.547 225.863C279.467 226.594 279.999 227.255 280.73 227.332Z" fill="#F7EAFC"/>
<path d="M289.277 228.255C290.009 228.335 290.669 227.803 290.746 227.072C290.827 226.34 290.295 225.68 289.563 225.603C288.831 225.523 288.171 226.054 288.094 226.786C288.014 227.518 288.546 228.178 289.277 228.255Z" fill="#F7EAFC"/>
<path d="M297.824 229.181C298.556 229.261 299.216 228.729 299.293 227.998C299.373 227.266 298.842 226.606 298.11 226.528C297.378 226.448 296.718 226.98 296.641 227.712C296.561 228.443 297.092 229.104 297.824 229.181Z" fill="#F7EAFC"/>
<path d="M306.363 230.104C307.095 230.184 307.755 229.653 307.832 228.921C307.912 228.189 307.381 227.529 306.649 227.452C305.917 227.372 305.257 227.903 305.18 228.635C305.1 229.367 305.631 230.027 306.363 230.104Z" fill="#F7EAFC"/>
<path d="M314.91 231.027C315.642 231.108 316.302 230.576 316.379 229.844C316.459 229.113 315.928 228.452 315.196 228.375C314.464 228.295 313.804 228.827 313.727 229.558C313.647 230.29 314.178 230.95 314.91 231.027Z" fill="#F7EAFC"/>
<path d="M323.449 231.953C324.181 232.033 324.841 231.502 324.918 230.77C324.998 230.038 324.467 229.378 323.735 229.301C323.003 229.221 322.343 229.753 322.266 230.484C322.186 231.216 322.717 231.876 323.449 231.953Z" fill="#F7EAFC"/>
<path d="M331.996 232.877C332.728 232.957 333.388 232.425 333.465 231.693C333.545 230.962 333.014 230.301 332.282 230.224C331.55 230.144 330.89 230.676 330.813 231.408C330.733 232.139 331.264 232.799 331.996 232.877Z" fill="#F7EAFC"/>
<path d="M340.535 233.802C341.267 233.882 341.927 233.351 342.004 232.619C342.084 231.887 341.553 231.227 340.821 231.15C340.089 231.07 339.429 231.602 339.352 232.333C339.272 233.065 339.803 233.725 340.535 233.802Z" fill="#F7EAFC"/>
<path d="M349.082 234.726C349.814 234.806 350.474 234.274 350.551 233.542C350.631 232.811 350.1 232.151 349.368 232.073C348.636 231.993 347.976 232.525 347.899 233.257C347.819 233.988 348.35 234.649 349.082 234.726Z" fill="#F7EAFC"/>
<path d="M357.629 235.649C358.361 235.729 359.021 235.197 359.098 234.466C359.178 233.734 358.646 233.074 357.915 232.997C357.183 232.917 356.523 233.448 356.445 234.18C356.365 234.912 356.897 235.572 357.629 235.649Z" fill="#F7EAFC"/>
<path d="M57.6757 211.847C58.4075 211.927 59.0677 211.395 59.1449 210.664C59.2249 209.932 58.6933 209.272 57.9615 209.194C57.2298 209.114 56.5695 209.646 56.4923 210.378C56.4123 211.109 56.944 211.77 57.6757 211.847Z" fill="#F7EAFC"/>
<path d="M66.2226 212.773C66.9543 212.853 67.6146 212.321 67.6918 211.589C67.7718 210.858 67.2402 210.197 66.5084 210.12C65.7767 210.04 65.1164 210.572 65.0392 211.304C64.9592 212.035 65.4908 212.695 66.2226 212.773Z" fill="#F7EAFC"/>
<path d="M74.7695 213.696C75.5012 213.776 76.1615 213.244 76.2387 212.513C76.3187 211.781 75.787 211.121 75.0553 211.044C74.3236 210.964 73.6633 211.495 73.5861 212.227C73.5061 212.959 74.0377 213.619 74.7695 213.696Z" fill="#F7EAFC"/>
<path d="M83.3085 214.619C84.0403 214.699 84.7005 214.167 84.7777 213.436C84.8578 212.704 84.3261 212.044 83.5944 211.966C82.8626 211.886 82.2023 212.418 82.1252 213.15C82.0451 213.881 82.5768 214.542 83.3085 214.619Z" fill="#F7EAFC"/>
<path d="M91.8554 215.545C92.5871 215.625 93.2474 215.093 93.3246 214.362C93.4046 213.63 92.873 212.97 92.1412 212.893C91.4095 212.813 90.7492 213.344 90.672 214.076C90.592 214.808 91.1237 215.468 91.8554 215.545Z" fill="#F7EAFC"/>
<path d="M100.394 216.468C101.126 216.548 101.786 216.017 101.864 215.285C101.944 214.553 101.412 213.893 100.68 213.816C99.9486 213.736 99.2883 214.268 99.2111 214.999C99.1311 215.731 99.6627 216.391 100.394 216.468Z" fill="#F7EAFC"/>
<path d="M108.941 217.391C109.673 217.471 110.333 216.94 110.411 216.208C110.491 215.476 109.959 214.816 109.227 214.739C108.495 214.659 107.835 215.19 107.758 215.922C107.678 216.654 108.21 217.314 108.941 217.391Z" fill="#F7EAFC"/>
<path d="M117.48 218.317C118.212 218.398 118.872 217.866 118.95 217.134C119.03 216.403 118.498 215.742 117.766 215.665C117.034 215.585 116.374 216.117 116.297 216.848C116.217 217.58 116.749 218.24 117.48 218.317Z" fill="#F7EAFC"/>
<path d="M126.027 219.24C126.759 219.32 127.419 218.789 127.496 218.057C127.577 217.325 127.045 216.665 126.313 216.588C125.581 216.508 124.921 217.04 124.844 217.771C124.764 218.503 125.296 219.163 126.027 219.24Z" fill="#F7EAFC"/>
<path d="M134.566 220.164C135.298 220.244 135.958 219.712 136.036 218.98C136.116 218.249 135.584 217.589 134.852 217.511C134.12 217.431 133.46 217.963 133.383 218.695C133.303 219.426 133.835 220.087 134.566 220.164Z" fill="#F7EAFC"/>
<path d="M143.113 221.089C143.845 221.169 144.505 220.638 144.582 219.906C144.662 219.175 144.131 218.514 143.399 218.437C142.667 218.357 142.007 218.889 141.93 219.62C141.85 220.352 142.381 221.012 143.113 221.089Z" fill="#F7EAFC"/>
<path d="M151.652 222.013C152.384 222.093 153.044 221.561 153.121 220.83C153.201 220.098 152.67 219.438 151.938 219.361C151.206 219.28 150.546 219.812 150.469 220.544C150.389 221.275 150.921 221.936 151.652 222.013Z" fill="#F7EAFC"/>
<path d="M160.199 222.936C160.931 223.016 161.591 222.485 161.668 221.753C161.748 221.021 161.217 220.361 160.485 220.284C159.753 220.204 159.093 220.735 159.016 221.467C158.936 222.199 159.467 222.859 160.199 222.936Z" fill="#F7EAFC"/>
<path d="M168.746 223.862C169.478 223.942 170.138 223.41 170.215 222.679C170.295 221.947 169.764 221.287 169.032 221.21C168.3 221.13 167.64 221.661 167.563 222.393C167.483 223.125 168.014 223.785 168.746 223.862Z" fill="#F7EAFC"/>
<path d="M177.285 224.785C178.017 224.865 178.677 224.334 178.754 223.602C178.834 222.87 178.303 222.21 177.571 222.133C176.839 222.053 176.179 222.585 176.102 223.316C176.022 224.048 176.553 224.708 177.285 224.785Z" fill="#F7EAFC"/>
<path d="M185.832 225.709C186.564 225.789 187.224 225.257 187.301 224.525C187.381 223.794 186.85 223.133 186.118 223.056C185.386 222.976 184.726 223.508 184.649 224.24C184.569 224.971 185.1 225.631 185.832 225.709Z" fill="#F7EAFC"/>
<path d="M194.371 226.634C195.103 226.714 195.763 226.183 195.84 225.451C195.92 224.719 195.389 224.059 194.657 223.982C193.925 223.902 193.265 224.434 193.188 225.165C193.108 225.897 193.639 226.557 194.371 226.634Z" fill="#F7EAFC"/>
<path d="M202.918 227.558C203.65 227.638 204.31 227.106 204.387 226.374C204.467 225.643 203.935 224.983 203.204 224.905C202.472 224.825 201.812 225.357 201.735 226.089C201.655 226.82 202.186 227.481 202.918 227.558Z" fill="#F7EAFC"/>
<path d="M211.465 228.481C212.197 228.561 212.857 228.029 212.934 227.297C213.014 226.566 212.482 225.905 211.751 225.828C211.019 225.748 210.359 226.28 210.281 227.012C210.201 227.743 210.733 228.403 211.465 228.481Z" fill="#F7EAFC"/>
<path d="M220.004 229.407C220.736 229.487 221.396 228.955 221.473 228.224C221.553 227.492 221.021 226.832 220.29 226.755C219.558 226.675 218.898 227.206 218.82 227.938C218.74 228.669 219.272 229.33 220.004 229.407Z" fill="#F7EAFC"/>
<path d="M228.551 230.33C229.282 230.41 229.943 229.878 230.02 229.146C230.1 228.415 229.568 227.755 228.837 227.677C228.105 227.597 227.445 228.129 227.367 228.861C227.287 229.592 227.819 230.253 228.551 230.33Z" fill="#F7EAFC"/>
<path d="M237.09 231.253C237.822 231.333 238.482 230.801 238.559 230.07C238.639 229.338 238.107 228.678 237.376 228.601C236.644 228.521 235.984 229.052 235.906 229.784C235.826 230.516 236.358 231.176 237.09 231.253Z" fill="#F7EAFC"/>
<path d="M245.637 232.179C246.368 232.259 247.029 231.728 247.106 230.996C247.186 230.264 246.654 229.604 245.922 229.527C245.191 229.447 244.53 229.979 244.453 230.71C244.373 231.442 244.905 232.102 245.637 232.179Z" fill="#F7EAFC"/>
<path d="M254.176 233.102C254.907 233.182 255.568 232.651 255.645 231.919C255.725 231.187 255.193 230.527 254.462 230.45C253.73 230.37 253.07 230.901 252.992 231.633C252.912 232.365 253.444 233.025 254.176 233.102Z" fill="#F7EAFC"/>
<path d="M262.723 234.026C263.454 234.106 264.115 233.574 264.192 232.842C264.272 232.111 263.74 231.45 263.008 231.373C262.277 231.293 261.616 231.825 261.539 232.556C261.459 233.288 261.991 233.948 262.723 234.026Z" fill="#F7EAFC"/>
<path d="M271.269 234.951C272.001 235.031 272.661 234.5 272.739 233.768C272.819 233.036 272.287 232.376 271.555 232.299C270.824 232.219 270.163 232.751 270.086 233.482C270.006 234.214 270.538 234.874 271.269 234.951Z" fill="#F7EAFC"/>
<path d="M279.809 235.875C280.54 235.955 281.201 235.423 281.278 234.691C281.358 233.96 280.826 233.299 280.094 233.222C279.363 233.142 278.702 233.674 278.625 234.406C278.545 235.137 279.077 235.797 279.809 235.875Z" fill="#F7EAFC"/>
<path d="M288.355 236.798C289.087 236.878 289.747 236.346 289.825 235.615C289.905 234.883 289.373 234.223 288.641 234.146C287.909 234.066 287.249 234.597 287.172 235.329C287.092 236.061 287.624 236.721 288.355 236.798Z" fill="#F7EAFC"/>
<path d="M296.894 237.724C297.626 237.804 298.286 237.272 298.364 236.541C298.444 235.809 297.912 235.149 297.18 235.071C296.449 234.991 295.788 235.523 295.711 236.255C295.631 236.986 296.163 237.647 296.894 237.724Z" fill="#F7EAFC"/>
<path d="M305.441 238.647C306.173 238.727 306.833 238.196 306.911 237.464C306.991 236.732 306.459 236.072 305.727 235.995C304.995 235.915 304.335 236.446 304.258 237.178C304.178 237.91 304.71 238.57 305.441 238.647Z" fill="#F7EAFC"/>
<path d="M313.988 239.57C314.72 239.65 315.38 239.118 315.457 238.387C315.537 237.655 315.006 236.995 314.274 236.918C313.542 236.838 312.882 237.369 312.805 238.101C312.725 238.833 313.256 239.493 313.988 239.57Z" fill="#F7EAFC"/>
<path d="M322.527 240.496C323.259 240.576 323.919 240.045 323.996 239.313C324.077 238.581 323.545 237.921 322.813 237.844C322.081 237.764 321.421 238.295 321.344 239.027C321.264 239.759 321.796 240.419 322.527 240.496Z" fill="#F7EAFC"/>
<path d="M331.074 241.419C331.806 241.499 332.466 240.967 332.543 240.236C332.623 239.504 332.092 238.844 331.36 238.767C330.628 238.687 329.968 239.218 329.891 239.95C329.811 240.682 330.342 241.342 331.074 241.419Z" fill="#F7EAFC"/>
<path d="M339.613 242.345C340.345 242.425 341.005 241.894 341.082 241.162C341.162 240.43 340.631 239.77 339.899 239.693C339.167 239.613 338.507 240.145 338.43 240.876C338.35 241.608 338.881 242.268 339.613 242.345Z" fill="#F7EAFC"/>
<path d="M348.16 243.269C348.892 243.349 349.552 242.817 349.629 242.085C349.709 241.354 349.178 240.694 348.446 240.616C347.714 240.536 347.054 241.068 346.977 241.8C346.897 242.531 347.428 243.191 348.16 243.269Z" fill="#F7EAFC"/>
<path d="M356.699 244.192C357.431 244.272 358.091 243.74 358.168 243.008C358.248 242.277 357.717 241.616 356.985 241.539C356.253 241.459 355.593 241.991 355.516 242.722C355.436 243.454 355.967 244.114 356.699 244.192Z" fill="#F7EAFC"/>
<path d="M56.7538 220.389C57.4856 220.469 58.1459 219.938 58.223 219.206C58.3031 218.474 57.7714 217.814 57.0397 217.737C56.3079 217.657 55.6476 218.189 55.5705 218.92C55.4904 219.652 56.0221 220.312 56.7538 220.389Z" fill="#F7EAFC"/>
<path d="M65.2929 221.316C66.0246 221.396 66.6849 220.864 66.7621 220.132C66.8421 219.401 66.3105 218.74 65.5787 218.663C64.847 218.583 64.1867 219.115 64.1095 219.846C64.0295 220.578 64.5612 221.238 65.2929 221.316Z" fill="#F7EAFC"/>
<path d="M73.8398 222.239C74.5715 222.319 75.2318 221.787 75.309 221.056C75.389 220.324 74.8573 219.664 74.1256 219.587C73.3939 219.507 72.7336 220.038 72.6564 220.77C72.5764 221.502 73.108 222.162 73.8398 222.239Z" fill="#F7EAFC"/>
<path d="M82.3867 223.162C83.1184 223.242 83.7787 222.71 83.8558 221.978C83.9359 221.247 83.4042 220.587 82.6725 220.509C81.9407 220.429 81.2805 220.961 81.2033 221.693C81.1233 222.424 81.6549 223.085 82.3867 223.162Z" fill="#F7EAFC"/>
<path d="M90.9257 224.088C91.6574 224.168 92.3177 223.636 92.3949 222.905C92.4749 222.173 91.9433 221.513 91.2115 221.436C90.4798 221.356 89.8195 221.887 89.7423 222.619C89.6623 223.351 90.194 224.011 90.9257 224.088Z" fill="#F7EAFC"/>
<path d="M99.4726 225.011C100.204 225.091 100.865 224.559 100.942 223.828C101.022 223.096 100.49 222.436 99.7584 222.359C99.0267 222.279 98.3664 222.81 98.2892 223.542C98.2092 224.273 98.7408 224.934 99.4726 225.011Z" fill="#F7EAFC"/>
<path d="M108.012 225.934C108.743 226.014 109.404 225.483 109.481 224.751C109.561 224.019 109.029 223.359 108.297 223.282C107.566 223.202 106.905 223.733 106.828 224.465C106.748 225.197 107.28 225.857 108.012 225.934Z" fill="#F7EAFC"/>
<path d="M116.559 226.86C117.29 226.94 117.951 226.408 118.028 225.677C118.108 224.945 117.576 224.285 116.844 224.208C116.113 224.128 115.452 224.659 115.375 225.391C115.295 226.123 115.827 226.783 116.559 226.86Z" fill="#F7EAFC"/>
<path d="M125.098 227.783C125.829 227.863 126.49 227.332 126.567 226.6C126.647 225.868 126.115 225.208 125.383 225.131C124.652 225.051 123.991 225.583 123.914 226.314C123.834 227.046 124.366 227.706 125.098 227.783Z" fill="#F7EAFC"/>
<path d="M133.644 228.707C134.376 228.787 135.036 228.255 135.114 227.523C135.194 226.792 134.662 226.132 133.93 226.054C133.199 225.974 132.538 226.506 132.461 227.238C132.381 227.969 132.913 228.63 133.644 228.707Z" fill="#F7EAFC"/>
<path d="M142.191 229.632C142.923 229.712 143.583 229.181 143.661 228.449C143.741 227.718 143.209 227.057 142.477 226.98C141.745 226.9 141.085 227.432 141.008 228.163C140.928 228.895 141.46 229.555 142.191 229.632Z" fill="#F7EAFC"/>
<path d="M150.73 230.556C151.462 230.636 152.122 230.104 152.2 229.373C152.28 228.641 151.748 227.981 151.016 227.903C150.284 227.823 149.624 228.355 149.547 229.087C149.467 229.818 149.999 230.479 150.73 230.556Z" fill="#F7EAFC"/>
<path d="M159.277 231.479C160.009 231.559 160.669 231.027 160.746 230.295C160.827 229.564 160.295 228.903 159.563 228.826C158.831 228.746 158.171 229.278 158.094 230.01C158.014 230.741 158.546 231.401 159.277 231.479Z" fill="#F7EAFC"/>
<path d="M167.816 232.405C168.548 232.485 169.208 231.953 169.286 231.222C169.366 230.49 168.834 229.83 168.102 229.753C167.37 229.673 166.71 230.204 166.633 230.936C166.553 231.668 167.085 232.328 167.816 232.405Z" fill="#F7EAFC"/>
<path d="M176.363 233.328C177.095 233.408 177.755 232.877 177.832 232.145C177.912 231.413 177.381 230.753 176.649 230.676C175.917 230.596 175.257 231.128 175.18 231.859C175.1 232.591 175.631 233.251 176.363 233.328Z" fill="#F7EAFC"/>
<path d="M184.91 234.251C185.642 234.331 186.302 233.8 186.379 233.068C186.459 232.336 185.928 231.676 185.196 231.599C184.464 231.519 183.804 232.05 183.727 232.782C183.647 233.514 184.178 234.174 184.91 234.251Z" fill="#F7EAFC"/>
<path d="M193.449 235.177C194.181 235.257 194.841 234.726 194.918 233.994C194.998 233.262 194.467 232.602 193.735 232.525C193.003 232.445 192.343 232.977 192.266 233.708C192.186 234.44 192.717 235.1 193.449 235.177Z" fill="#F7EAFC"/>
<path d="M201.996 236.1C202.728 236.18 203.388 235.649 203.465 234.917C203.545 234.185 203.014 233.525 202.282 233.448C201.55 233.368 200.89 233.899 200.813 234.631C200.733 235.363 201.264 236.023 201.996 236.1Z" fill="#F7EAFC"/>
<path d="M210.535 237.024C211.267 237.104 211.927 236.572 212.004 235.84C212.084 235.109 211.553 234.448 210.821 234.371C210.089 234.291 209.429 234.823 209.352 235.555C209.272 236.286 209.803 236.946 210.535 237.024Z" fill="#F7EAFC"/>
<path d="M219.082 237.949C219.814 238.029 220.474 237.498 220.551 236.766C220.631 236.034 220.1 235.374 219.368 235.297C218.636 235.217 217.976 235.749 217.899 236.48C217.819 237.212 218.35 237.872 219.082 237.949Z" fill="#F7EAFC"/>
<path d="M227.621 238.873C228.353 238.953 229.013 238.421 229.09 237.689C229.17 236.958 228.639 236.298 227.907 236.22C227.175 236.14 226.515 236.672 226.438 237.404C226.358 238.135 226.889 238.795 227.621 238.873Z" fill="#F7EAFC"/>
<path d="M236.168 239.796C236.9 239.876 237.56 239.344 237.637 238.613C237.717 237.881 237.185 237.221 236.454 237.144C235.722 237.064 235.062 237.595 234.985 238.327C234.905 239.059 235.436 239.719 236.168 239.796Z" fill="#F7EAFC"/>
<path d="M244.715 240.722C245.446 240.802 246.107 240.27 246.184 239.539C246.264 238.807 245.732 238.147 245.001 238.069C244.269 237.989 243.609 238.521 243.531 239.253C243.451 239.984 243.983 240.645 244.715 240.722Z" fill="#F7EAFC"/>
<path d="M253.254 241.645C253.986 241.725 254.646 241.194 254.723 240.462C254.803 239.73 254.271 239.07 253.54 238.993C252.808 238.913 252.148 239.444 252.07 240.176C251.99 240.908 252.522 241.568 253.254 241.645Z" fill="#F7EAFC"/>
<path d="M261.801 242.568C262.532 242.648 263.193 242.116 263.27 241.385C263.35 240.653 262.818 239.993 262.087 239.916C261.355 239.836 260.695 240.367 260.617 241.099C260.537 241.831 261.069 242.491 261.801 242.568Z" fill="#F7EAFC"/>
<path d="M270.34 243.494C271.072 243.574 271.732 243.043 271.809 242.311C271.889 241.579 271.357 240.919 270.626 240.842C269.894 240.762 269.234 241.294 269.156 242.025C269.076 242.757 269.608 243.417 270.34 243.494Z" fill="#F7EAFC"/>
<path d="M278.887 244.418C279.618 244.498 280.279 243.966 280.356 243.234C280.436 242.503 279.904 241.842 279.172 241.765C278.441 241.685 277.78 242.217 277.703 242.949C277.623 243.68 278.155 244.34 278.887 244.418Z" fill="#F7EAFC"/>
<path d="M287.426 245.34C288.157 245.42 288.818 244.889 288.895 244.157C288.975 243.426 288.443 242.765 287.712 242.688C286.98 242.608 286.32 243.14 286.242 243.871C286.162 244.603 286.694 245.263 287.426 245.34Z" fill="#F7EAFC"/>
<path d="M295.973 246.267C296.704 246.347 297.365 245.815 297.442 245.083C297.522 244.352 296.99 243.692 296.258 243.614C295.527 243.534 294.866 244.066 294.789 244.798C294.709 245.529 295.241 246.19 295.973 246.267Z" fill="#F7EAFC"/>
<path d="M304.512 247.19C305.243 247.27 305.904 246.738 305.981 246.006C306.061 245.275 305.529 244.614 304.797 244.537C304.066 244.457 303.405 244.989 303.328 245.721C303.248 246.452 303.78 247.112 304.512 247.19Z" fill="#F7EAFC"/>
<path d="M313.059 248.113C313.79 248.193 314.451 247.661 314.528 246.93C314.608 246.198 314.076 245.538 313.344 245.461C312.613 245.381 311.952 245.912 311.875 246.644C311.795 247.376 312.327 248.036 313.059 248.113Z" fill="#F7EAFC"/>
<path d="M321.605 249.039C322.337 249.119 322.997 248.587 323.075 247.855C323.155 247.124 322.623 246.464 321.891 246.386C321.159 246.306 320.499 246.838 320.422 247.57C320.342 248.301 320.874 248.962 321.605 249.039Z" fill="#F7EAFC"/>
<path d="M330.144 249.962C330.876 250.042 331.536 249.51 331.614 248.779C331.694 248.047 331.162 247.387 330.43 247.31C329.699 247.23 329.038 247.761 328.961 248.493C328.881 249.225 329.413 249.885 330.144 249.962Z" fill="#F7EAFC"/>
<path d="M338.691 250.885C339.423 250.965 340.083 250.434 340.161 249.702C340.241 248.97 339.709 248.31 338.977 248.233C338.245 248.153 337.585 248.685 337.508 249.416C337.428 250.148 337.96 250.808 338.691 250.885Z" fill="#F7EAFC"/>
<path d="M347.23 251.811C347.962 251.891 348.622 251.36 348.7 250.628C348.78 249.896 348.248 249.236 347.516 249.159C346.784 249.079 346.124 249.61 346.047 250.342C345.967 251.074 346.499 251.734 347.23 251.811Z" fill="#F7EAFC"/>
<path d="M355.777 252.734C356.509 252.814 357.169 252.283 357.246 251.551C357.327 250.82 356.795 250.159 356.063 250.082C355.331 250.002 354.671 250.534 354.594 251.265C354.514 251.997 355.046 252.657 355.777 252.734Z" fill="#F7EAFC"/>
<path d="M55.832 228.932C56.5637 229.012 57.224 228.481 57.3012 227.749C57.3812 227.017 56.8495 226.357 56.1178 226.28C55.3861 226.2 54.7258 226.732 54.6486 227.463C54.5686 228.195 55.1002 228.855 55.832 228.932Z" fill="#F7EAFC"/>
<path d="M64.371 229.856C65.1028 229.936 65.763 229.404 65.8402 228.672C65.9203 227.941 65.3886 227.28 64.6569 227.203C63.9251 227.123 63.2648 227.655 63.1877 228.387C63.1076 229.118 63.6393 229.778 64.371 229.856Z" fill="#F7EAFC"/>
<path d="M72.9179 230.781C73.6496 230.861 74.3099 230.33 74.3871 229.598C74.4671 228.866 73.9355 228.206 73.2037 228.129C72.472 228.049 71.8117 228.581 71.7345 229.312C71.6545 230.044 72.1862 230.704 72.9179 230.781Z" fill="#F7EAFC"/>
<path d="M81.457 231.705C82.1887 231.785 82.849 231.253 82.9262 230.521C83.0062 229.79 82.4745 229.13 81.7428 229.052C81.0111 228.972 80.3508 229.504 80.2736 230.236C80.1936 230.967 80.7252 231.628 81.457 231.705Z" fill="#F7EAFC"/>
<path d="M90.0038 232.63C90.7356 232.711 91.3959 232.179 91.473 231.447C91.5531 230.716 91.0214 230.055 90.2897 229.978C89.5579 229.898 88.8976 230.43 88.8205 231.161C88.7404 231.893 89.2721 232.553 90.0038 232.63Z" fill="#F7EAFC"/>
<path d="M98.5507 233.554C99.2824 233.634 99.9427 233.102 100.02 232.371C100.1 231.639 99.5683 230.979 98.8365 230.902C98.1048 230.822 97.4445 231.353 97.3673 232.085C97.2873 232.816 97.819 233.477 98.5507 233.554Z" fill="#F7EAFC"/>
<path d="M107.09 234.477C107.822 234.557 108.482 234.026 108.559 233.294C108.639 232.562 108.107 231.902 107.376 231.825C106.644 231.745 105.984 232.276 105.906 233.008C105.826 233.74 106.358 234.4 107.09 234.477Z" fill="#F7EAFC"/>
<path d="M115.637 235.403C116.368 235.483 117.029 234.951 117.106 234.22C117.186 233.488 116.654 232.828 115.922 232.751C115.191 232.671 114.53 233.202 114.453 233.934C114.373 234.666 114.905 235.326 115.637 235.403Z" fill="#F7EAFC"/>
<path d="M124.176 236.326C124.907 236.406 125.568 235.875 125.645 235.143C125.725 234.411 125.193 233.751 124.462 233.674C123.73 233.594 123.07 234.126 122.992 234.857C122.912 235.589 123.444 236.249 124.176 236.326Z" fill="#F7EAFC"/>
<path d="M132.723 237.249C133.454 237.329 134.115 236.798 134.192 236.066C134.272 235.334 133.74 234.674 133.008 234.597C132.277 234.517 131.616 235.048 131.539 235.78C131.459 236.512 131.991 237.172 132.723 237.249Z" fill="#F7EAFC"/>
<path d="M141.262 238.175C141.993 238.255 142.654 237.724 142.731 236.992C142.811 236.26 142.279 235.6 141.547 235.523C140.816 235.443 140.155 235.975 140.078 236.706C139.998 237.438 140.53 238.098 141.262 238.175Z" fill="#F7EAFC"/>
<path d="M149.809 239.098C150.54 239.178 151.201 238.647 151.278 237.915C151.358 237.183 150.826 236.523 150.094 236.446C149.363 236.366 148.702 236.898 148.625 237.629C148.545 238.361 149.077 239.021 149.809 239.098Z" fill="#F7EAFC"/>
<path d="M158.355 240.022C159.087 240.102 159.747 239.57 159.825 238.838C159.905 238.107 159.373 237.446 158.641 237.369C157.909 237.289 157.249 237.821 157.172 238.553C157.092 239.284 157.624 239.944 158.355 240.022Z" fill="#F7EAFC"/>
<path d="M166.894 240.948C167.626 241.028 168.286 240.496 168.364 239.765C168.444 239.033 167.912 238.373 167.18 238.296C166.449 238.216 165.788 238.747 165.711 239.479C165.631 240.21 166.163 240.871 166.894 240.948Z" fill="#F7EAFC"/>
<path d="M175.441 241.871C176.173 241.951 176.833 241.419 176.911 240.687C176.991 239.956 176.459 239.296 175.727 239.218C174.995 239.138 174.335 239.67 174.258 240.402C174.178 241.133 174.71 241.794 175.441 241.871Z" fill="#F7EAFC"/>
<path d="M183.98 242.794C184.712 242.874 185.372 242.342 185.45 241.611C185.53 240.879 184.998 240.219 184.266 240.142C183.534 240.062 182.874 240.593 182.797 241.325C182.717 242.057 183.249 242.717 183.98 242.794Z" fill="#F7EAFC"/>
<path d="M192.527 243.72C193.259 243.8 193.919 243.268 193.996 242.537C194.076 241.805 193.545 241.145 192.813 241.068C192.081 240.988 191.421 241.519 191.344 242.251C191.264 242.982 191.796 243.643 192.527 243.72Z" fill="#F7EAFC"/>
<path d="M201.066 244.643C201.798 244.723 202.458 244.192 202.536 243.46C202.616 242.728 202.084 242.068 201.352 241.991C200.62 241.911 199.96 242.442 199.883 243.174C199.803 243.906 200.335 244.566 201.066 244.643Z" fill="#F7EAFC"/>
<path d="M209.613 245.567C210.345 245.647 211.005 245.115 211.082 244.383C211.162 243.652 210.631 242.991 209.899 242.914C209.167 242.834 208.507 243.366 208.43 244.097C208.35 244.829 208.881 245.489 209.613 245.567Z" fill="#F7EAFC"/>
<path d="M218.152 246.492C218.884 246.572 219.544 246.041 219.621 245.309C219.702 244.577 219.17 243.917 218.438 243.84C217.706 243.76 217.046 244.292 216.969 245.023C216.889 245.755 217.421 246.415 218.152 246.492Z" fill="#F7EAFC"/>
<path d="M226.699 247.416C227.431 247.496 228.091 246.964 228.168 246.232C228.248 245.501 227.717 244.841 226.985 244.763C226.253 244.683 225.593 245.215 225.516 245.947C225.436 246.678 225.967 247.338 226.699 247.416Z" fill="#F7EAFC"/>
<path d="M235.246 248.338C235.978 248.419 236.638 247.887 236.715 247.155C236.795 246.424 236.264 245.763 235.532 245.686C234.8 245.606 234.14 246.138 234.063 246.869C233.983 247.601 234.514 248.261 235.246 248.338Z" fill="#F7EAFC"/>
<path d="M243.785 249.265C244.517 249.345 245.177 248.813 245.254 248.082C245.334 247.35 244.803 246.69 244.071 246.612C243.339 246.532 242.679 247.064 242.602 247.796C242.522 248.527 243.053 249.188 243.785 249.265Z" fill="#F7EAFC"/>
<path d="M252.332 250.188C253.064 250.268 253.724 249.737 253.801 249.005C253.881 248.273 253.35 247.613 252.618 247.536C251.886 247.456 251.226 247.987 251.149 248.719C251.069 249.451 251.6 250.111 252.332 250.188Z" fill="#F7EAFC"/>
<path d="M260.871 251.111C261.603 251.191 262.263 250.659 262.34 249.928C262.42 249.196 261.889 248.536 261.157 248.459C260.425 248.379 259.765 248.91 259.688 249.642C259.608 250.374 260.139 251.034 260.871 251.111Z" fill="#F7EAFC"/>
<path d="M269.418 252.037C270.15 252.117 270.81 251.586 270.887 250.854C270.967 250.122 270.435 249.462 269.704 249.385C268.972 249.305 268.312 249.837 268.235 250.568C268.155 251.3 268.686 251.96 269.418 252.037Z" fill="#F7EAFC"/>
<path d="M277.957 252.96C278.689 253.04 279.349 252.509 279.426 251.777C279.506 251.045 278.975 250.385 278.243 250.308C277.511 250.228 276.851 250.759 276.774 251.491C276.694 252.223 277.225 252.883 277.957 252.96Z" fill="#F7EAFC"/>
<path d="M286.504 253.883C287.236 253.963 287.896 253.432 287.973 252.7C288.053 251.969 287.521 251.308 286.79 251.231C286.058 251.151 285.398 251.683 285.32 252.414C285.24 253.146 285.772 253.806 286.504 253.883Z" fill="#F7EAFC"/>
<path d="M295.051 254.809C295.782 254.889 296.443 254.358 296.52 253.626C296.6 252.894 296.068 252.234 295.337 252.157C294.605 252.077 293.945 252.608 293.867 253.34C293.787 254.072 294.319 254.732 295.051 254.809Z" fill="#F7EAFC"/>
<path d="M303.59 255.733C304.322 255.813 304.982 255.281 305.059 254.549C305.139 253.818 304.607 253.157 303.876 253.08C303.144 253 302.484 253.532 302.406 254.263C302.326 254.995 302.858 255.655 303.59 255.733Z" fill="#F7EAFC"/>
<path d="M312.137 256.656C312.868 256.736 313.529 256.204 313.606 255.473C313.686 254.741 313.154 254.081 312.422 254.004C311.691 253.924 311.03 254.455 310.953 255.187C310.873 255.919 311.405 256.579 312.137 256.656Z" fill="#F7EAFC"/>
<path d="M320.676 257.582C321.407 257.662 322.068 257.13 322.145 256.398C322.225 255.667 321.693 255.007 320.962 254.929C320.23 254.849 319.57 255.381 319.492 256.113C319.412 256.844 319.944 257.505 320.676 257.582Z" fill="#F7EAFC"/>
<path d="M329.223 258.505C329.954 258.585 330.615 258.053 330.692 257.322C330.772 256.59 330.24 255.93 329.508 255.853C328.777 255.773 328.116 256.304 328.039 257.036C327.959 257.768 328.491 258.428 329.223 258.505Z" fill="#F7EAFC"/>
<path d="M337.769 259.428C338.501 259.508 339.161 258.976 339.239 258.245C339.319 257.513 338.787 256.853 338.055 256.776C337.324 256.696 336.663 257.227 336.586 257.959C336.506 258.69 337.038 259.351 337.769 259.428Z" fill="#F7EAFC"/>
<path d="M346.309 260.354C347.04 260.434 347.701 259.903 347.778 259.171C347.858 258.439 347.326 257.779 346.594 257.702C345.863 257.622 345.202 258.153 345.125 258.885C345.045 259.617 345.577 260.277 346.309 260.354Z" fill="#F7EAFC"/>
<path d="M354.855 261.277C355.587 261.358 356.247 260.826 356.325 260.094C356.405 259.363 355.873 258.702 355.141 258.625C354.409 258.545 353.749 259.077 353.672 259.808C353.592 260.54 354.124 261.2 354.855 261.277Z" fill="#F7EAFC"/>
<path d="M54.9023 237.475C55.634 237.555 56.2943 237.024 56.3715 236.292C56.4515 235.56 55.9198 234.9 55.1881 234.823C54.4564 234.743 53.7961 235.274 53.7189 236.006C53.6389 236.738 54.1705 237.398 54.9023 237.475Z" fill="#F7EAFC"/>
<path d="M63.4492 238.398C64.1809 238.478 64.8412 237.946 64.9183 237.215C64.9984 236.483 64.4667 235.823 63.735 235.746C63.0032 235.666 62.343 236.197 62.2658 236.929C62.1858 237.661 62.7174 238.321 63.4492 238.398Z" fill="#F7EAFC"/>
<path d="M71.996 239.324C72.7278 239.404 73.388 238.873 73.4652 238.141C73.5453 237.409 73.0136 236.749 72.2819 236.672C71.5501 236.592 70.8898 237.124 70.8127 237.855C70.7326 238.587 71.2643 239.247 71.996 239.324Z" fill="#F7EAFC"/>
<path d="M80.5351 240.248C81.2668 240.328 81.9271 239.796 82.0043 239.064C82.0843 238.333 81.5527 237.673 80.8209 237.595C80.0892 237.515 79.4289 238.047 79.3517 238.779C79.2717 239.51 79.8033 240.171 80.5351 240.248Z" fill="#F7EAFC"/>
<path d="M89.082 241.171C89.8137 241.251 90.474 240.719 90.5512 239.987C90.6312 239.256 90.0995 238.595 89.3678 238.518C88.6361 238.438 87.9758 238.97 87.8986 239.701C87.8186 240.433 88.3502 241.093 89.082 241.171Z" fill="#F7EAFC"/>
<path d="M97.621 242.097C98.3528 242.177 99.013 241.645 99.0902 240.914C99.1703 240.182 98.6386 239.522 97.9069 239.444C97.1751 239.364 96.5148 239.896 96.4377 240.628C96.3576 241.359 96.8893 242.02 97.621 242.097Z" fill="#F7EAFC"/>
<path d="M106.168 243.02C106.9 243.1 107.56 242.568 107.637 241.836C107.717 241.105 107.185 240.445 106.454 240.367C105.722 240.287 105.062 240.819 104.985 241.551C104.905 242.282 105.436 242.942 106.168 243.02Z" fill="#F7EAFC"/>
<path d="M114.707 243.946C115.439 244.026 116.099 243.494 116.176 242.763C116.256 242.031 115.725 241.371 114.993 241.294C114.261 241.214 113.601 241.745 113.524 242.477C113.444 243.209 113.975 243.869 114.707 243.946Z" fill="#F7EAFC"/>
<path d="M123.254 244.869C123.986 244.949 124.646 244.417 124.723 243.686C124.803 242.954 124.271 242.294 123.54 242.216C122.808 242.136 122.148 242.668 122.07 243.4C121.99 244.131 122.522 244.792 123.254 244.869Z" fill="#F7EAFC"/>
<path d="M131.793 245.792C132.525 245.872 133.185 245.341 133.262 244.609C133.342 243.877 132.81 243.217 132.079 243.14C131.347 243.06 130.687 243.591 130.61 244.323C130.53 245.055 131.061 245.715 131.793 245.792Z" fill="#F7EAFC"/>
<path d="M140.34 246.718C141.072 246.798 141.732 246.267 141.809 245.535C141.889 244.803 141.357 244.143 140.626 244.066C139.894 243.986 139.234 244.518 139.156 245.249C139.076 245.981 139.608 246.641 140.34 246.718Z" fill="#F7EAFC"/>
<path d="M148.887 247.641C149.618 247.721 150.279 247.19 150.356 246.458C150.436 245.726 149.904 245.066 149.172 244.989C148.441 244.909 147.78 245.441 147.703 246.172C147.623 246.904 148.155 247.564 148.887 247.641Z" fill="#F7EAFC"/>
<path d="M157.426 248.565C158.157 248.645 158.818 248.113 158.895 247.381C158.975 246.65 158.443 245.989 157.712 245.912C156.98 245.832 156.32 246.364 156.242 247.096C156.162 247.827 156.694 248.487 157.426 248.565Z" fill="#F7EAFC"/>
<path d="M165.973 249.49C166.704 249.57 167.365 249.039 167.442 248.307C167.522 247.575 166.99 246.915 166.258 246.838C165.527 246.758 164.866 247.29 164.789 248.021C164.709 248.753 165.241 249.413 165.973 249.49Z" fill="#F7EAFC"/>
<path d="M174.512 250.414C175.243 250.494 175.904 249.962 175.981 249.23C176.061 248.499 175.529 247.839 174.797 247.761C174.066 247.681 173.405 248.213 173.328 248.945C173.248 249.676 173.78 250.337 174.512 250.414Z" fill="#F7EAFC"/>
<path d="M183.059 251.337C183.79 251.417 184.451 250.885 184.528 250.154C184.608 249.422 184.076 248.762 183.344 248.685C182.613 248.605 181.952 249.136 181.875 249.868C181.795 250.6 182.327 251.26 183.059 251.337Z" fill="#F7EAFC"/>
<path d="M191.598 252.263C192.329 252.343 192.99 251.811 193.067 251.08C193.147 250.348 192.615 249.688 191.883 249.611C191.152 249.53 190.491 250.062 190.414 250.794C190.334 251.525 190.866 252.186 191.598 252.263Z" fill="#F7EAFC"/>
<path d="M200.144 253.186C200.876 253.266 201.536 252.735 201.614 252.003C201.694 251.271 201.162 250.611 200.43 250.534C199.699 250.454 199.038 250.985 198.961 251.717C198.881 252.449 199.413 253.109 200.144 253.186Z" fill="#F7EAFC"/>
<path d="M208.691 254.109C209.423 254.189 210.083 253.657 210.161 252.926C210.241 252.194 209.709 251.534 208.977 251.457C208.245 251.377 207.585 251.908 207.508 252.64C207.428 253.372 207.96 254.032 208.691 254.109Z" fill="#F7EAFC"/>
<path d="M217.23 255.035C217.962 255.115 218.622 254.584 218.7 253.852C218.78 253.12 218.248 252.46 217.516 252.383C216.784 252.303 216.124 252.835 216.047 253.566C215.967 254.298 216.499 254.958 217.23 255.035Z" fill="#F7EAFC"/>
<path d="M225.777 255.958C226.509 256.038 227.169 255.507 227.246 254.775C227.326 254.043 226.795 253.383 226.063 253.306C225.331 253.226 224.671 253.757 224.594 254.489C224.514 255.221 225.046 255.881 225.777 255.958Z" fill="#F7EAFC"/>
<path d="M234.316 256.881C235.048 256.962 235.708 256.43 235.786 255.698C235.866 254.967 235.334 254.306 234.602 254.229C233.87 254.149 233.21 254.681 233.133 255.412C233.053 256.144 233.585 256.804 234.316 256.881Z" fill="#F7EAFC"/>
<path d="M242.863 257.808C243.595 257.888 244.255 257.356 244.332 256.624C244.412 255.893 243.881 255.233 243.149 255.155C242.417 255.075 241.757 255.607 241.68 256.339C241.6 257.07 242.131 257.731 242.863 257.808Z" fill="#F7EAFC"/>
<path d="M251.41 258.731C252.142 258.811 252.802 258.279 252.879 257.547C252.959 256.816 252.428 256.155 251.696 256.078C250.964 255.998 250.304 256.53 250.227 257.262C250.147 257.993 250.678 258.653 251.41 258.731Z" fill="#F7EAFC"/>
<path d="M259.949 259.654C260.681 259.734 261.341 259.202 261.418 258.471C261.498 257.739 260.967 257.079 260.235 257.002C259.503 256.922 258.843 257.453 258.766 258.185C258.686 258.917 259.217 259.577 259.949 259.654Z" fill="#F7EAFC"/>
<path d="M268.496 260.58C269.228 260.66 269.888 260.128 269.965 259.396C270.045 258.665 269.514 258.005 268.782 257.927C268.05 257.847 267.39 258.379 267.313 259.111C267.233 259.842 267.764 260.503 268.496 260.58Z" fill="#F7EAFC"/>
<path d="M277.035 261.503C277.767 261.583 278.427 261.051 278.504 260.32C278.584 259.588 278.053 258.928 277.321 258.851C276.589 258.771 275.929 259.302 275.852 260.034C275.772 260.766 276.303 261.426 277.035 261.503Z" fill="#F7EAFC"/>
<path d="M285.582 262.426C286.314 262.506 286.974 261.975 287.051 261.243C287.131 260.511 286.6 259.851 285.868 259.774C285.136 259.694 284.476 260.226 284.399 260.957C284.319 261.689 284.85 262.349 285.582 262.426Z" fill="#F7EAFC"/>
<path d="M294.121 263.352C294.853 263.432 295.513 262.901 295.59 262.169C295.67 261.437 295.139 260.777 294.407 260.7C293.675 260.62 293.015 261.151 292.938 261.883C292.858 262.615 293.389 263.275 294.121 263.352Z" fill="#F7EAFC"/>
<path d="M302.668 264.275C303.4 264.356 304.06 263.824 304.137 263.092C304.217 262.361 303.685 261.7 302.954 261.623C302.222 261.543 301.562 262.075 301.485 262.806C301.405 263.538 301.936 264.198 302.668 264.275Z" fill="#F7EAFC"/>
<path d="M311.215 265.198C311.947 265.278 312.607 264.747 312.684 264.015C312.764 263.283 312.232 262.623 311.501 262.546C310.769 262.466 310.109 262.998 310.031 263.729C309.951 264.461 310.483 265.121 311.215 265.198Z" fill="#F7EAFC"/>
<path d="M319.754 266.125C320.486 266.205 321.146 265.673 321.223 264.941C321.303 264.21 320.771 263.549 320.04 263.472C319.308 263.392 318.648 263.924 318.57 264.656C318.49 265.387 319.022 266.047 319.754 266.125Z" fill="#F7EAFC"/>
<path d="M328.301 267.048C329.032 267.128 329.693 266.596 329.77 265.865C329.85 265.133 329.318 264.473 328.587 264.396C327.855 264.316 327.195 264.847 327.117 265.579C327.037 266.311 327.569 266.971 328.301 267.048Z" fill="#F7EAFC"/>
<path d="M336.84 267.971C337.572 268.051 338.232 267.519 338.309 266.788C338.389 266.056 337.857 265.396 337.126 265.319C336.394 265.238 335.734 265.77 335.656 266.502C335.576 267.233 336.108 267.894 336.84 267.971Z" fill="#F7EAFC"/>
<path d="M345.387 268.897C346.118 268.977 346.779 268.446 346.856 267.714C346.936 266.982 346.404 266.322 345.672 266.245C344.941 266.165 344.28 266.696 344.203 267.428C344.123 268.16 344.655 268.82 345.387 268.897Z" fill="#F7EAFC"/>
<path d="M353.933 269.82C354.665 269.9 355.326 269.368 355.403 268.637C355.483 267.905 354.951 267.245 354.219 267.168C353.488 267.088 352.827 267.619 352.75 268.351C352.67 269.083 353.202 269.743 353.933 269.82Z" fill="#F7EAFC"/>
<path d="M53.9804 246.018C54.7121 246.098 55.3724 245.567 55.4496 244.835C55.5296 244.103 54.998 243.443 54.2662 243.366C53.5345 243.286 52.8742 243.817 52.797 244.549C52.717 245.281 53.2487 245.941 53.9804 246.018Z" fill="#F7EAFC"/>
<path d="M62.5195 246.941C63.2512 247.021 63.9115 246.489 63.9887 245.758C64.0687 245.026 63.537 244.366 62.8053 244.289C62.0736 244.209 61.4133 244.74 61.3361 245.472C61.2561 246.204 61.7877 246.864 62.5195 246.941Z" fill="#F7EAFC"/>
<path d="M71.0663 247.867C71.7981 247.947 72.4584 247.416 72.5355 246.684C72.6156 245.952 72.0839 245.292 71.3522 245.215C70.6204 245.135 69.9601 245.667 69.883 246.398C69.8029 247.13 70.3346 247.79 71.0663 247.867Z" fill="#F7EAFC"/>
<path d="M79.6132 248.79C80.3449 248.87 81.0052 248.339 81.0824 247.607C81.1624 246.875 80.6308 246.215 79.899 246.138C79.1673 246.058 78.507 246.589 78.4298 247.321C78.3498 248.053 78.8815 248.713 79.6132 248.79Z" fill="#F7EAFC"/>
<path d="M88.1523 249.714C88.884 249.794 89.5443 249.262 89.6215 248.53C89.7015 247.799 89.1699 247.138 88.4381 247.061C87.7064 246.981 87.0461 247.513 86.9689 248.244C86.8889 248.976 87.4205 249.636 88.1523 249.714Z" fill="#F7EAFC"/>
<path d="M96.6991 250.639C97.4309 250.719 98.0912 250.188 98.1683 249.456C98.2484 248.724 97.7167 248.064 96.985 247.987C96.2532 247.907 95.593 248.439 95.5158 249.17C95.4358 249.902 95.9674 250.562 96.6991 250.639Z" fill="#F7EAFC"/>
<path d="M105.238 251.563C105.97 251.643 106.63 251.111 106.707 250.379C106.787 249.648 106.256 248.987 105.524 248.91C104.792 248.83 104.132 249.362 104.055 250.094C103.975 250.825 104.506 251.485 105.238 251.563Z" fill="#F7EAFC"/>
<path d="M113.785 252.486C114.517 252.566 115.177 252.034 115.254 251.303C115.334 250.571 114.803 249.911 114.071 249.834C113.339 249.754 112.679 250.285 112.602 251.017C112.522 251.749 113.053 252.409 113.785 252.486Z" fill="#F7EAFC"/>
<path d="M122.332 253.412C123.064 253.492 123.724 252.96 123.801 252.228C123.881 251.497 123.35 250.837 122.618 250.759C121.886 250.679 121.226 251.211 121.149 251.943C121.069 252.674 121.6 253.335 122.332 253.412Z" fill="#F7EAFC"/>
<path d="M130.871 254.335C131.603 254.415 132.263 253.884 132.34 253.152C132.42 252.42 131.889 251.76 131.157 251.683C130.425 251.603 129.765 252.134 129.688 252.866C129.608 253.598 130.139 254.258 130.871 254.335Z" fill="#F7EAFC"/>
<path d="M139.418 255.261C140.15 255.341 140.81 254.809 140.887 254.078C140.967 253.346 140.435 252.686 139.704 252.609C138.972 252.529 138.312 253.06 138.235 253.792C138.155 254.523 138.686 255.184 139.418 255.261Z" fill="#F7EAFC"/>
<path d="M147.957 256.184C148.689 256.264 149.349 255.733 149.426 255.001C149.506 254.269 148.975 253.609 148.243 253.532C147.511 253.452 146.851 253.983 146.774 254.715C146.694 255.447 147.225 256.107 147.957 256.184Z" fill="#F7EAFC"/>
<path d="M156.504 257.108C157.236 257.188 157.896 256.656 157.973 255.924C158.053 255.193 157.521 254.532 156.79 254.455C156.058 254.375 155.398 254.907 155.32 255.638C155.24 256.37 155.772 257.03 156.504 257.108Z" fill="#F7EAFC"/>
<path d="M165.051 258.033C165.782 258.113 166.443 257.582 166.52 256.85C166.6 256.118 166.068 255.458 165.337 255.381C164.605 255.301 163.945 255.833 163.867 256.564C163.787 257.296 164.319 257.956 165.051 258.033Z" fill="#F7EAFC"/>
<path d="M173.59 258.957C174.322 259.037 174.982 258.505 175.059 257.773C175.139 257.042 174.607 256.382 173.876 256.304C173.144 256.224 172.484 256.756 172.406 257.488C172.326 258.219 172.858 258.88 173.59 258.957Z" fill="#F7EAFC"/>
<path d="M182.137 259.879C182.868 259.96 183.529 259.428 183.606 258.696C183.686 257.965 183.154 257.304 182.422 257.227C181.691 257.147 181.03 257.679 180.953 258.41C180.873 259.142 181.405 259.802 182.137 259.879Z" fill="#F7EAFC"/>
<path d="M190.676 260.806C191.407 260.886 192.068 260.354 192.145 259.623C192.225 258.891 191.693 258.231 190.962 258.153C190.23 258.073 189.57 258.605 189.492 259.337C189.412 260.068 189.944 260.729 190.676 260.806Z" fill="#F7EAFC"/>
<path d="M199.223 261.729C199.954 261.809 200.615 261.277 200.692 260.545C200.772 259.814 200.24 259.153 199.508 259.076C198.777 258.996 198.116 259.528 198.039 260.26C197.959 260.991 198.491 261.651 199.223 261.729Z" fill="#F7EAFC"/>
<path d="M207.762 262.652C208.493 262.732 209.154 262.2 209.231 261.469C209.311 260.737 208.779 260.077 208.047 260C207.316 259.92 206.655 260.451 206.578 261.183C206.498 261.915 207.03 262.575 207.762 262.652Z" fill="#F7EAFC"/>
<path d="M216.309 263.578C217.04 263.658 217.701 263.127 217.778 262.395C217.858 261.663 217.326 261.003 216.594 260.926C215.863 260.846 215.202 261.378 215.125 262.109C215.045 262.841 215.577 263.501 216.309 263.578Z" fill="#F7EAFC"/>
<path d="M224.855 264.501C225.587 264.581 226.247 264.05 226.325 263.318C226.405 262.586 225.873 261.926 225.141 261.849C224.409 261.769 223.749 262.3 223.672 263.032C223.592 263.764 224.124 264.424 224.855 264.501Z" fill="#F7EAFC"/>
<path d="M233.394 265.424C234.126 265.504 234.786 264.973 234.864 264.241C234.944 263.51 234.412 262.849 233.68 262.772C232.949 262.692 232.288 263.224 232.211 263.955C232.131 264.687 232.663 265.347 233.394 265.424Z" fill="#F7EAFC"/>
<path d="M241.941 266.35C242.673 266.43 243.333 265.899 243.411 265.167C243.491 264.435 242.959 263.775 242.227 263.698C241.495 263.618 240.835 264.149 240.758 264.881C240.678 265.613 241.21 266.273 241.941 266.35Z" fill="#F7EAFC"/>
<path d="M250.48 267.274C251.212 267.354 251.872 266.822 251.95 266.09C252.03 265.359 251.498 264.698 250.766 264.621C250.034 264.541 249.374 265.073 249.297 265.804C249.217 266.536 249.749 267.196 250.48 267.274Z" fill="#F7EAFC"/>
<path d="M259.027 268.197C259.759 268.277 260.419 267.745 260.496 267.014C260.577 266.282 260.045 265.622 259.313 265.545C258.581 265.465 257.921 265.996 257.844 266.728C257.764 267.46 258.296 268.12 259.027 268.197Z" fill="#F7EAFC"/>
<path d="M267.566 269.123C268.298 269.203 268.958 268.671 269.036 267.939C269.116 267.208 268.584 266.548 267.852 266.47C267.12 266.39 266.46 266.922 266.383 267.654C266.303 268.385 266.835 269.046 267.566 269.123Z" fill="#F7EAFC"/>
<path d="M276.113 270.046C276.845 270.126 277.505 269.594 277.582 268.863C277.662 268.131 277.131 267.471 276.399 267.394C275.667 267.314 275.007 267.845 274.93 268.577C274.85 269.309 275.381 269.969 276.113 270.046Z" fill="#F7EAFC"/>
<path d="M284.652 270.969C285.384 271.049 286.044 270.517 286.121 269.786C286.202 269.054 285.67 268.394 284.938 268.317C284.206 268.237 283.546 268.768 283.469 269.5C283.389 270.231 283.921 270.892 284.652 270.969Z" fill="#F7EAFC"/>
<path d="M293.199 271.895C293.931 271.975 294.591 271.444 294.668 270.712C294.748 269.98 294.217 269.32 293.485 269.243C292.753 269.163 292.093 269.694 292.016 270.426C291.936 271.158 292.467 271.818 293.199 271.895Z" fill="#F7EAFC"/>
<path d="M301.738 272.818C302.47 272.898 303.13 272.366 303.207 271.635C303.287 270.903 302.756 270.243 302.024 270.166C301.292 270.086 300.632 270.617 300.555 271.349C300.475 272.081 301.006 272.741 301.738 272.818Z" fill="#F7EAFC"/>
<path d="M310.285 273.741C311.017 273.821 311.677 273.29 311.754 272.558C311.834 271.826 311.303 271.166 310.571 271.089C309.839 271.009 309.179 271.541 309.102 272.272C309.022 273.004 309.553 273.664 310.285 273.741Z" fill="#F7EAFC"/>
<path d="M318.832 274.668C319.564 274.748 320.224 274.216 320.301 273.484C320.381 272.753 319.85 272.092 319.118 272.015C318.386 271.935 317.726 272.467 317.649 273.199C317.569 273.93 318.1 274.59 318.832 274.668Z" fill="#F7EAFC"/>
<path d="M327.371 275.59C328.103 275.67 328.763 275.139 328.84 274.407C328.92 273.676 328.389 273.015 327.657 272.938C326.925 272.858 326.265 273.39 326.188 274.121C326.108 274.853 326.639 275.513 327.371 275.59Z" fill="#F7EAFC"/>
<path d="M335.918 276.514C336.65 276.594 337.31 276.062 337.387 275.331C337.467 274.599 336.935 273.939 336.204 273.861C335.472 273.781 334.812 274.313 334.735 275.045C334.655 275.776 335.186 276.437 335.918 276.514Z" fill="#F7EAFC"/>
<path d="M344.457 277.44C345.189 277.52 345.849 276.988 345.926 276.256C346.006 275.525 345.475 274.864 344.743 274.787C344.011 274.707 343.351 275.239 343.274 275.971C343.194 276.702 343.725 277.362 344.457 277.44Z" fill="#F7EAFC"/>
<path d="M353.004 278.363C353.736 278.443 354.396 277.911 354.473 277.18C354.553 276.448 354.021 275.788 353.29 275.711C352.558 275.631 351.898 276.162 351.82 276.894C351.74 277.626 352.272 278.286 353.004 278.363Z" fill="#F7EAFC"/>
<path d="M53.0585 254.561C53.7903 254.641 54.4505 254.109 54.5277 253.377C54.6078 252.646 54.0761 251.986 53.3444 251.908C52.6126 251.828 51.9523 252.36 51.8752 253.092C51.7951 253.823 52.3268 254.484 53.0585 254.561Z" fill="#F7EAFC"/>
<path d="M61.5976 255.484C62.3293 255.564 62.9896 255.032 63.0668 254.301C63.1468 253.569 62.6152 252.909 61.8834 252.832C61.1517 252.752 60.4914 253.283 60.4142 254.015C60.3342 254.747 60.8658 255.407 61.5976 255.484Z" fill="#F7EAFC"/>
<path d="M70.1445 256.41C70.8762 256.49 71.5365 255.958 71.6137 255.227C71.6937 254.495 71.162 253.835 70.4303 253.757C69.6986 253.677 69.0383 254.209 68.9611 254.941C68.8811 255.672 69.4127 256.333 70.1445 256.41Z" fill="#F7EAFC"/>
<path d="M78.6835 257.333C79.4153 257.413 80.0755 256.882 80.1527 256.15C80.2328 255.418 79.7011 254.758 78.9694 254.681C78.2376 254.601 77.5773 255.132 77.5002 255.864C77.4201 256.596 77.9518 257.256 78.6835 257.333Z" fill="#F7EAFC"/>
<path d="M87.2304 258.256C87.9621 258.337 88.6224 257.805 88.6996 257.073C88.7796 256.342 88.248 255.681 87.5162 255.604C86.7845 255.524 86.1242 256.056 86.047 256.787C85.967 257.519 86.4987 258.179 87.2304 258.256Z" fill="#F7EAFC"/>
<path d="M95.7773 259.182C96.509 259.262 97.1693 258.731 97.2465 257.999C97.3265 257.267 96.7949 256.607 96.0631 256.53C95.3314 256.45 94.6711 256.982 94.5939 257.713C94.5139 258.445 95.0455 259.105 95.7773 259.182Z" fill="#F7EAFC"/>
<path d="M104.316 260.106C105.048 260.186 105.708 259.654 105.786 258.922C105.866 258.191 105.334 257.53 104.602 257.453C103.87 257.373 103.21 257.905 103.133 258.637C103.053 259.368 103.585 260.028 104.316 260.106Z" fill="#F7EAFC"/>
<path d="M112.863 261.028C113.595 261.108 114.255 260.577 114.332 259.845C114.412 259.114 113.881 258.453 113.149 258.376C112.417 258.296 111.757 258.828 111.68 259.559C111.6 260.291 112.131 260.951 112.863 261.028Z" fill="#F7EAFC"/>
<path d="M121.402 261.955C122.134 262.035 122.794 261.503 122.871 260.771C122.951 260.04 122.42 259.38 121.688 259.302C120.956 259.222 120.296 259.754 120.219 260.486C120.139 261.217 120.671 261.878 121.402 261.955Z" fill="#F7EAFC"/>
<path d="M129.949 262.878C130.681 262.958 131.341 262.426 131.418 261.695C131.498 260.963 130.967 260.303 130.235 260.226C129.503 260.146 128.843 260.677 128.766 261.409C128.686 262.141 129.217 262.801 129.949 262.878Z" fill="#F7EAFC"/>
<path d="M138.496 263.801C139.228 263.881 139.888 263.349 139.965 262.618C140.045 261.886 139.514 261.226 138.782 261.149C138.05 261.069 137.39 261.6 137.313 262.332C137.233 263.064 137.764 263.724 138.496 263.801Z" fill="#F7EAFC"/>
<path d="M147.035 264.727C147.767 264.807 148.427 264.276 148.504 263.544C148.584 262.812 148.053 262.152 147.321 262.075C146.589 261.995 145.929 262.526 145.852 263.258C145.772 263.99 146.303 264.65 147.035 264.727Z" fill="#F7EAFC"/>
<path d="M155.582 265.65C156.314 265.73 156.974 265.198 157.051 264.467C157.131 263.735 156.6 263.075 155.868 262.998C155.136 262.918 154.476 263.449 154.399 264.181C154.319 264.913 154.85 265.573 155.582 265.65Z" fill="#F7EAFC"/>
<path d="M164.121 266.576C164.853 266.656 165.513 266.125 165.59 265.393C165.67 264.661 165.139 264.001 164.407 263.924C163.675 263.844 163.015 264.376 162.938 265.107C162.858 265.839 163.389 266.499 164.121 266.576Z" fill="#F7EAFC"/>
<path d="M172.668 267.499C173.4 267.579 174.06 267.048 174.137 266.316C174.217 265.584 173.685 264.924 172.954 264.847C172.222 264.767 171.562 265.298 171.485 266.03C171.405 266.762 171.936 267.422 172.668 267.499Z" fill="#F7EAFC"/>
<path d="M181.207 268.422C181.939 268.503 182.599 267.971 182.676 267.239C182.756 266.508 182.225 265.847 181.493 265.77C180.761 265.69 180.101 266.222 180.024 266.953C179.944 267.685 180.475 268.345 181.207 268.422Z" fill="#F7EAFC"/>
<path d="M189.754 269.346C190.486 269.426 191.146 268.894 191.223 268.163C191.303 267.431 190.771 266.771 190.04 266.694C189.308 266.613 188.648 267.145 188.57 267.877C188.49 268.608 189.022 269.269 189.754 269.346Z" fill="#F7EAFC"/>
<path d="M198.293 270.272C199.025 270.352 199.685 269.82 199.762 269.088C199.842 268.357 199.31 267.696 198.579 267.619C197.847 267.539 197.187 268.071 197.11 268.803C197.03 269.534 197.561 270.194 198.293 270.272Z" fill="#F7EAFC"/>
<path d="M206.84 271.195C207.571 271.275 208.232 270.743 208.309 270.012C208.389 269.28 207.857 268.62 207.126 268.543C206.394 268.463 205.734 268.994 205.656 269.726C205.576 270.458 206.108 271.118 206.84 271.195Z" fill="#F7EAFC"/>
<path d="M215.379 272.121C216.111 272.201 216.771 271.669 216.848 270.937C216.928 270.206 216.396 269.546 215.665 269.468C214.933 269.388 214.273 269.92 214.195 270.652C214.115 271.383 214.647 272.044 215.379 272.121Z" fill="#F7EAFC"/>
<path d="M223.926 273.044C224.657 273.124 225.318 272.592 225.395 271.861C225.475 271.129 224.943 270.469 224.212 270.392C223.48 270.312 222.82 270.843 222.742 271.575C222.662 272.307 223.194 272.967 223.926 273.044Z" fill="#F7EAFC"/>
<path d="M232.473 273.967C233.204 274.047 233.865 273.515 233.942 272.784C234.022 272.052 233.49 271.392 232.758 271.315C232.027 271.235 231.366 271.766 231.289 272.498C231.209 273.23 231.741 273.89 232.473 273.967Z" fill="#F7EAFC"/>
<path d="M241.012 274.893C241.743 274.973 242.404 274.442 242.481 273.71C242.561 272.978 242.029 272.318 241.297 272.241C240.566 272.161 239.905 272.692 239.828 273.424C239.748 274.156 240.28 274.816 241.012 274.893Z" fill="#F7EAFC"/>
<path d="M249.559 275.817C250.29 275.897 250.951 275.365 251.028 274.633C251.108 273.902 250.576 273.241 249.844 273.164C249.113 273.084 248.452 273.616 248.375 274.347C248.295 275.079 248.827 275.739 249.559 275.817Z" fill="#F7EAFC"/>
<path d="M258.098 276.739C258.829 276.819 259.49 276.288 259.567 275.556C259.647 274.824 259.115 274.164 258.383 274.087C257.652 274.007 256.991 274.539 256.914 275.27C256.834 276.002 257.366 276.662 258.098 276.739Z" fill="#F7EAFC"/>
<path d="M266.644 277.666C267.376 277.746 268.036 277.214 268.114 276.482C268.194 275.751 267.662 275.091 266.93 275.013C266.199 274.933 265.538 275.465 265.461 276.197C265.381 276.928 265.913 277.588 266.644 277.666Z" fill="#F7EAFC"/>
<path d="M275.191 278.589C275.923 278.669 276.583 278.137 276.661 277.405C276.741 276.674 276.209 276.013 275.477 275.936C274.745 275.856 274.085 276.388 274.008 277.119C273.928 277.851 274.46 278.511 275.191 278.589Z" fill="#F7EAFC"/>
<path d="M283.73 279.512C284.462 279.592 285.122 279.06 285.2 278.329C285.28 277.597 284.748 276.937 284.016 276.86C283.284 276.78 282.624 277.311 282.547 278.043C282.467 278.774 282.999 279.435 283.73 279.512Z" fill="#F7EAFC"/>
<path d="M292.277 280.438C293.009 280.518 293.669 279.987 293.746 279.255C293.827 278.523 293.295 277.863 292.563 277.786C291.831 277.706 291.171 278.237 291.094 278.969C291.014 279.701 291.546 280.361 292.277 280.438Z" fill="#F7EAFC"/>
<path d="M300.816 281.361C301.548 281.441 302.208 280.909 302.286 280.178C302.366 279.446 301.834 278.786 301.102 278.709C300.37 278.629 299.71 279.16 299.633 279.892C299.553 280.624 300.085 281.284 300.816 281.361Z" fill="#F7EAFC"/>
<path d="M309.363 282.284C310.095 282.364 310.755 281.833 310.832 281.101C310.912 280.369 310.381 279.709 309.649 279.632C308.917 279.552 308.257 280.084 308.18 280.815C308.1 281.547 308.631 282.207 309.363 282.284Z" fill="#F7EAFC"/>
<path d="M317.91 283.21C318.642 283.29 319.302 282.758 319.379 282.027C319.459 281.295 318.928 280.635 318.196 280.558C317.464 280.478 316.804 281.009 316.727 281.741C316.647 282.473 317.178 283.133 317.91 283.21Z" fill="#F7EAFC"/>
<path d="M326.449 284.133C327.181 284.213 327.841 283.682 327.918 282.95C327.998 282.219 327.467 281.558 326.735 281.481C326.003 281.401 325.343 281.933 325.266 282.664C325.186 283.396 325.717 284.056 326.449 284.133Z" fill="#F7EAFC"/>
<path d="M334.996 285.057C335.728 285.137 336.388 284.605 336.465 283.874C336.545 283.142 336.014 282.482 335.282 282.404C334.55 282.324 333.89 282.856 333.813 283.588C333.733 284.319 334.264 284.98 334.996 285.057Z" fill="#F7EAFC"/>
<path d="M343.535 285.983C344.267 286.063 344.927 285.531 345.004 284.799C345.084 284.068 344.553 283.407 343.821 283.33C343.089 283.25 342.429 283.782 342.352 284.513C342.272 285.245 342.803 285.905 343.535 285.983Z" fill="#F7EAFC"/>
<path d="M352.082 286.906C352.814 286.986 353.474 286.454 353.551 285.723C353.631 284.991 353.1 284.331 352.368 284.254C351.636 284.174 350.976 284.705 350.899 285.437C350.819 286.169 351.35 286.829 352.082 286.906Z" fill="#F7EAFC"/>
<path d="M52.1366 263.104C52.8684 263.184 53.5287 262.652 53.6058 261.92C53.6859 261.189 53.1542 260.528 52.4225 260.451C51.6907 260.371 51.0305 260.903 50.9533 261.635C50.8733 262.366 51.4049 263.026 52.1366 263.104Z" fill="#F7EAFC"/>
<path d="M60.6757 264.026C61.4075 264.107 62.0677 263.575 62.1449 262.843C62.2249 262.112 61.6933 261.451 60.9615 261.374C60.2298 261.294 59.5695 261.826 59.4923 262.557C59.4123 263.289 59.944 263.949 60.6757 264.026Z" fill="#F7EAFC"/>
<path d="M69.2226 264.953C69.9543 265.033 70.6146 264.501 70.6918 263.769C70.7718 263.038 70.2402 262.378 69.5084 262.3C68.7767 262.22 68.1164 262.752 68.0392 263.484C67.9592 264.215 68.4908 264.876 69.2226 264.953Z" fill="#F7EAFC"/>
<path d="M77.7616 265.876C78.4934 265.956 79.1537 265.425 79.2308 264.693C79.3109 263.961 78.7792 263.301 78.0475 263.224C77.3157 263.144 76.6555 263.675 76.5783 264.407C76.4983 265.139 77.0299 265.799 77.7616 265.876Z" fill="#F7EAFC"/>
<path d="M86.3085 266.799C87.0403 266.879 87.7005 266.347 87.7777 265.616C87.8578 264.884 87.3261 264.224 86.5944 264.147C85.8626 264.067 85.2023 264.598 85.1252 265.33C85.0451 266.062 85.5768 266.722 86.3085 266.799Z" fill="#F7EAFC"/>
<path d="M94.8476 267.725C95.5793 267.805 96.2396 267.274 96.3168 266.542C96.3968 265.81 95.8652 265.15 95.1334 265.073C94.4017 264.993 93.7414 265.524 93.6642 266.256C93.5842 266.988 94.1158 267.648 94.8476 267.725Z" fill="#F7EAFC"/>
<path d="M103.394 268.648C104.126 268.728 104.786 268.196 104.864 267.465C104.944 266.733 104.412 266.073 103.68 265.996C102.949 265.916 102.288 266.447 102.211 267.179C102.131 267.911 102.663 268.571 103.394 268.648Z" fill="#F7EAFC"/>
<path d="M111.934 269.571C112.665 269.651 113.326 269.12 113.403 268.388C113.483 267.656 112.951 266.996 112.219 266.919C111.488 266.839 110.827 267.371 110.75 268.102C110.67 268.834 111.202 269.494 111.934 269.571Z" fill="#F7EAFC"/>
<path d="M120.48 270.498C121.212 270.578 121.872 270.046 121.95 269.314C122.03 268.583 121.498 267.923 120.766 267.845C120.034 267.765 119.374 268.297 119.297 269.029C119.217 269.76 119.749 270.421 120.48 270.498Z" fill="#F7EAFC"/>
<path d="M129.019 271.421C129.751 271.501 130.411 270.969 130.489 270.237C130.569 269.506 130.037 268.845 129.305 268.768C128.574 268.688 127.913 269.22 127.836 269.951C127.756 270.683 128.288 271.343 129.019 271.421Z" fill="#F7EAFC"/>
<path d="M137.566 272.344C138.298 272.424 138.958 271.892 139.036 271.161C139.116 270.429 138.584 269.769 137.852 269.692C137.12 269.612 136.46 270.143 136.383 270.875C136.303 271.606 136.835 272.267 137.566 272.344Z" fill="#F7EAFC"/>
<path d="M146.113 273.27C146.845 273.35 147.505 272.818 147.582 272.086C147.662 271.355 147.131 270.695 146.399 270.617C145.667 270.537 145.007 271.069 144.93 271.801C144.85 272.532 145.381 273.192 146.113 273.27Z" fill="#F7EAFC"/>
<path d="M154.652 274.193C155.384 274.273 156.044 273.741 156.121 273.01C156.201 272.278 155.67 271.618 154.938 271.541C154.206 271.461 153.546 271.992 153.469 272.724C153.389 273.456 153.921 274.116 154.652 274.193Z" fill="#F7EAFC"/>
<path d="M163.199 275.116C163.931 275.196 164.591 274.665 164.668 273.933C164.748 273.201 164.217 272.541 163.485 272.464C162.753 272.384 162.093 272.916 162.016 273.647C161.936 274.379 162.467 275.039 163.199 275.116Z" fill="#F7EAFC"/>
<path d="M171.738 276.042C172.47 276.122 173.13 275.591 173.207 274.859C173.287 274.127 172.756 273.467 172.024 273.39C171.292 273.31 170.632 273.841 170.555 274.573C170.475 275.305 171.006 275.965 171.738 276.042Z" fill="#F7EAFC"/>
<path d="M180.285 276.965C181.017 277.045 181.677 276.514 181.754 275.782C181.834 275.051 181.303 274.39 180.571 274.313C179.839 274.233 179.179 274.765 179.102 275.496C179.022 276.228 179.553 276.888 180.285 276.965Z" fill="#F7EAFC"/>
<path d="M188.832 277.888C189.564 277.968 190.224 277.437 190.301 276.705C190.381 275.973 189.85 275.313 189.118 275.236C188.386 275.156 187.726 275.688 187.649 276.419C187.569 277.151 188.1 277.811 188.832 277.888Z" fill="#F7EAFC"/>
<path d="M197.371 278.815C198.103 278.895 198.763 278.363 198.84 277.631C198.92 276.9 198.389 276.239 197.657 276.162C196.925 276.082 196.265 276.614 196.188 277.345C196.108 278.077 196.639 278.737 197.371 278.815Z" fill="#F7EAFC"/>
<path d="M205.918 279.737C206.65 279.817 207.31 279.286 207.387 278.554C207.467 277.823 206.935 277.162 206.204 277.085C205.472 277.005 204.812 277.537 204.735 278.268C204.655 279 205.186 279.66 205.918 279.737Z" fill="#F7EAFC"/>
<path d="M214.457 280.661C215.189 280.741 215.849 280.209 215.926 279.478C216.006 278.746 215.475 278.086 214.743 278.008C214.011 277.928 213.351 278.46 213.274 279.192C213.194 279.923 213.725 280.584 214.457 280.661Z" fill="#F7EAFC"/>
<path d="M223.004 281.587C223.736 281.667 224.396 281.135 224.473 280.404C224.553 279.672 224.021 279.012 223.29 278.935C222.558 278.855 221.898 279.386 221.82 280.118C221.74 280.85 222.272 281.51 223.004 281.587Z" fill="#F7EAFC"/>
<path d="M231.543 282.51C232.275 282.59 232.935 282.058 233.012 281.327C233.092 280.595 232.56 279.935 231.829 279.858C231.097 279.778 230.437 280.309 230.36 281.041C230.28 281.773 230.811 282.433 231.543 282.51Z" fill="#F7EAFC"/>
<path d="M240.09 283.436C240.822 283.516 241.482 282.985 241.559 282.253C241.639 281.521 241.107 280.861 240.376 280.784C239.644 280.704 238.984 281.235 238.906 281.967C238.826 282.699 239.358 283.359 240.09 283.436Z" fill="#F7EAFC"/>
<path d="M248.637 284.359C249.368 284.439 250.029 283.907 250.106 283.176C250.186 282.444 249.654 281.784 248.922 281.707C248.191 281.627 247.53 282.158 247.453 282.89C247.373 283.622 247.905 284.282 248.637 284.359Z" fill="#F7EAFC"/>
<path d="M257.176 285.282C257.907 285.362 258.568 284.831 258.645 284.099C258.725 283.367 258.193 282.707 257.462 282.63C256.73 282.55 256.07 283.082 255.992 283.813C255.912 284.545 256.444 285.205 257.176 285.282Z" fill="#F7EAFC"/>
<path d="M265.723 286.208C266.454 286.288 267.115 285.757 267.192 285.025C267.272 284.293 266.74 283.633 266.008 283.556C265.277 283.476 264.616 284.007 264.539 284.739C264.459 285.471 264.991 286.131 265.723 286.208Z" fill="#F7EAFC"/>
<path d="M274.262 287.131C274.993 287.212 275.654 286.68 275.731 285.948C275.811 285.217 275.279 284.556 274.547 284.479C273.816 284.399 273.155 284.931 273.078 285.662C272.998 286.394 273.53 287.054 274.262 287.131Z" fill="#F7EAFC"/>
<path d="M282.809 288.055C283.54 288.135 284.201 287.603 284.278 286.872C284.358 286.14 283.826 285.48 283.094 285.403C282.363 285.322 281.702 285.854 281.625 286.586C281.545 287.317 282.077 287.978 282.809 288.055Z" fill="#F7EAFC"/>
<path d="M291.355 288.981C292.087 289.061 292.747 288.529 292.825 287.797C292.905 287.066 292.373 286.405 291.641 286.328C290.909 286.248 290.249 286.78 290.172 287.512C290.092 288.243 290.624 288.903 291.355 288.981Z" fill="#F7EAFC"/>
<path d="M299.894 289.904C300.626 289.984 301.286 289.452 301.364 288.721C301.444 287.989 300.912 287.329 300.18 287.252C299.449 287.172 298.788 287.703 298.711 288.435C298.631 289.167 299.163 289.827 299.894 289.904Z" fill="#F7EAFC"/>
<path d="M308.441 290.827C309.173 290.907 309.833 290.376 309.911 289.644C309.991 288.912 309.459 288.252 308.727 288.175C307.995 288.095 307.335 288.627 307.258 289.358C307.178 290.09 307.71 290.75 308.441 290.827Z" fill="#F7EAFC"/>
<path d="M316.98 291.753C317.712 291.833 318.372 291.301 318.45 290.57C318.53 289.838 317.998 289.178 317.266 289.101C316.534 289.021 315.874 289.552 315.797 290.284C315.717 291.016 316.249 291.676 316.98 291.753Z" fill="#F7EAFC"/>
<path d="M325.527 292.676C326.259 292.756 326.919 292.225 326.996 291.493C327.077 290.761 326.545 290.101 325.813 290.024C325.081 289.944 324.421 290.476 324.344 291.207C324.264 291.939 324.796 292.599 325.527 292.676Z" fill="#F7EAFC"/>
<path d="M334.066 293.599C334.798 293.679 335.458 293.148 335.536 292.416C335.616 291.684 335.084 291.024 334.352 290.947C333.62 290.867 332.96 291.399 332.883 292.13C332.803 292.862 333.335 293.522 334.066 293.599Z" fill="#F7EAFC"/>
<path d="M342.613 294.526C343.345 294.606 344.005 294.074 344.082 293.342C344.162 292.611 343.631 291.95 342.899 291.873C342.167 291.793 341.507 292.325 341.43 293.056C341.35 293.788 341.881 294.448 342.613 294.526Z" fill="#F7EAFC"/>
<path d="M351.152 295.448C351.884 295.528 352.544 294.997 352.621 294.265C352.702 293.533 352.17 292.873 351.438 292.796C350.706 292.716 350.046 293.248 349.969 293.979C349.889 294.711 350.421 295.371 351.152 295.448Z" fill="#F7EAFC"/>
<path d="M51.207 271.647C51.9387 271.727 52.599 271.195 52.6762 270.463C52.7562 269.732 52.2245 269.071 51.4928 268.994C50.7611 268.914 50.1008 269.446 50.0236 270.178C49.9436 270.909 50.4752 271.569 51.207 271.647Z" fill="#F7EAFC"/>
<path d="M59.7538 272.569C60.4856 272.649 61.1459 272.118 61.223 271.386C61.3031 270.655 60.7714 269.994 60.0397 269.917C59.3079 269.837 58.6476 270.369 58.5705 271.1C58.4904 271.832 59.0221 272.492 59.7538 272.569Z" fill="#F7EAFC"/>
<path d="M68.2929 273.496C69.0246 273.576 69.6849 273.044 69.7621 272.312C69.8421 271.581 69.3105 270.921 68.5787 270.843C67.847 270.763 67.1867 271.295 67.1095 272.027C67.0295 272.758 67.5612 273.419 68.2929 273.496Z" fill="#F7EAFC"/>
<path d="M76.8398 274.419C77.5715 274.499 78.2318 273.967 78.309 273.235C78.389 272.504 77.8574 271.843 77.1256 271.766C76.3939 271.686 75.7336 272.218 75.6564 272.949C75.5764 273.681 76.108 274.341 76.8398 274.419Z" fill="#F7EAFC"/>
<path d="M85.3788 275.342C86.1106 275.422 86.7709 274.89 86.848 274.159C86.9281 273.427 86.3964 272.767 85.6647 272.69C84.9329 272.61 84.2726 273.141 84.1955 273.873C84.1154 274.605 84.6471 275.265 85.3788 275.342Z" fill="#F7EAFC"/>
<path d="M93.9257 276.268C94.6575 276.348 95.3177 275.816 95.3949 275.084C95.4749 274.353 94.9433 273.693 94.2115 273.615C93.4798 273.535 92.8195 274.067 92.7423 274.799C92.6623 275.53 93.194 276.191 93.9257 276.268Z" fill="#F7EAFC"/>
<path d="M102.473 277.191C103.204 277.271 103.865 276.739 103.942 276.008C104.022 275.276 103.49 274.616 102.758 274.539C102.027 274.459 101.366 274.99 101.289 275.722C101.209 276.454 101.741 277.114 102.473 277.191Z" fill="#F7EAFC"/>
<path d="M111.012 278.114C111.743 278.194 112.404 277.663 112.481 276.931C112.561 276.199 112.029 275.539 111.297 275.462C110.566 275.382 109.905 275.914 109.828 276.645C109.748 277.377 110.28 278.037 111.012 278.114Z" fill="#F7EAFC"/>
<path d="M119.559 279.04C120.29 279.12 120.951 278.589 121.028 277.857C121.108 277.125 120.576 276.465 119.844 276.388C119.113 276.308 118.452 276.839 118.375 277.571C118.295 278.303 118.827 278.963 119.559 279.04Z" fill="#F7EAFC"/>
<path d="M128.098 279.964C128.829 280.044 129.49 279.512 129.567 278.78C129.647 278.049 129.115 277.388 128.383 277.311C127.652 277.231 126.991 277.763 126.914 278.494C126.834 279.226 127.366 279.886 128.098 279.964Z" fill="#F7EAFC"/>
<path d="M136.644 280.887C137.376 280.967 138.036 280.435 138.114 279.704C138.194 278.972 137.662 278.312 136.93 278.235C136.199 278.155 135.538 278.686 135.461 279.418C135.381 280.149 135.913 280.81 136.644 280.887Z" fill="#F7EAFC"/>
<path d="M145.184 281.813C145.915 281.893 146.576 281.361 146.653 280.629C146.733 279.898 146.201 279.237 145.469 279.16C144.738 279.08 144.077 279.612 144 280.344C143.92 281.075 144.452 281.735 145.184 281.813Z" fill="#F7EAFC"/>
<path d="M153.73 282.736C154.462 282.816 155.122 282.284 155.2 281.553C155.28 280.821 154.748 280.161 154.016 280.084C153.284 280.004 152.624 280.535 152.547 281.267C152.467 281.999 152.999 282.659 153.73 282.736Z" fill="#F7EAFC"/>
<path d="M162.277 283.659C163.009 283.739 163.669 283.207 163.746 282.476C163.827 281.744 163.295 281.084 162.563 281.007C161.831 280.926 161.171 281.458 161.094 282.19C161.014 282.921 161.546 283.582 162.277 283.659Z" fill="#F7EAFC"/>
<path d="M170.816 284.585C171.548 284.665 172.208 284.134 172.286 283.402C172.366 282.67 171.834 282.01 171.102 281.933C170.37 281.853 169.71 282.384 169.633 283.116C169.553 283.848 170.085 284.508 170.816 284.585Z" fill="#F7EAFC"/>
<path d="M179.363 285.508C180.095 285.588 180.755 285.056 180.832 284.325C180.912 283.593 180.381 282.933 179.649 282.856C178.917 282.776 178.257 283.307 178.18 284.039C178.1 284.771 178.631 285.431 179.363 285.508Z" fill="#F7EAFC"/>
<path d="M187.902 286.431C188.634 286.511 189.294 285.98 189.371 285.248C189.452 284.516 188.92 283.856 188.188 283.779C187.456 283.699 186.796 284.231 186.719 284.962C186.639 285.694 187.171 286.354 187.902 286.431Z" fill="#F7EAFC"/>
<path d="M196.449 287.358C197.181 287.438 197.841 286.906 197.918 286.174C197.998 285.443 197.467 284.782 196.735 284.705C196.003 284.625 195.343 285.157 195.266 285.888C195.186 286.62 195.717 287.28 196.449 287.358Z" fill="#F7EAFC"/>
<path d="M204.996 288.28C205.728 288.36 206.388 287.829 206.465 287.097C206.545 286.365 206.014 285.705 205.282 285.628C204.55 285.548 203.89 286.08 203.813 286.811C203.733 287.543 204.264 288.203 204.996 288.28Z" fill="#F7EAFC"/>
<path d="M213.535 289.204C214.267 289.284 214.927 288.752 215.004 288.02C215.084 287.289 214.553 286.629 213.821 286.551C213.089 286.471 212.429 287.003 212.352 287.735C212.272 288.466 212.803 289.127 213.535 289.204Z" fill="#F7EAFC"/>
<path d="M222.082 290.13C222.814 290.21 223.474 289.678 223.551 288.946C223.631 288.215 223.1 287.554 222.368 287.477C221.636 287.397 220.976 287.929 220.899 288.66C220.819 289.392 221.35 290.052 222.082 290.13Z" fill="#F7EAFC"/>
<path d="M230.621 291.053C231.353 291.133 232.013 290.601 232.09 289.87C232.17 289.138 231.639 288.478 230.907 288.401C230.175 288.321 229.515 288.852 229.438 289.584C229.358 290.315 229.889 290.976 230.621 291.053Z" fill="#F7EAFC"/>
<path d="M239.168 291.976C239.9 292.056 240.56 291.525 240.637 290.793C240.717 290.061 240.185 289.401 239.454 289.324C238.722 289.244 238.062 289.775 237.985 290.507C237.905 291.239 238.436 291.899 239.168 291.976Z" fill="#F7EAFC"/>
<path d="M247.707 292.902C248.439 292.982 249.099 292.45 249.176 291.719C249.256 290.987 248.725 290.327 247.993 290.25C247.261 290.17 246.601 290.701 246.524 291.433C246.444 292.165 246.975 292.825 247.707 292.902Z" fill="#F7EAFC"/>
<path d="M256.254 293.825C256.986 293.905 257.646 293.374 257.723 292.642C257.803 291.91 257.271 291.25 256.54 291.173C255.808 291.093 255.148 291.625 255.07 292.356C254.99 293.088 255.522 293.748 256.254 293.825Z" fill="#F7EAFC"/>
<path d="M264.801 294.751C265.532 294.831 266.193 294.3 266.27 293.568C266.35 292.836 265.818 292.176 265.087 292.099C264.355 292.019 263.695 292.55 263.617 293.282C263.537 294.014 264.069 294.674 264.801 294.751Z" fill="#F7EAFC"/>
<path d="M273.34 295.674C274.072 295.754 274.732 295.223 274.809 294.491C274.889 293.76 274.357 293.099 273.626 293.022C272.894 292.942 272.234 293.474 272.156 294.205C272.076 294.937 272.608 295.597 273.34 295.674Z" fill="#F7EAFC"/>
<path d="M281.879 296.597C282.611 296.677 283.271 296.146 283.348 295.414C283.428 294.682 282.896 294.022 282.165 293.945C281.433 293.865 280.773 294.397 280.695 295.128C280.615 295.86 281.147 296.52 281.879 296.597Z" fill="#F7EAFC"/>
<path d="M290.426 297.524C291.157 297.604 291.818 297.072 291.895 296.34C291.975 295.609 291.443 294.948 290.712 294.871C289.98 294.791 289.32 295.323 289.242 296.055C289.162 296.786 289.694 297.446 290.426 297.524Z" fill="#F7EAFC"/>
<path d="M298.973 298.447C299.704 298.527 300.365 297.995 300.442 297.264C300.522 296.532 299.99 295.872 299.258 295.795C298.527 295.715 297.866 296.246 297.789 296.978C297.709 297.71 298.241 298.37 298.973 298.447Z" fill="#F7EAFC"/>
<path d="M307.512 299.37C308.243 299.45 308.904 298.918 308.981 298.187C309.061 297.455 308.529 296.795 307.797 296.717C307.066 296.637 306.405 297.169 306.328 297.901C306.248 298.632 306.78 299.293 307.512 299.37Z" fill="#F7EAFC"/>
<path d="M316.058 300.296C316.79 300.376 317.451 299.844 317.528 299.113C317.608 298.381 317.076 297.721 316.344 297.644C315.613 297.564 314.952 298.095 314.875 298.827C314.795 299.559 315.327 300.219 316.058 300.296Z" fill="#F7EAFC"/>
<path d="M324.598 301.219C325.329 301.299 325.99 300.767 326.067 300.036C326.147 299.304 325.615 298.644 324.883 298.567C324.152 298.487 323.491 299.018 323.414 299.75C323.334 300.481 323.866 301.142 324.598 301.219Z" fill="#F7EAFC"/>
<path d="M333.144 302.142C333.876 302.222 334.536 301.691 334.614 300.959C334.694 300.227 334.162 299.567 333.43 299.49C332.699 299.41 332.038 299.941 331.961 300.673C331.881 301.405 332.413 302.065 333.144 302.142Z" fill="#F7EAFC"/>
<path d="M341.691 303.068C342.423 303.148 343.083 302.617 343.161 301.885C343.241 301.154 342.709 300.493 341.977 300.416C341.245 300.336 340.585 300.868 340.508 301.599C340.428 302.331 340.96 302.991 341.691 303.068Z" fill="#F7EAFC"/>
<path d="M350.23 303.991C350.962 304.071 351.622 303.54 351.7 302.808C351.78 302.076 351.248 301.416 350.516 301.339C349.784 301.259 349.124 301.791 349.047 302.522C348.967 303.254 349.499 303.914 350.23 303.991Z" fill="#F7EAFC"/>
<path d="M418.599 0.652649L0.296875 38.8647L10.7193 152.936L429.022 114.724L418.599 0.652649Z" fill="#AA2AE1"/>
<path d="M114.447 235.773L125.313 123.752L418.836 152.219L407.97 264.24L114.447 235.773Z" fill="white" stroke="#AA2AE1" stroke-width="2"/>
<path d="M44.6404 120.416C39.1867 118.107 34.7505 114.6 31.3291 109.896C27.9048 105.197 25.9039 99.6982 25.3322 93.4075C24.7577 87.114 25.7267 81.3493 28.2449 76.1047C30.7574 70.8601 34.4875 66.6072 39.4297 63.3462C44.3718 60.0851 50.1085 58.1559 56.6427 57.5614C62.3451 57.0412 67.5731 57.59 72.3351 59.2105C77.0943 60.831 81.1646 63.4205 84.5431 66.9788L74.253 78.2482C69.7654 73.7067 64.6404 71.6946 58.8808 72.2205C55.4965 72.5292 52.5495 73.5553 50.0427 75.293C47.536 77.0335 45.6809 79.3314 44.4747 82.1895C43.2684 85.0505 42.8282 88.2458 43.1512 91.7813C43.4742 95.3167 44.4861 98.3806 46.1897 100.973C47.8933 103.568 50.1342 105.494 52.9154 106.749C55.6966 108.007 58.7807 108.478 62.165 108.17C67.9246 107.644 72.6009 104.74 76.191 99.4552L88.3505 108.678C85.6722 112.788 82.1393 116.072 77.7517 118.527C73.3641 120.982 68.3219 122.469 62.6195 122.989C56.0853 123.586 50.0942 122.729 44.6433 120.416H44.6404Z" fill="white"/>
<path d="M107.443 114.637C101.929 112.302 97.4445 108.787 93.9945 104.085C90.5416 99.3866 88.5293 93.922 87.9605 87.6913C87.3917 81.4607 88.3807 75.7217 90.9246 70.4742C93.4685 65.2268 97.2416 60.9568 102.241 57.6614C107.24 54.366 113.034 52.414 119.628 51.8138C126.22 51.2107 132.274 52.0796 137.787 54.4146C143.301 56.7497 147.783 60.2709 151.236 64.9667C154.689 69.6654 156.701 75.1301 157.27 81.3635C157.839 87.5942 156.85 93.3332 154.306 98.5807C151.759 103.828 147.989 108.098 142.99 111.393C137.99 114.692 132.194 116.638 125.602 117.238C119.011 117.841 112.957 116.975 107.443 114.637ZM132.602 99.4724C135.021 97.7404 136.847 95.4453 138.082 92.5815C139.317 89.7206 139.774 86.5224 139.451 82.9869C139.128 79.4515 138.099 76.3876 136.364 73.7982C134.629 71.2088 132.417 69.2796 129.727 68.0163C127.037 66.753 124.116 66.2643 120.969 66.5501C117.819 66.8387 115.038 67.8476 112.62 69.5768C110.201 71.3088 108.375 73.6038 107.14 76.4676C105.902 79.3286 105.448 82.5268 105.771 86.0622C106.094 89.5977 107.12 92.6616 108.855 95.251C110.587 97.8404 112.8 99.7696 115.492 101.033C118.182 102.299 121.1 102.785 124.25 102.499C127.397 102.213 130.178 101.204 132.597 99.4724H132.602Z" fill="white"/>
<path d="M223.929 106.992L220.708 73.667L207.151 102.274L199.31 102.988L180.968 78.2028L183.932 110.648L167.628 112.137L161.883 49.2247L176.403 47.8985L201.637 82.207L219.702 43.9458L234.222 42.6196L240.148 105.515L223.932 106.995L223.929 106.992Z" fill="white"/>
<path d="M245.086 41.6218L262.725 40.0127L268.47 102.925L250.831 104.534L245.086 41.6218Z" fill="white"/>
<path d="M332.834 33.6078L338.579 96.5201L324.056 97.8462L293.466 66.8388L296.527 100.361L279.245 101.939L273.5 39.0268L288.02 37.7006L318.611 68.708L315.549 35.1855L332.834 33.605V33.6078Z" fill="white"/>
<path d="M388.051 58.9277L403.641 57.5044L406.022 83.5673C402.695 86.4711 398.776 88.8205 394.268 90.6211C389.761 92.4217 385.193 93.5335 380.56 93.9565C374.026 94.5538 368.02 93.6992 362.538 91.387C357.055 89.0806 352.605 85.5737 349.181 80.8721C345.756 76.1706 343.755 70.6745 343.184 64.3838C342.609 58.0932 343.578 52.3256 346.094 47.081C348.609 41.8364 352.382 37.5807 357.413 34.311C362.443 31.0442 368.286 29.1065 374.937 28.4977C380.757 27.9661 386.073 28.4805 390.887 30.0325C395.7 31.5873 399.819 34.0795 403.249 37.5121L392.962 48.7815C388.317 44.4915 383.058 42.6195 377.175 43.154C371.83 43.6398 367.674 45.6662 364.704 49.2331C361.735 52.7971 360.503 57.3043 361 62.7547C361.317 66.2302 362.341 69.2626 364.076 71.8549C365.808 74.4443 368.083 76.3821 370.893 77.6654C373.705 78.9487 376.832 79.4345 380.277 79.1201C383.664 78.8115 386.777 77.8311 389.621 76.182L388.046 58.9277H388.051Z" fill="white"/>
<path d="M146.034 210.981C141.583 209.329 138.033 207.357 135.375 205.068L142.164 192.998C144.67 195.044 147.643 196.785 151.076 198.222C154.509 199.657 157.936 200.543 161.36 200.875C167.866 201.506 171.279 200.18 171.596 196.899C171.765 195.173 170.959 193.801 169.187 192.786C167.411 191.772 164.516 190.606 160.497 189.285C156.084 187.87 152.419 186.453 149.504 185.038C146.588 183.62 144.167 181.571 142.238 178.885C140.309 176.201 139.551 172.754 139.957 168.553C140.314 164.869 141.632 161.639 143.919 158.869C146.202 156.097 149.412 154.042 153.546 152.699C157.679 151.356 162.627 150.964 168.392 151.524C172.328 151.907 176.167 152.73 179.903 153.991C183.638 155.257 186.88 156.892 189.621 158.901L183.17 171.088C177.764 167.427 172.379 165.334 167.014 164.814C163.647 164.488 161.143 164.754 159.505 165.612C157.865 166.469 156.97 167.707 156.813 169.316C156.655 170.928 157.453 172.225 159.199 173.208C160.949 174.192 163.804 175.312 167.774 176.57C172.245 177.99 175.924 179.408 178.811 180.82C181.698 182.231 184.121 184.269 186.082 186.927C188.04 189.588 188.818 193.021 188.409 197.222C188.057 200.849 186.74 204.033 184.459 206.777C182.178 209.52 178.951 211.575 174.789 212.944C170.624 214.311 165.688 214.719 159.98 214.168C155.129 213.699 150.481 212.636 146.031 210.984L146.034 210.981Z" fill="#AA2AE1"/>
<path d="M206.126 214.542C201.338 211.347 197.734 207.223 195.316 202.161C192.898 197.102 191.977 191.583 192.56 185.593C193.141 179.605 195.101 174.363 198.448 169.862C201.793 165.363 206.123 162.008 211.437 159.79C216.751 157.572 222.573 156.772 228.907 157.386C235.241 158.001 240.801 159.904 245.591 163.1C250.379 166.295 253.981 170.422 256.402 175.478C258.82 180.537 259.74 186.059 259.16 192.046C258.58 198.034 256.616 203.276 253.269 207.774C249.925 212.276 245.597 215.631 240.283 217.846C234.97 220.064 229.147 220.864 222.813 220.25C216.479 219.635 210.92 217.732 206.132 214.534L206.126 214.542ZM232.609 204.733C235.201 203.533 237.339 201.692 239.02 199.209C240.698 196.728 241.704 193.79 242.036 190.394C242.364 186.996 241.944 183.921 240.769 181.163C239.597 178.407 237.854 176.187 235.539 174.509C233.223 172.834 230.554 171.848 227.529 171.554C224.502 171.259 221.696 171.717 219.103 172.917C216.51 174.12 214.37 175.961 212.692 178.442C211.011 180.923 210.005 183.861 209.676 187.259C209.345 190.657 209.768 193.732 210.942 196.491C212.114 199.249 213.858 201.466 216.173 203.144C218.486 204.822 221.155 205.805 224.179 206.099C227.204 206.394 230.013 205.939 232.606 204.736L232.609 204.733Z" fill="#AA2AE1"/>
<path d="M276.828 221.399C272.04 218.203 268.436 214.079 266.018 209.017C263.6 203.959 262.682 198.44 263.262 192.449C263.843 186.461 265.803 181.22 269.151 176.718C272.495 172.22 276.825 168.864 282.136 166.646C287.45 164.428 293.272 163.628 299.606 164.243C305.94 164.857 311.5 166.761 316.288 169.959C321.076 173.154 324.677 177.281 327.098 182.337C329.516 187.396 330.437 192.918 329.856 198.906C329.276 204.893 327.312 210.135 323.968 214.636C320.621 219.135 316.293 222.493 310.98 224.708C305.666 226.926 299.844 227.726 293.509 227.112C287.175 226.497 281.616 224.594 276.825 221.396L276.828 221.399ZM303.311 211.59C305.903 210.389 308.041 208.549 309.722 206.068C311.403 203.587 312.409 200.649 312.738 197.251C313.066 193.855 312.646 190.777 311.471 188.019C310.299 185.261 308.556 183.043 306.241 181.365C303.925 179.688 301.256 178.705 298.231 178.41C295.207 178.116 292.398 178.57 289.805 179.771C287.213 180.974 285.074 182.814 283.394 185.295C281.713 187.776 280.71 190.714 280.381 194.112C280.052 197.511 280.473 200.586 281.644 203.344C282.816 206.102 284.56 208.32 286.875 209.998C289.188 211.675 291.857 212.659 294.884 212.956C297.909 213.25 300.718 212.796 303.311 211.593V211.59Z" fill="#AA2AE1"/>
<path d="M396.992 174.909L391.129 235.355L377.178 234.003L353.853 199.228L350.729 231.439L334.125 229.827L339.987 169.381L353.939 170.733L377.263 205.508L380.388 173.297L396.995 174.909H396.992Z" fill="#AA2AE1"/>
<path d="M368.249 251.726L159.5 253.62L159.835 290.519L368.584 288.625L368.249 251.726Z" fill="#AA2AE1"/>
<path d="M178.079 282.25C176.647 281.885 175.483 281.39 174.586 280.77L176.29 276.811C177.133 277.363 178.11 277.803 179.219 278.135C180.328 278.466 181.417 278.629 182.489 278.618C184.524 278.601 185.536 278.078 185.528 277.052C185.522 276.511 185.228 276.114 184.647 275.857C184.064 275.602 183.13 275.334 181.843 275.059C180.431 274.765 179.251 274.448 178.302 274.108C177.353 273.765 176.535 273.21 175.852 272.441C175.166 271.675 174.817 270.635 174.806 269.32C174.795 268.169 175.098 267.125 175.715 266.194C176.33 265.262 177.256 264.519 178.49 263.97C179.725 263.418 181.243 263.136 183.047 263.118C184.279 263.107 185.493 263.236 186.691 263.507C187.889 263.773 188.946 264.173 189.861 264.705L188.263 268.689C186.471 267.734 184.736 267.263 183.058 267.277C182.006 267.285 181.24 267.451 180.76 267.771C180.283 268.091 180.045 268.5 180.048 269.006C180.054 269.509 180.34 269.886 180.914 270.135C181.489 270.381 182.409 270.632 183.678 270.892C185.11 271.187 186.294 271.504 187.234 271.844C188.175 272.187 188.992 272.736 189.684 273.496C190.378 274.253 190.73 275.294 190.741 276.606C190.753 277.74 190.45 278.769 189.832 279.692C189.215 280.618 188.286 281.359 187.043 281.919C185.799 282.479 184.284 282.768 182.501 282.785C180.983 282.799 179.511 282.622 178.082 282.259L178.079 282.25Z" fill="white"/>
<path d="M196.283 267.614L190.529 267.665L190.492 263.427L207.274 263.275L207.311 267.514L201.583 267.565L201.714 282.225L196.415 282.273L196.283 267.614Z" fill="white"/>
<path d="M220.464 278.383L212.541 278.455L211.103 282.139L205.695 282.188L213.793 263.213L219.012 263.167L227.479 281.99L221.968 282.039L220.462 278.381L220.464 278.383ZM218.875 274.456L216.411 268.432L214.059 274.499L218.875 274.456Z" fill="white"/>
<path d="M237.244 275.128L237.304 281.904L232.005 281.953L231.942 275.096L224.688 263.121L230.281 263.07L234.792 270.535L239.168 262.989L244.307 262.941L237.244 275.128Z" fill="white"/>
<path d="M256.385 267.071L250.631 267.122L250.594 262.884L267.375 262.732L267.412 266.971L261.684 267.022L261.816 281.682L256.516 281.73L256.385 267.071Z" fill="white"/>
<path d="M270.834 279.683C269.279 278.169 268.487 276.005 268.462 273.198L268.367 262.724L273.667 262.675L273.758 272.987C273.787 276.011 274.987 277.511 277.36 277.491C279.715 277.471 280.878 275.948 280.853 272.924L280.761 262.609L285.98 262.563L286.075 273.038C286.1 275.845 285.349 278.023 283.819 279.566C282.29 281.107 280.135 281.893 277.351 281.918C274.567 281.944 272.397 281.198 270.84 279.681L270.834 279.683Z" fill="white"/>
<path d="M306.853 262.375L307.025 281.273L302.663 281.313L294.302 271.318L294.394 281.39L289.203 281.436L289.031 262.538L293.393 262.498L301.754 272.493L301.662 262.424L306.853 262.375Z" fill="white"/>
<path d="M325.238 276.98L325.275 281.11L310.234 281.247L310.062 262.349L324.754 262.218L324.792 266.348L315.345 266.433L315.373 269.62L323.697 269.543L323.731 273.539L315.408 273.613L315.439 277.071L325.235 276.983L325.238 276.98Z" fill="white"/>
<path d="M327.508 262.189L336.366 262.109C338.418 262.092 340.239 262.464 341.837 263.221C343.432 263.982 344.672 265.07 345.558 266.482C346.444 267.897 346.899 269.558 346.916 271.464C346.933 273.373 346.51 275.042 345.65 276.471C344.789 277.903 343.569 279.009 341.985 279.798C340.405 280.587 338.587 280.99 336.537 281.007L327.679 281.087L327.508 262.189ZM336.283 276.743C337.889 276.729 339.173 276.257 340.139 275.331C341.102 274.405 341.577 273.13 341.562 271.513C341.548 269.892 341.051 268.629 340.07 267.72C339.09 266.811 337.795 266.362 336.192 266.377L332.847 266.408L332.942 276.774L336.286 276.743H336.283Z" fill="white"/>
<path d="M348.227 262.004L354.275 261.949L353.366 273.973L349.324 274.008L348.227 262.004ZM349.221 280.312C348.644 279.769 348.355 279.101 348.347 278.309C348.341 277.5 348.618 276.831 349.187 276.303C349.753 275.777 350.482 275.508 351.374 275.499C352.265 275.491 352.994 275.745 353.563 276.263C354.129 276.78 354.415 277.443 354.424 278.255C354.432 279.046 354.152 279.721 353.586 280.275C353.02 280.83 352.3 281.11 351.425 281.118C350.533 281.124 349.799 280.858 349.224 280.315L349.221 280.312Z" fill="white"/>
</svg>
