<svg width="45" height="42" viewBox="0 0 45 42" fill="none" xmlns="http://www.w3.org/2000/svg">
<path fill-rule="evenodd" clip-rule="evenodd" d="M25.0797 1.07953C24.9781 1.38716 24.9231 1.716 24.9231 2.05769C24.9231 3.77827 26.3179 5.17308 28.0385 5.17308C28.6184 5.17308 29.1613 5.01464 29.6262 4.73868C29.6064 4.88064 29.5962 5.02566 29.5962 5.17308C29.5962 6.89366 30.991 8.28846 32.7115 8.28846C32.7115 10.009 34.1064 11.4038 35.8269 11.4038C35.9743 11.4038 36.1194 11.3936 36.2613 11.3738C35.9854 11.8388 35.8269 12.3816 35.8269 12.9615C35.8269 14.6821 37.2217 16.0769 38.9423 16.0769C39.284 16.0769 39.6128 16.0219 39.9205 15.9203C40.2992 17.468 40.5 19.0856 40.5 20.75C40.5 31.9338 31.4338 41 20.25 41C9.06623 41 0 31.9338 0 20.75C0 9.56623 9.06623 0.5 20.25 0.5C21.9144 0.5 23.532 0.700813 25.0797 1.07953ZM23.3654 12.9615C23.3654 13.8218 22.668 14.5192 21.8077 14.5192C20.9474 14.5192 20.25 13.8218 20.25 12.9615C20.25 12.1012 20.9474 11.4038 21.8077 11.4038C22.668 11.4038 23.3654 12.1012 23.3654 12.9615ZM35.8269 22.3077C36.6872 22.3077 37.3846 21.6103 37.3846 20.75C37.3846 19.8897 36.6872 19.1923 35.8269 19.1923C34.9666 19.1923 34.2692 19.8897 34.2692 20.75C34.2692 21.6103 34.9666 22.3077 35.8269 22.3077ZM26.4808 31.6538C26.4808 32.5141 25.7834 33.2115 24.9231 33.2115C24.0628 33.2115 23.3654 32.5141 23.3654 31.6538C23.3654 30.7936 24.0628 30.0962 24.9231 30.0962C25.7834 30.0962 26.4808 30.7936 26.4808 31.6538ZM9.34615 19.1923C10.2064 19.1923 10.9038 18.4949 10.9038 17.6346C10.9038 16.7743 10.2064 16.0769 9.34615 16.0769C8.48586 16.0769 7.78846 16.7743 7.78846 17.6346C7.78846 18.4949 8.48586 19.1923 9.34615 19.1923ZM15.5769 28.5385C15.5769 30.259 14.1821 31.6538 12.4615 31.6538C10.741 31.6538 9.34615 30.259 9.34615 28.5385C9.34615 26.8179 10.741 25.4231 12.4615 25.4231C14.1821 25.4231 15.5769 26.8179 15.5769 28.5385ZM23.3654 23.8654C24.2257 23.8654 24.9231 23.168 24.9231 22.3077C24.9231 21.4474 24.2257 20.75 23.3654 20.75C22.5051 20.75 21.8077 21.4474 21.8077 22.3077C21.8077 23.168 22.5051 23.8654 23.3654 23.8654ZM15.5769 8.28846C15.5769 9.14875 14.8795 9.84615 14.0192 9.84615C13.1589 9.84615 12.4615 9.14875 12.4615 8.28846C12.4615 7.42817 13.1589 6.73077 14.0192 6.73077C14.8795 6.73077 15.5769 7.42817 15.5769 8.28846Z" fill="#AA2AE1"/>
<circle cx="42.5" cy="4.5" r="2.5" fill="#AA2AE1"/>
<circle cx="32.5" cy="3.5" r="1.5" fill="#AA2AE1"/>
<circle cx="38.5" cy="8.5" r="1.5" fill="#AA2AE1"/>
</svg>
