<svg width="22" height="26" viewBox="0 0 22 26" fill="none" xmlns="http://www.w3.org/2000/svg">
<path d="M8.25 20.5C7.5625 20.5 6.97417 20.2554 6.485 19.7663C5.995 19.2763 5.75 18.6875 5.75 18V3C5.75 2.3125 5.995 1.72375 6.485 1.23375C6.97417 0.744583 7.5625 0.5 8.25 0.5H19.5C20.1875 0.5 20.7763 0.744583 21.2663 1.23375C21.7554 1.72375 22 2.3125 22 3V18C22 18.6875 21.7554 19.2763 21.2663 19.7663C20.7763 20.2554 20.1875 20.5 19.5 20.5H8.25ZM8.25 17C8.25 17.5523 8.69772 18 9.25 18H18.5C19.0523 18 19.5 17.5523 19.5 17V4C19.5 3.44772 19.0523 3 18.5 3H9.25C8.69772 3 8.25 3.44772 8.25 4V17ZM3.25 25.5C2.5625 25.5 1.97375 25.2554 1.48375 24.7663C0.994583 24.2763 0.75 23.6875 0.75 23V6.75C0.75 6.39583 0.87 6.09875 1.11 5.85875C1.34917 5.61958 1.64583 5.5 2 5.5C2.35417 5.5 2.65125 5.61958 2.89125 5.85875C3.13042 6.09875 3.25 6.39583 3.25 6.75V22C3.25 22.5523 3.69772 23 4.25 23H15.75C16.1042 23 16.4013 23.12 16.6413 23.36C16.8804 23.5992 17 23.8958 17 24.25C17 24.6042 16.8804 24.9008 16.6413 25.14C16.4013 25.38 16.1042 25.5 15.75 25.5H3.25ZM8.25 3V18V3Z" fill="black"/>
</svg>
