<svg width="450" height="190" viewBox="0 0 450 190" fill="none" xmlns="http://www.w3.org/2000/svg">
<mask id="path-1-inside-1_2072_3463" fill="white">
<path fill-rule="evenodd" clip-rule="evenodd" d="M0 10C0 4.47715 4.47715 0 10 0H440C445.523 0 450 4.47715 450 10V81C438.954 81 430 89.9543 430 101C430 112.046 438.954 121 450 121V180C450 185.523 445.523 190 440 190H10C4.47715 190 0 185.523 0 180V121C11.0457 121 20 112.046 20 101C20 89.9543 11.0457 81 0 81V10Z"/>
</mask>
<path d="M450 81V81.5H450.5V81H450ZM450 121H450.5V120.5H450V121ZM0 121V120.5H-0.5V121H0ZM0 81H-0.5V81.5H0V81ZM10 -0.5C9.29939 -0.5 8.61434 -0.431313 7.95135 -0.300154L8.14541 0.680834C8.74483 0.562251 9.3649 0.5 10 0.5V-0.5ZM4.16568 1.26886C3.02086 2.0353 2.0353 3.02086 1.26886 4.16568L2.09983 4.722C2.79355 3.6858 3.6858 2.79355 4.722 2.09983L4.16568 1.26886ZM-0.300153 7.95134C-0.431313 8.61433 -0.5 9.29939 -0.5 10H0.5C0.5 9.36489 0.562252 8.74483 0.680835 8.14541L-0.300153 7.95134ZM-0.5 10V12.5357H0.5V10H-0.5ZM-0.5 17.6071V22.6786H0.5V17.6071H-0.5ZM-0.5 27.75V32.8214H0.5V27.75H-0.5ZM-0.5 37.8929V42.9643H0.5V37.8929H-0.5ZM-0.5 48.0357V53.1071H0.5V48.0357H-0.5ZM-0.5 58.1786V63.25H0.5V58.1786H-0.5ZM-0.5 68.3214V73.3929H0.5V68.3214H-0.5ZM-0.5 78.4643V81H0.5V78.4643H-0.5ZM0 81.5C0.86366 81.5 1.71396 81.5561 2.54751 81.6648L2.67686 80.6732C1.80053 80.5589 0.907025 80.5 0 80.5V81.5ZM7.46423 82.9795C9.04926 83.6368 10.529 84.4972 11.871 85.5285L12.4803 84.7355C11.0699 83.6516 9.51416 82.747 7.84728 82.0557L7.46423 82.9795ZM15.4715 89.129C16.5028 90.471 17.3632 91.9507 18.0205 93.5358L18.9443 93.1527C18.253 91.4858 17.3483 89.9301 16.2644 88.5197L15.4715 89.129ZM19.3352 98.4525C19.4439 99.286 19.5 100.136 19.5 101H20.5C20.5 100.093 20.4411 99.1995 20.3268 98.3231L19.3352 98.4525ZM19.5 101C19.5 101.864 19.4439 102.714 19.3352 103.548L20.3268 103.677C20.4411 102.801 20.5 101.907 20.5 101H19.5ZM18.0205 108.464C17.3632 110.049 16.5028 111.529 15.4715 112.871L16.2644 113.48C17.3483 112.07 18.253 110.514 18.9443 108.847L18.0205 108.464ZM11.871 116.472C10.529 117.503 9.04926 118.363 7.46423 119.021L7.84728 119.944C9.51415 119.253 11.0699 118.348 12.4803 117.264L11.871 116.472ZM2.54751 120.335C1.71396 120.444 0.863659 120.5 0 120.5V121.5C0.907024 121.5 1.80053 121.441 2.67686 121.327L2.54751 120.335ZM-0.5 121V123.458H0.5V121H-0.5ZM-0.5 128.375V133.292H0.5V128.375H-0.5ZM-0.5 138.208V143.125H0.5V138.208H-0.5ZM-0.5 148.042V152.958H0.5V148.042H-0.5ZM-0.5 157.875V162.792H0.5V157.875H-0.5ZM-0.5 167.708V172.625H0.5V167.708H-0.5ZM-0.5 177.542V180H0.5V177.542H-0.5ZM-0.5 180C-0.5 180.701 -0.431313 181.386 -0.300153 182.049L0.680835 181.855C0.562252 181.255 0.5 180.635 0.5 180H-0.5ZM1.26886 185.834C2.0353 186.979 3.02086 187.965 4.16568 188.731L4.722 187.9C3.6858 187.206 2.79355 186.314 2.09983 185.278L1.26886 185.834ZM7.95134 190.3C8.61433 190.431 9.29939 190.5 10 190.5V189.5C9.3649 189.5 8.74483 189.438 8.14541 189.319L7.95134 190.3ZM10 190.5H12.5V189.5H10V190.5ZM17.5 190.5H22.5V189.5H17.5V190.5ZM27.5 190.5H32.5V189.5H27.5V190.5ZM37.5 190.5H42.5V189.5H37.5V190.5ZM47.5 190.5H52.5V189.5H47.5V190.5ZM57.5 190.5H62.5V189.5H57.5V190.5ZM67.5 190.5H72.5V189.5H67.5V190.5ZM77.5 190.5H82.5V189.5H77.5V190.5ZM87.5 190.5H92.5V189.5H87.5V190.5ZM97.5 190.5H102.5V189.5H97.5V190.5ZM107.5 190.5H112.5V189.5H107.5V190.5ZM117.5 190.5H122.5V189.5H117.5V190.5ZM127.5 190.5H132.5V189.5H127.5V190.5ZM137.5 190.5H142.5V189.5H137.5V190.5ZM147.5 190.5H152.5V189.5H147.5V190.5ZM157.5 190.5H162.5V189.5H157.5V190.5ZM167.5 190.5H172.5V189.5H167.5V190.5ZM177.5 190.5H182.5V189.5H177.5V190.5ZM187.5 190.5H192.5V189.5H187.5V190.5ZM197.5 190.5H202.5V189.5H197.5V190.5ZM207.5 190.5H212.5V189.5H207.5V190.5ZM217.5 190.5H222.5V189.5H217.5V190.5ZM227.5 190.5H232.5V189.5H227.5V190.5ZM237.5 190.5H242.5V189.5H237.5V190.5ZM247.5 190.5H252.5V189.5H247.5V190.5ZM257.5 190.5H262.5V189.5H257.5V190.5ZM267.5 190.5H272.5V189.5H267.5V190.5ZM277.5 190.5H282.5V189.5H277.5V190.5ZM287.5 190.5H292.5V189.5H287.5V190.5ZM297.5 190.5H302.5V189.5H297.5V190.5ZM307.5 190.5H312.5V189.5H307.5V190.5ZM317.5 190.5H322.5V189.5H317.5V190.5ZM327.5 190.5H332.5V189.5H327.5V190.5ZM337.5 190.5H342.5V189.5H337.5V190.5ZM347.5 190.5H352.5V189.5H347.5V190.5ZM357.5 190.5H362.5V189.5H357.5V190.5ZM367.5 190.5H372.5V189.5H367.5V190.5ZM377.5 190.5H382.5V189.5H377.5V190.5ZM387.5 190.5H392.5V189.5H387.5V190.5ZM397.5 190.5H402.5V189.5H397.5V190.5ZM407.5 190.5H412.5V189.5H407.5V190.5ZM417.5 190.5H422.5V189.5H417.5V190.5ZM427.5 190.5H432.5V189.5H427.5V190.5ZM437.5 190.5H440V189.5H437.5V190.5ZM440 190.5C440.701 190.5 441.386 190.431 442.049 190.3L441.855 189.319C441.255 189.438 440.635 189.5 440 189.5V190.5ZM445.834 188.731C446.979 187.965 447.965 186.979 448.731 185.834L447.9 185.278C447.206 186.314 446.314 187.206 445.278 187.9L445.834 188.731ZM450.3 182.049C450.431 181.386 450.5 180.701 450.5 180H449.5C449.5 180.635 449.438 181.255 449.319 181.855L450.3 182.049ZM450.5 180V177.542H449.5V180H450.5ZM450.5 172.625V167.708H449.5V172.625H450.5ZM450.5 162.792V157.875H449.5V162.792H450.5ZM450.5 152.958V148.042H449.5V152.958H450.5ZM450.5 143.125V138.208H449.5V143.125H450.5ZM450.5 133.292V128.375H449.5V133.292H450.5ZM450.5 123.458V121H449.5V123.458H450.5ZM450 120.5C449.136 120.5 448.286 120.444 447.452 120.335L447.323 121.327C448.199 121.441 449.093 121.5 450 121.5V120.5ZM442.536 119.021C440.951 118.363 439.471 117.503 438.129 116.472L437.52 117.264C438.93 118.348 440.486 119.253 442.153 119.944L442.536 119.021ZM434.528 112.871C433.497 111.529 432.637 110.049 431.979 108.464L431.056 108.847C431.747 110.514 432.652 112.07 433.736 113.48L434.528 112.871ZM430.665 103.548C430.556 102.714 430.5 101.864 430.5 101H429.5C429.5 101.907 429.559 102.801 429.673 103.677L430.665 103.548ZM430.5 101C430.5 100.136 430.556 99.286 430.665 98.4525L429.673 98.3231C429.559 99.1995 429.5 100.093 429.5 101H430.5ZM431.979 93.5358C432.637 91.9507 433.497 90.471 434.528 89.129L433.736 88.5197C432.652 89.9301 431.747 91.4858 431.056 93.1527L431.979 93.5358ZM438.129 85.5285C439.471 84.4972 440.951 83.6368 442.536 82.9795L442.153 82.0557C440.486 82.747 438.93 83.6516 437.52 84.7356L438.129 85.5285ZM447.452 81.6648C448.286 81.5561 449.136 81.5 450 81.5V80.5C449.093 80.5 448.199 80.5589 447.323 80.6732L447.452 81.6648ZM450.5 81V78.4643H449.5V81H450.5ZM450.5 73.3929V68.3214H449.5V73.3929H450.5ZM450.5 63.25V58.1786H449.5V63.25H450.5ZM450.5 53.1071V48.0357H449.5V53.1071H450.5ZM450.5 42.9643V37.8929H449.5V42.9643H450.5ZM450.5 32.8214V27.75H449.5V32.8214H450.5ZM450.5 22.6786V17.6071H449.5V22.6786H450.5ZM450.5 12.5357V10H449.5V12.5357H450.5ZM450.5 10C450.5 9.29939 450.431 8.61433 450.3 7.95135L449.319 8.14541C449.438 8.74483 449.5 9.3649 449.5 10H450.5ZM448.731 4.16568C447.965 3.02086 446.979 2.0353 445.834 1.26886L445.278 2.09983C446.314 2.79355 447.206 3.6858 447.9 4.722L448.731 4.16568ZM442.049 -0.300154C441.386 -0.431313 440.701 -0.5 440 -0.5V0.5C440.635 0.5 441.255 0.562251 441.855 0.680834L442.049 -0.300154ZM440 -0.5H437.5V0.5H440V-0.5ZM432.5 -0.5H427.5V0.5H432.5V-0.5ZM422.5 -0.5H417.5V0.5H422.5V-0.5ZM412.5 -0.5H407.5V0.5H412.5V-0.5ZM402.5 -0.5H397.5V0.5H402.5V-0.5ZM392.5 -0.5H387.5V0.5H392.5V-0.5ZM382.5 -0.5H377.5V0.5H382.5V-0.5ZM372.5 -0.5H367.5V0.5H372.5V-0.5ZM362.5 -0.5H357.5V0.5H362.5V-0.5ZM352.5 -0.5H347.5V0.5H352.5V-0.5ZM342.5 -0.5H337.5V0.5H342.5V-0.5ZM332.5 -0.5H327.5V0.5H332.5V-0.5ZM322.5 -0.5H317.5V0.5H322.5V-0.5ZM312.5 -0.5H307.5V0.5H312.5V-0.5ZM302.5 -0.5H297.5V0.5H302.5V-0.5ZM292.5 -0.5H287.5V0.5H292.5V-0.5ZM282.5 -0.5H277.5V0.5H282.5V-0.5ZM272.5 -0.5H267.5V0.5H272.5V-0.5ZM262.5 -0.5H257.5V0.5H262.5V-0.5ZM252.5 -0.5H247.5V0.5H252.5V-0.5ZM242.5 -0.5H237.5V0.5H242.5V-0.5ZM232.5 -0.5H227.5V0.5H232.5V-0.5ZM222.5 -0.5H217.5V0.5H222.5V-0.5ZM212.5 -0.5H207.5V0.5H212.5V-0.5ZM202.5 -0.5H197.5V0.5H202.5V-0.5ZM192.5 -0.5H187.5V0.5H192.5V-0.5ZM182.5 -0.5H177.5V0.5H182.5V-0.5ZM172.5 -0.5H167.5V0.5H172.5V-0.5ZM162.5 -0.5H157.5V0.5H162.5V-0.5ZM152.5 -0.5H147.5V0.5H152.5V-0.5ZM142.5 -0.5H137.5V0.5H142.5V-0.5ZM132.5 -0.5H127.5V0.5H132.5V-0.5ZM122.5 -0.5H117.5V0.5H122.5V-0.5ZM112.5 -0.5H107.5V0.5H112.5V-0.5ZM102.5 -0.5H97.5V0.5H102.5V-0.5ZM92.5 -0.5H87.5V0.5H92.5V-0.5ZM82.5 -0.5H77.5V0.5H82.5V-0.5ZM72.5 -0.5H67.5V0.5H72.5V-0.5ZM62.5 -0.5H57.5V0.5H62.5V-0.5ZM52.5 -0.5H47.5V0.5H52.5V-0.5ZM42.5 -0.5H37.5V0.5H42.5V-0.5ZM32.5 -0.5H27.5V0.5H32.5V-0.5ZM22.5 -0.5H17.5V0.5H22.5V-0.5ZM12.5 -0.5H10V0.5H12.5V-0.5ZM450 81V82H451V81H450ZM450 121H451V120H450V121ZM0 121V120H-1V121H0ZM0 81H-1V82H0V81ZM10 -1C9.26664 -1 8.54909 -0.928095 7.85431 -0.790648L8.24245 1.17133C8.81008 1.05903 9.39765 1 10 1V-1ZM3.88752 0.853376C2.68839 1.65618 1.65618 2.68839 0.853378 3.88752L2.51531 5.00016C3.17268 4.01827 4.01827 3.17267 5.00016 2.51531L3.88752 0.853376ZM-0.790647 7.85431C-0.928095 8.54908 -1 9.26664 -1 10H1C1 9.39765 1.05903 8.81008 1.17133 8.24244L-0.790647 7.85431ZM-1 10V12.5357H1V10H-1ZM-1 17.6071V22.6786H1V17.6071H-1ZM-1 27.75V32.8214H1V27.75H-1ZM-1 37.8929V42.9643H1V37.8929H-1ZM-1 48.0357V53.1071H1V48.0357H-1ZM-1 58.1786V63.25H1V58.1786H-1ZM-1 68.3214V73.3929H1V68.3214H-1ZM-1 78.4643V81H1V78.4643H-1ZM0 82C0.841978 82 1.67068 82.0547 2.48284 82.1606L2.74153 80.1774C1.84382 80.0603 0.928707 80 0 80V82ZM7.2727 83.4413C8.81681 84.0816 10.2586 84.92 11.5664 85.9249L12.785 84.3391C11.3403 83.2289 9.7466 82.3021 8.03881 81.5939L7.2727 83.4413ZM15.0751 89.4336C16.08 90.7414 16.9183 92.1832 17.5587 93.7273L19.4061 92.9612C18.6979 91.2534 17.7711 89.6597 16.6609 88.215L15.0751 89.4336ZM18.8394 98.5172C18.9453 99.3293 19 100.158 19 101H21C21 100.071 20.9397 99.1562 20.8226 98.2585L18.8394 98.5172ZM19 101C19 101.842 18.9453 102.671 18.8394 103.483L20.8226 103.742C20.9397 102.844 21 101.929 21 101H19ZM17.5587 108.273C16.9183 109.817 16.08 111.259 15.0751 112.566L16.6609 113.785C17.7711 112.34 18.6979 110.747 19.4061 109.039L17.5587 108.273ZM11.5664 116.075C10.2586 117.08 8.81681 117.918 7.2727 118.559L8.03881 120.406C9.7466 119.698 11.3403 118.771 12.785 117.661L11.5664 116.075ZM2.48284 119.839C1.67068 119.945 0.841977 120 0 120V122C0.928706 122 1.84382 121.94 2.74153 121.823L2.48284 119.839ZM-1 121V123.458H1V121H-1ZM-1 128.375V133.292H1V128.375H-1ZM-1 138.208V143.125H1V138.208H-1ZM-1 148.042V152.958H1V148.042H-1ZM-1 157.875V162.792H1V157.875H-1ZM-1 167.708V172.625H1V167.708H-1ZM-1 177.542V180H1V177.542H-1ZM-1 180C-1 180.733 -0.928095 181.451 -0.790647 182.146L1.17133 181.758C1.05903 181.19 1 180.602 1 180H-1ZM0.853378 186.112C1.65618 187.312 2.68839 188.344 3.88752 189.147L5.00016 187.485C4.01827 186.827 3.17268 185.982 2.51531 185L0.853378 186.112ZM7.85431 190.791C8.54908 190.928 9.26664 191 10 191V189C9.39765 189 8.81008 188.941 8.24245 188.829L7.85431 190.791ZM10 191H12.5V189H10V191ZM17.5 191H22.5V189H17.5V191ZM27.5 191H32.5V189H27.5V191ZM37.5 191H42.5V189H37.5V191ZM47.5 191H52.5V189H47.5V191ZM57.5 191H62.5V189H57.5V191ZM67.5 191H72.5V189H67.5V191ZM77.5 191H82.5V189H77.5V191ZM87.5 191H92.5V189H87.5V191ZM97.5 191H102.5V189H97.5V191ZM107.5 191H112.5V189H107.5V191ZM117.5 191H122.5V189H117.5V191ZM127.5 191H132.5V189H127.5V191ZM137.5 191H142.5V189H137.5V191ZM147.5 191H152.5V189H147.5V191ZM157.5 191H162.5V189H157.5V191ZM167.5 191H172.5V189H167.5V191ZM177.5 191H182.5V189H177.5V191ZM187.5 191H192.5V189H187.5V191ZM197.5 191H202.5V189H197.5V191ZM207.5 191H212.5V189H207.5V191ZM217.5 191H222.5V189H217.5V191ZM227.5 191H232.5V189H227.5V191ZM237.5 191H242.5V189H237.5V191ZM247.5 191H252.5V189H247.5V191ZM257.5 191H262.5V189H257.5V191ZM267.5 191H272.5V189H267.5V191ZM277.5 191H282.5V189H277.5V191ZM287.5 191H292.5V189H287.5V191ZM297.5 191H302.5V189H297.5V191ZM307.5 191H312.5V189H307.5V191ZM317.5 191H322.5V189H317.5V191ZM327.5 191H332.5V189H327.5V191ZM337.5 191H342.5V189H337.5V191ZM347.5 191H352.5V189H347.5V191ZM357.5 191H362.5V189H357.5V191ZM367.5 191H372.5V189H367.5V191ZM377.5 191H382.5V189H377.5V191ZM387.5 191H392.5V189H387.5V191ZM397.5 191H402.5V189H397.5V191ZM407.5 191H412.5V189H407.5V191ZM417.5 191H422.5V189H417.5V191ZM427.5 191H432.5V189H427.5V191ZM437.5 191H440V189H437.5V191ZM440 191C440.733 191 441.451 190.928 442.146 190.791L441.758 188.829C441.19 188.941 440.602 189 440 189V191ZM446.112 189.147C447.312 188.344 448.344 187.312 449.147 186.112L447.485 185C446.827 185.982 445.982 186.827 445 187.485L446.112 189.147ZM450.791 182.146C450.928 181.451 451 180.733 451 180H449C449 180.602 448.941 181.19 448.829 181.758L450.791 182.146ZM451 180V177.542H449V180H451ZM451 172.625V167.708H449V172.625H451ZM451 162.792V157.875H449V162.792H451ZM451 152.958V148.042H449V152.958H451ZM451 143.125V138.208H449V143.125H451ZM451 133.292V128.375H449V133.292H451ZM451 123.458V121H449V123.458H451ZM450 120C449.158 120 448.329 119.945 447.517 119.839L447.258 121.823C448.156 121.94 449.071 122 450 122V120ZM442.727 118.559C441.183 117.918 439.741 117.08 438.434 116.075L437.215 117.661C438.66 118.771 440.253 119.698 441.961 120.406L442.727 118.559ZM434.925 112.566C433.92 111.259 433.082 109.817 432.441 108.273L430.594 109.039C431.302 110.747 432.229 112.34 433.339 113.785L434.925 112.566ZM431.161 103.483C431.055 102.671 431 101.842 431 101H429C429 101.929 429.06 102.844 429.177 103.742L431.161 103.483ZM431 101C431 100.158 431.055 99.3293 431.161 98.5172L429.177 98.2585C429.06 99.1562 429 100.071 429 101H431ZM432.441 93.7273C433.082 92.1832 433.92 90.7414 434.925 89.4336L433.339 88.215C432.229 89.6597 431.302 91.2534 430.594 92.9612L432.441 93.7273ZM438.434 85.9249C439.741 84.92 441.183 84.0817 442.727 83.4413L441.961 81.5939C440.253 82.3021 438.66 83.2289 437.215 84.3391L438.434 85.9249ZM447.517 82.1606C448.329 82.0547 449.158 82 450 82V80C449.071 80 448.156 80.0603 447.258 80.1774L447.517 82.1606ZM451 81V78.4643H449V81H451ZM451 73.3929V68.3214H449V73.3929H451ZM451 63.25V58.1786H449V63.25H451ZM451 53.1071V48.0357H449V53.1071H451ZM451 42.9643V37.8929H449V42.9643H451ZM451 32.8214V27.75H449V32.8214H451ZM451 22.6786V17.6071H449V22.6786H451ZM451 12.5357V10H449V12.5357H451ZM451 10C451 9.26664 450.928 8.54909 450.791 7.85431L448.829 8.24245C448.941 8.81008 449 9.39765 449 10H451ZM449.147 3.88752C448.344 2.68839 447.312 1.65618 446.112 0.853376L445 2.51531C445.982 3.17267 446.827 4.01827 447.485 5.00016L449.147 3.88752ZM442.146 -0.790648C441.451 -0.928095 440.733 -1 440 -1V1C440.602 1 441.19 1.05903 441.758 1.17133L442.146 -0.790648ZM440 -1H437.5V1H440V-1ZM432.5 -1H427.5V1H432.5V-1ZM422.5 -1H417.5V1H422.5V-1ZM412.5 -1H407.5V1H412.5V-1ZM402.5 -1H397.5V1H402.5V-1ZM392.5 -1H387.5V1H392.5V-1ZM382.5 -1H377.5V1H382.5V-1ZM372.5 -1H367.5V1H372.5V-1ZM362.5 -1H357.5V1H362.5V-1ZM352.5 -1H347.5V1H352.5V-1ZM342.5 -1H337.5V1H342.5V-1ZM332.5 -1H327.5V1H332.5V-1ZM322.5 -1H317.5V1H322.5V-1ZM312.5 -1H307.5V1H312.5V-1ZM302.5 -1H297.5V1H302.5V-1ZM292.5 -1H287.5V1H292.5V-1ZM282.5 -1H277.5V1H282.5V-1ZM272.5 -1H267.5V1H272.5V-1ZM262.5 -1H257.5V1H262.5V-1ZM252.5 -1H247.5V1H252.5V-1ZM242.5 -1H237.5V1H242.5V-1ZM232.5 -1H227.5V1H232.5V-1ZM222.5 -1H217.5V1H222.5V-1ZM212.5 -1H207.5V1H212.5V-1ZM202.5 -1H197.5V1H202.5V-1ZM192.5 -1H187.5V1H192.5V-1ZM182.5 -1H177.5V1H182.5V-1ZM172.5 -1H167.5V1H172.5V-1ZM162.5 -1H157.5V1H162.5V-1ZM152.5 -1H147.5V1H152.5V-1ZM142.5 -1H137.5V1H142.5V-1ZM132.5 -1H127.5V1H132.5V-1ZM122.5 -1H117.5V1H122.5V-1ZM112.5 -1H107.5V1H112.5V-1ZM102.5 -1H97.5V1H102.5V-1ZM92.5 -1H87.5V1H92.5V-1ZM82.5 -1H77.5V1H82.5V-1ZM72.5 -1H67.5V1H72.5V-1ZM62.5 -1H57.5V1H62.5V-1ZM52.5 -1H47.5V1H52.5V-1ZM42.5 -1H37.5V1H42.5V-1ZM32.5 -1H27.5V1H32.5V-1ZM22.5 -1H17.5V1H22.5V-1ZM12.5 -1H10V1H12.5V-1Z" fill="black" mask="url(#path-1-inside-1_2072_3463)"/>
</svg>
