<svg width="30" height="30" viewBox="0 0 30 30" fill="none" xmlns="http://www.w3.org/2000/svg">
<path d="M15.1668 4.28564C8.40392 4.28564 2.92188 9.76769 2.92188 16.5305C2.92188 19.7326 3.97065 22.9199 5.9831 25.102H24.3504C26.3623 22.9199 27.4117 19.7326 27.4117 16.5305C27.4117 9.76769 21.9296 4.28564 15.1668 4.28564Z" stroke="#AA2AE1" stroke-width="2" stroke-linecap="round" stroke-linejoin="round"/>
<path d="M15.1677 20.8162C16.5203 20.8162 17.6167 19.7197 17.6167 18.3672C17.6167 17.0147 16.5203 15.9182 15.1677 15.9182C13.8152 15.9182 12.7188 17.0147 12.7188 18.3672C12.7188 19.7197 13.8152 20.8162 15.1677 20.8162Z" stroke="#AA2AE1" stroke-width="2" stroke-linecap="round" stroke-linejoin="round"/>
<path d="M15.168 12.2449V15.9184M15.168 7.34692V8.57141M5.98438 17.1428H7.20886M8.43335 11.0204L9.29907 11.8861M23.1272 17.1428H24.3517M21.2905 11.8861L22.1562 11.0204" stroke="#AA2AE1" stroke-width="2" stroke-linecap="round" stroke-linejoin="round"/>
</svg>
