<svg width="28" height="27" viewBox="0 0 28 27" fill="none" xmlns="http://www.w3.org/2000/svg">
<path d="M3.11111 3.375C1.39514 3.375 0 4.88848 0 6.75V20.25C0 22.1115 1.39514 23.625 3.11111 23.625H24.8889C26.6049 23.625 28 22.1115 28 20.25V6.75C28 4.88848 26.6049 3.375 24.8889 3.375H3.11111ZM5.44444 11.8125H13.2222C13.65 11.8125 14 12.1922 14 12.6562C14 13.1203 13.65 13.5 13.2222 13.5H5.44444C5.01667 13.5 4.66667 13.1203 4.66667 12.6562C4.66667 12.1922 5.01667 11.8125 5.44444 11.8125ZM4.66667 17.7188C4.66667 17.2547 5.01667 16.875 5.44444 16.875H22.5556C22.9833 16.875 23.3333 17.2547 23.3333 17.7188C23.3333 18.1828 22.9833 18.5625 22.5556 18.5625H5.44444C5.01667 18.5625 4.66667 18.1828 4.66667 17.7188ZM18.2778 8.4375H22.1667C22.8132 8.4375 23.3333 9.00176 23.3333 9.70312V12.2344C23.3333 12.9357 22.8132 13.5 22.1667 13.5H18.2778C17.6313 13.5 17.1111 12.9357 17.1111 12.2344V9.70312C17.1111 9.00176 17.6313 8.4375 18.2778 8.4375Z" fill="#AA2AE1"/>
</svg>
