<svg width="25" height="25" viewBox="0 0 25 25" fill="none" xmlns="http://www.w3.org/2000/svg">
<rect width="25" height="25" rx="12.5" fill="#DC3545"/>
<path d="M7.75065 18.0417C7.75065 18.9125 8.46315 19.625 9.33398 19.625H15.6673C16.5382 19.625 17.2507 18.9125 17.2507 18.0417V8.54167H7.75065V18.0417ZM10.2602 12.9671C10.1122 12.8191 10.0291 12.6183 10.0291 12.409C10.0291 12.1996 10.1122 11.9989 10.2602 11.8508C10.4083 11.7028 10.609 11.6197 10.8184 11.6197C11.0277 11.6197 11.2285 11.7028 11.3765 11.8508L12.5007 12.9671L13.6169 11.8508C13.7649 11.7028 13.9657 11.6197 14.175 11.6197C14.3844 11.6197 14.5851 11.7028 14.7332 11.8508C14.8812 11.9989 14.9643 12.1996 14.9643 12.409C14.9643 12.6183 14.8812 12.8191 14.7332 12.9671L13.6169 14.0833L14.7332 15.1996C14.8064 15.2729 14.8646 15.3599 14.9043 15.4557C14.9439 15.5514 14.9643 15.6541 14.9643 15.7577C14.9643 15.8614 14.9439 15.964 14.9043 16.0598C14.8646 16.1555 14.8064 16.2425 14.7332 16.3158C14.6599 16.3891 14.5728 16.4473 14.4771 16.4869C14.3813 16.5266 14.2787 16.547 14.175 16.547C14.0714 16.547 13.9687 16.5266 13.873 16.4869C13.7772 16.4473 13.6902 16.3891 13.6169 16.3158L12.5007 15.1996L11.3844 16.3158C11.3111 16.3891 11.2241 16.4473 11.1283 16.4869C11.0326 16.5266 10.9299 16.547 10.8263 16.547C10.7226 16.547 10.62 16.5266 10.5242 16.4869C10.4285 16.4473 10.3414 16.3891 10.2682 16.3158C10.1949 16.2425 10.1367 16.1555 10.0971 16.0598C10.0574 15.964 10.037 15.8614 10.037 15.7577C10.037 15.6541 10.0574 15.5514 10.0971 15.4557C10.1367 15.3599 10.1949 15.2729 10.2682 15.1996L11.3844 14.0833L10.2602 12.9671ZM17.2507 6.16667H15.2715L14.7094 5.60458C14.5669 5.46208 14.3611 5.375 14.1552 5.375H10.8461C10.6402 5.375 10.4344 5.46208 10.2919 5.60458L9.72982 6.16667H7.75065C7.31523 6.16667 6.95898 6.52292 6.95898 6.95833C6.95898 7.39375 7.31523 7.75 7.75065 7.75H17.2507C17.6861 7.75 18.0423 7.39375 18.0423 6.95833C18.0423 6.52292 17.6861 6.16667 17.2507 6.16667Z" fill="white"/>
</svg>
