<svg width="109" height="40" viewBox="0 0 109 40" fill="none" xmlns="http://www.w3.org/2000/svg">
<rect x="39" y="21" width="2" height="70" transform="rotate(-90 39 21)" fill="#01A16F"/>
<path d="M0.00400543 39.996V19.996C0.00400543 8.9994 9.00341 0 20 0C31.0006 0 40 8.9994 40 20C40 31.0006 31.0006 40 20 40H0L0.00400543 39.996Z" fill="#01A16F"/>
<path d="M16.968 23.52C17.992 22.6347 18.7973 21.9093 19.384 21.344C19.9813 20.768 20.4773 20.1707 20.872 19.552C21.2667 18.9333 21.464 18.3147 21.464 17.696C21.464 17.056 21.3093 16.5547 21 16.192C20.7013 15.8293 20.2267 15.648 19.576 15.648C18.9467 15.648 18.456 15.8507 18.104 16.256C17.7627 16.6507 17.5813 17.184 17.56 17.856H15.8C15.832 16.64 16.1947 15.712 16.888 15.072C17.592 14.4213 18.4827 14.096 19.56 14.096C20.7227 14.096 21.6293 14.416 22.28 15.056C22.9413 15.696 23.272 16.5493 23.272 17.616C23.272 18.384 23.0747 19.1253 22.68 19.84C22.296 20.544 21.832 21.1787 21.288 21.744C20.7547 22.2987 20.072 22.944 19.24 23.68L18.52 24.32H23.592V25.84H15.816V24.512L16.968 23.52Z" fill="white"/>
<path opacity="0.1" d="M19.8965 0C8.95283 0 0 8.9994 0 20V40L34 5.92741C30.3893 2.27391 25.3943 0 19.8965 0Z" fill="white"/>
</svg>
