<svg width="40" height="40" viewBox="0 0 40 40" fill="none" xmlns="http://www.w3.org/2000/svg">
<path d="M0.00400543 39.996V19.996C0.00400543 8.9994 9.00341 0 20 0C31.0006 0 40 8.9994 40 20C40 31.0006 31.0006 40 20 40H0L0.00400543 39.996Z" fill="#0484C5"/>
<path d="M15.736 23.568V22.192L21.112 14.48H23.32V21.984H24.808V23.568H23.32V26H21.528V23.568H15.736ZM21.608 16.336L17.832 21.984H21.608V16.336Z" fill="white"/>
<path opacity="0.1" d="M19.8965 0C8.95283 0 0 8.9994 0 20V40L34 5.92741C30.3893 2.27391 25.3943 0 19.8965 0Z" fill="white"/>
</svg>
