<svg width="94" height="40" viewBox="0 0 94 40" fill="none" xmlns="http://www.w3.org/2000/svg">
<path d="M0.00400543 39.996V19.996C0.00400543 8.9994 9.00341 0 20 0C31.0006 0 40 8.9994 40 20C40 31.0006 31.0006 40 20 40H0L0.00400543 39.996Z" fill="#F3852D"/>
<path d="M15.928 17.216C15.992 16.224 16.3707 15.4507 17.064 14.896C17.768 14.3413 18.664 14.064 19.752 14.064C20.4987 14.064 21.144 14.1973 21.688 14.464C22.232 14.7307 22.6427 15.0933 22.92 15.552C23.1973 16.0107 23.336 16.528 23.336 17.104C23.336 17.7653 23.16 18.3307 22.808 18.8C22.456 19.2693 22.0347 19.584 21.544 19.744V19.808C22.1733 20 22.664 20.352 23.016 20.864C23.368 21.3653 23.544 22.0107 23.544 22.8C23.544 23.4293 23.4 23.9893 23.112 24.48C22.824 24.9707 22.3973 25.36 21.832 25.648C21.2667 25.9253 20.5893 26.064 19.8 26.064C18.648 26.064 17.6987 25.7707 16.952 25.184C16.216 24.5867 15.8213 23.7333 15.768 22.624H17.528C17.5707 23.1893 17.7893 23.6533 18.184 24.016C18.5787 24.368 19.112 24.544 19.784 24.544C20.4347 24.544 20.936 24.368 21.288 24.016C21.64 23.6533 21.816 23.1893 21.816 22.624C21.816 21.8773 21.576 21.3493 21.096 21.04C20.6267 20.72 19.9013 20.56 18.92 20.56H18.504V19.056H18.936C19.8 19.0453 20.456 18.9013 20.904 18.624C21.3627 18.3467 21.592 17.9093 21.592 17.312C21.592 16.8 21.4267 16.3947 21.096 16.096C20.7653 15.7867 20.296 15.632 19.688 15.632C19.0907 15.632 18.6267 15.7867 18.296 16.096C17.9653 16.3947 17.768 16.768 17.704 17.216H15.928Z" fill="white"/>
<path opacity="0.1" d="M19.8965 0C8.95283 0 0 8.9994 0 20V40L34 5.92741C30.3893 2.27391 25.3943 0 19.8965 0Z" fill="white"/>
<rect x="39" y="21" width="2" height="55" transform="rotate(-90 39 21)" fill="#F3852D"/>
</svg>
