<svg width="40" height="40" viewBox="0 0 40 40" fill="none" xmlns="http://www.w3.org/2000/svg">
<path d="M20 39H1.00401V19.996C1.00401 9.55168 9.55569 1 20 1C30.4483 1 39 9.55168 39 20C39 30.4483 30.4483 39 20 39Z" fill="#BD4A89" stroke="#BD4A89" stroke-width="2"/>
<path d="M22.232 17.04C22.1147 16.5493 21.9013 16.1813 21.592 15.936C21.2827 15.6907 20.8507 15.568 20.296 15.568C19.4533 15.568 18.824 15.8933 18.408 16.544C17.992 17.184 17.7733 18.2507 17.752 19.744C18.0293 19.2747 18.4347 18.912 18.968 18.656C19.5013 18.4 20.0773 18.272 20.696 18.272C21.4 18.272 22.0187 18.4267 22.552 18.736C23.096 19.0347 23.5173 19.472 23.816 20.048C24.1253 20.624 24.28 21.312 24.28 22.112C24.28 22.8587 24.1307 23.5253 23.832 24.112C23.544 24.6987 23.112 25.1627 22.536 25.504C21.96 25.8347 21.2667 26 20.456 26C19.3573 26 18.4933 25.76 17.864 25.28C17.2453 24.7893 16.808 24.1013 16.552 23.216C16.3067 22.3307 16.184 21.2267 16.184 19.904C16.184 16 17.56 14.048 20.312 14.048C21.3787 14.048 22.216 14.336 22.824 14.912C23.4427 15.488 23.8053 16.1973 23.912 17.04H22.232ZM20.296 19.808C19.6453 19.808 19.0907 20.0053 18.632 20.4C18.184 20.784 17.96 21.344 17.96 22.08C17.96 22.816 18.168 23.4027 18.584 23.84C19.0107 24.2667 19.6027 24.48 20.36 24.48C21.032 24.48 21.56 24.272 21.944 23.856C22.3387 23.44 22.536 22.8853 22.536 22.192C22.536 21.4667 22.344 20.8907 21.96 20.464C21.5867 20.0267 21.032 19.808 20.296 19.808Z" fill="white"/>
<path opacity="0.1" d="M19.8965 0C8.95283 0 0 8.9994 0 20V40L34 5.92741C30.3893 2.27391 25.3943 0 19.8965 0Z" fill="white"/>
</svg>
