<svg width="42" height="31" viewBox="0 0 42 31" fill="none" xmlns="http://www.w3.org/2000/svg">
<path opacity="0.5" d="M41.1418 16.3984C41.1418 21.4652 36.8339 25.5883 31.5408 25.5883H28.3584C27.8137 25.5883 27.368 25.166 27.368 24.6404C27.368 24.1147 27.8092 23.6924 28.3584 23.6924H31.5408C35.7452 23.6924 39.166 20.4178 39.166 16.3938C39.166 12.3694 35.7449 9.09519 31.5408 9.09519C31.4373 9.09519 31.3338 9.09948 31.2303 9.10376C30.8163 9.12974 30.4426 8.89277 30.2805 8.53073C28.489 4.49356 24.3702 1.8868 19.7922 1.8868C14.1522 1.8868 9.29929 5.91118 8.512 11.2536C8.44906 11.693 8.07083 12.0333 7.60726 12.0636C4.45198 12.2877 1.9806 14.8382 1.9806 17.8715C1.9806 21.0813 4.70848 23.6966 8.06627 23.6966H12.7882C13.3329 23.6966 13.7785 24.1189 13.7785 24.6446C13.7785 25.1702 13.3374 25.5925 12.7882 25.5925H8.06154C3.61437 25.5925 0 22.1283 0 17.8762C0 14.1104 2.8764 10.905 6.67992 10.2716C7.91782 4.36463 13.4231 0 19.7882 0C24.9424 0 29.5923 2.81346 31.8206 7.21697C36.9882 7.35488 41.1429 11.422 41.1429 16.3988L41.1418 16.3984ZM27.3043 20.1598L21.2681 14.3864C20.8809 14.0158 20.2554 14.0158 19.8682 14.3864L13.8365 20.1598C13.4493 20.5304 13.4493 21.1292 13.8365 21.4997C14.0301 21.685 14.2822 21.7755 14.5342 21.7755C14.7863 21.7755 15.0383 21.685 15.2319 21.4997L19.5667 17.3506L19.5846 29.7119C19.5846 30.2333 20.0257 30.6556 20.5749 30.6556C21.1196 30.6556 21.5653 30.229 21.5608 29.7076L21.5429 17.3287L25.9002 21.4995C26.2874 21.8701 26.9129 21.8701 27.3001 21.4995C27.6914 21.1286 27.6914 20.5296 27.3043 20.1593L27.3043 20.1598Z" fill="black"/>
</svg>
