<svg width="10" height="6" viewBox="0 0 10 6" fill="none" xmlns="http://www.w3.org/2000/svg">
<path d="M4.64583 5.45833C4.53472 5.45833 4.42722 5.4375 4.32333 5.39583C4.21889 5.35417 4.13194 5.29861 4.0625 5.22917L0.229166 1.39583C0.0763886 1.24306 0 1.04861 0 0.812499C0 0.576388 0.0763886 0.381944 0.229166 0.229166C0.381944 0.0763886 0.576389 0 0.8125 0C1.04861 0 1.24306 0.0763886 1.39583 0.229166L4.64583 3.47917L7.89583 0.229166C8.04861 0.0763886 8.24306 0 8.47917 0C8.71528 0 8.90972 0.0763886 9.0625 0.229166C9.21528 0.381944 9.29167 0.576388 9.29167 0.812499C9.29167 1.04861 9.21528 1.24306 9.0625 1.39583L5.22917 5.22917C5.14583 5.3125 5.05556 5.37139 4.95833 5.40583C4.86111 5.44083 4.75694 5.45833 4.64583 5.45833Z" fill="#222222"/>
</svg>
