<svg width="16" height="16" viewBox="0 0 16 16" fill="none" xmlns="http://www.w3.org/2000/svg">
<path d="M13.456 13.4561H2.54421V2.54431H6.72797V0.000197574L1.27205 0C0.565329 0 0 0.565329 0 1.27205V14.7281C0 15.4348 0.565329 16.0001 1.27205 16.0001H14.7281C15.4348 16.0001 16.0002 15.4348 16.0002 14.7281L16.0003 9.27218H13.4562L13.456 13.4561Z" fill="white"/>
<path d="M5.73694 7.57653L4.74742 10.2054C4.63443 10.6578 4.8888 11.1383 5.34117 11.2513C5.48255 11.2795 5.65214 11.2795 5.79352 11.2513L8.42243 10.2618C8.56382 10.2336 8.7052 10.1488 8.78999 10.0357L15.5745 3.25109C15.9137 2.91193 16.1117 2.57259 15.7725 2.26158L13.9351 0.395977C13.596 0.0568097 13.0589 0.0568097 12.7478 0.395977L5.96329 7.18053C5.8501 7.29372 5.76533 7.43514 5.73694 7.57653Z" fill="white"/>
</svg>
