<svg width="134" height="134" viewBox="0 0 134 134" fill="none" xmlns="http://www.w3.org/2000/svg">
<g clip-path="url(#clip0_2282_4496)">
<path d="M133.154 34.8398C132.869 33.0283 132.04 31.3462 130.777 30.0167C129.514 28.6872 127.876 27.773 126.082 27.3953L104.232 22.5937C101.889 22.0827 99.4638 22.0807 97.1199 22.588C94.776 23.0954 92.5683 24.1001 90.6462 25.5342L26.0657 72.5831L7.97569 71.8387C6.52147 71.7866 5.08782 72.1941 3.87837 73.0032C2.66891 73.8123 1.74515 74.982 1.23828 76.346C0.73141 77.71 0.667207 79.199 1.05479 80.6016C1.44237 82.0042 2.26203 83.249 3.39735 84.1592L22.0085 98.7876C24.2418 101.505 25.7307 100.984 62.6924 80.8465L66.154 115.91C66.2116 116.866 66.5395 117.787 67.0996 118.564C67.6597 119.342 68.4289 119.944 69.3179 120.302C69.9576 120.555 70.6402 120.681 71.3279 120.674C72.7123 120.632 74.0345 120.09 75.0501 119.148L83.9462 111.034C84.832 110.213 85.432 109.13 85.6585 107.944L93.8101 63.6498C107.098 56.2053 119.68 49.2076 128.65 44.1081C130.255 43.2053 131.546 41.8342 132.351 40.178C133.156 38.5219 133.436 36.6595 133.154 34.8398ZM124.965 37.6315C115.66 42.917 102.632 50.3242 88.6362 57.992L87.1101 58.8481L78.4374 106.009L72.9657 110.996L68.8712 68.9353L63.9207 71.4665C37.2324 86.3553 28.3362 90.6731 25.284 92.0131L9.27846 79.3203L28.1874 80.1392L95.1874 31.527C96.2405 30.7397 97.4479 30.1835 98.7308 29.8949C100.014 29.6062 101.343 29.5916 102.632 29.852L124.407 34.542C124.742 34.6028 125.05 34.7693 125.284 35.017C125.518 35.2647 125.667 35.5808 125.71 35.9192C125.786 36.2467 125.755 36.5902 125.621 36.8987C125.487 37.2071 125.257 37.4641 124.965 37.6315Z" fill="white"/>
<path d="M26.0566 51.143L39.3077 54.8652L45.4122 50.4358L30.5233 46.118L37.2233 42.0236L57.5838 41.428L66.145 35.2119L37.2233 36.1052C36.3115 36.0559 35.4053 36.276 34.6177 36.738L24.8283 42.433C24.019 42.9125 23.3697 43.6208 22.9622 44.4686C22.5548 45.3165 22.4075 46.266 22.5389 47.1975C22.6702 48.129 23.0744 49.0007 23.7004 49.7028C24.3264 50.405 25.1463 50.9061 26.0566 51.143Z" fill="white"/>
</g>
<defs>
<clipPath id="clip0_2282_4496">
<rect width="134" height="134" fill="white"/>
</clipPath>
</defs>
</svg>
