<svg width="30" height="30" viewBox="0 0 30 30" fill="none" xmlns="http://www.w3.org/2000/svg">
<path d="M15 6.23077V9.46154M15 6.23077C15 5.59179 15.2053 4.96715 15.5899 4.43585C15.9744 3.90455 16.5211 3.49046 17.1606 3.24593C17.8002 3.0014 18.5039 2.93742 19.1828 3.06208C19.8618 3.18674 20.4854 3.49444 20.9749 3.94627C21.4644 4.3981 21.7977 4.97377 21.9327 5.60048C22.0678 6.22719 21.9985 6.87679 21.7336 7.46713C21.4687 8.05748 21.0201 8.56206 20.4445 8.91706C19.8689 9.27206 19.1922 9.46154 18.5 9.46154H15M15 6.23077C15 5.59179 14.7947 4.96715 14.4101 4.43585C14.0256 3.90455 13.4789 3.49046 12.8394 3.24593C12.1999 3.0014 11.4961 2.93742 10.8172 3.06208C10.1383 3.18674 9.51461 3.49444 9.02513 3.94627C8.53564 4.3981 8.2023 4.97377 8.06725 5.60048C7.9322 6.22719 8.00152 6.87679 8.26642 7.46713C8.53133 8.05748 8.97993 8.56206 9.55551 8.91706C10.1311 9.27206 10.8078 9.46154 11.5 9.46154H15" stroke="#AA2AE1" stroke-width="2" stroke-miterlimit="10" stroke-linecap="round"/>
<path d="M25 9.46143H5C3.89543 9.46143 3 10.288 3 11.3076V14.0768C3 15.0964 3.89543 15.923 5 15.923H25C26.1046 15.923 27 15.0964 27 14.0768V11.3076C27 10.288 26.1046 9.46143 25 9.46143Z" stroke="#AA2AE1" stroke-width="2" stroke-linecap="round" stroke-linejoin="round"/>
<path d="M25 15.923V24.2307C25 24.9651 24.6839 25.6695 24.1213 26.1888C23.5587 26.7081 22.7956 26.9999 22 26.9999H8C7.20435 26.9999 6.44129 26.7081 5.87868 26.1888C5.31607 25.6695 5 24.9651 5 24.2307V15.923M15 9.46143V26.9999" stroke="#AA2AE1" stroke-width="2" stroke-linecap="round" stroke-linejoin="round"/>
</svg>
