<svg width="30" height="30" viewBox="0 0 30 30" fill="none" xmlns="http://www.w3.org/2000/svg">
<path fill-rule="evenodd" clip-rule="evenodd" d="M19.728 11.4543C19.728 12.7081 19.2299 13.9105 18.3434 14.797C17.4569 15.6835 16.2545 16.1816 15.0007 16.1816C13.747 16.1816 12.5446 15.6835 11.658 14.797C10.7715 13.9105 10.2734 12.7081 10.2734 11.4543C10.2734 10.2006 10.7715 8.99817 11.658 8.11164C12.5446 7.2251 13.747 6.72705 15.0007 6.72705C16.2545 6.72705 17.4569 7.2251 18.3434 8.11164C19.2299 8.99817 19.728 10.2006 19.728 11.4543ZM17.3643 11.4543C17.3643 12.0812 17.1153 12.6824 16.6721 13.1257C16.2288 13.5689 15.6276 13.818 15.0007 13.818C14.3738 13.818 13.7726 13.5689 13.3294 13.1257C12.8861 12.6824 12.6371 12.0812 12.6371 11.4543C12.6371 10.8274 12.8861 10.2262 13.3294 9.78298C13.7726 9.33971 14.3738 9.09069 15.0007 9.09069C15.6276 9.09069 16.2288 9.33971 16.6721 9.78298C17.1153 10.2262 17.3643 10.8274 17.3643 11.4543Z" fill="#AA2AE1"/>
<path fill-rule="evenodd" clip-rule="evenodd" d="M15 2C7.82045 2 2 7.82045 2 15C2 22.1795 7.82045 28 15 28C22.1795 28 28 22.1795 28 15C28 7.82045 22.1795 2 15 2ZM4.36364 15C4.36364 17.47 5.20627 19.7438 6.61855 21.5496C7.61036 20.2472 8.88988 19.1916 10.3571 18.4655C11.8244 17.7393 13.4397 17.3622 15.0768 17.3636C16.6928 17.3621 18.2877 17.7294 19.7402 18.4377C21.1927 19.1459 22.4643 20.1763 23.4583 21.4504C24.4823 20.1073 25.1717 18.5398 25.4696 16.8774C25.7675 15.215 25.6652 13.5056 25.1713 11.8906C24.6774 10.2756 23.806 8.80142 22.6292 7.59004C21.4524 6.37867 20.0041 5.46492 18.4041 4.92442C16.8041 4.38391 15.0983 4.23218 13.428 4.48179C11.7577 4.73139 10.1708 5.37514 8.79873 6.35979C7.42661 7.34444 6.30869 8.64166 5.53745 10.1441C4.76622 11.6466 4.36385 13.3111 4.36364 15ZM15 25.6364C12.5583 25.64 10.1903 24.8 8.29673 23.2585C9.05892 22.1674 10.0734 21.2765 11.2539 20.6617C12.4343 20.0469 13.7458 19.7263 15.0768 19.7273C16.3912 19.7262 17.6868 20.0388 18.8562 20.639C20.0255 21.2391 21.0348 22.1096 21.8002 23.1782C19.8919 24.7697 17.4849 25.6398 15 25.6364Z" fill="#AA2AE1"/>
</svg>
