<svg width="485" height="333" viewBox="0 0 485 333" fill="none" xmlns="http://www.w3.org/2000/svg">
<rect width="484.814" height="300.166" rx="20" fill="#F7EAFC"/>
<path opacity="0.5" d="M164.365 11.9097L164.365 291.379" stroke="#222222" stroke-width="2" stroke-linecap="round" stroke-dasharray="10 10 10 10"/>
<path d="M22.6114 318.951V317.145H25.9854V327.351H23.9694V318.951H22.6114ZM39.8396 327.351H37.8796L33.4416 320.645V327.351H31.4816V317.565H33.4416L37.8796 324.285V317.565H39.8396V327.351ZM45.2205 327.477C44.4739 327.477 43.8019 327.314 43.2045 326.987C42.6072 326.651 42.1359 326.18 41.7905 325.573C41.4545 324.966 41.2865 324.266 41.2865 323.473C41.2865 322.68 41.4592 321.98 41.8045 321.373C42.1592 320.766 42.6399 320.3 43.2465 319.973C43.8532 319.637 44.5299 319.469 45.2765 319.469C46.0232 319.469 46.6999 319.637 47.3065 319.973C47.9132 320.3 48.3892 320.766 48.7345 321.373C49.0892 321.98 49.2665 322.68 49.2665 323.473C49.2665 324.266 49.0845 324.966 48.7205 325.573C48.3659 326.18 47.8805 326.651 47.2645 326.987C46.6579 327.314 45.9765 327.477 45.2205 327.477ZM45.2205 325.769C45.5752 325.769 45.9065 325.685 46.2145 325.517C46.5319 325.34 46.7839 325.078 46.9705 324.733C47.1572 324.388 47.2505 323.968 47.2505 323.473C47.2505 322.736 47.0545 322.171 46.6625 321.779C46.2799 321.378 45.8085 321.177 45.2485 321.177C44.6885 321.177 44.2172 321.378 43.8345 321.779C43.4612 322.171 43.2745 322.736 43.2745 323.473C43.2745 324.21 43.4565 324.78 43.8205 325.181C44.1939 325.573 44.6605 325.769 45.2205 325.769ZM53.9383 325.545L55.8983 319.595H57.9843L55.1143 327.351H52.7343L49.8783 319.595H51.9783L53.9383 325.545ZM62.8131 325.139C63.7091 324.392 64.4231 323.772 64.9551 323.277C65.4871 322.773 65.9304 322.25 66.2851 321.709C66.6397 321.168 66.8171 320.636 66.8171 320.113C66.8171 319.637 66.7051 319.264 66.4811 318.993C66.2571 318.722 65.9117 318.587 65.4451 318.587C64.9784 318.587 64.6191 318.746 64.3671 319.063C64.1151 319.371 63.9844 319.796 63.9751 320.337H62.0711C62.1084 319.217 62.4397 318.368 63.0651 317.789C63.6997 317.21 64.5024 316.921 65.4731 316.921C66.5371 316.921 67.3537 317.206 67.9231 317.775C68.4924 318.335 68.7771 319.077 68.7771 320.001C68.7771 320.729 68.5811 321.424 68.1891 322.087C67.7971 322.75 67.3491 323.328 66.8451 323.823C66.3411 324.308 65.6831 324.896 64.8711 325.587H69.0011V327.211H62.0851V325.755L62.8131 325.139ZM70.2361 322.115C70.2361 320.5 70.5255 319.236 71.1041 318.321C71.6921 317.406 72.6628 316.949 74.0161 316.949C75.3695 316.949 76.3355 317.406 76.9141 318.321C77.5021 319.236 77.7961 320.5 77.7961 322.115C77.7961 323.739 77.5021 325.013 76.9141 325.937C76.3355 326.861 75.3695 327.323 74.0161 327.323C72.6628 327.323 71.6921 326.861 71.1041 325.937C70.5255 325.013 70.2361 323.739 70.2361 322.115ZM75.8641 322.115C75.8641 321.424 75.8175 320.846 75.7241 320.379C75.6401 319.903 75.4628 319.516 75.1921 319.217C74.9308 318.918 74.5388 318.769 74.0161 318.769C73.4935 318.769 73.0968 318.918 72.8261 319.217C72.5648 319.516 72.3875 319.903 72.2941 320.379C72.2101 320.846 72.1681 321.424 72.1681 322.115C72.1681 322.824 72.2101 323.422 72.2941 323.907C72.3781 324.383 72.5555 324.77 72.8261 325.069C73.0968 325.358 73.4935 325.503 74.0161 325.503C74.5388 325.503 74.9355 325.358 75.2061 325.069C75.4768 324.77 75.6541 324.383 75.7381 323.907C75.8221 323.422 75.8641 322.824 75.8641 322.115ZM79.9029 325.139C80.7989 324.392 81.5129 323.772 82.0449 323.277C82.5769 322.773 83.0203 322.25 83.3749 321.709C83.7296 321.168 83.9069 320.636 83.9069 320.113C83.9069 319.637 83.7949 319.264 83.5709 318.993C83.3469 318.722 83.0016 318.587 82.5349 318.587C82.0683 318.587 81.7089 318.746 81.4569 319.063C81.2049 319.371 81.0743 319.796 81.0649 320.337H79.1609C79.1983 319.217 79.5296 318.368 80.1549 317.789C80.7896 317.21 81.5923 316.921 82.5629 316.921C83.6269 316.921 84.4436 317.206 85.0129 317.775C85.5823 318.335 85.8669 319.077 85.8669 320.001C85.8669 320.729 85.6709 321.424 85.2789 322.087C84.8869 322.75 84.4389 323.328 83.9349 323.823C83.4309 324.308 82.7729 324.896 81.9609 325.587H86.0909V327.211H79.1749V325.755L79.9029 325.139ZM87.942 325.139C88.838 324.392 89.552 323.772 90.084 323.277C90.616 322.773 91.0593 322.25 91.414 321.709C91.7687 321.168 91.946 320.636 91.946 320.113C91.946 319.637 91.834 319.264 91.61 318.993C91.386 318.722 91.0407 318.587 90.574 318.587C90.1073 318.587 89.748 318.746 89.496 319.063C89.244 319.371 89.1133 319.796 89.104 320.337H87.2C87.2373 319.217 87.5687 318.368 88.194 317.789C88.8287 317.21 89.6313 316.921 90.602 316.921C91.666 316.921 92.4827 317.206 93.052 317.775C93.6213 318.335 93.906 319.077 93.906 320.001C93.906 320.729 93.71 321.424 93.318 322.087C92.926 322.75 92.478 323.328 91.974 323.823C91.47 324.308 90.812 324.896 90 325.587H94.13V327.211H87.214V325.755L87.942 325.139Z" fill="#222222"/>
<path d="M297.111 318.951V317.145H300.485V327.351H298.469V318.951H297.111ZM311.679 317.579V324.439C311.679 325.391 311.404 326.133 310.853 326.665C310.302 327.188 309.565 327.449 308.641 327.449C307.708 327.449 306.952 327.178 306.373 326.637C305.804 326.096 305.519 325.34 305.519 324.369H307.479C307.488 324.789 307.586 325.116 307.773 325.349C307.969 325.582 308.249 325.699 308.613 325.699C308.968 325.699 309.238 325.587 309.425 325.363C309.612 325.139 309.705 324.831 309.705 324.439V317.579H311.679ZM313.462 323.445C313.462 322.661 313.616 321.966 313.924 321.359C314.241 320.752 314.666 320.286 315.198 319.959C315.739 319.632 316.341 319.469 317.004 319.469C317.582 319.469 318.086 319.586 318.516 319.819C318.954 320.052 319.304 320.346 319.566 320.701V319.595H321.54V327.351H319.566V326.217C319.314 326.581 318.964 326.884 318.516 327.127C318.077 327.36 317.568 327.477 316.99 327.477C316.336 327.477 315.739 327.309 315.198 326.973C314.666 326.637 314.241 326.166 313.924 325.559C313.616 324.943 313.462 324.238 313.462 323.445ZM319.566 323.473C319.566 322.997 319.472 322.591 319.286 322.255C319.099 321.91 318.847 321.648 318.53 321.471C318.212 321.284 317.872 321.191 317.508 321.191C317.144 321.191 316.808 321.28 316.5 321.457C316.192 321.634 315.94 321.896 315.744 322.241C315.557 322.577 315.464 322.978 315.464 323.445C315.464 323.912 315.557 324.322 315.744 324.677C315.94 325.022 316.192 325.288 316.5 325.475C316.817 325.662 317.153 325.755 317.508 325.755C317.872 325.755 318.212 325.666 318.53 325.489C318.847 325.302 319.099 325.041 319.286 324.705C319.472 324.36 319.566 323.949 319.566 323.473ZM327.752 319.483C328.676 319.483 329.422 319.777 329.992 320.365C330.561 320.944 330.846 321.756 330.846 322.801V327.351H328.886V323.067C328.886 322.451 328.732 321.98 328.424 321.653C328.116 321.317 327.696 321.149 327.164 321.149C326.622 321.149 326.193 321.317 325.876 321.653C325.568 321.98 325.414 322.451 325.414 323.067V327.351H323.454V319.595H325.414V320.561C325.675 320.225 326.006 319.964 326.408 319.777C326.818 319.581 327.266 319.483 327.752 319.483ZM336.438 325.139C337.334 324.392 338.048 323.772 338.58 323.277C339.112 322.773 339.555 322.25 339.91 321.709C340.264 321.168 340.442 320.636 340.442 320.113C340.442 319.637 340.33 319.264 340.106 318.993C339.882 318.722 339.536 318.587 339.07 318.587C338.603 318.587 338.244 318.746 337.992 319.063C337.74 319.371 337.609 319.796 337.6 320.337H335.696C335.733 319.217 336.064 318.368 336.69 317.789C337.324 317.21 338.127 316.921 339.098 316.921C340.162 316.921 340.978 317.206 341.548 317.775C342.117 318.335 342.402 319.077 342.402 320.001C342.402 320.729 342.206 321.424 341.814 322.087C341.422 322.75 340.974 323.328 340.47 323.823C339.966 324.308 339.308 324.896 338.496 325.587H342.626V327.211H335.71V325.755L336.438 325.139ZM343.861 322.115C343.861 320.5 344.15 319.236 344.729 318.321C345.317 317.406 346.287 316.949 347.641 316.949C348.994 316.949 349.96 317.406 350.539 318.321C351.127 319.236 351.421 320.5 351.421 322.115C351.421 323.739 351.127 325.013 350.539 325.937C349.96 326.861 348.994 327.323 347.641 327.323C346.287 327.323 345.317 326.861 344.729 325.937C344.15 325.013 343.861 323.739 343.861 322.115ZM349.489 322.115C349.489 321.424 349.442 320.846 349.349 320.379C349.265 319.903 349.087 319.516 348.817 319.217C348.555 318.918 348.163 318.769 347.641 318.769C347.118 318.769 346.721 318.918 346.451 319.217C346.189 319.516 346.012 319.903 345.919 320.379C345.835 320.846 345.793 321.424 345.793 322.115C345.793 322.824 345.835 323.422 345.919 323.907C346.003 324.383 346.18 324.77 346.451 325.069C346.721 325.358 347.118 325.503 347.641 325.503C348.163 325.503 348.56 325.358 348.831 325.069C349.101 324.77 349.279 324.383 349.363 323.907C349.447 323.422 349.489 322.824 349.489 322.115ZM353.527 325.139C354.423 324.392 355.137 323.772 355.669 323.277C356.201 322.773 356.645 322.25 356.999 321.709C357.354 321.168 357.531 320.636 357.531 320.113C357.531 319.637 357.419 319.264 357.195 318.993C356.971 318.722 356.626 318.587 356.159 318.587C355.693 318.587 355.333 318.746 355.081 319.063C354.829 319.371 354.699 319.796 354.689 320.337H352.785C352.823 319.217 353.154 318.368 353.779 317.789C354.414 317.21 355.217 316.921 356.187 316.921C357.251 316.921 358.068 317.206 358.637 317.775C359.207 318.335 359.491 319.077 359.491 320.001C359.491 320.729 359.295 321.424 358.903 322.087C358.511 322.75 358.063 323.328 357.559 323.823C357.055 324.308 356.397 324.896 355.585 325.587H359.715V327.211H352.799V325.755L353.527 325.139ZM360.978 319.833C361.025 318.9 361.352 318.181 361.958 317.677C362.574 317.164 363.382 316.907 364.38 316.907C365.062 316.907 365.645 317.028 366.13 317.271C366.616 317.504 366.98 317.826 367.222 318.237C367.474 318.638 367.6 319.096 367.6 319.609C367.6 320.197 367.446 320.696 367.138 321.107C366.84 321.508 366.48 321.779 366.06 321.919V321.975C366.602 322.143 367.022 322.442 367.32 322.871C367.628 323.3 367.782 323.851 367.782 324.523C367.782 325.083 367.652 325.582 367.39 326.021C367.138 326.46 366.76 326.805 366.256 327.057C365.762 327.3 365.164 327.421 364.464 327.421C363.41 327.421 362.551 327.155 361.888 326.623C361.226 326.091 360.876 325.307 360.838 324.271H362.742C362.761 324.728 362.915 325.097 363.204 325.377C363.503 325.648 363.909 325.783 364.422 325.783C364.898 325.783 365.262 325.652 365.514 325.391C365.776 325.12 365.906 324.775 365.906 324.355C365.906 323.795 365.729 323.394 365.374 323.151C365.02 322.908 364.469 322.787 363.722 322.787H363.316V321.177H363.722C365.048 321.177 365.71 320.734 365.71 319.847C365.71 319.446 365.589 319.133 365.346 318.909C365.113 318.685 364.772 318.573 364.324 318.573C363.886 318.573 363.545 318.694 363.302 318.937C363.069 319.17 362.934 319.469 362.896 319.833H360.978Z" fill="#222222"/>
<path d="M160.013 318.951V317.145H163.387V327.351H161.371V318.951H160.013ZM172.299 317.579C173.326 317.579 174.226 317.78 175.001 318.181C175.785 318.582 176.387 319.156 176.807 319.903C177.236 320.64 177.451 321.499 177.451 322.479C177.451 323.459 177.236 324.318 176.807 325.055C176.387 325.783 175.785 326.348 175.001 326.749C174.226 327.15 173.326 327.351 172.299 327.351H168.883V317.579H172.299ZM172.229 325.685C173.256 325.685 174.049 325.405 174.609 324.845C175.169 324.285 175.449 323.496 175.449 322.479C175.449 321.462 175.169 320.668 174.609 320.099C174.049 319.52 173.256 319.231 172.229 319.231H170.843V325.685H172.229ZM186.128 323.305C186.128 323.585 186.109 323.837 186.072 324.061H180.402C180.449 324.621 180.645 325.06 180.99 325.377C181.335 325.694 181.76 325.853 182.264 325.853C182.992 325.853 183.51 325.54 183.818 324.915H185.932C185.708 325.662 185.279 326.278 184.644 326.763C184.009 327.239 183.23 327.477 182.306 327.477C181.559 327.477 180.887 327.314 180.29 326.987C179.702 326.651 179.24 326.18 178.904 325.573C178.577 324.966 178.414 324.266 178.414 323.473C178.414 322.67 178.577 321.966 178.904 321.359C179.231 320.752 179.688 320.286 180.276 319.959C180.864 319.632 181.541 319.469 182.306 319.469C183.043 319.469 183.701 319.628 184.28 319.945C184.868 320.262 185.321 320.715 185.638 321.303C185.965 321.882 186.128 322.549 186.128 323.305ZM184.098 322.745C184.089 322.241 183.907 321.84 183.552 321.541C183.197 321.233 182.763 321.079 182.25 321.079C181.765 321.079 181.354 321.228 181.018 321.527C180.691 321.816 180.491 322.222 180.416 322.745H184.098ZM187.055 323.473C187.055 322.67 187.218 321.97 187.545 321.373C187.871 320.766 188.324 320.3 188.903 319.973C189.481 319.637 190.144 319.469 190.891 319.469C191.852 319.469 192.645 319.712 193.271 320.197C193.905 320.673 194.33 321.345 194.545 322.213H192.431C192.319 321.877 192.127 321.616 191.857 321.429C191.595 321.233 191.269 321.135 190.877 321.135C190.317 321.135 189.873 321.34 189.547 321.751C189.22 322.152 189.057 322.726 189.057 323.473C189.057 324.21 189.22 324.784 189.547 325.195C189.873 325.596 190.317 325.797 190.877 325.797C191.67 325.797 192.188 325.442 192.431 324.733H194.545C194.33 325.573 193.905 326.24 193.271 326.735C192.636 327.23 191.843 327.477 190.891 327.477C190.144 327.477 189.481 327.314 188.903 326.987C188.324 326.651 187.871 326.184 187.545 325.587C187.218 324.98 187.055 324.276 187.055 323.473ZM199.709 325.139C200.605 324.392 201.319 323.772 201.851 323.277C202.383 322.773 202.826 322.25 203.181 321.709C203.535 321.168 203.713 320.636 203.713 320.113C203.713 319.637 203.601 319.264 203.377 318.993C203.153 318.722 202.807 318.587 202.341 318.587C201.874 318.587 201.515 318.746 201.263 319.063C201.011 319.371 200.88 319.796 200.871 320.337H198.967C199.004 319.217 199.335 318.368 199.961 317.789C200.595 317.21 201.398 316.921 202.369 316.921C203.433 316.921 204.249 317.206 204.819 317.775C205.388 318.335 205.673 319.077 205.673 320.001C205.673 320.729 205.477 321.424 205.085 322.087C204.693 322.75 204.245 323.328 203.741 323.823C203.237 324.308 202.579 324.896 201.767 325.587H205.897V327.211H198.981V325.755L199.709 325.139ZM207.132 322.115C207.132 320.5 207.421 319.236 208 318.321C208.588 317.406 209.558 316.949 210.912 316.949C212.265 316.949 213.231 317.406 213.81 318.321C214.398 319.236 214.692 320.5 214.692 322.115C214.692 323.739 214.398 325.013 213.81 325.937C213.231 326.861 212.265 327.323 210.912 327.323C209.558 327.323 208.588 326.861 208 325.937C207.421 325.013 207.132 323.739 207.132 322.115ZM212.76 322.115C212.76 321.424 212.713 320.846 212.62 320.379C212.536 319.903 212.358 319.516 212.088 319.217C211.826 318.918 211.434 318.769 210.912 318.769C210.389 318.769 209.992 318.918 209.722 319.217C209.46 319.516 209.283 319.903 209.19 320.379C209.106 320.846 209.064 321.424 209.064 322.115C209.064 322.824 209.106 323.422 209.19 323.907C209.274 324.383 209.451 324.77 209.722 325.069C209.992 325.358 210.389 325.503 210.912 325.503C211.434 325.503 211.831 325.358 212.102 325.069C212.372 324.77 212.55 324.383 212.634 323.907C212.718 323.422 212.76 322.824 212.76 322.115ZM216.798 325.139C217.694 324.392 218.408 323.772 218.94 323.277C219.472 322.773 219.916 322.25 220.27 321.709C220.625 321.168 220.802 320.636 220.802 320.113C220.802 319.637 220.69 319.264 220.466 318.993C220.242 318.722 219.897 318.587 219.43 318.587C218.964 318.587 218.604 318.746 218.352 319.063C218.1 319.371 217.97 319.796 217.96 320.337H216.056C216.094 319.217 216.425 318.368 217.05 317.789C217.685 317.21 218.488 316.921 219.458 316.921C220.522 316.921 221.339 317.206 221.908 317.775C222.478 318.335 222.762 319.077 222.762 320.001C222.762 320.729 222.566 321.424 222.174 322.087C221.782 322.75 221.334 323.328 220.83 323.823C220.326 324.308 219.668 324.896 218.856 325.587H222.986V327.211H216.07V325.755L216.798 325.139ZM224.837 325.139C225.733 324.392 226.447 323.772 226.979 323.277C227.511 322.773 227.955 322.25 228.309 321.709C228.664 321.168 228.841 320.636 228.841 320.113C228.841 319.637 228.729 319.264 228.505 318.993C228.281 318.722 227.936 318.587 227.469 318.587C227.003 318.587 226.643 318.746 226.391 319.063C226.139 319.371 226.009 319.796 225.999 320.337H224.095C224.133 319.217 224.464 318.368 225.089 317.789C225.724 317.21 226.527 316.921 227.497 316.921C228.561 316.921 229.378 317.206 229.947 317.775C230.517 318.335 230.801 319.077 230.801 320.001C230.801 320.729 230.605 321.424 230.213 322.087C229.821 322.75 229.373 323.328 228.869 323.823C228.365 324.308 227.707 324.896 226.895 325.587H231.025V327.211H224.109V325.755L224.837 325.139Z" fill="#222222"/>
<path d="M441.322 317.579V319.161H438.718V327.351H436.758V319.161H434.154V317.579H441.322ZM446.196 327.477C445.449 327.477 444.777 327.314 444.18 326.987C443.582 326.651 443.111 326.18 442.766 325.573C442.43 324.966 442.262 324.266 442.262 323.473C442.262 322.68 442.434 321.98 442.78 321.373C443.134 320.766 443.615 320.3 444.222 319.973C444.828 319.637 445.505 319.469 446.252 319.469C446.998 319.469 447.675 319.637 448.282 319.973C448.888 320.3 449.364 320.766 449.71 321.373C450.064 321.98 450.242 322.68 450.242 323.473C450.242 324.266 450.06 324.966 449.696 325.573C449.341 326.18 448.856 326.651 448.24 326.987C447.633 327.314 446.952 327.477 446.196 327.477ZM446.196 325.769C446.55 325.769 446.882 325.685 447.19 325.517C447.507 325.34 447.759 325.078 447.946 324.733C448.132 324.388 448.226 323.968 448.226 323.473C448.226 322.736 448.03 322.171 447.638 321.779C447.255 321.378 446.784 321.177 446.224 321.177C445.664 321.177 445.192 321.378 444.81 321.779C444.436 322.171 444.25 322.736 444.25 323.473C444.25 324.21 444.432 324.78 444.796 325.181C445.169 325.573 445.636 325.769 446.196 325.769ZM451.175 323.445C451.175 322.661 451.329 321.966 451.637 321.359C451.955 320.752 452.384 320.286 452.925 319.959C453.467 319.632 454.069 319.469 454.731 319.469C455.235 319.469 455.716 319.581 456.173 319.805C456.631 320.02 456.995 320.309 457.265 320.673V316.991H459.253V327.351H457.265V326.203C457.023 326.586 456.682 326.894 456.243 327.127C455.805 327.36 455.296 327.477 454.717 327.477C454.064 327.477 453.467 327.309 452.925 326.973C452.384 326.637 451.955 326.166 451.637 325.559C451.329 324.943 451.175 324.238 451.175 323.445ZM457.279 323.473C457.279 322.997 457.186 322.591 456.999 322.255C456.813 321.91 456.561 321.648 456.243 321.471C455.926 321.284 455.585 321.191 455.221 321.191C454.857 321.191 454.521 321.28 454.213 321.457C453.905 321.634 453.653 321.896 453.457 322.241C453.271 322.577 453.177 322.978 453.177 323.445C453.177 323.912 453.271 324.322 453.457 324.677C453.653 325.022 453.905 325.288 454.213 325.475C454.531 325.662 454.867 325.755 455.221 325.755C455.585 325.755 455.926 325.666 456.243 325.489C456.561 325.302 456.813 325.041 456.999 324.705C457.186 324.36 457.279 323.949 457.279 323.473ZM460.664 323.445C460.664 322.661 460.818 321.966 461.126 321.359C461.443 320.752 461.868 320.286 462.4 319.959C462.941 319.632 463.543 319.469 464.206 319.469C464.784 319.469 465.288 319.586 465.718 319.819C466.156 320.052 466.506 320.346 466.768 320.701V319.595H468.742V327.351H466.768V326.217C466.516 326.581 466.166 326.884 465.718 327.127C465.279 327.36 464.77 327.477 464.192 327.477C463.538 327.477 462.941 327.309 462.4 326.973C461.868 326.637 461.443 326.166 461.126 325.559C460.818 324.943 460.664 324.238 460.664 323.445ZM466.768 323.473C466.768 322.997 466.674 322.591 466.488 322.255C466.301 321.91 466.049 321.648 465.732 321.471C465.414 321.284 465.074 321.191 464.71 321.191C464.346 321.191 464.01 321.28 463.702 321.457C463.394 321.634 463.142 321.896 462.946 322.241C462.759 322.577 462.666 322.978 462.666 323.445C462.666 323.912 462.759 324.322 462.946 324.677C463.142 325.022 463.394 325.288 463.702 325.475C464.019 325.662 464.355 325.755 464.71 325.755C465.074 325.755 465.414 325.666 465.732 325.489C466.049 325.302 466.301 325.041 466.488 324.705C466.674 324.36 466.768 323.949 466.768 323.473ZM478.076 319.595L473.274 331.019H471.188L472.868 327.155L469.76 319.595H471.958L473.96 325.013L475.99 319.595H478.076Z" fill="#222222"/>
<path d="M30.4443 281.492L67.7162 229.681C70.4785 225.841 74.5125 223.104 79.1016 221.957L118.825 212.027C122.248 211.171 125.385 209.425 127.915 206.965L160.033 175.745C163.327 172.544 167.621 170.574 172.195 170.166L231.753 164.85C234.736 164.584 237.621 163.651 240.195 162.121L307.62 122.04C311.815 119.547 316.778 118.673 321.572 119.584L373.064 129.367C378.151 130.333 383.414 129.289 387.747 126.455L424.018 102.726C428.847 99.5668 434.805 98.6473 440.362 100.204L468.869 108.189" stroke="#AA2AE1" stroke-width="4"/>
<path d="M21.335 265.344L79.9274 254.773C83.426 254.142 86.6931 252.589 89.3923 250.276L117.389 226.278C120.508 223.605 124.375 221.957 128.463 221.558L172.141 217.297C174.839 217.034 177.455 216.225 179.83 214.92L258.522 171.682C263.416 168.993 269.212 168.473 274.508 170.247L312.097 182.845C320.921 185.802 330.62 182.282 335.492 174.352L359.278 135.642C360.278 134.015 361.505 132.539 362.923 131.261L406.278 92.1556C409.479 89.2687 413.527 87.4931 417.818 87.0932L464.268 82.7656" stroke="#FBD04C" stroke-width="4"/>
<circle cx="164.609" cy="171.886" r="4.00277" fill="white" stroke="#222222" stroke-width="2"/>
<circle cx="164.609" cy="217.287" r="4.00277" fill="white" stroke="#222222" stroke-width="2"/>
<path fill-rule="evenodd" clip-rule="evenodd" d="M248.733 86.0647C248.733 75.019 239.779 66.0647 228.733 66.0647H97.501C86.4553 66.0647 77.501 75.019 77.501 86.0647V117.914C77.501 128.96 86.4553 137.914 97.501 137.914H142.595C146.827 137.914 150.95 139.256 154.371 141.748L163.012 148.042C164.123 148.852 165.602 148.853 166.632 148.044L174.102 142.181C177.624 139.417 181.972 137.914 186.45 137.914H228.733C239.779 137.914 248.733 128.96 248.733 117.914V86.0647Z" fill="#1F1E1E"/>
<circle cx="108.327" cy="104.635" r="3.04797" fill="white" stroke="#AA2AE1" stroke-width="3"/>
<circle cx="108.327" cy="120.367" r="3.04797" fill="white" stroke="#FBD04C" stroke-width="3"/>
<path d="M126.025 99.8086V108.536H124.704V101.13H124.653L122.565 102.493V101.232L124.742 99.8086H126.025ZM132.418 108.536H131.02L134.161 99.8086H135.682L138.823 108.536H137.425L134.958 101.394H134.89L132.418 108.536ZM132.653 105.118H137.187V106.226H132.653V105.118ZM145.696 99.8086H147.017V105.549C147.017 106.159 146.873 106.701 146.586 107.172C146.299 107.641 145.896 108.01 145.376 108.28C144.856 108.547 144.247 108.681 143.548 108.681C142.852 108.681 142.244 108.547 141.724 108.28C141.204 108.01 140.801 107.641 140.514 107.172C140.227 106.701 140.083 106.159 140.083 105.549V99.8086H141.4V105.442C141.4 105.837 141.487 106.188 141.66 106.495C141.836 106.802 142.085 107.043 142.406 107.219C142.727 107.392 143.107 107.479 143.548 107.479C143.991 107.479 144.373 107.392 144.694 107.219C145.018 107.043 145.265 106.802 145.436 106.495C145.609 106.188 145.696 105.837 145.696 105.442V99.8086ZM151.756 108.536H148.931V99.8086H151.846C152.701 99.8086 153.435 99.9833 154.049 100.333C154.663 100.679 155.133 101.178 155.459 101.829C155.789 102.476 155.954 103.253 155.954 104.159C155.954 105.069 155.788 105.85 155.455 106.503C155.126 107.157 154.648 107.659 154.023 108.012C153.398 108.361 152.643 108.536 151.756 108.536ZM150.248 107.385H151.684C152.349 107.385 152.901 107.26 153.341 107.01C153.782 106.757 154.111 106.392 154.33 105.915C154.549 105.435 154.658 104.85 154.658 104.159C154.658 103.475 154.549 102.894 154.33 102.417C154.114 101.939 153.792 101.577 153.363 101.33C152.934 101.083 152.401 100.959 151.765 100.959H150.248V107.385ZM161.074 103.418V102.302H166.533V103.418H161.074ZM161.074 106.043V104.927H166.533V106.043H161.074ZM174.764 108.655C174.154 108.655 173.614 108.55 173.145 108.34C172.679 108.13 172.314 107.84 172.05 107.471C171.786 107.101 171.655 106.681 171.658 106.209C171.655 105.84 171.73 105.5 171.884 105.191C172.04 104.878 172.252 104.618 172.519 104.411C172.786 104.201 173.084 104.067 173.414 104.01V103.959C172.979 103.854 172.631 103.621 172.37 103.26C172.108 102.9 171.979 102.485 171.982 102.016C171.979 101.57 172.097 101.172 172.335 100.823C172.577 100.471 172.908 100.194 173.328 99.9919C173.749 99.7901 174.227 99.6893 174.764 99.6893C175.296 99.6893 175.77 99.7916 176.188 99.9961C176.608 100.198 176.939 100.475 177.181 100.827C177.422 101.177 177.544 101.573 177.547 102.016C177.544 102.485 177.411 102.9 177.147 103.26C176.882 103.621 176.539 103.854 176.115 103.959V104.01C176.442 104.067 176.736 104.201 176.997 104.411C177.262 104.618 177.472 104.878 177.628 105.191C177.787 105.5 177.868 105.84 177.871 106.209C177.868 106.681 177.735 107.101 177.47 107.471C177.206 107.84 176.84 108.13 176.371 108.34C175.905 108.55 175.37 108.655 174.764 108.655ZM174.764 107.577C175.125 107.577 175.438 107.517 175.702 107.398C175.966 107.276 176.171 107.107 176.316 106.891C176.46 106.672 176.534 106.417 176.537 106.124C176.534 105.82 176.455 105.552 176.299 105.319C176.145 105.086 175.936 104.902 175.672 104.769C175.408 104.635 175.105 104.569 174.764 104.569C174.421 104.569 174.115 104.635 173.848 104.769C173.581 104.902 173.371 105.086 173.218 105.319C173.064 105.552 172.989 105.82 172.992 106.124C172.989 106.417 173.058 106.672 173.201 106.891C173.345 107.107 173.551 107.276 173.818 107.398C174.085 107.517 174.401 107.577 174.764 107.577ZM174.764 103.516C175.054 103.516 175.311 103.458 175.536 103.341C175.76 103.225 175.936 103.063 176.064 102.855C176.195 102.648 176.262 102.405 176.264 102.127C176.262 101.854 176.196 101.615 176.068 101.411C175.943 101.206 175.769 101.049 175.544 100.938C175.32 100.824 175.06 100.767 174.764 100.767C174.463 100.767 174.199 100.824 173.972 100.938C173.747 101.049 173.573 101.206 173.448 101.411C173.323 101.615 173.262 101.854 173.264 102.127C173.262 102.405 173.324 102.648 173.452 102.855C173.58 103.063 173.756 103.225 173.98 103.341C174.208 103.458 174.469 103.516 174.764 103.516ZM179.692 108.536L183.501 101.002V100.938H179.095V99.8086H184.865V100.976L181.068 108.536H179.692ZM196.686 99.8086V108.536H195.476L191.04 102.135H190.959V108.536H189.642V99.8086H190.861L195.301 106.218H195.382V99.8086H196.686ZM198.607 108.536V99.8086H201.718C202.397 99.8086 202.959 99.9322 203.405 100.179C203.851 100.427 204.185 100.765 204.406 101.194C204.628 101.62 204.739 102.1 204.739 102.634C204.739 103.171 204.627 103.654 204.402 104.083C204.181 104.509 203.845 104.847 203.397 105.097C202.951 105.344 202.389 105.468 201.713 105.468H199.574V104.351H201.594C202.023 104.351 202.371 104.277 202.638 104.13C202.905 103.979 203.101 103.775 203.226 103.516C203.351 103.257 203.414 102.963 203.414 102.634C203.414 102.304 203.351 102.012 203.226 101.756C203.101 101.5 202.904 101.3 202.634 101.155C202.367 101.01 202.014 100.938 201.577 100.938H199.924V108.536H198.607ZM206.283 108.536V99.8086H209.393C210.069 99.8086 210.631 99.9251 211.077 100.158C211.525 100.391 211.861 100.713 212.082 101.125C212.304 101.534 212.415 102.007 212.415 102.544C212.415 103.079 212.302 103.549 212.078 103.955C211.856 104.358 211.521 104.672 211.072 104.897C210.626 105.121 210.065 105.233 209.389 105.233H207.033V104.1H209.27C209.696 104.1 210.042 104.039 210.31 103.917C210.579 103.794 210.777 103.617 210.902 103.384C211.027 103.151 211.089 102.871 211.089 102.544C211.089 102.215 211.025 101.929 210.898 101.688C210.773 101.446 210.575 101.262 210.305 101.134C210.038 101.003 209.687 100.938 209.253 100.938H207.599V108.536H206.283ZM210.591 104.598L212.747 108.536H211.247L209.133 104.598H210.591Z" fill="#F8E0E0"/>
<path d="M126.025 116.001V124.728H124.704V117.322H124.653L122.565 118.685V117.424L124.742 116.001H126.025ZM132.418 124.728H131.02L134.161 116.001H135.682L138.823 124.728H137.425L134.958 117.586H134.89L132.418 124.728ZM132.653 121.31H137.187V122.418H132.653V121.31ZM145.696 116.001H147.017V121.741C147.017 122.351 146.873 122.893 146.586 123.364C146.299 123.833 145.896 124.202 145.376 124.472C144.856 124.739 144.247 124.873 143.548 124.873C142.852 124.873 142.244 124.739 141.724 124.472C141.204 124.202 140.801 123.833 140.514 123.364C140.227 122.893 140.083 122.351 140.083 121.741V116.001H141.4V121.634C141.4 122.029 141.487 122.38 141.66 122.687C141.836 122.993 142.085 123.235 142.406 123.411C142.727 123.584 143.107 123.671 143.548 123.671C143.991 123.671 144.373 123.584 144.694 123.411C145.018 123.235 145.265 122.993 145.436 122.687C145.609 122.38 145.696 122.029 145.696 121.634V116.001ZM151.756 124.728H148.931V116.001H151.846C152.701 116.001 153.435 116.175 154.049 116.525C154.663 116.871 155.133 117.37 155.459 118.02C155.789 118.668 155.954 119.445 155.954 120.351C155.954 121.26 155.788 122.042 155.455 122.695C155.126 123.349 154.648 123.851 154.023 124.204C153.398 124.553 152.643 124.728 151.756 124.728ZM150.248 123.577H151.684C152.349 123.577 152.901 123.452 153.341 123.202C153.782 122.949 154.111 122.584 154.33 122.107C154.549 121.627 154.658 121.042 154.658 120.351C154.658 119.667 154.549 119.086 154.33 118.608C154.114 118.131 153.792 117.769 153.363 117.522C152.934 117.275 152.401 117.151 151.765 117.151H150.248V123.577ZM161.074 119.61V118.493H166.533V119.61H161.074ZM161.074 122.235V121.118H166.533V122.235H161.074ZM172.11 124.728L175.919 117.194V117.13H171.513V116.001H177.283V117.168L173.486 124.728H172.11ZM181.616 124.873C180.942 124.87 180.367 124.692 179.89 124.34C179.413 123.988 179.047 123.475 178.795 122.802C178.542 122.128 178.415 121.317 178.415 120.368C178.415 119.422 178.542 118.614 178.795 117.944C179.05 117.273 179.417 116.762 179.894 116.41C180.374 116.057 180.948 115.881 181.616 115.881C182.283 115.881 182.856 116.059 183.333 116.414C183.81 116.766 184.175 117.277 184.428 117.948C184.684 118.616 184.812 119.422 184.812 120.368C184.812 121.32 184.685 122.133 184.432 122.806C184.18 123.476 183.814 123.989 183.337 124.344C182.86 124.697 182.286 124.873 181.616 124.873ZM181.616 123.735C182.207 123.735 182.668 123.447 183.001 122.87C183.336 122.293 183.503 121.459 183.503 120.368C183.503 119.644 183.427 119.032 183.273 118.532C183.123 118.029 182.905 117.648 182.621 117.39C182.34 117.128 182.005 116.998 181.616 116.998C181.028 116.998 180.566 117.287 180.231 117.867C179.895 118.447 179.726 119.28 179.724 120.368C179.724 121.096 179.799 121.711 179.949 122.214C180.103 122.714 180.32 123.093 180.601 123.351C180.883 123.607 181.221 123.735 181.616 123.735ZM190.935 116.001V124.728H189.618V116.001H190.935ZM199.897 116.001V124.728H198.687L194.251 118.327H194.17V124.728H192.853V116.001H194.072L198.512 122.41H198.593V116.001H199.897ZM201.818 124.728V116.001H204.928C205.605 116.001 206.166 116.117 206.612 116.35C207.061 116.583 207.396 116.905 207.617 117.317C207.839 117.726 207.95 118.199 207.95 118.736C207.95 119.27 207.838 119.741 207.613 120.147C207.392 120.55 207.056 120.864 206.607 121.089C206.161 121.313 205.6 121.425 204.924 121.425H202.568V120.292H204.805C205.231 120.292 205.578 120.231 205.845 120.108C206.115 119.986 206.312 119.809 206.437 119.576C206.562 119.343 206.625 119.063 206.625 118.736C206.625 118.407 206.561 118.121 206.433 117.88C206.308 117.638 206.11 117.454 205.84 117.326C205.573 117.195 205.223 117.13 204.788 117.13H203.134V124.728H201.818ZM206.126 120.79L208.282 124.728H206.782L204.669 120.79H206.126Z" fill="#F8E0E0"/>
<path d="M105.496 87.2219V86.4265L107.957 83.8768C108.22 83.5998 108.436 83.3571 108.607 83.1488C108.78 82.9381 108.909 82.738 108.994 82.5486C109.079 82.3592 109.122 82.158 109.122 81.9449C109.122 81.7035 109.065 81.4951 108.951 81.3199C108.838 81.1424 108.683 81.0063 108.486 80.9116C108.29 80.8145 108.068 80.766 107.822 80.766C107.562 80.766 107.334 80.8192 107.14 80.9258C106.946 81.0323 106.797 81.1826 106.693 81.3768C106.589 81.5709 106.536 81.7982 106.536 82.0586H105.489C105.489 81.6159 105.591 81.2288 105.794 80.8974C105.998 80.5659 106.277 80.309 106.632 80.1268C106.987 79.9421 107.391 79.8498 107.843 79.8498C108.3 79.8498 108.703 79.9409 109.051 80.1232C109.401 80.3031 109.674 80.5493 109.871 80.8618C110.067 81.172 110.166 81.5224 110.166 81.913C110.166 82.1829 110.115 82.4468 110.013 82.7049C109.914 82.9629 109.74 83.2506 109.491 83.5678C109.242 83.8827 108.897 84.265 108.454 84.7148L107.009 86.2276V86.2809H110.283V87.2219H105.496ZM114.289 81.7674H115.351V87.577C115.351 87.9416 115.285 88.2494 115.152 88.5003C115.022 88.7513 114.828 88.9419 114.57 89.0721C114.314 89.2023 113.998 89.2674 113.622 89.2674C113.584 89.2674 113.548 89.2674 113.515 89.2674C113.48 89.2674 113.443 89.2662 113.405 89.2638V88.3512C113.438 88.3512 113.468 88.3512 113.494 88.3512C113.518 88.3512 113.545 88.3512 113.576 88.3512C113.827 88.3512 114.008 88.2837 114.119 88.1488C114.233 88.0162 114.289 87.8232 114.289 87.5699V81.7674ZM114.815 80.9258C114.63 80.9258 114.472 80.8642 114.339 80.7411C114.209 80.6156 114.144 80.4665 114.144 80.2937C114.144 80.1185 114.209 79.9693 114.339 79.8462C114.472 79.7207 114.63 79.658 114.815 79.658C115 79.658 115.157 79.7207 115.287 79.8462C115.42 79.9693 115.486 80.1185 115.486 80.2937C115.486 80.4665 115.42 80.6156 115.287 80.7411C115.157 80.8642 115 80.9258 114.815 80.9258ZM118.367 87.3427C118.021 87.3427 117.709 87.2787 117.43 87.1509C117.15 87.0207 116.929 86.8325 116.765 86.5863C116.605 86.3401 116.524 86.0382 116.524 85.6807C116.524 85.373 116.583 85.1197 116.702 84.9208C116.82 84.7219 116.98 84.5645 117.181 84.4485C117.382 84.3325 117.607 84.2449 117.856 84.1857C118.104 84.1265 118.358 84.0815 118.616 84.0508C118.942 84.0129 119.207 83.9821 119.411 83.9584C119.615 83.9324 119.763 83.891 119.855 83.8341C119.947 83.7773 119.993 83.685 119.993 83.5572V83.5323C119.993 83.2222 119.906 82.9819 119.731 82.8114C119.558 82.641 119.3 82.5557 118.957 82.5557C118.599 82.5557 118.317 82.635 118.111 82.7937C117.908 82.9499 117.767 83.1239 117.689 83.3157L116.691 83.0884C116.809 82.757 116.982 82.4894 117.209 82.2858C117.439 82.0799 117.703 81.9307 118.001 81.8384C118.3 81.7437 118.613 81.6964 118.942 81.6964C119.16 81.6964 119.391 81.7224 119.635 81.7745C119.881 81.8242 120.111 81.9165 120.324 82.0515C120.539 82.1864 120.716 82.3794 120.853 82.6303C120.99 82.8789 121.059 83.202 121.059 83.5998V87.2219H120.022V86.4762H119.979C119.911 86.6135 119.808 86.7484 119.67 86.881C119.533 87.0136 119.357 87.1237 119.141 87.2113C118.926 87.2989 118.668 87.3427 118.367 87.3427ZM118.598 86.4904C118.891 86.4904 119.142 86.4324 119.351 86.3164C119.561 86.2004 119.721 86.0489 119.83 85.8618C119.941 85.6724 119.997 85.47 119.997 85.2546V84.5515C119.959 84.5893 119.886 84.6249 119.777 84.658C119.67 84.6888 119.548 84.716 119.411 84.7397C119.274 84.761 119.14 84.7811 119.01 84.8C118.88 84.8166 118.771 84.8308 118.683 84.8427C118.477 84.8687 118.289 84.9125 118.118 84.9741C117.95 85.0356 117.815 85.1244 117.714 85.2404C117.614 85.354 117.564 85.5055 117.564 85.6949C117.564 85.9577 117.662 86.1566 117.856 86.2915C118.05 86.4241 118.297 86.4904 118.598 86.4904ZM123.535 83.9833V87.2219H122.473V81.7674H123.492V82.6552H123.56C123.685 82.3663 123.882 82.1343 124.149 81.9591C124.419 81.784 124.759 81.6964 125.168 81.6964C125.54 81.6964 125.866 81.7745 126.145 81.9307C126.424 82.0846 126.641 82.3143 126.795 82.6197C126.949 82.925 127.026 83.3027 127.026 83.7525V87.2219H125.964V83.8803C125.964 83.4849 125.861 83.176 125.655 82.9535C125.449 82.7286 125.166 82.6161 124.806 82.6161C124.56 82.6161 124.341 82.6694 124.149 82.7759C123.96 82.8824 123.809 83.0387 123.698 83.2447C123.589 83.4482 123.535 83.6945 123.535 83.9833ZM129.831 86.2276L129.778 86.6147C129.742 86.8988 129.682 87.1947 129.597 87.5025C129.514 87.8126 129.427 88.1002 129.337 88.3654C129.25 88.6305 129.178 88.8412 129.121 88.9975H128.368C128.399 88.8507 128.441 88.6518 128.496 88.4009C128.55 88.1523 128.604 87.8741 128.656 87.5664C128.708 87.2586 128.747 86.9449 128.773 86.6253L128.808 86.2276H129.831ZM133.846 87.2219V86.4265L136.307 83.8768C136.569 83.5998 136.786 83.3571 136.956 83.1488C137.129 82.9381 137.258 82.738 137.343 82.5486C137.429 82.3592 137.471 82.158 137.471 81.9449C137.471 81.7035 137.414 81.4951 137.301 81.3199C137.187 81.1424 137.032 81.0063 136.836 80.9116C136.639 80.8145 136.418 80.766 136.172 80.766C135.911 80.766 135.684 80.8192 135.49 80.9258C135.296 81.0323 135.146 81.1826 135.042 81.3768C134.938 81.5709 134.886 81.7982 134.886 82.0586H133.838C133.838 81.6159 133.94 81.2288 134.144 80.8974C134.347 80.5659 134.627 80.309 134.982 80.1268C135.337 79.9421 135.741 79.8498 136.193 79.8498C136.65 79.8498 137.052 79.9409 137.4 80.1232C137.751 80.3031 138.024 80.5493 138.221 80.8618C138.417 81.172 138.515 81.5224 138.515 81.913C138.515 82.1829 138.464 82.4468 138.363 82.7049C138.263 82.9629 138.089 83.2506 137.841 83.5678C137.592 83.8827 137.246 84.265 136.804 84.7148L135.358 86.2276V86.2809H138.633V87.2219H133.846ZM142.51 87.3427C141.949 87.3403 141.47 87.1923 141.072 86.8988C140.674 86.6052 140.37 86.1779 140.159 85.6168C139.949 85.0557 139.843 84.3798 139.843 83.5891C139.843 82.8008 139.949 82.1272 140.159 81.5685C140.373 81.0098 140.678 80.5837 141.076 80.2901C141.476 79.9965 141.954 79.8498 142.51 79.8498C143.067 79.8498 143.544 79.9977 143.941 80.2937C144.339 80.5872 144.643 81.0134 144.854 81.5721C145.067 82.1284 145.174 82.8008 145.174 83.5891C145.174 84.3822 145.068 85.0593 144.858 85.6204C144.647 86.1791 144.343 86.6064 143.945 86.9023C143.547 87.1959 143.069 87.3427 142.51 87.3427ZM142.51 86.3945C143.003 86.3945 143.387 86.1542 143.664 85.6736C143.944 85.193 144.083 84.4982 144.083 83.5891C144.083 82.9854 144.02 82.4752 143.892 82.0586C143.766 81.6395 143.585 81.3223 143.348 81.1069C143.114 80.8891 142.835 80.7802 142.51 80.7802C142.02 80.7802 141.636 81.0216 141.356 81.5046C141.077 81.9875 140.936 82.6824 140.934 83.5891C140.934 84.1952 140.996 84.7077 141.122 85.1268C141.25 85.5434 141.431 85.8595 141.665 86.0749C141.9 86.288 142.181 86.3945 142.51 86.3945ZM146.433 87.2219V86.4265L148.894 83.8768C149.157 83.5998 149.374 83.3571 149.544 83.1488C149.717 82.9381 149.846 82.738 149.931 82.5486C150.017 82.3592 150.059 82.158 150.059 81.9449C150.059 81.7035 150.002 81.4951 149.889 81.3199C149.775 81.1424 149.62 81.0063 149.424 80.9116C149.227 80.8145 149.006 80.766 148.759 80.766C148.499 80.766 148.272 80.8192 148.078 80.9258C147.884 81.0323 147.734 81.1826 147.63 81.3768C147.526 81.5709 147.474 81.7982 147.474 82.0586H146.426C146.426 81.6159 146.528 81.2288 146.732 80.8974C146.935 80.5659 147.215 80.309 147.57 80.1268C147.925 79.9421 148.329 79.8498 148.781 79.8498C149.238 79.8498 149.64 79.9409 149.988 80.1232C150.339 80.3031 150.612 80.5493 150.808 80.8618C151.005 81.172 151.103 81.5224 151.103 81.913C151.103 82.1829 151.052 82.4468 150.951 82.7049C150.851 82.9629 150.677 83.2506 150.428 83.5678C150.18 83.8827 149.834 84.265 149.392 84.7148L147.946 86.2276V86.2809H151.22V87.2219H146.433ZM155.098 87.3214C154.611 87.3214 154.175 87.2373 153.791 87.0692C153.41 86.9011 153.108 86.6679 152.886 86.3697C152.666 86.069 152.547 85.721 152.531 85.3256H153.646C153.66 85.5411 153.732 85.7281 153.862 85.8867C153.995 86.0429 154.168 86.1637 154.381 86.2489C154.594 86.3341 154.831 86.3768 155.091 86.3768C155.378 86.3768 155.631 86.327 155.851 86.2276C156.074 86.1282 156.248 85.9897 156.373 85.8121C156.499 85.6322 156.561 85.425 156.561 85.1907C156.561 84.9468 156.499 84.7326 156.373 84.5479C156.25 84.3609 156.069 84.2141 155.83 84.1076C155.593 84.001 155.307 83.9478 154.97 83.9478H154.356V83.0529H154.97C155.24 83.0529 155.477 83.0044 155.681 82.9073C155.887 82.8102 156.048 82.6753 156.164 82.5025C156.28 82.3273 156.338 82.1225 156.338 81.8881C156.338 81.6632 156.287 81.4679 156.185 81.3022C156.085 81.1341 155.943 81.0027 155.759 80.908C155.576 80.8133 155.361 80.766 155.112 80.766C154.876 80.766 154.654 80.8098 154.448 80.8974C154.245 80.9826 154.079 81.1057 153.951 81.2667C153.823 81.4253 153.755 81.6159 153.745 81.8384H152.683C152.695 81.4454 152.811 81.0998 153.031 80.8015C153.254 80.5032 153.548 80.27 153.912 80.1019C154.277 79.9338 154.682 79.8498 155.127 79.8498C155.593 79.8498 155.995 79.9409 156.334 80.1232C156.675 80.3031 156.938 80.5434 157.122 80.8441C157.309 81.1447 157.402 81.4738 157.399 81.8313C157.402 82.2385 157.288 82.5841 157.058 82.8682C156.831 83.1523 156.528 83.3429 156.149 83.44V83.4968C156.632 83.5702 157.006 83.7619 157.272 84.0721C157.539 84.3822 157.672 84.7669 157.669 85.2262C157.672 85.6263 157.56 85.9849 157.335 86.3022C157.113 86.6194 156.809 86.8692 156.423 87.0515C156.037 87.2314 155.595 87.3214 155.098 87.3214ZM167.064 79.9492V87.2219H165.963V81.05H165.92L164.18 82.1864V81.1353L165.995 79.9492H167.064ZM169.745 86.3199C169.551 86.3199 169.384 86.2513 169.244 86.114C169.105 85.9743 169.035 85.8062 169.035 85.6097C169.035 85.4156 169.105 85.2499 169.244 85.1125C169.384 84.9729 169.551 84.903 169.745 84.903C169.939 84.903 170.106 84.9729 170.246 85.1125C170.385 85.2499 170.455 85.4156 170.455 85.6097C170.455 85.7399 170.422 85.8595 170.356 85.9684C170.292 86.0749 170.207 86.1601 170.1 86.2241C169.993 86.288 169.875 86.3199 169.745 86.3199ZM169.745 82.6765C169.551 82.6765 169.384 82.6078 169.244 82.4705C169.105 82.3308 169.035 82.1627 169.035 81.9662C169.035 81.7721 169.105 81.6064 169.244 81.4691C169.384 81.3294 169.551 81.2596 169.745 81.2596C169.939 81.2596 170.106 81.3294 170.246 81.4691C170.385 81.6064 170.455 81.7721 170.455 81.9662C170.455 82.0965 170.422 82.216 170.356 82.3249C170.292 82.4314 170.207 82.5167 170.1 82.5806C169.993 82.6445 169.875 82.6765 169.745 82.6765ZM174.395 87.3214C173.907 87.3214 173.472 87.2373 173.088 87.0692C172.707 86.9011 172.405 86.6679 172.183 86.3697C171.963 86.069 171.844 85.721 171.828 85.3256H172.943C172.957 85.5411 173.029 85.7281 173.159 85.8867C173.292 86.0429 173.465 86.1637 173.678 86.2489C173.891 86.3341 174.128 86.3768 174.388 86.3768C174.674 86.3768 174.928 86.327 175.148 86.2276C175.37 86.1282 175.544 85.9897 175.67 85.8121C175.795 85.6322 175.858 85.425 175.858 85.1907C175.858 84.9468 175.795 84.7326 175.67 84.5479C175.547 84.3609 175.366 84.2141 175.127 84.1076C174.89 84.001 174.603 83.9478 174.267 83.9478H173.653V83.0529H174.267C174.537 83.0529 174.774 83.0044 174.977 82.9073C175.183 82.8102 175.344 82.6753 175.46 82.5025C175.576 82.3273 175.634 82.1225 175.634 81.8881C175.634 81.6632 175.584 81.4679 175.482 81.3022C175.382 81.1341 175.24 81.0027 175.056 80.908C174.873 80.8133 174.658 80.766 174.409 80.766C174.173 80.766 173.951 80.8098 173.745 80.8974C173.542 80.9826 173.376 81.1057 173.248 81.2667C173.12 81.4253 173.052 81.6159 173.042 81.8384H171.98C171.992 81.4454 172.108 81.0998 172.328 80.8015C172.551 80.5032 172.844 80.27 173.209 80.1019C173.574 79.9338 173.978 79.8498 174.424 79.8498C174.89 79.8498 175.292 79.9409 175.631 80.1232C175.972 80.3031 176.235 80.5434 176.419 80.8441C176.606 81.1447 176.699 81.4738 176.696 81.8313C176.699 82.2385 176.585 82.5841 176.355 82.8682C176.128 83.1523 175.825 83.3429 175.446 83.44V83.4968C175.929 83.5702 176.303 83.7619 176.568 84.0721C176.836 84.3822 176.968 84.7669 176.966 85.2262C176.968 85.6263 176.857 85.9849 176.632 86.3022C176.41 86.6194 176.106 86.8692 175.72 87.0515C175.334 87.2314 174.892 87.3214 174.395 87.3214ZM180.84 87.3427C180.279 87.3403 179.8 87.1923 179.402 86.8988C179.004 86.6052 178.7 86.1779 178.49 85.6168C178.279 85.0557 178.174 84.3798 178.174 83.5891C178.174 82.8008 178.279 82.1272 178.49 81.5685C178.703 81.0098 179.008 80.5837 179.406 80.2901C179.806 79.9965 180.284 79.8498 180.84 79.8498C181.397 79.8498 181.874 79.9977 182.272 80.2937C182.669 80.5872 182.973 81.0134 183.184 81.5721C183.397 82.1284 183.504 82.8008 183.504 83.5891C183.504 84.3822 183.398 85.0593 183.188 85.6204C182.977 86.1791 182.673 86.6064 182.275 86.9023C181.877 87.1959 181.399 87.3427 180.84 87.3427ZM180.84 86.3945C181.333 86.3945 181.718 86.1542 181.995 85.6736C182.274 85.193 182.414 84.4982 182.414 83.5891C182.414 82.9854 182.35 82.4752 182.222 82.0586C182.096 81.6395 181.915 81.3223 181.678 81.1069C181.444 80.8891 181.165 80.7802 180.84 80.7802C180.35 80.7802 179.966 81.0216 179.686 81.5046C179.407 81.9875 179.266 82.6824 179.264 83.5891C179.264 84.1952 179.326 84.7077 179.452 85.1268C179.58 85.5434 179.761 85.8595 179.995 86.0749C180.23 86.288 180.511 86.3945 180.84 86.3945ZM184.778 89.2674V81.7674H185.815V82.6516H185.903C185.965 82.538 186.054 82.4066 186.17 82.2574C186.286 82.1083 186.447 81.9781 186.653 81.8668C186.859 81.7532 187.131 81.6964 187.47 81.6964C187.91 81.6964 188.303 81.8076 188.648 82.0302C188.994 82.2527 189.265 82.5735 189.462 82.9925C189.661 83.4116 189.76 83.9158 189.76 84.5053C189.76 85.0948 189.662 85.6002 189.465 86.0216C189.269 86.4407 188.999 86.7638 188.656 86.9911C188.312 87.216 187.92 87.3285 187.48 87.3285C187.149 87.3285 186.878 87.2728 186.667 87.1616C186.459 87.0503 186.295 86.9201 186.177 86.7709C186.059 86.6218 185.967 86.4892 185.903 86.3732H185.84V89.2674H184.778ZM185.818 84.4947C185.818 84.8782 185.874 85.2143 185.985 85.5032C186.096 85.792 186.257 86.0181 186.468 86.1814C186.679 86.3424 186.937 86.4229 187.242 86.4229C187.559 86.4229 187.825 86.3389 188.038 86.1708C188.251 86.0003 188.412 85.7695 188.521 85.4783C188.632 85.1871 188.688 84.8592 188.688 84.4947C188.688 84.1348 188.633 83.8116 188.524 83.5252C188.418 83.2387 188.257 83.0126 188.041 82.8469C187.828 82.6812 187.562 82.5983 187.242 82.5983C186.934 82.5983 186.674 82.6777 186.461 82.8363C186.25 82.9949 186.09 83.2162 185.982 83.5003C185.873 83.7844 185.818 84.1159 185.818 84.4947ZM190.95 87.2219V81.7674H191.969V82.6552H192.036C192.15 82.3545 192.336 82.1201 192.594 81.952C192.852 81.7816 193.161 81.6964 193.521 81.6964C193.885 81.6964 194.191 81.7816 194.437 81.952C194.685 82.1225 194.869 82.3569 194.987 82.6552H195.044C195.174 82.364 195.381 82.132 195.666 81.9591C195.95 81.784 196.288 81.6964 196.681 81.6964C197.176 81.6964 197.58 81.8514 197.892 82.1616C198.207 82.4717 198.364 82.9393 198.364 83.5643V87.2219H197.303V83.6637C197.303 83.2944 197.202 83.0268 197.001 82.8611C196.8 82.6954 196.559 82.6125 196.28 82.6125C195.934 82.6125 195.666 82.7191 195.474 82.9322C195.282 83.1429 195.186 83.4139 195.186 83.7454V87.2219H194.128V83.5962C194.128 83.3003 194.036 83.0624 193.851 82.8824C193.666 82.7025 193.426 82.6125 193.13 82.6125C192.929 82.6125 192.743 82.6658 192.572 82.7723C192.404 82.8765 192.268 83.0221 192.164 83.2091C192.062 83.3962 192.011 83.6128 192.011 83.859V87.2219H190.95Z" fill="#A9A9A9"/>
</svg>
