<svg width="43" height="57" viewBox="0 0 43 57" fill="none" xmlns="http://www.w3.org/2000/svg">
<path d="M32.0625 28.5H10.6875V35.625H32.0625V28.5ZM41.9707 11.6895L31.0717 0.779297C30.5707 0.27832 29.8916 0 29.1791 0H28.5V14.25H42.75V13.5709C42.75 12.8695 42.4717 12.1904 41.9707 11.6895ZM24.9375 15.1406V0H2.67188C1.19121 0 0 1.19121 0 2.67188V54.3281C0 55.8088 1.19121 57 2.67188 57H40.0781C41.5588 57 42.75 55.8088 42.75 54.3281V17.8125H27.6094C26.1398 17.8125 24.9375 16.6102 24.9375 15.1406ZM7.125 8.01562C7.125 7.52355 7.52355 7.125 8.01562 7.125H16.9219C17.4139 7.125 17.8125 7.52355 17.8125 8.01562V9.79688C17.8125 10.2889 17.4139 10.6875 16.9219 10.6875H8.01562C7.52355 10.6875 7.125 10.2889 7.125 9.79688V8.01562ZM7.125 15.1406C7.125 14.6486 7.52355 14.25 8.01562 14.25H16.9219C17.4139 14.25 17.8125 14.6486 17.8125 15.1406V16.9219C17.8125 17.4139 17.4139 17.8125 16.9219 17.8125H8.01562C7.52355 17.8125 7.125 17.4139 7.125 16.9219V15.1406ZM35.625 48.9844C35.625 49.4764 35.2264 49.875 34.7344 49.875H25.8281C25.3361 49.875 24.9375 49.4764 24.9375 48.9844V47.2031C24.9375 46.7111 25.3361 46.3125 25.8281 46.3125H34.7344C35.2264 46.3125 35.625 46.7111 35.625 47.2031V48.9844ZM35.625 26.7188V37.4062C35.625 38.3904 34.8279 39.1875 33.8438 39.1875H8.90625C7.92211 39.1875 7.125 38.3904 7.125 37.4062V26.7188C7.125 25.7346 7.92211 24.9375 8.90625 24.9375H33.8438C34.8279 24.9375 35.625 25.7346 35.625 26.7188Z" fill="#AA2AE1"/>
</svg>
