<svg width="204" height="491" viewBox="0 0 204 491" fill="none" xmlns="http://www.w3.org/2000/svg">
<g clip-path="url(#clip0_366_18)">
<path d="M51.31 394.87C55.97 392.47 61.46 392.15 66.63 393.01C69.41 393.47 72.31 394.3 74.2 396.39C76.09 398.48 76.45 402.15 74.28 403.94C72.99 405.01 71.18 405.17 69.51 405.15C65.46 405.1 60.97 404.39 57.73 406.83C55.88 408.22 54.66 410.53 52.45 411.21C50.29 411.88 47.85 410.6 46.71 408.66C45.57 406.71 45.53 404.28 46.06 402.08C46.06 402.08 46.62 397.29 51.32 394.87H51.31Z" fill="#EBEBEB"/>
<path d="M40.6401 374.26C43.4901 378.33 49.0301 376.98 51.5901 374.5C54.1601 372.02 55.2401 368.42 56.2301 364.98C58.4901 357.14 60.7601 348.91 59.0801 340.92C58.5801 338.53 57.6901 336.15 56.0101 334.38C54.3301 332.61 51.7501 331.55 49.3901 332.18C46.6001 332.92 44.8601 335.65 43.6101 338.25C39.9201 345.9 37.9701 354.37 37.9401 362.86C37.9301 366.82 38.3901 370.98 40.6301 374.25" fill="#EBEBEB"/>
<path d="M32.8099 380.1C35.8999 376.43 36.4899 371.07 35.1099 366.47C33.7299 361.87 30.6199 357.96 27.0399 354.76C22.8399 351.01 17.8999 348.1 12.5899 346.23C10.4999 345.5 8.29995 344.92 6.08995 345.13C3.87995 345.34 1.65995 346.47 0.639947 348.43C-0.880053 351.33 0.579947 354.85 2.14995 357.72C4.92995 362.78 8.10995 367.61 11.6399 372.17C14.4799 375.84 17.7399 379.46 22.0799 381.11C26.4199 382.77 30.9199 382.57 33.2199 379.57" fill="#EBEBEB"/>
<path d="M40.4399 435.64C40.4899 435.64 40.5799 434.98 40.6999 433.79C40.8299 432.44 40.9999 430.75 41.1899 428.74C41.4299 426.62 41.7399 424.09 42.3299 421.34C42.9199 418.6 43.8399 415.62 45.0199 412.6C46.2399 409.6 47.7399 406.88 49.4799 404.7C51.2099 402.51 53.2299 400.93 55.1199 400.01C57.0099 399.08 58.6999 398.7 59.8699 398.53C61.0499 398.41 61.7099 398.32 61.7099 398.26C61.7099 398.21 61.0499 398.2 59.8399 398.23C58.6399 398.31 56.8799 398.61 54.8899 399.52C52.8899 400.41 50.7599 402.01 48.9399 404.25C47.1099 406.48 45.5599 409.26 44.3199 412.31C43.1199 415.38 42.2099 418.38 41.6499 421.19C41.0899 423.99 40.8299 426.54 40.6699 428.68C40.5099 430.82 40.4499 432.56 40.4199 433.76C40.3899 434.96 40.4099 435.62 40.4599 435.63L40.4399 435.64Z" fill="#E0E0E0"/>
<path d="M40.7901 431.76C40.7901 431.76 40.8301 431.46 40.8401 430.9C40.8401 430.26 40.8401 429.44 40.8401 428.45C40.8401 426.32 40.8401 423.24 40.9501 419.43C41.1401 411.82 41.7901 403.63 43.0601 392.08C44.2601 381.22 45.8701 368.59 47.5601 360.37C47.9201 358.5 48.2901 356.82 48.6401 355.35C48.9701 353.87 49.2501 352.6 49.5201 351.57C49.7501 350.6 49.9401 349.81 50.0901 349.19C50.2101 348.64 50.2701 348.35 50.2401 348.34C50.2101 348.34 50.1101 348.61 49.9401 349.14C49.7501 349.76 49.5201 350.54 49.2301 351.49C48.9101 352.51 48.5901 353.77 48.2201 355.24C47.8301 356.71 47.4301 358.38 47.0301 360.25C45.3501 367.69 43.5701 378.1 42.2901 389.67C41.0201 401.24 40.4501 411.78 40.4001 419.4C40.3501 423.21 40.4401 426.3 40.5301 428.43C40.5901 429.43 40.6401 430.24 40.6801 430.88C40.7201 431.44 40.7601 431.73 40.7801 431.73L40.7901 431.76Z" fill="#E0E0E0"/>
<path d="M40.8398 411.44C40.8898 411.44 40.8798 410.53 40.8198 408.88C40.7298 407.23 40.4998 404.85 40.0398 401.94C39.5498 399.03 38.8598 395.58 37.7798 391.82C37.3098 390.1 36.2098 385.99 33.5498 379.85C30.0398 371.53 25.2698 364.72 21.1298 360.5C20.1598 359.38 19.0698 358.57 18.2098 357.78C17.7598 357.4 17.3698 357.02 16.9598 356.72C16.5498 356.44 16.1798 356.18 15.8298 355.94C14.4698 355.01 13.6998 354.51 13.6698 354.56C13.5498 354.73 16.7298 356.6 20.7398 360.87C24.7398 365.13 29.3698 371.89 32.8498 380.15C34.7898 384.63 36.1398 388.62 37.0998 392.01C38.2098 395.73 38.9498 399.15 39.4998 402.03C40.0298 404.92 40.3398 407.27 40.5198 408.91C40.6698 410.54 40.7798 411.45 40.8298 411.45L40.8398 411.44Z" fill="#E0E0E0"/>
<path d="M21.2002 447.28L23.2402 475.18H59.0702L61.1102 447.28H21.2002Z" fill="#E0E0E0"/>
<path d="M65.3802 436.29H17.7402V447.28H65.3802V436.29Z" fill="#E0E0E0"/>
<path d="M17.7402 474.11V477.16H19.9802H64.6002V474.11H17.7402Z" fill="#EBEBEB"/>
<path d="M22.17 482.52L19.98 477.16H62.89L60.33 482.52H22.17Z" fill="#E0E0E0"/>
<path d="M60.4398 456.4C60.4398 456.4 60.3898 456.49 60.2698 456.66C60.1298 456.85 59.9498 457.08 59.7298 457.37C59.2198 458.02 58.5198 458.92 57.6398 460.04L57.5498 460.16L57.4598 460.04C56.1498 458.23 54.3998 455.8 52.3298 452.95H52.6298C51.0998 455.11 49.4098 457.52 47.5798 460.1L47.4198 460.32L47.2398 460.11C45.3798 457.89 43.3498 455.49 41.2498 452.99H41.5998C41.4998 453.12 41.3798 453.26 41.2698 453.4C39.4098 455.73 37.6198 457.98 35.9198 460.11L35.7398 460.33L35.5798 460.1C33.7598 457.53 32.0598 455.12 30.5298 452.95H30.8198C28.3298 455.8 26.2198 458.21 24.5998 460.05L24.4898 460.18L24.4098 460.04C23.5898 458.66 22.9398 457.56 22.4598 456.77C22.2598 456.41 22.0898 456.13 21.9598 455.9C21.8498 455.7 21.7998 455.6 21.8098 455.59C21.8098 455.59 21.8898 455.68 22.0198 455.87C22.1698 456.09 22.3498 456.37 22.5698 456.71C23.0698 457.49 23.7498 458.57 24.6098 459.92L24.4198 459.9C26.0098 458.03 28.0898 455.6 30.5398 452.73L30.6898 452.55L30.8298 452.75C32.3798 454.91 34.0898 457.31 35.9298 459.87H35.5898C37.2898 457.73 39.0798 455.47 40.9298 453.14C41.0398 453 41.1598 452.86 41.2598 452.73L41.4298 452.52L41.5998 452.73C43.6998 455.23 45.7098 457.65 47.5698 459.87H47.2298C49.0698 457.31 50.7898 454.92 52.3298 452.77L52.4798 452.56L52.6298 452.77C54.6498 455.66 56.3698 458.11 57.6498 459.94H57.4698C58.3798 458.84 59.1098 457.97 59.6398 457.33C59.8798 457.06 60.0698 456.84 60.2198 456.66C60.3498 456.51 60.4298 456.44 60.4398 456.44V456.4Z" fill="#F5F5F5"/>
<path d="M61.6098 447.1C61.6098 447.22 52.6298 447.32 41.5598 447.32C30.4898 447.32 21.5098 447.22 21.5098 447.1C21.5098 446.98 30.4898 446.88 41.5598 446.88C52.6298 446.88 61.6098 446.98 61.6098 447.1Z" fill="#F5F5F5"/>
<path d="M63.4201 477.46C63.4201 477.58 53.6601 477.68 41.6301 477.68C29.6001 477.68 19.8301 477.58 19.8301 477.46C19.8301 477.34 29.5901 477.24 41.6301 477.24C53.6701 477.24 63.4201 477.34 63.4201 477.46Z" fill="#F5F5F5"/>
</g>
<g clip-path="url(#clip1_366_18)">
<path d="M85.3812 433.8L64.6716 460.949L54.5013 487.139C53.7635 489.03 51.5898 489.897 49.7454 489.043C48.7179 488.557 47.9801 487.624 47.7825 486.508C46.4914 479.416 41.8937 453.278 43.5141 451.374C45.398 449.167 63.4596 421.283 63.4596 421.283L85.3812 433.8Z" fill="#AA2AE1"/>
<g opacity="0.6">
<path d="M49.7321 489.043L44.8577 449.509L44.0014 450.678C43.2636 451.689 42.9079 452.924 43.0002 454.171C43.2636 457.508 44.1858 466.688 47.6769 486.442C47.8745 487.585 48.6518 488.57 49.7189 489.03L49.7321 489.043Z" fill="white"/>
</g>
<g opacity="0.6">
<path d="M57.0306 444.715C57.3731 445.7 56.8462 446.908 55.8713 447.289C54.9096 447.67 53.658 447.145 53.3023 446.173C52.9335 445.201 53.5395 443.73 54.5407 443.454C55.5419 443.178 56.9647 443.887 57.0833 444.912" fill="white"/>
</g>
<path d="M52.1825 472.402C52.2879 472.586 53.961 471.601 56.1743 472.008C58.4007 472.349 59.6522 473.847 59.8103 473.702C59.8893 473.65 59.6917 473.19 59.1121 472.625C58.5324 472.06 57.5312 471.482 56.306 471.272C55.0808 471.062 53.9347 471.272 53.2101 471.614C52.4723 471.942 52.1298 472.323 52.1825 472.402Z" fill="#263238"/>
<path d="M51.4577 477.524C51.4972 477.734 53.0386 477.485 54.7776 478.115C56.5165 478.706 57.5705 479.862 57.7417 479.718C57.9262 479.639 57.0172 478.089 55.0279 477.406C53.0518 476.697 51.3655 477.353 51.4577 477.524Z" fill="#263238"/>
<path d="M51.9583 465.007C51.9978 465.231 54.3692 464.823 57.1357 465.572C59.9286 466.268 61.7993 467.765 61.9442 467.582C62.1023 467.463 60.3238 465.598 57.3333 464.836C54.356 464.048 51.8925 464.836 51.9583 465.007Z" fill="#263238"/>
<path d="M57.5577 456.233C57.505 456.457 59.5074 456.916 61.5494 458.296C63.6177 459.635 64.8297 461.277 65.0142 461.159C65.1854 461.08 64.1842 459.123 61.971 457.678C59.7709 456.207 57.5708 456.05 57.5708 456.247L57.5577 456.233Z" fill="#263238"/>
<path d="M63.4329 448.103C63.4065 448.327 65.6066 448.511 67.6485 450.139C69.7169 451.715 70.4414 453.804 70.6522 453.712C70.7444 453.685 70.6918 453.121 70.3229 452.293C69.954 451.466 69.2163 450.402 68.1096 449.548C67.003 448.694 65.791 448.235 64.8952 448.09C63.9993 447.933 63.4329 448.025 63.4329 448.116V448.103Z" fill="#263238"/>
<path d="M68.7288 448.563C68.7288 448.563 69.0977 448.261 69.5325 447.552C69.954 446.842 70.481 445.713 70.6918 444.216C70.7708 443.48 70.9289 442.6 70.4283 441.681C70.178 441.221 69.5588 440.879 68.9528 440.998C68.3732 441.116 67.9384 441.497 67.6091 441.93C66.3575 443.703 66.6342 446.488 68.439 448.169C70.2702 449.824 72.8918 449.995 74.7757 449.049C75.2368 448.786 75.6979 448.392 75.8297 447.762C75.9614 447.145 75.5398 446.54 75.0919 446.33C74.1829 445.857 73.3134 445.949 72.5757 445.962C71.0607 446.041 69.8882 446.409 69.1241 446.737C68.36 447.066 67.9779 447.342 68.0043 447.381C68.0438 447.525 69.6906 446.527 72.5888 446.488C73.3002 446.501 74.1434 446.488 74.7757 446.869C75.0787 447.053 75.25 447.342 75.1841 447.644C75.1314 447.946 74.8153 448.248 74.4464 448.445C72.8787 449.207 70.481 449.036 68.966 447.617C67.4378 446.212 67.2007 443.769 68.1887 442.324C68.4258 441.983 68.7684 441.707 69.0977 441.641C69.4271 441.576 69.7301 441.72 69.9145 442.009C70.2966 442.613 70.2307 443.454 70.178 444.15C69.875 447.026 68.6103 448.511 68.7552 448.563H68.7288Z" fill="#263238"/>
<path d="M106.934 448.287L109.042 476.014C109.042 476.014 81.4291 485.444 81.3105 490.606L135.443 490.488L133.941 447.145L106.934 448.287Z" fill="#AA2AE1"/>
<g opacity="0.6">
<path d="M125.68 473.019C126.734 473.269 127.512 474.411 127.314 475.475C127.116 476.539 125.957 477.327 124.89 477.104C123.823 476.881 122.861 475.528 123.177 474.503C123.493 473.466 124.916 472.612 125.891 473.085" fill="white"/>
</g>
<g opacity="0.6">
<path d="M135.442 490.488L135.284 486.114L83.023 488.045C83.023 488.045 81.2972 488.807 81.0337 491L135.429 490.488H135.442Z" fill="white"/>
</g>
<path d="M108.159 475.777C108.172 476.04 109.503 476.106 110.834 476.907C112.19 477.669 112.902 478.785 113.139 478.667C113.376 478.601 112.928 477.051 111.295 476.119C109.674 475.173 108.093 475.554 108.159 475.79V475.777Z" fill="#263238"/>
<path d="M102.573 478.339C102.52 478.601 103.68 478.995 104.628 480.072C105.603 481.123 105.88 482.318 106.143 482.292C106.393 482.318 106.512 480.768 105.313 479.455C104.128 478.128 102.573 478.076 102.573 478.325V478.339Z" fill="#263238"/>
<path d="M99.6222 485.234C99.8594 485.287 100.176 483.947 99.4378 482.542C98.7132 481.123 97.4485 480.598 97.3431 480.821C97.1982 481.044 98.0414 481.78 98.621 482.962C99.2402 484.118 99.3588 485.221 99.6222 485.247V485.234Z" fill="#263238"/>
<path d="M108.383 469.407C108.501 469.644 109.7 469.237 111.202 469.276C112.704 469.276 113.877 469.736 114.008 469.512C114.153 469.315 112.981 468.383 111.215 468.356C109.45 468.317 108.251 469.21 108.383 469.407Z" fill="#263238"/>
<g opacity="0.3">
<path d="M107.355 453.777L107.738 458.716L134.296 457.429L134.151 452.963L107.355 453.777Z" fill="#222222"/>
</g>
<path d="M108.054 463.799C108.054 463.904 109.108 464.035 110.768 463.681C111.598 463.51 112.559 463.195 113.56 462.696C114.061 462.446 114.575 462.157 115.089 461.816C115.326 461.645 115.616 461.474 115.879 461.146C116.156 460.857 116.301 460.161 115.945 459.74C115.655 459.333 115.155 459.176 114.759 459.189C114.364 459.189 114.035 459.281 113.745 459.373C113.152 459.543 112.599 459.767 112.085 460.016C111.071 460.528 110.254 461.146 109.648 461.75C108.436 462.958 108.054 463.957 108.146 464.009C108.264 464.088 108.844 463.247 110.083 462.236C110.702 461.737 111.492 461.211 112.441 460.778C112.915 460.568 113.429 460.384 113.982 460.24C114.549 460.069 115.036 460.043 115.194 460.292C115.247 460.384 115.26 460.423 115.141 460.594C115.023 460.752 114.799 460.909 114.562 461.08C114.101 461.408 113.626 461.697 113.165 461.947C112.243 462.446 111.347 462.801 110.583 463.05C109.055 463.536 108.041 463.654 108.041 463.799H108.054Z" fill="#263238"/>
<path d="M108.422 464.167C108.515 464.206 109.002 463.234 109.028 461.527C109.028 460.673 108.91 459.662 108.541 458.585C108.356 458.046 108.106 457.508 107.79 456.969C107.447 456.444 107.039 455.748 106.011 455.669C105.471 455.669 105.05 456.102 104.905 456.47C104.747 456.838 104.72 457.153 104.668 457.468C104.589 458.099 104.628 458.716 104.734 459.281C104.944 460.423 105.458 461.356 105.998 462.026C107.105 463.379 108.225 463.654 108.238 463.562C108.317 463.431 107.382 462.958 106.512 461.645C106.091 461.001 105.695 460.134 105.55 459.136C105.471 458.637 105.458 458.112 105.55 457.573C105.616 456.995 105.814 456.522 106.025 456.575C106.288 456.562 106.762 456.969 107.013 457.416C107.316 457.888 107.553 458.374 107.737 458.847C108.119 459.806 108.304 460.739 108.37 461.527C108.501 463.103 108.264 464.101 108.409 464.14L108.422 464.167Z" fill="#263238"/>
<path d="M89.4253 211.055C89.4253 211.055 76.686 235.406 76.686 255.121C76.686 259.285 100.834 456.404 100.834 456.404L137.418 453.344L121.386 271.946L127.129 233.121L89.4253 211.055Z" fill="#263238"/>
<path d="M170.894 232.635C170.894 232.635 162.344 303.823 158.339 331.247C154.136 359.959 145.889 365.383 145.889 365.383L79.7688 449.732L53.8687 426.471L111.808 342.096C111.808 342.096 127.683 230.336 127.143 233.121C126.603 235.905 170.907 232.635 170.907 232.635H170.894Z" fill="#263238"/>
<path d="M144.585 366.579C144.585 366.579 144.387 366.894 143.966 367.459C143.491 368.076 142.859 368.877 142.082 369.889C140.396 372.056 138.037 375.09 135.139 378.794C129.29 386.425 121.306 396.853 112.467 408.385C103.627 419.957 95.5775 430.398 89.6097 437.859C86.6323 441.589 84.1951 444.583 82.4825 446.632C81.6525 447.604 80.9938 448.379 80.4932 448.97C80.0321 449.496 79.7818 449.771 79.7555 449.758C79.7423 449.745 79.9531 449.443 80.3746 448.878C80.8489 448.261 81.4813 447.46 82.2585 446.448C83.9448 444.281 86.303 441.247 89.2013 437.543C95.0505 429.912 103.047 419.484 111.874 407.952C120.7 396.38 128.763 385.939 134.718 378.492C137.695 374.761 140.132 371.767 141.845 369.718C142.675 368.746 143.333 367.971 143.834 367.38C144.295 366.854 144.545 366.579 144.572 366.592L144.585 366.579Z" fill="#455A64"/>
<path d="M107.21 90.7319C107.21 90.7319 94.4184 98.3892 90.5848 105.18C86.7511 111.983 66.2787 161.71 67.135 169.787C67.9913 177.865 87.1595 182.961 87.1595 182.961L107.21 157.034L95.2747 148.956L107.21 134.075V90.7188V90.7319Z" fill="#AA2AE1"/>
<path d="M127.867 84.1253L107.211 90.7319C107.211 90.7319 97.8306 179.572 93.1407 192.326C88.4507 205.079 87.1597 219.96 87.1597 219.96C87.1597 219.96 89.8208 244.797 118.817 248.199C147.813 251.601 170.868 234.461 170.868 234.461C170.868 234.461 188.218 190.631 193.329 153.225C198.441 115.818 194.91 94.4751 194.91 94.4751L163.134 83.1008L127.867 84.1253Z" fill="#AA2AE1"/>
<path d="M189.074 97.102C188.191 98.0214 175.426 106.454 171.17 120.901C166.902 135.349 162.212 150.23 162.212 150.23L145.586 152.358L154.966 190.618C154.966 190.618 175.004 188.491 186.097 170.221C197.176 151.938 204 129.412 204 129.412C204 129.412 202.591 83.0877 189.074 97.102Z" fill="#AA2AE1"/>
<path d="M87.1597 182.974C87.1597 182.974 133.611 192.234 150.474 172.296L145.587 155.379C145.587 155.379 114.904 162.616 105.314 159.503L87.1597 182.974Z" fill="#FFBE9D"/>
<path d="M151.291 151.636C151.291 151.636 158.352 135.888 159.288 135.691C160.223 135.48 173.858 130.713 173.858 130.713C173.858 130.713 174.583 132.578 173.858 134.141L178.746 134.758C178.746 134.758 178.021 137.766 176.348 138.186L178.113 139.736C178.113 139.736 176.651 141.732 174.78 142.547C172.91 143.361 171.553 142.547 171.553 142.547C171.553 142.547 172.172 143.676 169.366 145.436C166.56 147.196 161.778 149.797 161.778 149.797L151.278 151.636H151.291Z" fill="#FFBE9D"/>
<path d="M151.238 151.688L151.265 151.623C151.554 150.979 158.352 135.861 159.288 135.651C160.21 135.441 173.713 130.726 173.845 130.673H173.871V130.7C173.871 130.713 174.583 132.565 173.884 134.101L178.772 134.719V134.758C178.732 134.876 178.034 137.713 176.414 138.186L178.153 139.723V139.749C178.153 139.749 176.651 141.759 174.793 142.573C173.186 143.269 171.948 142.77 171.619 142.612C171.711 142.914 171.777 143.965 169.379 145.463C166.599 147.209 161.83 149.797 161.778 149.823L151.212 151.688H151.238ZM173.845 130.752C173.094 131.015 160.21 135.52 159.314 135.717C158.589 135.874 153.82 146.132 151.37 151.583L161.791 149.757C161.975 149.665 166.639 147.117 169.379 145.41C172.119 143.689 171.553 142.573 171.553 142.56L171.487 142.442L171.605 142.507C171.605 142.507 172.962 143.308 174.793 142.507C176.519 141.759 177.916 139.972 178.087 139.736L176.295 138.16H176.361C177.889 137.766 178.627 135.139 178.719 134.784L173.819 134.167L173.845 134.128C174.504 132.709 173.95 131.015 173.845 130.765V130.752Z" fill="#EB996E"/>
<path d="M173.423 134.193C173.489 134.39 169.497 135.94 164.504 137.661C163.266 138.107 162.028 138.449 161.053 138.909C160.065 139.368 159.446 140.13 159.011 140.839C158.194 142.297 157.891 143.361 157.772 143.322C157.707 143.295 157.812 142.218 158.55 140.59C158.932 139.802 159.63 138.843 160.737 138.304C161.817 137.753 163.016 137.424 164.267 136.965C169.26 135.244 173.371 134.009 173.436 134.206L173.423 134.193Z" fill="#EB996E"/>
<path d="M176.598 138.186C176.625 138.278 175.703 138.685 174.135 139.079C172.567 139.5 170.367 139.854 168.035 140.485C165.703 141.115 163.741 142.1 162.515 143.072C161.277 144.031 160.724 144.872 160.618 144.806C160.552 144.78 160.948 143.808 162.173 142.678C163.372 141.549 165.427 140.419 167.838 139.775C170.248 139.132 172.449 138.856 174.029 138.58C175.61 138.317 176.572 138.094 176.612 138.199L176.598 138.186Z" fill="#EB996E"/>
<path d="M164.109 145.357C163.977 145.226 165.268 143.9 167.376 143.151C169.484 142.389 171.328 142.599 171.302 142.796C171.302 143.02 169.576 143.138 167.613 143.847C165.65 144.53 164.227 145.528 164.096 145.357H164.109Z" fill="#EB996E"/>
<path d="M147.009 156.469L108.093 145.62L96.5 158.216C96.5 158.216 136.101 189.16 154.202 188.661" fill="#FFBE9D"/>
<path d="M154.202 188.661C154.202 188.661 152.45 188.885 149.354 188.32C146.258 187.781 141.898 186.376 136.799 184.051C126.576 179.415 113.376 171.232 99.675 161.079C98.5289 160.212 97.3959 159.359 96.2761 158.505L95.96 158.269L96.2366 157.966C100.307 153.553 104.22 149.311 107.843 145.384L107.988 145.226L108.199 145.279C119.528 148.497 129.211 151.242 136.154 153.212C139.54 154.197 142.24 154.985 144.177 155.55C145.06 155.826 145.758 156.036 146.298 156.206C146.785 156.364 147.023 156.456 147.023 156.469C147.023 156.482 146.759 156.443 146.272 156.325C145.718 156.18 145.007 156.009 144.111 155.786C142.161 155.274 139.447 154.538 136.035 153.645C129.08 151.741 119.357 149.074 108.001 145.975L108.357 145.87C104.747 149.81 100.848 154.052 96.7768 158.479L96.7372 157.94C97.857 158.781 98.9768 159.634 100.123 160.501C113.798 170.641 126.919 178.863 137.023 183.591C142.069 185.956 146.364 187.427 149.407 188.044C150.171 188.215 150.843 188.346 151.449 188.399C152.042 188.477 152.542 188.556 152.951 188.569C153.768 188.609 154.202 188.648 154.202 188.674V188.661Z" fill="#EB996E"/>
<path d="M172.488 112.246C172.593 112.272 172.369 113.454 171.921 115.332C171.473 117.211 170.815 119.811 170.05 122.661C169.273 125.512 168.535 128.086 167.969 129.925C167.402 131.763 166.994 132.906 166.902 132.88C166.81 132.854 167.034 131.672 167.468 129.793C167.903 127.915 168.575 125.314 169.339 122.477C170.116 119.627 170.854 117.066 171.421 115.214C171.987 113.362 172.395 112.233 172.488 112.259V112.246Z" fill="#263238"/>
<path d="M170.683 164.153C170.551 164.179 170.182 162.235 169.207 159.24C168.694 157.756 167.969 156.009 166.691 154.407C165.426 152.831 163.556 151.347 161.25 150.979C158.945 150.651 156.679 151.373 154.61 151.741C152.595 152.135 150.75 152.503 149.117 152.831C148.326 152.975 147.628 153.094 147.101 153.356C146.561 153.606 146.232 154 146.087 154.381C145.784 155.182 146.219 155.615 146.153 155.642C146.153 155.707 145.56 155.287 145.823 154.289C145.929 153.829 146.324 153.291 146.917 152.975C147.51 152.647 148.247 152.489 149.011 152.306C150.632 151.938 152.463 151.517 154.466 151.071C156.508 150.677 158.787 149.902 161.356 150.243C163.924 150.651 165.914 152.279 167.218 153.974C168.549 155.694 169.234 157.533 169.695 159.07C170.143 160.606 170.38 161.88 170.525 162.76C170.67 163.64 170.722 164.126 170.67 164.14L170.683 164.153Z" fill="#263238"/>
<path d="M176.387 155.76C176.176 155.878 175.07 152.739 171.855 150.546C168.694 148.326 165.413 147.984 165.466 147.748C165.466 147.656 166.296 147.63 167.574 147.906C168.852 148.168 170.617 148.786 172.277 149.954C173.937 151.123 175.096 152.594 175.702 153.763C176.308 154.932 176.466 155.747 176.387 155.773V155.76Z" fill="#263238"/>
<path d="M204 129.412C204 129.412 203.947 129.701 203.776 130.227C203.579 130.831 203.315 131.58 202.999 132.512C202.287 134.587 201.299 137.437 200.101 140.905C198.862 144.438 197.4 148.68 195.332 153.212C193.158 157.691 190.813 162.603 187.849 167.554C184.885 172.493 181.249 176.722 177.402 179.927C173.581 183.158 169.642 185.443 166.164 186.914C162.673 188.385 159.656 189.042 157.562 189.331C156.508 189.462 155.704 189.541 155.138 189.554C154.584 189.581 154.294 189.581 154.294 189.554C154.294 189.476 155.454 189.423 157.522 189.055C159.577 188.688 162.541 187.952 165.953 186.455C172.764 183.5 181.42 177.064 187.216 167.187C190.141 162.301 192.526 157.375 194.712 152.949C196.794 148.47 198.309 144.267 199.613 140.747C200.904 137.227 201.958 134.377 202.722 132.42C203.091 131.514 203.394 130.765 203.631 130.174C203.842 129.662 203.974 129.399 204 129.412Z" fill="#263238"/>
<path d="M191.972 98.1002C192.051 98.3104 188.771 99.4662 185.122 101.633C181.459 103.774 178.851 106.073 178.706 105.915C178.574 105.797 180.998 103.196 184.753 101.003C188.494 98.7832 191.946 97.9163 191.985 98.1002H191.972Z" fill="#263238"/>
<path d="M105.682 130.161C105.485 130.122 105.999 126.891 106.829 122.95C107.659 119.01 108.502 115.845 108.699 115.884C108.897 115.923 108.383 119.155 107.553 123.108C106.723 127.048 105.88 130.214 105.682 130.174V130.161Z" fill="#263238"/>
<path d="M160.157 199.668C160.157 199.668 159.419 200.101 158.01 200.745C157.311 201.073 156.442 201.467 155.414 201.861C154.387 202.268 153.241 202.754 151.923 203.188C149.315 204.134 146.14 205.053 142.57 205.893C138.986 206.682 135.008 207.365 130.792 207.745C126.576 208.1 122.532 208.139 118.87 207.982C115.207 207.785 111.914 207.43 109.187 206.957C107.817 206.76 106.591 206.485 105.511 206.261C104.431 206.051 103.509 205.828 102.771 205.618C101.269 205.224 100.452 204.974 100.465 204.935C100.465 204.882 101.322 205.04 102.837 205.342C103.588 205.499 104.51 205.696 105.603 205.867C106.684 206.038 107.909 206.288 109.279 206.445C112.006 206.852 115.273 207.141 118.909 207.312C122.545 207.43 126.55 207.378 130.739 207.023C134.929 206.642 138.881 205.985 142.438 205.237C145.995 204.449 149.157 203.582 151.765 202.702C153.083 202.308 154.242 201.848 155.283 201.494C156.323 201.139 157.193 200.784 157.904 200.495C159.34 199.931 160.144 199.628 160.17 199.681L160.157 199.668Z" fill="#263238"/>
<path d="M126.115 221.379C126.076 221.576 122.216 220.801 117.631 219.264C113.033 217.741 109.49 216.059 109.569 215.876C109.648 215.679 113.297 217.058 117.868 218.568C122.427 220.092 126.168 221.169 126.128 221.379H126.115Z" fill="#263238"/>
<g opacity="0.3">
<path d="M142.227 186.389C139.474 185.233 136.839 183.683 133.888 183.237C130.305 182.698 127.301 183.749 123.718 184.314C113.047 185.982 105.076 184.708 95.0113 184.274L94.4712 187.361C98.8977 190.802 104.47 191.905 110.096 191.8C115.194 191.708 120.2 190.054 125.298 190.198C129.317 190.303 133.216 191.538 137.102 192.562C143.597 194.283 150.408 195.478 157.035 194.335C163.661 193.193 170.117 189.344 172.896 183.237C164.083 189.318 152.121 190.553 142.24 186.402L142.227 186.389Z" fill="#222222"/>
</g>
<g opacity="0.3">
<path d="M110.702 217.294C114.957 224.479 122.795 229.417 131.135 230.153C132.939 230.31 134.797 230.284 136.51 229.719C138.235 229.154 139.816 227.985 140.567 226.344C138.723 224.978 136.444 224.347 134.231 223.73C126.471 221.602 118.711 219.474 110.952 217.36" fill="#222222"/>
</g>
<path d="M98.1597 157.901L83.1413 158.452C81.6394 158.505 80.243 157.139 79.5974 154.998L68.1887 116.554C67.0953 112.889 68.6762 108.805 71.2451 108.634L92.8505 107.281C94.4841 107.176 95.986 108.752 96.5656 111.156L104.299 143.663C105.946 150.559 102.85 157.717 98.1597 157.888V157.901Z" fill="#455A64"/>
<path d="M87.5811 141.798C85.8948 143.532 76.4886 135.914 73.7088 136.492C70.9423 137.057 69.256 138.659 70.7974 139.828C72.3387 140.997 76.2251 144.885 76.8311 146.513C76.8311 146.513 77.1209 139.697 76.3832 140.8C75.6454 141.903 74.4071 143.663 76.1987 144.438C77.9904 145.213 75.2239 151.228 76.5544 151.977C77.885 152.726 82.5354 154.328 83.484 154.368C83.9846 154.394 87.4889 155.76 90.7165 157.06C94.3526 158.518 98.3838 158.61 102.073 157.323L103.956 156.666C106.894 155.642 108.844 152.87 108.804 149.771L108.739 143.558L110.978 138.541L106.986 130.122L100.426 127.941L102.955 135.756C100.373 136.991 95.9861 137.871 93.7729 136.649C91.5465 135.428 82.8384 126.786 81.1917 127.613C79.5449 128.44 78.0826 130.424 79.5845 132.315C81.0863 134.206 89.2542 140.091 87.5679 141.824" fill="#FFBE9D"/>
<path d="M54.0532 426.09C54.0532 426.09 54.1191 425.946 54.2772 425.696C54.4616 425.42 54.6987 425.04 55.0017 424.58C55.6736 423.568 56.6353 422.137 57.8605 420.311C60.3899 416.581 64.0128 411.249 68.4788 404.668C77.5162 391.468 89.9656 373.29 103.719 353.221C106.381 349.346 109.002 345.551 111.492 341.912L111.439 342.07C113.191 321.055 114.746 302.536 115.853 289.218C116.432 282.611 116.907 277.305 117.223 273.588C117.394 271.788 117.526 270.383 117.618 269.385C117.671 268.938 117.71 268.57 117.737 268.295C117.763 268.045 117.789 267.927 117.802 267.927C117.802 267.927 117.802 268.058 117.802 268.295C117.789 268.57 117.763 268.938 117.75 269.385C117.684 270.383 117.592 271.801 117.46 273.601C117.183 277.318 116.788 282.624 116.287 289.244C115.233 302.562 113.758 321.095 112.098 342.109V342.201L112.045 342.28C109.555 345.918 106.934 349.714 104.273 353.589C90.4531 373.619 77.9509 391.757 68.8608 404.918C64.3158 411.446 60.6402 416.739 58.0581 420.429C56.7934 422.229 55.7922 423.634 55.0939 424.632C54.7646 425.079 54.5011 425.447 54.3035 425.709C54.1191 425.946 54.0268 426.077 54.0137 426.064L54.0532 426.09Z" fill="#455A64"/>
<path d="M131.266 257.393C131.372 257.564 128.026 259.652 124.337 262.765C120.622 265.865 117.987 268.781 117.829 268.649C117.763 268.597 118.33 267.782 119.397 266.587C120.451 265.392 122.018 263.816 123.889 262.24C125.76 260.677 127.591 259.403 128.948 258.575C130.318 257.748 131.214 257.314 131.253 257.393H131.266Z" fill="#455A64"/>
<path d="M118.119 268.216C118.092 268.387 116.063 268.085 113.929 266.784C111.795 265.497 110.583 263.842 110.728 263.737C110.873 263.606 112.256 264.972 114.285 266.193C116.301 267.428 118.171 268.019 118.119 268.216Z" fill="#455A64"/>
<path d="M168.009 251.575C167.982 251.772 164.399 251.338 159.959 251.089C155.52 250.839 151.91 250.865 151.91 250.668C151.91 250.485 155.52 250.143 159.999 250.406C164.478 250.655 168.035 251.404 168.009 251.575Z" fill="#455A64"/>
<path d="M90.9539 235.984C90.9802 236.063 90.4401 236.365 89.4784 236.602C88.5167 236.838 87.107 236.956 85.6052 236.693C84.0902 236.418 82.8123 235.827 81.9955 235.262C81.1655 234.697 80.7703 234.224 80.823 234.172C80.9416 234.001 82.8518 235.538 85.7238 236.024C88.5825 236.562 90.9143 235.774 90.967 235.984H90.9539Z" fill="#455A64"/>
<path d="M200.72 125.879C200.72 125.879 200.364 126.142 199.666 126.497C198.968 126.864 197.914 127.298 196.57 127.731C195.239 128.178 193.593 128.559 191.748 128.835C189.891 129.071 187.836 129.176 185.688 129.032C183.541 128.874 181.512 128.48 179.707 127.994C177.916 127.469 176.348 126.864 175.083 126.234C173.818 125.617 172.83 125.039 172.198 124.579C171.552 124.132 171.21 123.87 171.236 123.83C171.302 123.725 172.751 124.684 175.281 125.8C176.545 126.365 178.1 126.917 179.865 127.39C181.644 127.836 183.62 128.191 185.728 128.362C187.836 128.493 189.851 128.414 191.669 128.217C193.487 127.994 195.108 127.666 196.438 127.285C199.113 126.536 200.667 125.774 200.72 125.892V125.879Z" fill="white"/>
<path d="M98.4629 119.877C98.5287 119.693 100.175 120.113 102.244 120.258C104.312 120.415 106.012 120.218 106.051 120.415C106.091 120.586 104.378 121.098 102.204 120.941C100.031 120.796 98.397 120.048 98.4629 119.877Z" fill="white"/>
<path d="M169.827 119.522C169.84 119.706 155.823 121.085 138.499 122.583C121.175 124.093 107.131 125.157 107.105 124.96C107.092 124.776 121.109 123.397 138.433 121.9C155.744 120.402 169.8 119.325 169.813 119.522H169.827Z" fill="white"/>
<path d="M160.17 88.7223C160.789 87.5139 161.079 86.1742 161.04 84.8214L159.459 33.7683C160.065 19.557 152.279 7.35521 137.998 7.13193L136.681 7.18446C123.401 7.76237 112.783 18.4143 112.283 31.6537C111.821 43.9737 111.479 57.594 111.848 64.1874C112.612 77.8208 126.392 79.3444 126.392 79.3444L126.84 84.6638C126.84 84.6638 125.773 93.8841 136.496 97.01C144.73 99.4136 153.768 94.2387 157.509 91.7169C158.642 90.9551 159.551 89.9175 160.157 88.7092L160.17 88.7223Z" fill="#FFBE9D"/>
<path d="M126.287 79.3444C126.287 79.3444 135.047 79.4888 143.979 73.342C143.979 73.342 140.185 83.3372 126.484 82.7067L126.273 79.3575L126.287 79.3444Z" fill="#EB996E"/>
<path d="M119.923 42.6865C119.923 43.711 120.819 44.5647 121.886 44.5647C122.967 44.5647 123.836 43.7504 123.823 42.7259C123.823 41.7014 122.927 40.8477 121.86 40.8346C120.78 40.8346 119.91 41.6489 119.923 42.6734V42.6865Z" fill="#263238"/>
<path d="M115.537 38.2208C115.787 38.4704 117.223 37.3014 119.331 37.2226C121.425 37.1044 123.019 38.1158 123.23 37.8531C123.336 37.7349 123.072 37.2883 122.374 36.8286C121.689 36.3689 120.543 35.9486 119.238 36.0143C117.934 36.0799 116.854 36.6053 116.235 37.1307C115.616 37.6561 115.405 38.1158 115.537 38.234V38.2208Z" fill="#263238"/>
<path d="M140.277 42.6865C140.277 43.711 141.173 44.5647 142.24 44.5647C143.321 44.5647 144.19 43.7504 144.177 42.7259C144.177 41.7014 143.281 40.8477 142.214 40.8477C141.134 40.8477 140.264 41.662 140.277 42.6865Z" fill="#263238"/>
<path d="M136.22 37.7086C136.47 37.9582 137.906 36.8023 140.014 36.7104C142.108 36.5922 143.703 37.6035 143.913 37.3408C144.019 37.2226 143.755 36.7761 143.057 36.3164C142.372 35.8567 141.226 35.4364 139.922 35.502C138.617 35.5677 137.537 36.0931 136.918 36.6185C136.299 37.1438 136.101 37.6167 136.22 37.7217V37.7086Z" fill="#263238"/>
<path d="M129.264 53.588C129.264 53.4698 127.946 53.299 125.825 53.1152C125.285 53.0889 124.772 52.9969 124.666 52.6423C124.521 52.2614 124.719 51.6704 124.956 51.0399C125.404 49.7265 125.878 48.3474 126.366 46.8895C128.315 40.9922 129.712 36.1456 129.461 36.08C129.224 36.0011 127.446 40.7295 125.496 46.6268C125.022 48.0847 124.574 49.4638 124.152 50.7904C123.981 51.4077 123.652 52.1169 123.968 52.905C124.126 53.299 124.534 53.5749 124.89 53.6537C125.233 53.7456 125.536 53.7325 125.812 53.7456C127.946 53.7719 129.277 53.7193 129.277 53.6011L129.264 53.588Z" fill="#263238"/>
<path d="M135.311 29.5128C135.548 30.0776 137.63 29.7098 140.106 29.9068C142.596 30.0513 144.612 30.6818 144.915 30.1564C145.047 29.9068 144.678 29.3815 143.848 28.8692C143.031 28.357 141.727 27.8841 140.238 27.7791C138.749 27.6871 137.406 27.9761 136.523 28.3832C135.627 28.7904 135.192 29.2501 135.298 29.5259L135.311 29.5128Z" fill="#263238"/>
<path d="M116.037 32.1134C116.432 32.5731 117.855 32.0214 119.594 31.9164C121.333 31.7588 122.822 32.1003 123.138 31.588C123.27 31.3385 123.019 30.8788 122.361 30.4453C121.702 30.025 120.622 29.6967 119.436 29.7886C118.237 29.8806 117.223 30.3534 116.643 30.8656C116.05 31.3779 115.866 31.877 116.037 32.1003V32.1134Z" fill="#263238"/>
<path d="M157.852 47.1391C157.852 45.0244 159.591 43.2907 161.712 43.3958C164.267 43.5271 167.179 44.8537 167.231 50.1074C167.337 59.4459 157.917 57.6334 157.891 57.3575C157.891 57.1737 157.865 51.0399 157.852 47.1259V47.1391Z" fill="#FFBE9D"/>
<path d="M159.88 53.8244C159.88 53.8244 160.038 53.9426 160.328 54.0608C160.592 54.179 161.066 54.2578 161.553 54.0608C162.542 53.6931 163.358 52.1169 163.385 50.4226C163.398 49.5689 163.213 48.7677 162.897 48.0978C162.607 47.4149 162.159 46.942 161.659 46.8632C161.158 46.7581 160.816 47.0602 160.697 47.3229C160.579 47.5856 160.631 47.7695 160.592 47.7826C160.565 47.8089 160.394 47.625 160.46 47.2441C160.5 47.0602 160.605 46.837 160.816 46.6531C161.04 46.4692 161.369 46.3773 161.712 46.4035C162.436 46.4429 163.095 47.0996 163.437 47.8352C163.819 48.5707 164.043 49.477 164.03 50.4358C163.991 52.314 163.042 54.0871 161.698 54.4943C161.04 54.6781 160.486 54.4943 160.21 54.271C159.92 54.0477 159.867 53.8375 159.894 53.8113L159.88 53.8244Z" fill="#EB996E"/>
<path d="M112.322 31.2728C112.19 33.1641 109.766 26.7809 110.741 25.1522C108.054 25.8877 104.945 23.8519 104.562 21.0937C104.18 18.3355 106.591 15.5248 109.384 15.4985C108.383 13.8173 108.752 11.4531 110.201 10.1528C110.702 9.70626 111.742 9.32537 112.968 9.07581C112.928 7.93313 113.231 6.77731 113.758 5.75283C114.904 3.52 117.131 1.87821 119.607 1.41851C122.084 0.958809 124.745 1.69433 126.629 3.34925C128.197 1.20836 130.871 -0.0788016 133.532 4.29689e-06C136.193 0.0919445 138.762 1.54985 140.198 3.79582C142.596 2.33791 145.797 2.29851 148.221 3.70388C149.763 4.59701 150.948 6.02865 151.594 7.68358C153.899 6.43582 157.087 6.81671 158.866 8.79999C159.604 9.61432 160.104 10.6519 160.947 11.3481C161.922 12.1624 163.226 12.4251 164.346 13.0292C167.785 14.8812 168.601 20.2137 165.874 23.0113C167.166 24.0621 168.483 25.1522 169.366 26.5576C170.248 27.963 170.657 29.7886 169.998 31.3122C169.208 33.151 167.1 34.1623 166.336 36.0143C165.98 36.868 165.94 37.8268 165.598 38.6806C165.031 40.1385 163.78 41.0185 162.304 41.5964C161.422 45.3528 158.787 46.3773 158.721 47.4805C157.944 59.0913 153.148 52.3534 150.751 27.871C150.184 22.1182 152.292 19.1892 147.747 15.6561C147.101 16.326 146.64 17.1928 146.074 17.9415C143.426 21.4221 137.471 21.6322 134.586 18.3486C133.532 20.1349 131.596 21.3695 129.54 21.5665C127.472 21.7767 125.338 20.9492 123.941 19.4125C122.255 20.9098 118.343 23.4316 115.378 20.7391C115.378 20.7391 112.783 24.8764 112.309 31.2728H112.322Z" fill="#263238"/>
<path d="M128.684 58.277C129.026 59.1307 129.369 59.9976 129.935 60.7199C130.502 61.4423 131.332 62.0202 132.254 62.0596C133.242 62.1122 134.177 61.5211 134.731 60.7068C135.284 59.8925 135.469 58.8811 135.416 57.8961C135.376 57.0161 134.968 55.9522 134.085 55.8471C133.716 55.8077 133.361 55.9391 133.018 56.0835C131.477 56.714 129.922 57.3313 128.381 57.9617" fill="#EB996E"/>
<path d="M130.528 62.0859C130.555 61.9414 131.569 62.3486 133.005 61.7838C133.703 61.508 134.454 60.9564 134.876 60.0895C135.297 59.2358 135.376 58.08 134.942 57.0686C134.836 56.8191 134.691 56.5826 134.533 56.3725C134.349 56.1755 134.388 56.1886 134.178 56.2149C133.993 56.2674 133.677 56.4119 133.44 56.5038C133.176 56.6089 132.926 56.714 132.676 56.8191C131.688 57.2131 130.779 57.5677 130.028 57.8567C128.513 58.4214 127.551 58.7235 127.498 58.6185C127.459 58.5134 128.328 58.0274 129.791 57.3182C130.515 56.9635 131.398 56.5564 132.373 56.1229C132.623 56.0179 132.873 55.8997 133.124 55.7814C133.4 55.6764 133.598 55.545 133.967 55.44C134.151 55.3874 134.402 55.3611 134.652 55.4662C134.902 55.5713 135.047 55.7289 135.166 55.8734C135.376 56.1492 135.561 56.4382 135.693 56.7534C136.233 58.0143 136.101 59.4196 135.548 60.4573C134.981 61.5211 134.02 62.1122 133.19 62.3617C132.36 62.6244 131.635 62.5588 131.174 62.4405C130.713 62.3223 130.502 62.1647 130.515 62.1122L130.528 62.0859Z" fill="#263238"/>
</g>
<defs>
<clipPath id="clip0_366_18">
<rect width="75.76" height="150.52" fill="white" transform="translate(0 332)"/>
</clipPath>
<clipPath id="clip1_366_18">
<rect width="161" height="491" fill="white" transform="translate(43)"/>
</clipPath>
</defs>
</svg>
