<svg width="21" height="21" viewBox="0 0 21 21" fill="none" xmlns="http://www.w3.org/2000/svg">
<path d="M10.5013 15.2917C10.7728 15.2917 11.0006 15.1997 11.1846 15.0157C11.368 14.8324 11.4596 14.6049 11.4596 14.3334V10.4761C11.4596 10.2046 11.368 9.98098 11.1846 9.80529C11.0006 9.62959 10.7728 9.54175 10.5013 9.54175C10.2298 9.54175 10.0023 9.63343 9.81897 9.81679C9.63497 10.0008 9.54297 10.2286 9.54297 10.5001V14.3574C9.54297 14.6289 9.63497 14.8525 9.81897 15.0282C10.0023 15.2039 10.2298 15.2917 10.5013 15.2917ZM10.5013 7.62508C10.7728 7.62508 11.0006 7.53308 11.1846 7.34908C11.368 7.16572 11.4596 6.93828 11.4596 6.66675C11.4596 6.39522 11.368 6.16746 11.1846 5.98346C11.0006 5.8001 10.7728 5.70841 10.5013 5.70841C10.2298 5.70841 10.0023 5.8001 9.81897 5.98346C9.63497 6.16746 9.54297 6.39522 9.54297 6.66675C9.54297 6.93828 9.63497 7.16572 9.81897 7.34908C10.0023 7.53308 10.2298 7.62508 10.5013 7.62508ZM10.5013 20.0834C9.17561 20.0834 7.92977 19.8317 6.7638 19.3282C5.59783 18.8254 4.58359 18.1428 3.72109 17.2803C2.85859 16.4178 2.17594 15.4036 1.67314 14.2376C1.16969 13.0716 0.917969 11.8258 0.917969 10.5001C0.917969 9.17439 1.16969 7.92855 1.67314 6.76258C2.17594 5.59661 2.85859 4.58237 3.72109 3.71987C4.58359 2.85737 5.59783 2.1744 6.7638 1.67096C7.92977 1.16815 9.17561 0.916748 10.5013 0.916748C11.827 0.916748 13.0728 1.16815 14.2388 1.67096C15.4048 2.1744 16.419 2.85737 17.2815 3.71987C18.144 4.58237 18.8267 5.59661 19.3295 6.76258C19.8329 7.92855 20.0846 9.17439 20.0846 10.5001C20.0846 11.8258 19.8329 13.0716 19.3295 14.2376C18.8267 15.4036 18.144 16.4178 17.2815 17.2803C16.419 18.1428 15.4048 18.8254 14.2388 19.3282C13.0728 19.8317 11.827 20.0834 10.5013 20.0834ZM10.5013 18.1667C12.6256 18.1667 14.4346 17.4202 15.9283 15.9271C17.4214 14.4334 18.168 12.6244 18.168 10.5001C18.168 8.37578 17.4214 6.56676 15.9283 5.07304C14.4346 3.57996 12.6256 2.83341 10.5013 2.83341C8.377 2.83341 6.5683 3.57996 5.07522 5.07304C3.5815 6.56676 2.83464 8.37578 2.83464 10.5001C2.83464 12.6244 3.5815 14.4334 5.07522 15.9271C6.5683 17.4202 8.377 18.1667 10.5013 18.1667Z" fill="#FFC107"/>
</svg>
