<svg width="47" height="47" viewBox="0 0 47 47" fill="none" xmlns="http://www.w3.org/2000/svg">
<path d="M8.76562 9.5469H38.1406C38.4838 9.54674 38.8266 9.56851 39.1669 9.61208C39.0515 8.80222 38.7734 8.02412 38.3491 7.32467C37.9249 6.62523 37.3635 6.01894 36.6986 5.54236C36.0337 5.06578 35.2792 4.72877 34.4806 4.55166C33.682 4.37455 32.8557 4.36101 32.0517 4.51184L7.89355 8.63628H7.86602C6.3496 8.92626 5.00109 9.78422 4.09592 11.0349C5.45965 10.0649 7.09211 9.54474 8.76562 9.5469ZM38.1406 11.75H8.76562C7.208 11.7517 5.71466 12.3712 4.61325 13.4727C3.51184 14.5741 2.89233 16.0674 2.89062 17.625V35.25C2.89233 36.8077 3.51184 38.301 4.61325 39.4024C5.71466 40.5038 7.208 41.1233 8.76562 41.125H38.1406C39.6982 41.1233 41.1916 40.5038 42.293 39.4024C43.3944 38.301 44.0139 36.8077 44.0156 35.25V17.625C44.0139 16.0674 43.3944 14.5741 42.293 13.4727C41.1916 12.3712 39.6982 11.7517 38.1406 11.75ZM33.7803 29.375C33.1993 29.375 32.6314 29.2027 32.1483 28.88C31.6652 28.5572 31.2887 28.0984 31.0664 27.5617C30.844 27.0249 30.7859 26.4343 30.8992 25.8645C31.0126 25.2946 31.2923 24.7712 31.7031 24.3604C32.114 23.9496 32.6374 23.6698 33.2072 23.5565C33.777 23.4431 34.3676 23.5013 34.9044 23.7236C35.4412 23.946 35.8999 24.3225 36.2227 24.8055C36.5455 25.2886 36.7178 25.8565 36.7178 26.4375C36.7178 27.2166 36.4083 27.9638 35.8574 28.5147C35.3065 29.0655 34.5593 29.375 33.7803 29.375Z" fill="#AA2AE1"/>
<path d="M2.9375 23.8213V14.6875C2.9375 12.6983 4.03906 9.36328 7.8624 8.64084C11.1074 8.03223 14.3203 8.03223 14.3203 8.03223C14.3203 8.03223 16.4316 9.50098 14.6875 9.50098C12.9434 9.50098 12.9893 11.75 14.6875 11.75C16.3857 11.75 14.6875 13.9072 14.6875 13.9072L7.84863 21.6641L2.9375 23.8213Z" fill="#AA2AE1"/>
</svg>
