<svg width="30" height="30" viewBox="0 0 30 30" fill="none" xmlns="http://www.w3.org/2000/svg">
<path d="M10.8751 25.6564C10.8561 25.6207 10.8468 25.5806 10.848 25.5401C10.8491 25.4997 10.8608 25.4602 10.8817 25.4256C10.9026 25.391 10.9322 25.3623 10.9675 25.3425C11.0028 25.3227 11.0426 25.3124 11.0831 25.3125H11.5144L11.0831 25.5445L11.0823 25.545L11.0814 25.5454L11.0806 25.5459L11.0789 25.5468L10.8751 25.6564ZM10.8751 25.6564C10.9388 25.7749 11.0074 25.8902 11.0807 26.0022C11.0815 26.0034 11.0823 26.0047 11.0831 26.0059C11.1459 26.1018 11.2122 26.1952 11.2818 26.286C11.3427 26.2696 11.4016 26.2456 11.4571 26.2144C11.5724 26.1497 11.669 26.0562 11.7374 25.9431C11.8058 25.8299 11.8438 25.701 11.8476 25.5689C11.8501 25.4816 11.8376 25.395 11.8111 25.3125H11.5254L11.0831 25.5464L11.0823 25.5469L10.8751 25.6564ZM12.6958 26.3125C12.3498 26.0347 12.0558 25.6962 11.829 25.3125H18.1753C17.9484 25.6962 17.6545 26.0347 17.3084 26.3125M12.6958 26.3125H11.3022C11.6579 26.7702 12.0967 27.1598 12.5981 27.4597C13.3246 27.8943 14.1552 28.1242 15.0018 28.125M12.6958 26.3125C12.8271 26.4179 12.9659 26.5145 13.1114 26.6015C13.6829 26.9434 14.3361 27.1242 15.0019 27.125M12.6958 26.3125H17.3084M15.0018 28.125C15.8485 28.1243 16.6793 27.8945 17.4059 27.4599C17.9073 27.16 18.3463 26.7703 18.7021 26.3125H17.3084M15.0018 28.125L15.0028 27.125C15.0025 27.125 15.0022 27.125 15.0019 27.125M15.0018 28.125L15.001 27.125C15.0013 27.125 15.0016 27.125 15.0019 27.125M17.3084 26.3125C17.177 26.4179 17.0382 26.5146 16.8926 26.6017C16.3211 26.9435 15.6678 27.1243 15.0019 27.125M18.4788 25.3125L18.9217 25.5467L18.922 25.5469L19.1291 25.6564L18.9253 25.5468L18.9236 25.5459L18.9228 25.5454L18.922 25.545L18.9217 25.5449L18.4898 25.3125H18.9217C18.9622 25.3125 19.0019 25.3229 19.0371 25.3427C19.0723 25.3626 19.1018 25.3912 19.1227 25.4258C19.1436 25.4605 19.1551 25.4999 19.1563 25.5403C19.1574 25.5807 19.1481 25.6207 19.1292 25.6564C19.0651 25.7755 18.9961 25.8914 18.9224 26.004C18.9222 26.0043 18.922 26.0046 18.9217 26.005C18.8587 26.1012 18.7922 26.195 18.7225 26.286C18.6611 26.2695 18.6017 26.2452 18.5458 26.2137L18.9217 25.5473L18.5458 26.2137C18.4308 26.1489 18.3345 26.0553 18.2663 25.9423C18.1982 25.8292 18.1604 25.7004 18.1567 25.5684C18.1542 25.4813 18.1666 25.3948 18.1931 25.3125H18.4788ZM24.7305 20.2884L24.7314 20.2894C24.7603 20.3243 24.8079 20.3821 24.858 20.443C24.9162 20.5137 24.9778 20.5885 25.0175 20.6363C25.1468 20.7926 25.2287 20.9826 25.2533 21.1839C25.2779 21.3852 25.2444 21.5894 25.1565 21.7722L25.1558 21.7737C24.9666 22.1692 24.5622 22.4357 24.0546 22.4357H5.95553C5.44089 22.4357 5.03441 22.1664 4.84743 21.7724L4.84605 21.7695C4.75861 21.5868 4.72535 21.3829 4.7502 21.1818C4.77504 20.9808 4.85696 20.7911 4.98625 20.6352L4.98629 20.6352L4.99212 20.628C5.07423 20.5271 5.15499 20.4298 5.2378 20.3299L5.27285 20.2876L5.27306 20.2874L5.30325 20.2509C5.93272 19.4913 6.54588 18.7513 6.96143 17.605C7.37597 16.4616 7.57194 14.9863 7.57194 12.7354C7.57194 10.8622 7.94693 9.40309 8.63928 8.27802C9.32603 7.16203 10.3733 6.2958 11.8616 5.68311L11.9167 5.66042L11.9687 5.63135C12.0838 5.56706 12.1873 5.484 12.275 5.38559L12.4228 5.21966L12.4865 5.00672C12.8918 3.65086 13.9468 2.875 15.0018 2.875C16.0568 2.875 17.1123 3.65078 17.5177 5.00821L17.5784 5.2115L17.7164 5.37263C17.8071 5.47848 17.9159 5.56741 18.0378 5.63522L18.0891 5.66377L18.1434 5.68612C19.4235 6.21278 20.3437 6.90212 21.0138 7.7782L21.0143 7.77893C21.9236 8.96558 22.4323 10.6074 22.4323 12.7371C22.4323 14.9874 22.6286 16.4622 23.0433 17.6056C23.4583 18.7499 24.0702 19.4898 24.6978 20.2488L24.7305 20.2884Z" stroke="#AA2AE1" stroke-width="2"/>
</svg>
