<svg width="41" height="35" viewBox="0 0 41 35" fill="none" xmlns="http://www.w3.org/2000/svg">
<g clip-path="url(#clip0_2189_4573)">
<path d="M3.30469 14.2531L36.3256 0L17.0623 19.0724L11.4089 20.1216L3.30469 14.2531Z" fill="#C364EA"/>
<path d="M21.9313 32.6977L36.3245 0L17.0612 19.0724L16.0039 24.6728L21.9313 32.6977Z" fill="#AA2AE1"/>
<path d="M5.11423 22.9604L1.39453 26.643" stroke="#AA2AE1" stroke-width="1.5" stroke-linecap="round"/>
<path d="M13.8369 30.3789L10.1172 34.0622" stroke="#AA2AE1" stroke-width="1.5" stroke-linecap="round"/>
<path d="M11.9779 24.3896L3.25391 33.0283" stroke="#AA2AE1" stroke-width="1.5" stroke-linecap="round"/>
<path d="M32.1081 26.7094C36.584 26.7094 40.2124 23.1166 40.2124 18.6846C40.2124 14.2525 36.584 10.6597 32.1081 10.6597C27.6323 10.6597 24.0039 14.2525 24.0039 18.6846C24.0039 23.1166 27.6323 26.7094 32.1081 26.7094Z" fill="#AA2AE1" stroke="white" stroke-width="2" stroke-miterlimit="10"/>
<path d="M31.8536 18.0182C30.8506 17.7285 30.528 17.4291 30.528 16.9626C30.528 16.4275 30.9743 16.0544 31.721 16.0544C32.3485 16.0544 32.6622 16.3195 32.7771 16.7417C32.8301 16.9381 32.9759 17.0854 33.1615 17.0854H33.294C33.5857 17.0854 33.7933 16.7663 33.6917 16.4619C33.5061 15.8825 33.0731 15.4014 32.3838 15.2148V14.8761C32.3838 14.4686 32.0878 14.1396 31.721 14.1396C31.3543 14.1396 31.0582 14.4686 31.0582 14.8761V15.2001C30.201 15.4063 29.5117 16.0249 29.5117 16.9725C29.5117 18.1066 30.3557 18.6712 31.5885 19.0001C32.6931 19.2947 32.914 19.7267 32.914 20.1833C32.914 20.5221 32.6975 21.0621 31.721 21.0621C30.992 21.0621 30.6164 20.7725 30.4706 20.3601C30.4043 20.1686 30.254 20.0311 30.0729 20.0311H29.9492C29.6531 20.0311 29.4454 20.365 29.5559 20.6694C29.8078 21.3518 30.3954 21.7544 31.0582 21.9115V22.2404C31.0582 22.6479 31.3543 22.9769 31.721 22.9769C32.0878 22.9769 32.3838 22.6479 32.3838 22.2404V21.9213C33.2454 21.7396 33.9303 21.1849 33.9303 20.1784C33.9303 18.7841 32.8566 18.3079 31.8536 18.0182Z" fill="white" stroke="white" stroke-width="0.3"/>
</g>
<defs>
<clipPath id="clip0_2189_4573">
<rect width="41" height="35" fill="white"/>
</clipPath>
</defs>
</svg>
