<svg width="25" height="25" viewBox="0 0 25 25" fill="none" xmlns="http://www.w3.org/2000/svg">
<path d="M12.4998 12.5002C13.0728 12.5002 13.5634 12.296 13.9717 11.8877C14.3794 11.48 14.5832 10.9897 14.5832 10.4168C14.5832 9.84391 14.3794 9.35329 13.9717 8.94495C13.5634 8.53732 13.0728 8.3335 12.4998 8.3335C11.9269 8.3335 11.4366 8.53732 11.029 8.94495C10.6207 9.35329 10.4165 9.84391 10.4165 10.4168C10.4165 10.9897 10.6207 11.48 11.029 11.8877C11.4366 12.296 11.9269 12.5002 12.4998 12.5002ZM12.4998 22.5262C12.3609 22.5262 12.2221 22.5002 12.0832 22.4481C11.9443 22.396 11.8228 22.3266 11.7186 22.2397C9.18386 20.0002 7.2915 17.9213 6.0415 16.0033C4.7915 14.0845 4.1665 12.2918 4.1665 10.6252C4.1665 8.021 5.00435 5.94634 6.68005 4.4012C8.35505 2.85607 10.295 2.0835 12.4998 2.0835C14.7047 2.0835 16.6446 2.85607 18.3196 4.4012C19.9953 5.94634 20.8332 8.021 20.8332 10.6252C20.8332 12.2918 20.2082 14.0845 18.9582 16.0033C17.7082 17.9213 15.8158 20.0002 13.2811 22.2397C13.1769 22.3266 13.0554 22.396 12.9165 22.4481C12.7776 22.5002 12.6387 22.5262 12.4998 22.5262Z" fill="white"/>
</svg>
