<svg width="30" height="30" viewBox="0 0 30 30" fill="none" xmlns="http://www.w3.org/2000/svg">
<path d="M7.46154 3H18.5385C19.1913 3 19.8174 3.25286 20.279 3.70294C20.7407 4.15303 21 4.76348 21 5.4V6.6C21 6.91826 20.8703 7.22348 20.6395 7.44853C20.4087 7.67357 20.0957 7.8 19.7692 7.8C19.4428 7.8 19.1298 7.67357 18.8989 7.44853C18.6681 7.22348 18.5385 6.91826 18.5385 6.6V5.4H7.46154V24.6H18.5385V23.4C18.5385 23.0817 18.6681 22.7765 18.8989 22.5515C19.1298 22.3264 19.4428 22.2 19.7692 22.2C20.0957 22.2 20.4087 22.3264 20.6395 22.5515C20.8703 22.7765 21 23.0817 21 23.4V24.6C21 25.2365 20.7407 25.847 20.279 26.2971C19.8174 26.7471 19.1913 27 18.5385 27H7.46154C6.8087 27 6.1826 26.7471 5.72097 26.2971C5.25934 25.847 5 25.2365 5 24.6V5.4C5 4.76348 5.25934 4.15303 5.72097 3.70294C6.1826 3.25286 6.8087 3 7.46154 3Z" fill="#AA2AE1"/>
<path d="M20.531 20.648C21.0078 21.1173 21.7781 21.1173 22.255 20.648L26.642 16.33C26.8712 16.1043 27 15.7983 27 15.4792C27 15.16 26.8712 14.854 26.642 14.6283L22.255 10.3103C22.0225 10.1036 21.7183 9.9926 21.4051 10.0004C21.0919 10.0082 20.7937 10.1341 20.5722 10.3521C20.3507 10.5702 20.2227 10.8637 20.2148 11.1719C20.2069 11.4802 20.3197 11.7796 20.5297 12.0084L22.8235 14.2757H12.2227C11.8984 14.2757 11.5874 14.4025 11.3581 14.6282C11.1288 14.8539 11 15.16 11 15.4792C11 15.7983 11.1288 16.1044 11.3581 16.3301C11.5874 16.5558 11.8984 16.6826 12.2227 16.6826H22.8235L20.5297 18.9499C20.3015 19.1755 20.1734 19.4809 20.1737 19.7992C20.1739 20.1175 20.3024 20.4228 20.531 20.648Z" fill="#AA2AE1"/>
</svg>
