<svg width="50" height="50" viewBox="0 0 50 50" fill="none" xmlns="http://www.w3.org/2000/svg">
<path d="M44.2454 43.2395H20.7533C19.2336 43.2395 18 42.076 18 40.6399V8.84032C18 7.40549 19.2324 6.24072 20.7533 6.24072H37.0464C37.7748 6.24072 38.4729 6.51318 38.9895 6.99859L46.1898 13.7718C46.7077 14.2596 47 14.9223 47 15.6136V40.6411C47 42.076 45.7676 43.2407 44.2467 43.2407L44.2454 43.2395Z" fill="white" stroke="#AA2AE1" stroke-width="3" stroke-miterlimit="10"/>
<path d="M37.9258 6V12.2831C37.9258 14.009 39.2796 15.4078 40.9499 15.4078H46.6791" stroke="#AA2AE1" stroke-width="3" stroke-miterlimit="10"/>
<path d="M16.5 39.2407C23.4036 39.2407 29 33.6443 29 26.7407C29 19.8372 23.4036 14.2407 16.5 14.2407C9.59644 14.2407 4 19.8372 4 26.7407C4 33.6443 9.59644 39.2407 16.5 39.2407Z" fill="white" stroke="#AA2AE1" stroke-width="3" stroke-miterlimit="10"/>
<path d="M16 20.2407V26.6062L13 30.2407" stroke="#AA2AE1" stroke-width="3" stroke-miterlimit="10" stroke-linecap="round"/>
<path d="M36.9688 26.7725H40.9687" stroke="#AA2AE1" stroke-width="3" stroke-miterlimit="10" stroke-linecap="round"/>
<path d="M34 33.2407H41" stroke="#AA2AE1" stroke-width="3" stroke-miterlimit="10" stroke-linecap="round"/>
<path d="M34 20.2407H41" stroke="#AA2AE1" stroke-width="3" stroke-miterlimit="10" stroke-linecap="round"/>
</svg>
