<svg width="103" height="102" viewBox="0 0 103 102" fill="none" xmlns="http://www.w3.org/2000/svg">
<g clip-path="url(#clip0_2270_3014)">
<path fill-rule="evenodd" clip-rule="evenodd" d="M52.3328 2.47363C79.8107 2.47363 102.095 24.7582 102.095 52.2361C102.095 79.7141 79.8107 101.999 52.3328 101.999C24.8548 101.999 2.57031 79.7153 2.57031 52.2361C2.57031 24.7569 24.8548 2.47363 52.3328 2.47363ZM52.3328 13.4238C73.7479 13.4238 91.1195 30.7967 91.1195 52.2361C91.1195 73.6756 73.7466 91.0228 52.3328 91.0228C30.9189 91.0228 13.5205 73.6768 13.5205 52.2361C13.5205 30.7954 30.8933 13.4238 52.3328 13.4238Z" fill="white"/>
<path fill-rule="evenodd" clip-rule="evenodd" d="M52.345 21.7646C69.1878 21.7646 82.8307 35.4012 82.8307 52.2362C82.8307 69.0713 69.1878 82.7078 52.345 82.7078C35.5023 82.7078 21.8594 69.0713 21.8594 52.2362C21.8594 35.4012 35.5023 21.7646 52.345 21.7646ZM52.345 28.4677C65.4758 28.4677 76.0995 39.1106 76.0995 52.2362C76.0995 65.3619 65.4771 76.0048 52.345 76.0048C39.213 76.0048 28.565 65.3619 28.565 52.2362C28.565 39.1106 39.213 28.4677 52.345 28.4677Z" fill="white"/>
<path fill-rule="evenodd" clip-rule="evenodd" d="M52.3295 34.5317C62.1029 34.5317 70.0339 42.4627 70.0339 52.2362C70.0339 62.0097 62.1029 69.9406 52.3295 69.9406C42.556 69.9406 34.625 62.0097 34.625 52.2362C34.625 42.4627 42.556 34.5317 52.3295 34.5317ZM52.3295 38.4204C59.9544 38.4204 66.1453 44.6125 66.1453 52.2362C66.1453 59.8598 59.9531 66.052 52.3295 66.052C44.7058 66.052 38.5137 59.8598 38.5137 52.2362C38.5137 44.6125 44.7058 38.4204 52.3295 38.4204Z" fill="white"/>
<path d="M52.6632 48.8088C52.6632 48.7832 52.6376 48.7576 52.6376 48.7576L36.9281 33.048V23.1977C36.9281 22.4563 36.6464 21.7649 36.1355 21.2527L19.6334 4.57133C18.8408 3.77874 17.6628 3.54827 16.6397 3.95672C15.6167 4.39207 14.9508 5.38952 14.9508 6.51501V14.7533H6.5077C5.38221 14.7533 4.38476 15.4191 3.97502 16.4678C3.53968 17.4908 3.77015 18.6675 4.56402 19.4614L21.2454 36.1428C21.7576 36.655 22.4477 36.9354 23.1904 36.9354H33.0407L48.7502 52.6449C48.7502 52.6449 48.7758 52.6705 48.8015 52.6705C49.8757 53.6936 51.4878 53.7192 52.5877 52.6705C53.7132 51.5707 53.6876 49.8818 52.6645 48.8075L52.6632 48.8088Z" stroke="white" stroke-width="6" stroke-linecap="round" stroke-linejoin="round"/>
<path fill-rule="evenodd" clip-rule="evenodd" d="M52.6632 48.8088C52.6632 48.7832 52.6376 48.7576 52.6376 48.7576L36.9281 33.048V23.1977C36.9281 22.4563 36.6464 21.7649 36.1355 21.2527L19.6334 4.57133C18.8408 3.77874 17.6628 3.54827 16.6397 3.95672C15.6167 4.39207 14.9508 5.38952 14.9508 6.51501V14.7533H6.5077C5.38221 14.7533 4.38476 15.4191 3.97502 16.4678C3.53968 17.4908 3.77015 18.6675 4.56402 19.4614L21.2454 36.1428C21.7576 36.655 22.4477 36.9354 23.1904 36.9354H33.0407L48.7502 52.6449C48.7502 52.6449 48.7758 52.6705 48.8015 52.6705C49.8757 53.6936 51.4878 53.7192 52.5877 52.6705C53.7132 51.5707 53.6876 49.8818 52.6645 48.8075L52.6632 48.8088Z" fill="#AA2AE1"/>
</g>
<defs>
<clipPath id="clip0_2270_3014">
<rect width="103" height="102" fill="white"/>
</clipPath>
</defs>
</svg>
