<svg width="40" height="40" viewBox="0 0 40 40" fill="none" xmlns="http://www.w3.org/2000/svg">
<path d="M20 39H1.00401V19.996C1.00401 9.55168 9.55569 1 20 1C30.4483 1 39 9.55168 39 20C39 30.4483 30.4483 39 20 39Z" fill="#AA2AE1" stroke="#AA2AE1" stroke-width="2"/>
<path d="M15.736 23.568V22.192L21.112 14.48H23.32V21.984H24.808V23.568H23.32V26H21.528V23.568H15.736ZM21.608 16.336L17.832 21.984H21.608V16.336Z" fill="white"/>
<path opacity="0.1" d="M19.8965 0C8.95283 0 0 8.9994 0 20V40L34 5.92741C30.3893 2.27391 25.3943 0 19.8965 0Z" fill="#AA2AE1"/>
</svg>
