<svg width="82" height="107" viewBox="0 0 82 107" fill="none" xmlns="http://www.w3.org/2000/svg">
<path d="M76.6949 48.9376L76.6971 48.9403C77.7252 50.2163 78.2691 51.0702 78.4429 51.7202L78.4694 51.8429C78.5088 52.0249 78.5037 52.1352 78.4924 52.2029L78.4902 52.2165C78.475 52.3108 78.4076 52.5152 78.138 52.789C77.8625 53.0687 77.4589 53.3295 77.002 53.4951C75.8783 53.9023 74.5414 53.9402 72.5135 53.9319C72.513 53.9319 72.5125 53.9319 72.5119 53.9319L25.8912 53.7204L22.4199 53.7047L22.3756 57.1758L22.1285 76.5495L22.1284 76.558C22.128 76.5934 22.1274 76.6319 22.1268 76.6733C22.117 77.3596 22.0957 78.8415 22.7282 80.2641L22.7315 80.2713C23.3747 81.7092 24.4298 82.6242 25.2841 83.2069C25.9616 83.6691 26.7365 84.0608 27.2383 84.3145C27.327 84.3594 27.4072 84.3999 27.4768 84.4358C32.7724 87.1664 36.494 92.8569 36.8676 98.7882C37.0069 101.02 36.4981 102.302 35.9124 102.789C35.2658 103.319 34.1054 103.508 31.5827 103.508C27.4791 103.5 23.3755 103.493 19.2725 103.486L19.2623 103.486L19.1769 103.486C15.0988 103.479 11.0212 103.473 6.94367 103.465C5.5199 103.46 5.01013 103.394 4.69033 103.24L4.68786 103.239C4.49905 103.148 4.20367 102.915 3.92961 102.229C3.64782 101.523 3.49416 100.571 3.50017 99.5523L3.50018 99.5496C3.53256 93.2409 7.45498 87.0166 13.1349 84.2579L13.1433 84.2538C13.1906 84.2307 13.2453 84.2043 13.3063 84.175C13.7085 83.9814 14.3815 83.6576 14.9808 83.2635C15.7203 82.7773 16.6698 81.991 17.2834 80.7302C17.94 79.382 17.9336 77.9711 17.931 77.3751C17.9308 77.3413 17.9307 77.3102 17.9307 77.2818C17.9503 63.9196 17.9659 50.5537 17.9816 37.1922L17.9817 37.1585C17.9817 37.1582 17.9817 37.1579 17.9817 37.1576C17.9876 33.0042 17.9925 28.8499 17.9974 24.6961C18.0023 20.5419 18.0072 16.3881 18.0131 12.2354V12.2347C18.014 11.4401 17.9738 10.6099 17.9379 9.86813C17.9329 9.76488 17.928 9.66335 17.9233 9.56386C17.8827 8.70581 17.8537 7.94302 17.8726 7.21932C17.9112 5.73833 18.1494 4.83724 18.5445 4.23847L18.5454 4.23716C18.6965 4.00803 19.0545 3.71268 19.6156 3.57066C20.1761 3.42878 20.6271 3.51875 20.8663 3.64783L20.8671 3.64826C21.4093 3.94076 21.9136 4.49678 22.2538 5.36861L22.2542 5.36962C22.3634 5.64928 22.4069 5.87408 22.4155 6.42675C22.4175 6.55255 22.4161 6.73369 22.4143 6.95598C22.4095 7.58192 22.402 8.5342 22.4602 9.49652L22.6597 12.7976L25.9668 12.7854C41.8373 12.7267 57.7079 12.7423 73.5785 12.8323C75.0422 12.8414 76.3707 12.9736 77.35 13.3007C78.2967 13.617 78.421 13.9299 78.4569 14.0293L78.4572 14.0301C78.4942 14.1327 78.5673 14.4232 78.2567 15.1461C77.9321 15.9016 77.346 16.7533 76.5744 17.7225C72.9754 22.2421 69.2722 26.6754 65.4609 31.0188L63.4241 33.34L65.4734 35.65C69.3195 39.9854 73.0613 44.4185 76.6949 48.9376Z" stroke="white" stroke-width="7"/>
</svg>
