<svg width="396" height="247" viewBox="0 0 396 247" fill="none" xmlns="http://www.w3.org/2000/svg">
<g clip-path="url(#clip0_659_1513)">
<path d="M15 119.78C12.4266 118.287 9.48309 117.346 6.46193 117.059C5.06479 116.926 3.54227 116.965 2.42575 117.745C2.18693 117.911 1.95407 118.154 2.00781 118.43C2.0496 118.63 2.22872 118.773 2.40187 118.901C5.8768 121.356 11.131 121.666 15 119.786" fill="#E0E0E0"/>
<path d="M15 119C13.082 117.533 11.1581 116.06 9.53025 114.286C7.90826 112.512 6.58818 110.407 6.10277 108.076C5.95478 107.368 5.90742 106.557 6.37507 106C10.7319 109.334 14.1594 113.648 15 119Z" fill="#E0E0E0"/>
<path d="M15.2972 119.514C14.9467 117.236 14.8192 114.896 15.4055 112.658C15.9918 110.42 17.3683 108.277 19.5222 107C20.3315 108.679 19.9874 110.617 19.4139 112.375C18.5281 115.088 17.1452 117.677 15.329 120" fill="#E0E0E0"/>
<path d="M20 127C17.3278 127.311 14.9972 128.665 13.0022 130.4C11.0072 132.135 9.58569 134.474 9 137C11.6234 136.842 13.8441 135.066 15.4609 133.079C17.0715 131.086 18.1941 128.899 19.9634 127.035" fill="#E0E0E0"/>
<path d="M20.1972 129C18.0542 123.804 18.8313 117.538 22.1824 113C23.7002 118.309 23.1416 124.306 20.1972 129Z" fill="#E0E0E0"/>
<path d="M25.9459 135.024C23.5515 134.872 21.1211 135.447 19.0457 136.652C16.9702 137.856 15.2557 139.684 14.1789 141.839C14.0345 142.129 13.9021 142.504 14.1006 142.765C14.2691 142.995 14.6 143.013 14.8827 142.995C17.1988 142.843 19.2562 141.439 20.9527 139.841C22.6492 138.244 24.1231 136.398 26 135.012" fill="#E0E0E0"/>
<path d="M25.0583 135C23.7331 131.127 23.649 126.899 24.8256 122.985C25.291 121.438 26.0668 119.808 27.6312 119.088C27.767 119.029 27.9222 118.97 28.0579 119.017C28.1937 119.064 28.2648 119.188 28.3294 119.306C28.8854 120.369 29.047 121.574 28.9888 122.755C28.9306 123.93 28.6656 125.093 28.4005 126.244C27.9092 128.375 27.6442 130.666 26.3642 132.508C26.0603 132.945 25.7953 133.418 25.5496 133.884C25.304 134.351 25.304 134.516 25.0842 134.888" fill="#E0E0E0"/>
<path d="M40.3685 137C39.3864 132.876 40.4263 127.871 42.7844 124.489C42.9577 124.24 43.1888 123.973 43.4724 124.002C43.9083 124.049 44.0186 124.687 43.9976 125.162C43.8295 129.379 42.5533 133.532 40.3685 137Z" fill="#E0E0E0"/>
<path d="M41 137.474C46.033 138.822 51.8117 137.51 56 134.333C53.5184 133.038 50.5942 132.666 47.8796 133.307C45.1651 133.943 42.6893 135.196 41 137.474Z" fill="#E0E0E0"/>
<path d="M42 135C44.8994 130.328 50.4587 127.278 56 127C55.359 129.226 53.5079 130.956 51.4232 132.004C49.3385 133.052 47.0021 133.508 44.7018 133.946C43.8092 134.118 42.5811 134.307 42 135Z" fill="#E0E0E0"/>
<path d="M40.0867 121.734C40.9003 119.14 41.72 116.522 41.9436 113.824C42.1672 111.131 41.7511 108.317 40.2482 106C37.4411 111.056 37.1555 116.961 39.9998 122" fill="#E0E0E0"/>
<path d="M49 116.997C52.136 111.241 58.5324 106.641 65 106C62.5043 112.283 55.6928 117.135 49 116.997Z" fill="#E0E0E0"/>
<path d="M47 117.933C51.6155 118.641 55.5466 121.612 59.8579 123.41C60.7821 123.793 61.7766 124.099 62.7652 123.97C63.7538 123.84 64.7308 123.168 64.9531 122.189C65.1344 121.376 64.7717 120.509 64.1867 119.914C63.6076 119.318 62.8413 118.947 62.0749 118.623C57.3776 116.654 52.3409 116.601 47.3978 117.798" fill="#E0E0E0"/>
<path d="M45 121.228C46.0406 121.533 46.3953 122.09 47.215 122.809C50.0055 125.258 53.3482 127.024 56.9003 127.934C57.2724 128.03 57.7549 128.066 57.9409 127.724C58.1037 127.425 57.9002 127.06 57.691 126.79C56.2027 124.868 54.0749 123.557 51.8425 122.701C49.6043 121.845 47.6684 120.809 45 121.03" fill="#E0E0E0"/>
<path d="M42 101.464C45.7694 104.713 51.0854 106.378 56.2191 105.927C56.4543 105.906 56.7072 105.873 56.8659 105.711C57.2247 105.353 56.7954 104.799 56.3779 104.496C52.1968 101.491 47.1337 100.244 42 101.464Z" fill="#E0E0E0"/>
<path d="M45 101.052C50.0593 97.127 56.992 95.9482 63 97.9787C60.7328 100.287 57.5887 101.534 54.4206 101.873C51.2526 102.213 48.0845 101.848 45 101.052Z" fill="#E0E0E0"/>
<path d="M43 91C42.6559 87.0065 42.882 83.8567 42.6363 79.852C42.6166 79.5314 42.5576 79.1489 42.2971 79.0308C41.9334 78.8677 41.6286 79.3852 41.5107 79.807C40.4736 83.5024 41.0388 87.7433 43 90.9156" fill="#E0E0E0"/>
<path d="M43 91.9942C45.7772 90.2637 47.8616 87.9972 49.7843 85.3404C51.1239 83.4875 52.2556 81.2735 51.9496 79.0011C50.0673 78.9604 48.2773 80.0091 47.0533 81.4541C45.8292 82.8991 45.1017 84.6994 44.559 86.5231C44.0162 88.341 43.6351 90.2113 43 92" fill="#E0E0E0"/>
<path d="M50.0935 90C56.261 87.8059 62.0193 84.5373 67 80.4023C64.9773 79.6203 62.6682 80.0872 60.6455 80.8749C56.033 82.6695 52.2624 85.6906 50 89.955" fill="#E0E0E0"/>
<path d="M45.0059 93.6648C48.1614 93.9885 51.3642 94.2006 54.4961 93.7094C57.5748 93.2238 60.4821 92.074 63.354 90.9298C63.5904 90.8349 63.8504 90.7233 63.9568 90.5001C64.069 90.2601 63.9509 89.9642 63.7381 89.7856C63.5313 89.607 63.2536 89.5233 62.9817 89.4507C59.8558 88.6247 56.4816 89.0098 53.4088 89.9921C50.336 90.9745 47.8128 92.1354 45 93.6704" fill="#E0E0E0"/>
<path d="M27.7242 101.783C25.3791 97.474 25.5273 92.4439 27.5567 88C28.987 89.9816 29.1609 92.4967 28.8968 94.8534C28.6326 97.2102 27.8466 99.6315 27.7951 102" fill="#E0E0E0"/>
<path d="M18.7684 98.003C13.6271 97.9068 8.49153 100.099 5 103.882C7.56497 104.284 10.2034 103.621 12.5367 102.483C14.8701 101.339 16.9435 99.7361 19 98.1503" fill="#E0E0E0"/>
<path d="M13 96.2286C10.4771 96.0361 8.05059 95.742 5.62407 96.4425C3.19756 97.143 0.99215 98.7365 0 100.94C2.35848 101.191 4.75098 100.635 6.9167 99.7097C9.07676 98.7846 11.044 97.5066 13 96.2339" fill="#E0E0E0"/>
<path d="M21.7178 95.6138C19.4605 94.2279 17.1411 92.8155 14.5113 92.2389C11.8815 91.6623 8.83409 92.0908 7 93.9475C9.12754 95.1166 11.7122 95.2594 14.1783 95.2541C16.6445 95.2541 19.6749 95.2277 22 96" fill="#E0E0E0"/>
<path d="M21.8352 96C17.5764 92.1573 15.9576 85.2552 17.6761 80C21.0258 84.6719 22.5263 90.4417 21.8352 96Z" fill="#E0E0E0"/>
<path d="M33 84.9648C33.7762 83.2024 34.3237 81.352 35.0217 79.5603C35.7196 77.7686 36.586 76.0005 37.8977 74.5789C39.2154 73.1573 41.0325 72.094 43 72C41.7726 77.4338 38.0782 82.286 33.1023 85" fill="#E0E0E0"/>
<path d="M30 87C28.791 85.2927 27.4011 82.9757 25.7627 81.704C24.1243 80.4322 21.9944 79.6599 20 80.1477C22.0282 83.8816 25.8701 86.5122 30 87Z" fill="#E0E0E0"/>
<path d="M30.9469 84.953C30.1956 82.8617 29.4389 80.7528 29.133 78.5323C28.8272 76.3118 29.015 73.9385 30.0507 72C32.0684 76.1708 32.7177 80.6471 31.0488 85" fill="#E0E0E0"/>
<path d="M33.0059 71.994C34.2644 67.7868 38.0696 64.6912 42.182 63.2689C42.702 63.0896 43.2515 62.9402 43.7892 63.0239C44.3269 63.1075 44.8586 63.484 44.9768 64.0279C45.1245 64.745 44.5396 65.3844 43.9901 65.8625C40.7876 68.6295 37.0238 70.7331 33 72" fill="#E0E0E0"/>
<path d="M33.0615 69.1057C33.2123 66.399 33.3687 63.6566 34.1955 61.093C35.0223 58.5294 36.6088 56.1268 38.9215 55C39.3126 57.7305 38.1841 60.4491 36.8211 62.8041C35.458 65.153 33.8156 67.3768 33 70" fill="#E0E0E0"/>
<path d="M33 70C31.9334 67.09 31.8243 63.3914 29.9637 60.8558C28.6607 59.0859 26.5759 57.8776 25.4548 56C24.7093 57.7528 24.9396 59.7723 25.7154 61.5138C26.4972 63.2553 27.782 64.7528 29.1577 66.1313C30.5334 67.5097 31.7152 68.5421 32.9939 70" fill="#E0E0E0"/>
<path d="M33.1515 159C33.0699 159 33 139.077 33 114.503C33 89.9227 33.0524 70 33.134 70C33.2156 70 33.2855 89.9227 33.2855 114.503C33.2855 139.077 33.2331 159 33.1515 159Z" fill="#E0E0E0"/>
<path d="M50 99.0143C50 99.0143 49.7447 99.129 49.268 99.2897C48.746 99.4676 48.0708 99.6971 47.2594 99.9725C45.5629 100.558 43.2365 101.401 40.7116 102.446C38.2093 103.53 35.8546 104.414 34.5098 105.59C33.8403 106.17 33.4544 106.801 33.2615 107.26C33.0686 107.719 33.0346 108.006 33.0062 108C32.9948 108 33.0005 107.925 33.0119 107.793C33.0346 107.661 33.0686 107.461 33.1537 107.22C33.3183 106.738 33.6927 106.06 34.368 105.441C35.0432 104.821 35.9851 104.259 37.0575 103.748C38.1355 103.237 39.3271 102.71 40.5924 102.182C43.1287 101.132 45.4721 100.311 47.1857 99.7774C48.0424 99.5077 48.7404 99.3069 49.2227 99.1749C49.7106 99.0487 49.9773 98.9856 49.983 99.0028L50 99.0143Z" fill="#E0E0E0"/>
<path d="M56 85.0004C56 85.0004 55.9353 85.089 55.7882 85.2247C55.6176 85.3841 55.4057 85.5849 55.141 85.8328C54.5408 86.3818 53.723 87.1257 52.7286 88.029C50.6457 89.8886 47.8215 92.4154 44.7031 95.2019C41.567 98.0002 38.8604 100.675 36.9835 102.688C36.0421 103.691 35.3007 104.524 34.8006 105.108C34.5652 105.38 34.3711 105.598 34.2181 105.775C34.0828 105.929 34.0063 106.006 34.0004 106C33.9945 105.994 34.0534 105.905 34.171 105.74C34.2946 105.575 34.4711 105.333 34.7123 105.037C35.1889 104.429 35.9126 103.579 36.8305 102.552C38.6722 100.497 41.3669 97.7936 44.5089 94.9894C47.6509 92.197 50.5163 89.6879 52.5933 87.8814C53.6112 87.0017 54.4526 86.2815 55.0645 85.7502C55.341 85.5199 55.5646 85.331 55.747 85.1834C55.9059 85.0535 55.9941 84.9945 56 85.0004Z" fill="#E0E0E0"/>
<path d="M41.0061 97.9994C40.9345 97.9639 41.5024 96.4459 42.0703 94.5263C42.6433 92.6067 42.9145 90.9883 42.9861 91.0001C43.0526 91.006 42.8889 92.6775 42.3108 94.6208C42.0243 95.5895 41.7122 96.4459 41.4615 97.0484C41.2159 97.6568 41.0368 98.0171 41.0061 97.9994Z" fill="#E0E0E0"/>
<path d="M32.9872 110C32.9872 110 32.7938 109.808 32.4916 109.43C32.1531 109.004 31.73 108.457 31.2223 107.809C30.1524 106.441 28.6776 104.55 27.0275 102.479C25.3714 100.408 23.8543 98.5538 22.7482 97.2093C22.2284 96.5731 21.7932 96.0329 21.4486 95.6128C21.1464 95.2346 20.9832 95.0185 21.0014 95.0005C21.0195 94.9885 21.2069 95.1806 21.5393 95.5347C21.8717 95.8889 22.3372 96.417 22.9114 97.0713C24.0537 98.3798 25.6011 100.216 27.2633 102.293C28.9194 104.364 30.37 106.279 31.3976 107.683C31.9113 108.385 32.3163 108.956 32.5943 109.358C32.8663 109.76 33.0114 109.988 32.9993 110H32.9872Z" fill="#E0E0E0"/>
<path d="M28.9889 104.994C28.9422 105.046 27.9205 103.839 27.3834 102.012C26.9864 100.723 26.9689 99.5397 27.0215 99.0058L27.1499 99.0174C27.0915 99.2495 27.0506 99.3714 27.0273 99.3656C27.0039 99.3656 27.0039 99.2321 27.0273 99L27.1557 99.0116C27.2024 99.5455 27.2842 100.683 27.6695 101.936C28.1891 103.712 29.0765 104.954 28.9947 105L28.9889 104.994Z" fill="#E0E0E0"/>
<path d="M24 98.9952C23.9636 99.0286 23.6174 98.6904 22.834 98.4666C22.0567 98.2284 20.8847 98.1808 19.5973 98.2665C18.3099 98.3427 17.1621 98.5189 16.3423 98.6809C15.5225 98.8428 15.0184 98.9667 15.0002 98.9333C14.9881 98.9047 15.4678 98.7238 16.2816 98.5189C17.1014 98.3189 18.2613 98.1093 19.573 98.0331C20.8725 97.9474 22.1053 98.0236 22.9069 98.3141C23.7207 98.5952 24.0182 98.9952 23.9939 99L24 98.9952Z" fill="#E0E0E0"/>
<path d="M23 97.9949C22.9769 98.0457 22.3545 97.7093 21.3055 97.3157C20.2565 96.9157 18.7637 96.5031 17.0808 96.3571C15.392 96.2175 13.8589 96.3825 12.7696 96.5983C11.6803 96.8142 11.0174 97.0364 11.0001 96.9856C10.9944 96.9665 11.1558 96.8904 11.4497 96.7761C11.7437 96.6555 12.1817 96.5158 12.7292 96.3825C13.8243 96.1032 15.3805 95.9064 17.0981 96.0461C18.8156 96.1921 20.3257 96.6555 21.3689 97.1062C21.8934 97.3347 22.3026 97.5442 22.5793 97.7092C22.8559 97.8743 23.0058 97.9759 22.9942 97.9949H23Z" fill="#E0E0E0"/>
<path d="M32.9912 90.9999C32.9234 91.0179 32.4226 89.0212 31.8748 86.539C31.327 84.0507 30.9357 82.0241 31.0088 82.0001C31.0766 81.9821 31.5774 83.9788 32.1252 86.461C32.673 88.9433 33.0643 90.9759 32.9912 90.9999Z" fill="#E0E0E0"/>
<path d="M31.9954 90.9995C31.919 91.0304 31.6083 89.6502 30.7833 88.239C29.9838 86.7968 28.9653 86.0789 29.0009 86.0046C29.0162 85.9736 29.2963 86.0974 29.6884 86.4378C30.0805 86.7721 30.5694 87.3353 30.987 88.0657C31.8375 89.5326 32.0514 90.9933 31.9903 90.9995H31.9954Z" fill="#E0E0E0"/>
<path d="M32.9956 147.994C32.9669 147.994 32.9095 147.518 32.6857 146.671C32.4676 145.829 32.0543 144.633 31.3713 143.229C30.0168 140.425 27.5431 136.867 24.4094 133.308C22.854 131.515 21.3445 129.82 20.0647 128.195C18.7848 126.575 17.7287 125.031 16.9596 123.667C16.1848 122.303 15.6855 121.13 15.3928 120.306C15.2493 119.894 15.1402 119.569 15.0828 119.343C15.0197 119.122 14.991 119 15.0025 119C15.0254 118.994 15.1689 119.453 15.4961 120.265C15.8175 121.072 16.3455 122.222 17.1318 123.562C17.9181 124.903 18.9799 126.424 20.2655 128.032C21.5512 129.64 23.0606 131.323 24.6218 133.123C27.767 136.693 30.2292 140.297 31.555 143.147C32.2208 144.569 32.6053 145.788 32.7947 146.648C32.8865 147.077 32.9497 147.414 32.9669 147.646C32.9956 147.878 33.0071 147.994 32.9956 148V147.994Z" fill="#E0E0E0"/>
<path d="M49 130.013C49 130.013 48.704 130.189 48.1593 130.478C47.6205 130.779 46.8567 131.244 45.9864 131.91C45.1102 132.576 44.1333 133.454 43.1327 134.503C42.1321 135.558 41.096 136.784 40.0422 138.093C37.9344 140.727 35.9629 143.055 34.7847 144.912C34.1867 145.831 33.7486 146.609 33.4644 147.157C33.1743 147.699 33.0263 148.006 33.0026 148C32.9907 148 33.0203 147.912 33.0795 147.764C33.1447 147.617 33.2276 147.387 33.3637 147.11C33.6183 146.544 34.0328 145.749 34.613 144.806C35.7616 142.902 37.7154 140.539 39.8172 137.91C40.871 136.596 41.919 135.37 42.9373 134.315C43.9616 133.266 44.9622 132.394 45.8621 131.739C46.762 131.085 47.5495 130.643 48.106 130.372C48.3843 130.231 48.6092 130.148 48.7632 130.083C48.9171 130.024 48.9941 129.995 49 130.001V130.013Z" fill="#E0E0E0"/>
<path d="M48.9941 136.03C48.9941 136.069 48.3229 136.146 47.2336 136.268C46.1502 136.401 44.6369 136.572 43.0531 137.042C41.4751 137.523 40.162 138.258 39.3083 138.888C38.4427 139.512 38.0364 140.032 38.0011 139.998C37.9893 139.987 38.0718 139.849 38.2602 139.617C38.4486 139.385 38.7548 139.076 39.1787 138.733C40.0207 138.053 41.3455 137.274 42.9647 136.776C44.584 136.296 46.1207 136.157 47.2159 136.069C48.317 135.992 48.9941 135.986 49 136.019L48.9941 136.03Z" fill="#E0E0E0"/>
<path d="M38.0071 139.999C37.9202 139.945 38.6532 138.727 39.2234 137.088C39.7556 135.432 39.8805 133.982 39.9782 134C40.0108 134 40.0108 134.367 39.951 134.953C39.8859 135.532 39.761 136.343 39.4786 137.189C39.1963 138.041 38.8216 138.75 38.5338 139.241C38.246 139.732 38.0396 140.022 38.0071 139.999Z" fill="#E0E0E0"/>
<path d="M53.9941 115.002C53.9941 115.002 53.9002 115.062 53.7124 115.151C53.4953 115.252 53.2195 115.377 52.885 115.531C52.5211 115.686 52.0869 115.888 51.588 116.149C51.0892 116.411 50.5141 116.678 49.9097 117.041C49.6045 117.219 49.2817 117.404 48.9531 117.594C48.6186 117.79 48.29 118.016 47.9437 118.242C47.2395 118.675 46.5294 119.21 45.7724 119.757C44.2935 120.892 42.7384 122.236 41.2419 123.793C39.7572 125.362 38.4837 126.979 37.4156 128.518C36.9051 129.303 36.4004 130.034 35.9955 130.765C35.7901 131.128 35.5729 131.466 35.391 131.811C35.215 132.156 35.0448 132.483 34.8805 132.798C34.5401 133.422 34.2936 134.016 34.0589 134.527C33.8124 135.039 33.6363 135.49 33.4896 135.859C33.3488 136.204 33.2373 136.483 33.1434 136.709C33.0612 136.899 33.0143 137 33.0025 137C32.9908 137 33.0201 136.893 33.0847 136.691C33.161 136.459 33.2607 136.174 33.384 135.823C33.5131 135.443 33.6774 134.985 33.9063 134.468C34.1293 133.951 34.364 133.345 34.6985 132.709C34.857 132.388 35.0213 132.055 35.1973 131.704C35.3734 131.353 35.5847 131.009 35.7901 130.646C36.1891 129.903 36.6879 129.16 37.1985 128.37C38.2666 126.812 39.5459 125.178 41.0365 123.597C42.5447 122.034 44.1175 120.679 45.6139 119.549C46.3768 119.008 47.0987 118.473 47.8146 118.045C48.1667 117.826 48.5012 117.6 48.8416 117.409C49.182 117.225 49.5047 117.041 49.8158 116.869C50.4261 116.512 51.0188 116.256 51.5235 116.007C52.0282 115.757 52.4742 115.573 52.8439 115.43C53.1901 115.293 53.466 115.187 53.6948 115.097C53.8885 115.026 53.9941 114.99 54 115.002H53.9941Z" fill="#E0E0E0"/>
<path d="M41 122.999C41 122.999 41.1039 122.529 41.6453 122.02C42.1703 121.511 43.1218 121.035 44.2374 121.002C45.3475 120.974 46.31 121.287 46.9662 121.544C47.6279 121.807 48.0107 122.026 47.9998 122.059C47.9834 122.098 47.5732 121.947 46.9061 121.729C46.2389 121.522 45.3038 121.248 44.2483 121.276C43.2038 121.309 42.296 121.723 41.7711 122.165C41.2351 122.607 41.0437 123.022 41.0055 122.999H41Z" fill="#E0E0E0"/>
<path d="M39.0058 125C38.9329 124.955 39.5632 123.972 39.7091 122.553C39.8758 121.14 39.4747 120.023 39.5528 120C39.5789 119.989 39.7195 120.246 39.8445 120.71C39.9644 121.173 40.0477 121.844 39.9696 122.581C39.8862 123.319 39.6674 123.95 39.4486 124.374C39.2298 124.799 39.0371 125.017 39.0163 124.994L39.0058 125Z" fill="#E0E0E0"/>
<path d="M19 151C19.439 158.553 21.7763 166.233 25.3712 174H41.0085C44.4373 166.314 46.6144 158.645 47 151H19Z" fill="#E0E0E0"/>
<path d="M44 163.146C44 163.227 38.8507 163.291 32.503 163.291C26.1553 163.291 21 163.227 21 163.146C21 163.064 26.1493 163 32.503 163C38.8566 163 44 163.064 44 163.146Z" fill="#FAFAFA"/>
<path d="M44 166.146C44 166.227 39.2961 166.291 33.5 166.291C27.7039 166.291 23 166.227 23 166.146C23 166.064 27.6981 166 33.5 166C39.3019 166 44 166.064 44 166.146Z" fill="#FAFAFA"/>
<path d="M25.1457 156C25.2273 156 25.2914 157.568 25.2914 159.5C25.2914 161.432 25.2273 163 25.1457 163C25.0641 163 25 161.432 25 159.5C25 157.568 25.0641 156 25.1457 156Z" fill="#FAFAFA"/>
<path d="M34.1457 156C34.2273 156 34.2914 157.569 34.2914 159.5C34.2914 161.431 34.2273 163 34.1457 163C34.0641 163 34 161.436 34 159.5C34 157.564 34.0641 156 34.1457 156Z" fill="#FAFAFA"/>
<path d="M41.1457 156C41.2273 156 41.2914 157.567 41.2914 159.5C41.2914 161.433 41.2273 163 41.1457 163C41.0641 163 41 161.433 41 159.5C41 157.567 41.0641 156 41.1457 156Z" fill="#FAFAFA"/>
<path d="M46 156.146C46 156.227 40.179 156.291 33.0029 156.291C25.8267 156.291 20 156.227 20 156.146C20 156.064 25.821 156 33.0029 156C40.1847 156 46 156.064 46 156.146Z" fill="#FAFAFA"/>
<path d="M252 222V241H279.1H309V222H252Z" fill="#F5F5F5"/>
<path d="M250 217V222H311V217H279.306H250Z" fill="#E0E0E0"/>
<path d="M280.205 241H309.001V222.242H311V217H279V221.756L280.205 241Z" fill="#E0E0E0"/>
<path d="M271 225H260V228H271V225Z" fill="#E0E0E0"/>
<path d="M274 232H259V238H274V232Z" fill="white"/>
<path d="M261 199V218H288.105H318V199H261Z" fill="#F5F5F5"/>
<path d="M259 194V199H320V194H288.312H259Z" fill="#EBEBEB"/>
<path d="M289.2 218H318.001V199.247H320V194H288V198.761L289.2 218Z" fill="#EBEBEB"/>
<path d="M280 202H269V205H280V202Z" fill="#E0E0E0"/>
<path d="M283 209H268V215H283V209Z" fill="white"/>
<path d="M354 175.152C354 175.234 275.641 175.304 179.008 175.304C82.3744 175.304 4 175.234 4 175.152C4 175.07 82.3375 175 179.008 175C275.678 175 354 175.07 354 175.152Z" fill="#263238"/>
<path d="M362 242.152C362 242.234 283.646 242.304 187.008 242.304C90.3706 242.304 12 242.234 12 242.152C12 242.07 90.3374 242 187.008 242C283.679 242 362 242.07 362 242.152Z" fill="#263238"/>
<path d="M325.491 0H83.5089C78.8096 0 75 3.80343 75 8.49519V162.505C75 167.197 78.8096 171 83.5089 171H325.491C330.19 171 334 167.197 334 162.505V8.49519C334 3.80343 330.19 0 325.491 0Z" fill="#202F36"/>
<path d="M325.365 170.884C325.365 170.884 325.552 170.872 325.913 170.849C326.094 170.849 326.322 170.825 326.59 170.773C326.859 170.738 327.174 170.686 327.518 170.581C328.212 170.406 329.064 170.092 329.956 169.504C330.843 168.928 331.794 168.084 332.529 166.89C332.92 166.308 333.206 165.616 333.457 164.876C333.672 164.126 333.807 163.311 333.824 162.443C333.824 160.709 333.824 158.817 333.824 156.762C333.824 152.658 333.818 147.92 333.812 142.582C333.801 121.249 333.783 90.375 333.766 52.2308C333.766 42.6962 333.76 32.7017 333.754 22.294C333.754 19.692 333.754 17.061 333.754 14.4067C333.754 13.0795 333.754 11.7465 333.754 10.4077C333.742 9.06311 333.824 7.71849 333.445 6.43207C332.762 3.85342 330.72 1.64149 328.136 0.762535C327.821 0.628655 327.483 0.576267 327.156 0.483133C326.823 0.419103 326.485 0.366715 326.147 0.325969C325.47 0.279402 324.77 0.285223 324.076 0.285223C322.681 0.285223 321.281 0.285223 319.881 0.285223C297.403 0.285223 273.386 0.296865 248.113 0.296865C197.569 0.296865 141.996 0.302686 83.6691 0.308507C81.8781 0.320148 80.0871 0.878953 78.6695 1.96746C77.2227 3.02104 76.1726 4.56357 75.6534 6.26327C75.385 7.11312 75.315 8.00371 75.3034 8.89431V11.601C75.3034 13.4055 75.3034 15.2041 75.3034 17.0028C75.3034 24.1916 75.3034 31.328 75.3034 38.4178C75.3034 52.5917 75.3034 66.5618 75.3034 80.2816C75.3034 107.727 75.2975 134.206 75.2917 159.422C75.2917 160.208 75.2917 161 75.2917 161.786C75.2742 162.577 75.3267 163.34 75.4667 164.096C75.7934 165.604 76.5226 167.019 77.5844 168.124C78.1153 168.672 78.7045 169.172 79.3695 169.551C79.6904 169.766 80.0463 169.906 80.3846 170.074C80.7463 170.197 81.0964 170.36 81.4697 170.435C82.9399 170.86 84.5033 170.697 86.0376 170.732C92.1923 170.732 98.2712 170.732 104.257 170.732C116.234 170.732 127.855 170.732 139.096 170.738C161.574 170.744 182.512 170.75 201.629 170.756C239.858 170.773 270.795 170.79 292.176 170.802C302.864 170.814 311.165 170.825 316.795 170.831C319.607 170.837 321.754 170.843 323.195 170.849C324.636 170.849 325.377 170.866 325.377 170.866C325.377 170.866 324.636 170.878 323.195 170.884C321.748 170.884 319.607 170.889 316.795 170.901C311.165 170.907 302.864 170.919 292.176 170.93C270.795 170.942 239.858 170.959 201.629 170.977C182.512 170.977 161.574 170.988 139.096 170.994C127.855 170.994 116.234 170.994 104.257 171C98.2712 171 92.1923 171 86.0376 171C85.2676 171 84.4975 171 83.7274 171C82.9457 170.977 82.1523 170.924 81.3997 170.697C81.0147 170.616 80.653 170.447 80.2796 170.325C79.9296 170.15 79.5562 170.005 79.2295 169.783C78.5411 169.393 77.9286 168.875 77.3802 168.311C76.8202 167.752 76.3826 167.077 75.9976 166.384C75.6242 165.68 75.3675 164.923 75.1925 164.149C75.0467 163.369 74.9942 162.56 75.0117 161.78C75.0117 160.994 75.0117 160.208 75.0117 159.416C75.0117 134.195 75.0117 107.721 75 80.2758C75 66.5501 75 52.5858 75 38.412C75 31.3222 75 24.1858 75 16.997C75 15.1983 75 13.3997 75 11.5952V8.88848C75.0058 7.98043 75.0817 7.04909 75.3617 6.17013C75.8984 4.41223 76.9893 2.81149 78.4886 1.71716C79.9646 0.59373 81.8198 0.0116418 83.6749 0C142.002 0 197.575 0.00582088 248.119 0.0116418C273.391 0.0116418 297.409 0.0232835 319.887 0.0232835C321.293 0.0232835 322.693 0.0232835 324.082 0.0232835C324.776 0.0232835 325.47 0.0116418 326.176 0.0640297C326.526 0.104776 326.876 0.157164 327.214 0.221193C327.553 0.314328 327.903 0.372536 328.224 0.512237C330.884 1.42029 332.984 3.69044 333.684 6.35058L333.812 6.85118C333.847 7.01998 333.865 7.18879 333.894 7.35759C333.958 7.6952 333.97 8.03864 333.987 8.37625C334.011 9.05729 333.993 9.72087 333.999 10.3961C333.999 11.7349 333.999 13.0679 333.999 14.395C333.999 17.0494 333.999 19.6804 333.999 22.2823C333.999 32.6901 333.993 42.6845 333.987 52.2191C333.97 90.3633 333.952 121.231 333.941 142.571C333.941 147.903 333.929 152.641 333.929 156.751C333.929 158.805 333.923 160.697 333.917 162.432C333.9 163.305 333.766 164.126 333.544 164.882C333.287 165.627 333.002 166.32 332.605 166.908C331.858 168.107 330.901 168.951 330.003 169.527C329.105 170.109 328.247 170.424 327.547 170.598C327.197 170.697 326.888 170.75 326.613 170.785C326.345 170.831 326.118 170.849 325.937 170.849C325.569 170.866 325.388 170.866 325.388 170.866L325.365 170.884Z" fill="black"/>
<path d="M334.627 175H75.3727C69.6444 175 65 170.341 65 164.595V160H345V164.595C345 170.341 340.356 175 334.627 175Z" fill="#455A64"/>
<path d="M334.589 174.813C334.589 174.813 334.699 174.801 334.926 174.79C335.148 174.761 335.485 174.79 335.922 174.704C336.143 174.669 336.388 174.629 336.662 174.589C336.929 174.521 337.221 174.446 337.541 174.366C337.855 174.275 338.187 174.137 338.548 174.012C338.898 173.851 339.27 173.685 339.649 173.474C340.412 173.05 341.204 172.467 341.966 171.717C342.729 170.962 343.428 169.989 343.964 168.839C344.499 167.684 344.849 166.334 344.884 164.863C344.907 163.387 344.884 161.808 344.884 160.137L344.942 160.195C302.877 160.212 198.065 160.246 75.5344 160.286C71.9824 160.286 68.4421 160.286 65.158 160.286L65.3094 160.137C65.3094 161.333 65.3094 162.523 65.3094 163.719C65.2803 164.915 65.3443 166.082 65.6646 167.215C66.276 169.475 67.6968 171.517 69.6474 172.839C71.5864 174.189 73.9738 174.795 76.3437 174.675C78.7253 174.675 81.101 174.675 83.4651 174.675C92.9273 174.675 102.244 174.675 111.392 174.675C129.687 174.675 147.307 174.681 164.077 174.687C197.617 174.698 227.739 174.71 252.998 174.721C278.258 174.738 298.65 174.755 312.735 174.767C319.775 174.778 325.231 174.79 328.94 174.795C330.786 174.801 332.201 174.807 333.15 174.813C334.1 174.813 334.583 174.83 334.583 174.83C334.583 174.83 334.1 174.841 333.15 174.847C332.201 174.847 330.792 174.853 328.94 174.864C325.237 174.87 319.775 174.881 312.735 174.893C298.65 174.904 278.258 174.921 252.998 174.938C227.739 174.95 197.611 174.956 164.077 174.973C147.307 174.973 129.687 174.978 111.392 174.984C102.244 174.984 92.9273 174.984 83.4651 174.984C81.101 174.984 78.7253 174.984 76.3437 174.984C73.9505 175.11 71.4642 174.486 69.4727 173.096C67.4638 171.734 65.9965 169.635 65.3676 167.306C65.0357 166.15 64.9775 164.915 65.0066 163.73C65.0066 162.54 65.0066 161.345 65.0066 160.149V160H65.158C68.4421 160 71.9824 160 75.5344 160C198.065 160.04 302.877 160.08 344.942 160.092H345V160.149C344.994 161.825 345.006 163.398 344.983 164.88C344.948 166.362 344.587 167.73 344.039 168.891C343.492 170.052 342.787 171.025 342.013 171.786C341.238 172.541 340.441 173.125 339.672 173.542C339.288 173.754 338.909 173.92 338.56 174.074C338.193 174.2 337.861 174.338 337.547 174.423C337.226 174.504 336.929 174.578 336.662 174.641C336.388 174.681 336.138 174.715 335.922 174.75C335.485 174.824 335.142 174.801 334.921 174.818C334.699 174.83 334.583 174.83 334.583 174.83L334.589 174.813Z" fill="#455A64"/>
<path d="M179 160L182.499 166H231.748L235 160H179Z" fill="#D1D1D1"/>
<path d="M91.9353 12H316.065C318.788 12 321 14.2148 321 16.9424V146.058C321 148.785 318.788 151 316.065 151H91.9353C89.2116 151 87 148.785 87 146.058V16.9424C87 14.2148 89.2116 12 91.9353 12Z" fill="white"/>
<path d="M315.83 150.883C315.818 150.842 316.498 150.965 317.678 150.511C318.26 150.278 318.951 149.877 319.568 149.179C320.19 148.498 320.707 147.486 320.812 146.271C320.846 141.374 320.806 134.133 320.806 124.815C320.794 106.18 320.777 79.2169 320.759 45.9022C320.759 37.5735 320.753 28.8435 320.748 19.7529C320.748 19.1829 320.748 18.613 320.748 18.043C320.742 17.4672 320.777 16.8972 320.666 16.3505C320.469 15.2512 319.893 14.2043 319.021 13.4773C318.161 12.7445 317.039 12.3083 315.894 12.2967C314.725 12.2967 313.551 12.2967 312.371 12.2967C307.645 12.2967 302.837 12.2967 297.943 12.2967C278.364 12.2967 257.443 12.3083 235.429 12.3083C191.4 12.3083 142.994 12.3141 92.1875 12.3199C90.6412 12.3141 89.1182 13.076 88.223 14.3323C87.7638 14.9488 87.4673 15.6816 87.351 16.4377C87.2406 17.188 87.2987 17.9964 87.2871 18.7816C87.2871 21.9398 87.2871 25.0921 87.2871 28.227C87.2871 34.5026 87.2871 40.7375 87.2871 46.9316C87.2871 59.3141 87.2871 71.5105 87.2871 83.4976C87.2871 95.4846 87.2871 107.256 87.2871 118.79C87.2871 124.554 87.2871 130.259 87.2871 135.901C87.2871 138.722 87.2871 141.525 87.2871 144.311C87.2987 145.003 87.258 145.718 87.3161 146.381C87.3917 147.05 87.6068 147.708 87.944 148.289C88.6183 149.458 89.7867 150.319 91.0947 150.61C91.7457 150.767 92.4259 150.726 93.1176 150.732C93.8036 150.732 94.4895 150.732 95.1697 150.732C96.5357 150.732 97.9018 150.732 99.2563 150.732C101.971 150.732 104.674 150.732 107.354 150.732C112.719 150.732 118.009 150.732 123.224 150.732C133.653 150.732 143.779 150.732 153.568 150.738C173.147 150.744 191.388 150.749 208.037 150.755C241.335 150.773 268.284 150.79 286.91 150.802C296.216 150.813 303.448 150.825 308.354 150.831C310.801 150.837 312.673 150.842 313.929 150.848C315.184 150.848 315.83 150.866 315.83 150.866C315.83 150.866 315.184 150.877 313.929 150.883C312.667 150.883 310.801 150.889 308.354 150.901C303.448 150.906 296.222 150.918 286.91 150.93C268.284 150.941 241.34 150.959 208.037 150.976C191.388 150.976 173.147 150.988 153.568 150.994C143.779 150.994 133.653 150.994 123.224 150.999C118.009 150.999 112.719 150.999 107.354 150.999C104.674 150.999 101.971 150.999 99.2563 150.999C97.896 150.999 96.5357 150.999 95.1697 150.999C94.4837 150.999 93.8036 150.999 93.1176 150.999C92.4433 150.994 91.7341 151.034 91.0365 150.871C89.653 150.563 88.4206 149.656 87.7056 148.417C87.3452 147.801 87.1185 147.108 87.0371 146.399C86.9732 145.678 87.0139 144.997 87.0022 144.299C87.0022 141.513 87.0022 138.71 87.0022 135.889C87.0022 130.248 87.0022 124.542 87.0022 118.778C87.0022 107.245 87.0022 95.473 87.0022 83.4859C87.0022 71.4989 87.0022 59.3025 87.0022 46.92C87.0022 40.7317 87.0022 34.4968 87.0022 28.2154C87.0022 25.0747 87.0022 21.9281 87.0022 18.77C87.0197 17.979 86.9557 17.1996 87.072 16.3796C87.1941 15.5769 87.5138 14.7976 87.9963 14.1404C88.9438 12.8085 90.5657 11.9942 92.205 12C143.012 12 191.417 12.0058 235.446 12.0117C257.46 12.0117 278.382 12.0233 297.96 12.0233C302.855 12.0233 307.668 12.0233 312.388 12.0233C313.568 12.0233 314.743 12.0233 315.917 12.0233C317.114 12.0349 318.295 12.4944 319.196 13.2621C320.108 14.024 320.713 15.1233 320.916 16.2749C321.033 16.8565 320.992 17.4439 320.998 18.0081C320.998 18.5781 320.998 19.148 320.998 19.718C320.998 28.8086 320.992 37.5386 320.986 45.8673C320.969 79.182 320.951 106.146 320.94 124.78C320.922 134.098 320.939 141.327 320.887 146.242C320.771 147.475 320.248 148.493 319.614 149.173C318.992 149.877 318.289 150.278 317.702 150.505C317.114 150.744 316.632 150.79 316.318 150.831C315.998 150.842 315.841 150.848 315.841 150.848L315.83 150.883Z" fill="#263238"/>
<path d="M209 5.5C209 6.88009 207.88 8 206.5 8C205.12 8 204 6.88009 204 5.5C204 4.11991 205.12 3 206.5 3C207.88 3 209 4.11991 209 5.5Z" fill="#263238"/>
<path d="M304 19.5502V17.4547C304 17.2026 304.23 17 304.516 17H308.484C308.77 17 309 17.2026 309 17.4547V19.5502C309 19.8023 308.77 20 308.484 20H304.516C304.23 20 304 19.7974 304 19.5502Z" fill="#F3852D"/>
<path d="M311.184 21H303.669C303.299 21 303 20.7277 303 20.39V16.61C303 16.2723 303.299 16 303.669 16H311.076C311.411 16 311.686 16.2505 311.686 16.5556V17.2527C311.686 17.3017 311.734 17.3453 311.787 17.3453H312.6C312.821 17.3453 313 17.5087 313 17.7102V18.9357C313 19.1863 312.779 19.3878 312.504 19.3878H311.889C311.835 19.3878 311.787 19.4314 311.787 19.4804V20.4444C311.787 20.7495 311.513 21 311.178 21H311.184ZM303.669 16.2723C303.466 16.2723 303.299 16.4248 303.299 16.61V20.39C303.299 20.5752 303.466 20.7277 303.669 20.7277H311.184C311.357 20.7277 311.495 20.6024 311.495 20.4444V19.4804C311.495 19.2789 311.674 19.1155 311.895 19.1155H312.51C312.618 19.1155 312.707 19.0338 312.707 18.9357V17.7102C312.707 17.6612 312.66 17.6176 312.606 17.6176H311.793C311.572 17.6176 311.393 17.4542 311.393 17.2527V16.5556C311.393 16.3976 311.256 16.2723 311.082 16.2723H303.675H303.669Z" fill="#F3852D"/>
<path d="M69.7786 90.2477C69.1819 88.3969 67.2912 87.0217 65.2941 86.9702C65.8082 85.5606 64.8155 83.9218 63.3975 83.3317C61.9795 82.7358 60.3133 83.0051 58.9189 83.6468C57.9322 84.0995 57.0164 84.7355 55.947 84.9647C54.5467 85.2684 53.0991 84.8444 51.6692 84.7985C48.7446 84.7068 45.8376 86.3456 44.4787 88.8553C44.0001 89.7377 43.7047 90.7003 43.1788 91.5541C42.7593 92.236 42.198 92.8319 41.7844 93.5195C40.5791 95.502 40.78 98.2008 42.2689 100L62.4285 95.5077C64.0711 96.6136 66.4344 96.5792 68.0475 95.4275C69.6605 94.2758 70.3931 92.0984 69.7904 90.2477H69.7786Z" fill="#263238"/>
<path d="M115.607 162.904L96.1261 161L95 171L117 170.244L115.607 162.904Z" fill="#FFBF9D"/>
<path d="M129.868 168.417C129.623 168.754 129.195 168.933 128.785 168.832C128.705 168.81 128.619 168.782 128.534 168.742C127.975 168.468 128.22 167.297 128.22 167.297L125.471 166.407C125.471 166.407 121.433 168.16 119.882 169.498C118.331 170.837 115.205 169.073 115.205 169.073L115 162.99L120.931 159.187C120.931 159.187 120.566 159.411 121.063 158.605C121.559 157.798 123.139 158.375 123.139 158.375C123.464 157.989 124.553 158 124.553 158L129.024 159.221C129.942 159.473 130.701 160.123 131.077 160.985L132.52 164.278C132.52 164.278 133.188 166.592 132.948 167.068C132.577 167.785 131.79 167.493 131.79 167.493C131.79 167.493 131.34 168.877 130.952 168.866C130.564 168.854 129.868 168.423 129.868 168.423V168.417Z" fill="#FFBF9D"/>
<path d="M120.782 168.721C120.782 168.721 120.891 168.671 121.087 168.56C121.312 168.438 121.594 168.277 121.957 168.083C122.717 167.678 123.845 167.112 125.308 166.541H125.239C126.063 166.813 126.995 167.112 128.003 167.439L127.923 167.306C127.882 167.528 127.859 167.75 127.865 167.983C127.876 168.216 127.911 168.465 128.078 168.693C128.164 168.804 128.308 168.881 128.429 168.915C128.55 168.965 128.688 168.998 128.827 168.998C129.103 168.998 129.379 168.904 129.598 168.726C129.65 168.682 129.702 168.632 129.748 168.582L129.783 168.543L129.8 168.521V168.51H129.811C129.852 168.504 129.477 168.571 129.633 168.543L129.719 168.593C129.834 168.66 129.95 168.715 130.065 168.776C130.186 168.831 130.307 168.887 130.439 168.931C130.508 168.954 130.572 168.976 130.646 168.987C130.715 168.998 130.796 169.015 130.917 168.976C131.096 168.892 131.176 168.77 131.257 168.654C131.332 168.538 131.401 168.421 131.458 168.299C131.579 168.055 131.677 167.811 131.769 167.55L131.585 167.634C131.942 167.75 132.391 167.733 132.702 167.445C132.84 167.312 132.967 167.14 132.99 166.924C133.013 166.73 132.99 166.558 132.979 166.38C132.892 165.676 132.714 164.988 132.518 164.289V164.273C132.27 163.718 132.005 163.13 131.741 162.537C131.574 162.165 131.412 161.799 131.245 161.433C131.078 161.078 130.94 160.69 130.681 160.352C130.433 160.019 130.117 159.741 129.76 159.536C129.408 159.32 128.994 159.22 128.625 159.126C127.128 158.727 125.705 158.349 124.369 158H124.352H124.335C124.064 158 123.805 158.028 123.546 158.078C123.293 158.133 123.022 158.2 122.815 158.422L122.982 158.399C122.527 158.133 121.962 158.044 121.49 158.255C121.018 158.46 120.747 158.871 120.575 159.265L120.621 159.215C118.905 160.291 117.499 161.167 116.497 161.794C116.031 162.093 115.662 162.331 115.38 162.509C115.127 162.675 114.994 162.77 115 162.775C115.006 162.786 115.15 162.709 115.409 162.559C115.697 162.392 116.077 162.171 116.555 161.893C117.569 161.283 118.991 160.435 120.73 159.398L120.759 159.381L120.776 159.348C120.932 158.998 121.191 158.627 121.582 158.471C121.962 158.299 122.452 158.383 122.838 158.61L122.93 158.666L123.005 158.588C123.126 158.455 123.362 158.377 123.598 158.333C123.834 158.288 124.087 158.266 124.335 158.266H124.3C125.631 158.621 127.053 159.009 128.55 159.414C128.93 159.514 129.287 159.603 129.61 159.802C129.932 159.991 130.22 160.241 130.445 160.546C130.675 160.84 130.802 161.206 130.975 161.572C131.136 161.938 131.303 162.304 131.464 162.675C131.729 163.269 131.994 163.857 132.242 164.411V164.395C132.432 165.082 132.604 165.77 132.691 166.436C132.708 166.602 132.725 166.768 132.708 166.918C132.708 167.046 132.616 167.173 132.512 167.273C132.311 167.473 131.965 167.495 131.694 167.406L131.556 167.362L131.51 167.489C131.424 167.733 131.332 167.977 131.216 168.205C131.113 168.421 130.963 168.682 130.819 168.754C130.813 168.754 130.762 168.765 130.704 168.754C130.646 168.743 130.589 168.726 130.531 168.709C130.416 168.671 130.301 168.626 130.186 168.571C130.071 168.521 129.961 168.46 129.857 168.399L129.777 168.355C129.938 168.327 129.558 168.393 129.598 168.388L129.593 168.399L129.581 168.416L129.558 168.449C129.523 168.488 129.483 168.526 129.443 168.565C129.276 168.704 129.057 168.782 128.844 168.782C128.735 168.782 128.637 168.759 128.533 168.715C128.424 168.682 128.349 168.637 128.291 168.571C128.067 168.26 128.107 167.767 128.17 167.378L128.187 167.279L128.095 167.251C127.082 166.935 126.143 166.646 125.314 166.386L125.279 166.375L125.245 166.386C123.776 166.99 122.665 167.584 121.916 168.016C121.542 168.233 121.26 168.41 121.076 168.538C120.891 168.665 120.793 168.732 120.799 168.743L120.782 168.721Z" fill="#FF9A6C"/>
<path d="M123 160.004C122.983 160.031 123.488 160.31 124.384 160.632C125.275 160.954 126.574 161.303 128.077 161.448L127.946 161.33C127.986 161.55 128.031 161.786 128.088 162.023C128.462 163.585 129.188 164.884 129.824 165.737C130.141 166.161 130.43 166.483 130.64 166.698C130.856 166.907 130.981 167.015 130.998 166.998C131.037 166.966 130.584 166.488 129.999 165.624C129.421 164.76 128.746 163.483 128.383 161.958C128.326 161.727 128.281 161.502 128.241 161.282L128.218 161.174L128.105 161.164C126.63 161.03 125.349 160.724 124.452 160.45C123.551 160.181 123.023 159.967 123 160.004Z" fill="#FF9A6C"/>
<path d="M127.017 164C126.957 164 127.036 165.308 127.609 166.736C128.172 168.169 128.955 169.055 128.997 168.997C129.053 168.935 128.373 167.986 127.832 166.604C127.283 165.228 127.096 163.989 127.022 164.006L127.017 164Z" fill="#FF9A6C"/>
<path d="M114 168.078C114 168.078 114.041 168.127 114.135 168.194C114.229 168.261 114.376 168.352 114.57 168.456C114.964 168.657 115.575 168.906 116.379 168.979C117.178 169.052 118.195 168.949 119.188 168.419C120.175 167.902 121.126 166.97 121.661 165.692L121.473 165.777C122.489 166.155 123.635 166.422 124.84 166.502C125.268 166.526 125.697 166.532 126.12 166.514C126.537 166.489 126.966 166.471 127.378 166.301C127.571 166.222 127.801 166.082 127.912 165.844C128.024 165.619 128.024 165.351 127.942 165.132C127.859 164.907 127.689 164.718 127.477 164.621C127.301 164.541 127.131 164.468 126.96 164.395C125.592 163.805 124.334 163.336 123.265 162.977C122.196 162.618 121.32 162.368 120.715 162.21C120.104 162.052 119.763 161.985 119.763 162.003C119.763 162.027 120.087 162.137 120.686 162.332C121.285 162.526 122.143 162.806 123.2 163.19C124.252 163.573 125.498 164.06 126.855 164.663C127.025 164.742 127.195 164.815 127.366 164.894C127.501 164.961 127.613 165.083 127.665 165.235C127.718 165.388 127.712 165.564 127.642 165.704C127.577 165.844 127.442 165.935 127.266 166.008C126.925 166.148 126.52 166.173 126.109 166.191C125.697 166.209 125.28 166.203 124.863 166.179C123.688 166.106 122.572 165.85 121.579 165.485L121.444 165.436L121.391 165.57C120.897 166.775 120.004 167.67 119.076 168.182C118.142 168.699 117.178 168.827 116.397 168.784C115.616 168.742 115.011 168.529 114.611 168.364C114.211 168.194 114.012 168.066 114 168.084V168.078Z" fill="#FF9A6C"/>
<path d="M52.757 139C48.1581 138.959 44.433 135.097 44.3755 130.315L44.0191 101.514C43.6857 93.7829 47.7327 87.1338 55.1714 87L55.8613 87.0291C62.7826 87.3258 68.3301 93.1081 68.6002 100.31C68.8532 107.017 69.1234 113.492 68.9394 117.075C68.5542 124.492 61.3052 125.225 61.3052 125.225C61.288 125.225 61.288 127.994 61.288 130.175C61.2937 135.073 57.4651 139.041 52.757 138.994V139Z" fill="#FFBF9D"/>
<path d="M61 125.057C61 125.057 56.5762 125.133 52 122C52 122 53.9749 127.328 60.9831 126.984L61 125.052V125.057Z" fill="#FF9A6C"/>
<path d="M65.9999 106.986C65.9999 107.536 65.548 107.988 64.9944 108C64.4407 108.006 63.9944 107.564 64.0001 107.014C64.0001 106.464 64.452 106.012 65.0057 106C65.5593 105.994 66.0056 106.436 65.9999 106.986Z" fill="#263238"/>
<path d="M66.9826 102.985C66.8518 103.094 66.1123 102.58 65.026 102.541C63.9453 102.494 63.1262 102.947 63.0125 102.827C62.9556 102.775 63.0921 102.575 63.4504 102.37C63.8031 102.165 64.3946 101.974 65.0715 102.003C65.7483 102.031 66.3057 102.265 66.6185 102.494C66.9428 102.727 67.0451 102.937 66.9826 102.985Z" fill="#263238"/>
<path d="M55.9999 106.986C55.9999 107.536 55.548 107.988 54.9944 108C54.4407 108.006 53.9944 107.564 54.0001 107.014C54.0001 106.464 54.452 106.012 55.0057 106C55.5593 105.994 56.0056 106.436 55.9999 106.986Z" fill="#263238"/>
<path d="M55.9826 102.985C55.8518 103.094 55.1123 102.58 54.026 102.541C52.9453 102.494 52.1262 102.947 52.0125 102.827C51.9556 102.775 52.0921 102.575 52.4504 102.37C52.8031 102.165 53.3946 101.974 54.0715 102.003C54.7483 102.031 55.3057 102.265 55.6185 102.494C55.9428 102.727 56.0451 102.937 55.9826 102.985Z" fill="#263238"/>
<path d="M59.1425 112.918C59.1425 112.852 59.8355 112.755 60.9594 112.652C61.2447 112.633 61.5126 112.585 61.5708 112.379C61.6465 112.161 61.5417 111.828 61.4136 111.47C61.1748 110.725 60.9244 109.944 60.6624 109.126C59.6259 105.787 58.8863 103.043 59.0144 103C59.1425 102.958 60.0859 105.63 61.1224 108.968C61.3728 109.792 61.6116 110.574 61.8329 111.325C61.926 111.676 62.0949 112.076 61.9319 112.524C61.8445 112.749 61.6349 112.9 61.4485 112.949C61.2622 112.997 61.105 112.997 60.9652 112.997C59.8355 113.009 59.1367 112.985 59.1367 112.918H59.1425Z" fill="#263238"/>
<path d="M55.9862 98.9238C55.8262 99.1231 54.7801 98.875 53.4938 98.818C52.2076 98.7407 51.1272 98.8709 51.0071 98.6594C50.9557 98.5577 51.1843 98.3828 51.6474 98.2282C52.1047 98.0777 52.8021 97.9679 53.5739 98.0085C54.3456 98.0492 55.0144 98.2323 55.4375 98.4316C55.8662 98.6309 56.0548 98.8302 55.9862 98.9238Z" fill="#263238"/>
<path d="M67.9657 99.9253C67.7003 100.111 66.7034 99.895 65.4928 99.8647C64.2888 99.8084 63.2531 99.9556 63.0265 99.7478C62.9294 99.6482 63.0977 99.4577 63.5509 99.2846C63.9975 99.1114 64.742 98.9773 65.5705 99.0032C66.3991 99.0335 67.1112 99.2197 67.5255 99.4274C67.9462 99.6352 68.0757 99.8344 67.9592 99.9253H67.9657Z" fill="#263238"/>
<path d="M44.2246 107.313C44.1011 107.253 39.272 105.547 39.2249 110.773C39.1779 115.999 44.2011 114.969 44.2128 114.82C44.2246 114.67 44.2246 107.313 44.2246 107.313Z" fill="#FFBF9D"/>
<path d="M43 111.629C43 111.629 42.9206 111.682 42.7884 111.745C42.6614 111.802 42.4392 111.844 42.2011 111.75C41.7303 111.566 41.3335 110.796 41.3229 109.973C41.3176 109.559 41.4023 109.161 41.5504 108.836C41.6932 108.501 41.9049 108.27 42.1429 108.228C42.381 108.176 42.5503 108.323 42.6032 108.454C42.6614 108.585 42.635 108.674 42.6561 108.679C42.6667 108.689 42.7513 108.606 42.7196 108.412C42.7037 108.323 42.6508 108.213 42.545 108.124C42.4392 108.034 42.2805 107.987 42.1112 108.003C41.762 108.024 41.4499 108.344 41.2859 108.705C41.106 109.067 40.9949 109.512 41.0002 109.979C41.0213 110.901 41.4763 111.771 42.1218 111.965C42.4392 112.054 42.7037 111.959 42.836 111.849C42.9735 111.739 43 111.634 42.9841 111.629H43Z" fill="#FF9A6C"/>
<path d="M47.9522 94.3514C48.163 93.0149 49.1584 91.9316 50.4348 91.5018C51.5122 91.1368 52.695 91.1427 53.7958 91.543C56.5946 92.5675 61.3784 94.1041 62.6256 93.1209C64.4231 91.7079 64.8506 90.7836 64.8506 90.7836L65.8401 91.861C66.6481 91.4017 64.2299 88.7053 62.2567 87.7751C59.2705 86.3739 54.7033 85.5025 51.9513 86.3091C48.6314 87.2805 45.8735 88.9879 44.2106 92.1082C42.5419 95.2286 41.9154 98.867 42.0091 102.435C42.0383 103.524 41.8392 106.638 42.8873 106.88C43.6954 107.068 44.7318 107.427 44.6732 108.999C44.6498 109.57 44.8079 110.153 45.1885 110.571C46.0961 111.572 47.2086 110.63 47.7238 109.688C48.8188 107.675 48.9417 105.273 49.0354 102.965C49.1057 101.322 49.1701 99.6501 48.7251 98.0722C48.7251 98.0722 47.9873 96.0411 47.9229 94.9107C47.9112 94.7223 47.9229 94.5339 47.9522 94.3455V94.3514Z" fill="#263238"/>
<path d="M59.9974 114.656C60.0281 114.719 59.7882 114.877 59.3022 114.958C58.8284 115.04 58.0963 115.021 57.4134 114.728C56.7305 114.436 56.3121 113.975 56.1337 113.621C55.9553 113.261 55.9799 113.021 56.066 113.002C56.2445 112.954 56.6382 113.793 57.7395 114.263C58.8346 114.738 59.9482 114.512 59.9974 114.656Z" fill="#263238"/>
<path d="M65.4239 182.903L41.7418 177.699L26.5426 140C26.5426 140 6.20116 144.511 2.84298 155.868C-0.0604348 165.688 -6.05384 209.092 7.57124 235.846C11.0752 242.728 18.2113 247 25.9362 247H129.55C142.633 247 153.628 237.175 155.08 224.179C155.663 218.94 156.071 213.964 155.99 210.723L139.35 197.955L65.4181 182.903H65.4239Z" fill="#455A64"/>
<g opacity="0.3">
<path d="M128 196.215C135.213 205.785 144.002 214.389 154.504 220L155 207.01L135.605 193L128 196.215Z" fill="black"/>
</g>
<path d="M51.1833 132.485C51.1833 133.18 56.5429 135.419 58.9617 134.435C62.645 132.939 62.1926 130 62.1926 130L64.2343 132.191L84.7506 163.93L100 174.149L75.5858 182L50 152.151L51.1717 132.48L51.1833 132.485Z" fill="#F5F5F5"/>
<path d="M44.0721 122.006L43.5342 123.024L41.1049 127.607L31 134.126L50.5 159.5L61.2684 181.801L84 189C84 189 73.1837 172.168 69.8231 163.571C66.4625 154.973 66.1213 155.371 63.0557 149.068C60.1231 143.034 57.5029 135.402 57.5029 135.402L44.0779 122L44.0721 122.006Z" fill="#F3852D"/>
<path d="M92.2779 166.23L96.7387 170.415L98 173L81.418 165.24L69.4472 148.382C69.4472 148.382 65.1831 138.864 63.7135 135.453C62.1745 131.867 61.0174 129.835 61.0174 129.835L61 127L67.0519 132.484L72.0971 133.997L80.5212 147.392L92.2779 166.23Z" fill="#F3852D"/>
<path d="M88.2928 150.823C88.2928 150.823 86.254 146.49 84.5902 142.887C80.8406 134.771 72 134 72 134L81.7722 161.012L93.7472 169.473C93.7472 169.473 97.151 170.659 97.5787 169.473C97.5787 169.473 100.074 160.516 99.9983 160.481C99.9221 160.446 91.4799 157.929 91.4799 157.929L88.0819 150.361" fill="#F3852D"/>
<path d="M62 164.559L90.4983 161.052L95.2939 152.375L99.0455 150.239C99.6823 149.877 100.462 149.931 101.048 150.37L101.403 150.637L104.185 150.275C104.661 150.215 105.138 150.31 105.556 150.554L107.53 151.717C107.822 151.895 108 152.215 108 152.559C108 153.171 107.467 153.634 106.881 153.521L104.965 153.153L102.034 154.144C102.034 154.144 103.927 154.352 104.168 155.841C104.409 157.331 103.451 157.36 103.451 157.36C103.451 157.36 105.442 158.559 104.048 160.304C104.048 160.304 105.705 161.449 103.847 163.621C102.585 165.093 93.5099 169.882 93.5099 169.882L62.0057 182V164.559H62Z" fill="#FFBF9D"/>
<path d="M104.193 160C104.193 160 104.4 160 104.647 160.256C104.883 160.5 105.107 161.029 104.945 161.648C104.787 162.268 104.299 162.842 103.744 163.388C103.188 163.945 102.526 164.507 101.785 165.024C100.298 166.065 98.8284 166.781 97.7622 167.275C96.6905 167.764 96.0172 168.031 96.0003 167.997C95.9835 167.957 96.6288 167.622 97.6725 167.088C98.7105 166.548 100.158 165.809 101.617 164.786C102.347 164.274 102.997 163.734 103.553 163.194C104.114 162.666 104.58 162.137 104.743 161.597C104.911 161.063 104.743 160.58 104.557 160.335C104.367 160.085 104.176 160.028 104.193 160.006V160Z" fill="#FF9A6C"/>
<path d="M100.999 151.03C101.023 151.126 100.37 151.412 99.5412 151.67C98.7121 151.929 98.0241 152.065 98.0006 151.97C97.9771 151.874 98.6298 151.588 99.4588 151.33C100.288 151.071 100.976 150.935 100.999 151.03Z" fill="#FF9A6C"/>
<path d="M104.999 153.01C105.028 153.068 104.15 153.331 103.045 153.602C101.941 153.873 101.023 154.044 101.001 153.99C100.972 153.932 101.85 153.669 102.955 153.398C104.059 153.127 104.977 152.956 104.999 153.01Z" fill="#FF9A6C"/>
<path d="M101.778 156.999C101.608 156.989 101.528 156.766 101.336 156.518C101.154 156.264 100.916 156.067 101.029 156.01C101.143 155.958 101.653 156.113 101.891 156.429C102.129 156.745 101.925 157.015 101.766 156.999H101.778Z" fill="#FF9A6C"/>
<path d="M102.731 160.999C102.59 160.979 102.647 160.52 102.45 159.99C102.272 159.46 101.915 159.066 102.018 159.008C102.103 158.943 102.703 159.292 102.919 159.913C103.144 160.533 102.844 161.031 102.722 160.999H102.731Z" fill="#FF9A6C"/>
<path d="M31.1249 134.006C30.1572 134.589 21.9173 140.178 23.1195 149.339C24.3218 158.501 42.5612 179.214 46.3674 179.611L61 182V164.871L53.9858 164.475L44.7664 146.548L31.1308 134L31.1249 134.006Z" fill="#F3852D"/>
<path d="M62 163.771C62 163.771 61.8176 163.806 61.4763 163.824C61.0821 163.841 60.5938 163.859 59.9936 163.882C58.658 163.912 56.8634 163.953 54.7334 164H54.657L54.6099 163.941C53.5037 162.459 52.2387 160.753 50.8913 158.947C48.6731 155.953 46.6843 153.23 45.2546 151.247C44.572 150.289 44.0072 149.494 43.5777 148.889C43.1893 148.33 42.9834 148.012 43.001 148C43.0187 147.989 43.2599 148.277 43.6836 148.812C44.1366 149.4 44.725 150.171 45.4428 151.106C46.9197 153.053 48.9379 155.753 51.1561 158.747C52.4917 160.565 53.7508 162.277 54.8452 163.765L54.7276 163.706C56.8516 163.706 58.6521 163.706 59.9877 163.706C60.5879 163.718 61.0762 163.724 61.4705 163.729C61.8117 163.741 61.9941 163.753 61.9941 163.771H62Z" fill="#263238"/>
<path d="M58 138.098C58 138.098 57.8831 137.918 57.7136 137.564C57.5265 137.162 57.2868 136.645 56.9945 136.015L57.1524 136.033C56.714 136.681 56.2288 137.516 55.7436 138.524C55.2584 139.533 54.7147 140.697 53.9139 141.832L53.797 142L53.6684 141.838C52.7272 140.643 51.6458 139.371 50.4825 138.068C47.9338 135.223 45.5078 132.767 43.7717 130.966C42.9358 130.096 42.246 129.37 41.7199 128.823C41.2405 128.313 40.9833 128.019 41.0008 128.001C41.0184 127.983 41.3048 128.241 41.8075 128.727C42.3512 129.256 43.0644 129.952 43.9295 130.792C45.7066 132.551 48.1676 134.982 50.7222 137.834C51.8913 139.137 52.9669 140.427 53.908 141.634H53.6625C54.4517 140.535 55.007 139.401 55.5098 138.398C56.0125 137.39 56.5327 136.555 57.0004 135.919L57.0939 135.787L57.1524 135.937C57.4154 136.579 57.6259 137.108 57.7954 137.522C57.9415 137.888 58.0058 138.092 57.9942 138.098H58Z" fill="#263238"/>
<path d="M68.4903 132.982C68.4903 132.982 68.7168 133.276 68.9621 133.853C69.22 134.424 69.4842 135.276 69.7861 136.288L70 137L69.5156 136.412C68.9181 135.688 68.1066 134.918 67.2071 134.141C66.4837 133.512 65.7666 132.935 65.1187 132.412L65.3829 132.318C65.2193 133.476 65.32 134.5 65.2823 135.224C65.2634 135.947 65.1627 136.365 65.1313 136.359C65.0935 136.359 65.125 135.941 65.0873 135.224C65.0684 134.512 64.9174 133.494 65.0621 132.276L65.0935 132L65.3263 132.182C65.9868 132.694 66.7102 133.271 67.4398 133.9C68.3456 134.688 69.1571 135.476 69.7547 136.241L69.4779 136.365C69.2074 135.341 68.9873 134.494 68.786 133.912C68.591 133.329 68.4526 133 68.484 132.982H68.4903Z" fill="#263238"/>
<path d="M88.9937 160.994C88.9937 160.994 88.7314 160.787 88.3058 160.366C87.8394 159.899 87.239 159.294 86.5161 158.568C85.7641 157.791 84.8722 156.921 83.8928 155.843C83.4439 155.278 83.0475 154.656 82.5811 154.045C82.0972 153.417 81.73 152.697 81.3685 151.96C80.6748 150.467 80.1502 149.004 79.678 147.673C79.2058 146.342 78.7918 145.137 78.4129 144.146C78.0282 143.155 77.6842 142.36 77.416 141.83C77.1479 141.3 76.9788 141.018 77.0021 141C77.0138 140.995 77.0663 141.058 77.1537 141.191C77.2412 141.323 77.3869 141.507 77.5268 141.772C77.8358 142.291 78.2147 143.075 78.6286 144.066C79.0425 145.057 79.4797 146.249 79.9636 147.575C80.4533 148.9 80.9838 150.358 81.6659 151.827C82.0215 152.553 82.3771 153.262 82.8376 153.861C83.3098 154.478 83.7062 155.111 84.1318 155.664C85.047 156.696 85.9623 157.629 86.6793 158.413C87.3731 159.168 87.9502 159.802 88.3991 160.286C88.8013 160.735 89.0112 160.988 88.9995 161L88.9937 160.994Z" fill="#263238"/>
<path d="M97.3855 170.547L152.229 169.002C153.095 168.979 153.962 169.131 154.764 169.474C156.759 170.325 160.346 172.511 162.806 177.745C166.376 185.346 183 217.362 183 217.362L166.184 226L145.56 187.654L82 182.245L82.7326 177.151L97.3913 170.547H97.3855Z" fill="#263238"/>
<path d="M161.018 219.76L169.84 234.655L170.425 238.42C170.783 240.723 172.972 242.307 175.314 241.95L202.168 237.896C203.514 237.695 204.392 236.29 203.824 235.075C203.608 234.609 203.221 234.223 202.542 234.05C200.294 233.486 182.965 227.233 182.965 227.233L175.735 213L161 219.765L161.018 219.76Z" fill="#F3852D"/>
<path d="M168.996 222.998C168.921 223.05 167.973 221.966 166.868 220.587C165.77 219.207 164.935 218.048 165.004 218.002C165.079 217.95 166.027 219.034 167.132 220.413C168.23 221.793 169.065 222.952 168.996 222.998Z" fill="#263238"/>
<path d="M173.996 220.999C173.935 221.042 173.075 220.038 172.244 218.645C171.406 217.253 170.935 216.028 171.007 216.001C171.085 215.968 171.667 217.129 172.493 218.505C173.314 219.881 174.062 220.95 173.996 220.999Z" fill="#263238"/>
<path d="M176.991 242C176.935 242.018 176.799 241.45 176.409 240.631C176.025 239.813 175.348 238.744 174.331 237.883C173.315 237.022 172.191 236.557 171.367 236.35C170.536 236.136 170 236.124 170 236.063C170 236.02 170.542 235.934 171.417 236.087C172.281 236.234 173.479 236.674 174.546 237.584C175.613 238.494 176.296 239.642 176.63 240.515C176.974 241.395 177.025 241.987 176.991 241.993V242Z" fill="#263238"/>
<path d="M195.448 237.999C195.42 238.015 195.242 237.684 195.106 237.086C194.97 236.487 194.928 235.589 195.209 234.681C195.486 233.772 195.964 233.088 196.33 232.639C196.701 232.195 196.973 231.971 196.997 232.003C197.03 232.04 196.809 232.318 196.481 232.789C196.162 233.264 195.735 233.938 195.477 234.782C195.214 235.627 195.223 236.455 195.298 237.037C195.378 237.62 195.486 237.978 195.444 237.999H195.448Z" fill="#263238"/>
<path d="M80.1867 177.478C80.1867 177.478 136.583 171.779 139.324 172.007C144.382 172.428 153.71 180.476 170.257 191.682C183.988 200.981 194 211.819 194 211.819L188.71 224C188.71 224 151.618 210.363 145.807 205.459C140.975 201.385 132.157 195.58 132.157 195.58L110.401 195.803L94.2366 197.241C86.1311 197.959 78.2226 194.452 73.2747 187.929L67 179.658L80.1867 177.472V177.478Z" fill="#263238"/>
<path d="M132.464 195.834C132.464 195.834 132.557 195.887 132.726 196.003C132.906 196.125 133.156 196.3 133.488 196.527C134.163 197.004 135.152 197.691 136.426 198.593C138.98 200.415 142.727 203.034 147.323 206.515C147.614 206.73 147.887 206.98 148.196 207.166C148.504 207.359 148.818 207.556 149.132 207.754C149.807 208.092 150.482 208.459 151.192 208.796C151.907 209.128 152.635 209.466 153.385 209.815C154.136 210.146 154.904 210.484 155.689 210.833C158.831 212.195 162.234 213.615 165.864 215.094C173.119 218.045 181.27 221.252 190.061 224.633L189.863 224.721C191.399 220.827 193.016 216.723 194.68 212.515L194.715 212.69C192.615 210.548 190.375 208.261 188.106 205.95H188.118C186.57 204.611 184.9 203.185 183.201 201.771C172.34 192.72 161.385 184.985 151.459 178.478H151.454L151.442 178.466C149.929 177.163 148.3 176.039 146.636 175.085C144.972 174.136 143.25 173.356 141.499 172.85C141.057 172.728 140.615 172.634 140.179 172.53C139.736 172.46 139.294 172.396 138.858 172.326C138.416 172.303 137.979 172.279 137.543 172.256C137.101 172.256 136.665 172.256 136.228 172.256C134.489 172.256 132.79 172.256 131.149 172.25C124.575 172.239 118.816 172.227 114.051 172.215C109.292 172.198 105.533 172.18 102.95 172.175C101.67 172.163 100.687 172.157 100.012 172.151C99.6865 172.151 99.4363 172.14 99.256 172.14C99.0873 172.14 99 172.128 99 172.128C99 172.128 99.0873 172.122 99.256 172.116C99.4363 172.116 99.6865 172.111 100.012 172.105C100.687 172.105 101.676 172.093 102.95 172.081C105.533 172.07 109.292 172.058 114.045 172.041C118.81 172.029 124.575 172.017 131.144 172.006C132.784 172.006 134.483 172.006 136.222 172C136.659 172 137.095 172 137.537 172C137.985 172.023 138.433 172.047 138.881 172.07C139.329 172.14 139.777 172.204 140.231 172.274C140.673 172.384 141.127 172.477 141.569 172.599C143.349 173.106 145.089 173.892 146.77 174.846C148.452 175.806 150.092 176.93 151.634 178.257L151.616 178.245C161.553 184.741 172.526 192.476 183.399 201.538C185.104 202.953 186.768 204.384 188.321 205.735V205.741C190.59 208.057 192.824 210.339 194.924 212.486L195 212.562L194.959 212.661C193.295 216.869 191.672 220.966 190.136 224.86L190.078 225L189.938 224.948C181.148 221.56 173.003 218.336 165.754 215.362C162.129 213.877 158.726 212.446 155.59 211.072C154.805 210.723 154.042 210.379 153.286 210.042C152.541 209.693 151.808 209.349 151.093 209.012C150.377 208.674 149.697 208.296 149.028 207.958C148.702 207.754 148.388 207.551 148.068 207.353C147.748 207.155 147.486 206.91 147.195 206.695C142.622 203.197 138.887 200.555 136.356 198.704C135.094 197.79 134.116 197.08 133.447 196.597C133.122 196.358 132.877 196.178 132.703 196.05C132.534 195.927 132.453 195.858 132.453 195.858L132.464 195.834Z" fill="#455A64"/>
<path d="M177 221.338L192.746 227.686L195.367 230.594C196.973 232.371 199.676 232.478 201.416 230.833L221.307 211.981C222.3 211.036 222.23 209.325 221.074 208.601C220.63 208.326 220.087 208.212 219.433 208.451C217.255 209.253 199.384 213.782 199.384 213.782L187.416 204L177 221.344V221.338Z" fill="#F3852D"/>
<path d="M177.006 221.341C177.006 221.341 177.058 221.241 177.175 221.039C177.297 220.826 177.471 220.53 177.698 220.151C178.175 219.352 178.862 218.198 179.74 216.717C181.538 213.716 184.116 209.405 187.286 204.112L187.356 204L187.455 204.083C190.964 206.919 195.001 210.187 199.4 213.745L199.278 213.716C202.658 212.851 206.213 211.94 209.902 210.992C211.74 210.507 213.614 210.009 215.516 209.506C216.465 209.246 217.425 208.991 218.379 208.707C218.617 208.642 218.856 208.565 219.089 208.482C219.315 208.405 219.589 208.31 219.857 208.298C220.403 208.257 220.95 208.482 221.346 208.861C222.161 209.625 222.195 210.98 221.555 211.839C221.404 212.064 221.201 212.236 221.026 212.401L220.485 212.91C220.124 213.248 219.763 213.585 219.409 213.923C217.977 215.267 216.569 216.593 215.185 217.896C212.415 220.501 209.745 223.011 207.196 225.403C205.922 226.599 204.683 227.765 203.478 228.896C202.873 229.464 202.28 230.021 201.698 230.566C201.413 230.838 201.099 231.116 200.756 231.335C200.406 231.543 200.046 231.726 199.662 231.827C198.132 232.283 196.462 231.809 195.42 230.755C194.425 229.695 193.518 228.665 192.628 227.682L192.668 227.712C187.822 225.746 183.9 224.148 181.172 223.047C179.833 222.502 178.792 222.07 178.071 221.78C177.727 221.637 177.465 221.525 177.273 221.448C177.093 221.371 177.012 221.33 177.012 221.33C177.012 221.33 177.116 221.365 177.303 221.436C177.5 221.513 177.774 221.62 178.129 221.756C178.862 222.04 179.915 222.454 181.271 222.987C183.988 224.059 187.909 225.604 192.744 227.517H192.767L192.785 227.546C193.675 228.511 194.606 229.553 195.583 230.595C196.572 231.59 198.155 232.028 199.592 231.596C199.953 231.501 200.296 231.324 200.622 231.134C200.948 230.927 201.227 230.672 201.518 230.394C202.1 229.843 202.693 229.281 203.292 228.718C204.497 227.582 205.736 226.415 207.004 225.213C209.547 222.816 212.211 220.299 214.981 217.694C216.366 216.392 217.774 215.066 219.205 213.716C219.56 213.378 219.921 213.041 220.281 212.703C220.625 212.36 221.043 212.034 221.311 211.673C221.864 210.927 221.829 209.743 221.137 209.104C220.799 208.778 220.334 208.588 219.874 208.624C219.635 208.636 219.432 208.707 219.182 208.79C218.943 208.867 218.699 208.95 218.46 209.015C217.5 209.299 216.54 209.559 215.592 209.814C213.689 210.317 211.81 210.809 209.971 211.294C206.283 212.236 202.728 213.141 199.342 214L199.278 214.018L199.225 213.976C194.838 210.4 190.806 207.12 187.31 204.272L187.478 204.243C184.284 209.477 181.678 213.745 179.863 216.712C178.955 218.186 178.245 219.34 177.756 220.14C177.518 220.524 177.332 220.826 177.198 221.039C177.07 221.241 177 221.347 177 221.347L177.006 221.341Z" fill="#263238"/>
<path d="M202.999 228.996C202.959 229.041 202.552 228.691 201.79 228.285C201.039 227.879 199.904 227.446 198.597 227.357C197.285 227.268 196.104 227.54 195.302 227.835C194.494 228.129 194.035 228.418 194.001 228.374C193.978 228.346 194.391 227.979 195.204 227.613C196.007 227.246 197.245 226.918 198.62 227.018C199.996 227.113 201.171 227.607 201.916 228.079C202.667 228.552 203.022 228.968 202.999 228.996Z" fill="#263238"/>
<path d="M215.998 216.995C215.984 217.033 215.671 216.845 215.259 216.362C214.846 215.885 214.368 215.038 214.15 213.94C213.932 212.848 213.994 211.826 214.074 211.117C214.164 210.408 214.283 209.988 214.316 210C214.358 210.013 214.316 210.452 214.278 211.148C214.249 211.845 214.226 212.823 214.429 213.84C214.629 214.856 215.045 215.659 215.401 216.167C215.761 216.675 216.026 216.939 215.998 216.995Z" fill="#263238"/>
<path d="M121.83 196.011C120.618 190.231 118.143 184.322 113.246 181.067C109.531 178.6 104.935 177.987 100.513 177.439C69.7017 173.624 38.8852 169.809 8.07439 166C7.24558 180.664 13.4819 198.911 19.84 212.128C20.8253 214.182 21.9728 216.276 23.8623 217.53C26.1691 219.058 29.1191 219.047 31.878 218.977C62.9727 218.177 94.0849 216.847 125 213.423C123.261 207.783 123.035 201.792 121.824 196.017L121.83 196.011Z" fill="#455A64"/>
<path d="M43 170.994C43 170.994 42.6038 170.994 41.8883 170.923C41.1195 170.841 40.1024 170.729 38.8725 170.599C36.3297 170.304 32.823 169.873 28.9498 169.342C25.0824 168.811 21.5817 168.274 19.0626 167.832C17.803 167.607 16.78 167.424 16.0822 167.271C15.3844 167.124 14.9942 167.029 15.0001 167.006C15.006 166.982 15.3963 167.035 16.1059 167.141C16.8687 167.259 17.8799 167.413 19.0981 167.601C21.629 167.985 25.1238 168.481 28.9971 169.012C32.8408 169.537 36.3119 170.015 38.902 170.369C40.1261 170.546 41.1373 170.687 41.9001 170.799C42.6097 170.906 43 170.976 42.9941 171L43 170.994Z" fill="#263238"/>
<path d="M43 247C43 247 42.9654 246.941 42.9018 246.818C42.8383 246.677 42.7574 246.501 42.6477 246.278C42.4225 245.779 42.1106 245.081 41.7122 244.183C41.51 243.725 41.2848 243.22 41.0422 242.668C40.8112 242.11 40.5802 241.488 40.3261 240.831C39.8295 239.504 39.2058 238.013 38.6745 236.311C38.3973 235.466 38.1027 234.574 37.7966 233.652C37.4963 232.725 37.2538 231.739 36.9593 230.735C36.3529 228.721 35.8851 226.526 35.3538 224.225C34.4067 219.6 33.6213 214.452 33.2286 209.011C32.8821 203.563 32.9571 198.357 33.269 193.638C33.4827 191.284 33.6501 189.042 33.9793 186.964C34.1295 185.925 34.2392 184.915 34.4124 183.953C34.5915 182.996 34.759 182.074 34.9207 181.194C35.2094 179.433 35.631 177.866 35.9428 176.486C36.1103 175.799 36.2489 175.154 36.4049 174.567C36.5723 173.986 36.7283 173.451 36.8611 172.97C37.1383 172.031 37.352 171.291 37.5079 170.763C37.583 170.528 37.6407 170.34 37.6811 170.194C37.7216 170.065 37.7447 170 37.7504 170C37.7504 170 37.7447 170.07 37.71 170.2C37.6754 170.346 37.6234 170.54 37.5656 170.781C37.427 171.309 37.2307 172.054 36.9766 172.999C36.8438 173.481 36.7052 174.015 36.5435 174.602C36.3991 175.189 36.2662 175.835 36.1103 176.527C35.8158 177.912 35.4115 179.474 35.1401 181.235C34.9842 182.115 34.8225 183.031 34.655 183.988C34.4875 184.944 34.3893 185.954 34.2392 186.993C33.9273 189.065 33.7656 191.302 33.5635 193.649C33.269 198.351 33.1997 203.546 33.5462 208.975C33.9389 214.405 34.7128 219.535 35.6425 224.149C36.1623 226.444 36.6243 228.639 37.2134 230.647C37.4963 231.656 37.7331 232.637 38.0277 233.564C38.3222 234.491 38.6109 235.378 38.8824 236.223C39.3963 237.931 40.0027 239.422 40.4821 240.755C40.7304 241.418 40.9498 242.04 41.1751 242.598C41.4119 243.155 41.6255 243.666 41.8219 244.124C42.1973 245.028 42.4918 245.738 42.7055 246.243C42.7979 246.472 42.8729 246.654 42.9249 246.795C42.9711 246.918 42.9942 246.988 42.9885 246.988L43 247Z" fill="#263238"/>
<path d="M42 217.405C42 217.498 40.4246 217.492 38.4916 217.399C36.5587 217.306 34.9944 217.154 35 217.067C35 216.974 36.5754 216.98 38.5084 217.073C40.4413 217.166 42.0056 217.317 42 217.405Z" fill="#263238"/>
<path d="M40.9999 221.985C40.9884 222.069 39.2788 221.81 37.3175 220.974C35.3505 220.143 33.9553 219.072 34.0011 219.005C34.0526 218.921 35.5049 219.842 37.4376 220.661C39.3645 221.485 41.017 221.889 40.9999 221.985Z" fill="#263238"/>
<path d="M32.9988 192.024C33.0401 192.12 31.9838 192.793 30.5498 192.956C29.1157 193.133 27.9768 192.726 28.0004 192.623C28.0181 192.497 29.1393 192.719 30.5143 192.542C31.8894 192.386 32.9634 191.906 32.9988 192.016V192.024Z" fill="#263238"/>
<path d="M34.9997 190.911C35.0241 190.988 33.6868 191.17 32.203 190.592C30.7131 190.032 29.9314 189.042 30.0047 189.004C30.078 188.938 30.9329 189.784 32.3373 190.307C33.7296 190.851 34.9997 190.812 34.9997 190.906V190.911Z" fill="#263238"/>
<path d="M67.848 90.5439C67.4363 89.3836 66.2954 88.5327 65.0428 88.1957C63.7902 87.8586 62.4376 87.9912 61.185 88.3338L49 90.9528C50.7407 92.0413 54.3927 93.0966 56.4745 93.3066C59.5149 93.6105 61.6555 93.6381 63.4726 92.6546C63.8431 93.826 65.5368 94.3509 66.6718 93.7486C67.8068 93.1463 68.2655 91.7098 67.848 90.5439Z" fill="#263238"/>
<path d="M187.994 217.989C187.971 218.075 186.331 217.633 184.396 216.809C182.454 215.984 180.966 215.087 181.001 215.008C181.035 214.915 182.576 215.667 184.506 216.485C186.43 217.31 188.023 217.897 188 217.989H187.994Z" fill="#263238"/>
<path d="M189.999 212.994C189.954 213.07 188.64 212.343 186.991 211.522C185.337 210.694 183.972 210.09 184 210.008C184.029 209.932 185.451 210.419 187.116 211.252C188.781 212.079 190.039 212.93 189.999 213V212.994Z" fill="#263238"/>
<path d="M94.3305 175.706L118.712 176L148.148 170.249C149.099 170.065 149.828 169.31 149.974 168.361L153.977 142.213C154.176 140.923 153.038 139.818 151.736 140.025L121.648 144.855C120.79 144.993 120.13 145.667 120.025 146.519L116.67 173.11L94.3772 173.006C93.6186 173.006 93 173.611 93 174.359C93 175.096 93.5952 175.695 94.3364 175.712L94.3305 175.706Z" fill="#E0E0E0"/>
<path d="M94.3686 175.605C94.3686 175.605 94.2057 175.634 93.909 175.531C93.6297 175.434 93.1759 175.148 93.0304 174.542C92.9664 174.25 92.9955 173.884 93.1933 173.558C93.3853 173.238 93.7461 172.952 94.1999 172.889C95.0901 172.855 96.1024 172.878 97.2486 172.872C101.833 172.884 108.454 172.895 116.635 172.918L116.524 173.009C117.478 165.41 118.613 156.404 119.87 146.432C120.004 145.769 120.498 145.185 121.15 144.945C121.481 144.814 121.813 144.802 122.127 144.739L123.093 144.585C124.385 144.379 125.688 144.168 127.009 143.956C129.644 143.533 132.338 143.104 135.079 142.664C137.819 142.224 140.606 141.778 143.433 141.326C144.847 141.097 146.273 140.874 147.704 140.64C148.42 140.525 149.141 140.411 149.863 140.297L150.945 140.125C151.305 140.079 151.666 139.976 152.073 140.005C152.911 140.068 153.662 140.657 153.906 141.44C154.04 141.823 154.011 142.264 153.941 142.624L153.772 143.733C153.545 145.214 153.319 146.678 153.097 148.136C152.649 151.052 152.207 153.923 151.771 156.742C151.335 159.561 150.91 162.328 150.491 165.033C150.386 165.708 150.281 166.382 150.183 167.051C150.13 167.383 150.078 167.72 150.025 168.052C149.985 168.372 149.915 168.75 149.746 169.058C149.42 169.693 148.798 170.168 148.1 170.311C147.442 170.442 146.785 170.568 146.133 170.694C135.724 172.706 126.409 174.508 118.7 176H118.689H118.677C111.131 175.891 105.062 175.8 100.862 175.737C98.773 175.703 97.1555 175.674 96.0443 175.651C95.5032 175.64 95.0843 175.628 94.7933 175.623C94.5141 175.617 94.3686 175.605 94.3686 175.605C94.3686 175.605 94.5141 175.6 94.7933 175.594C95.0843 175.594 95.4974 175.594 96.0443 175.594C97.1555 175.6 98.773 175.611 100.862 175.623C105.062 175.663 111.131 175.72 118.677 175.788H118.654C126.357 174.279 135.666 172.455 146.075 170.419C146.727 170.293 147.378 170.162 148.036 170.036C148.652 169.91 149.205 169.493 149.49 168.927C149.641 168.641 149.7 168.344 149.74 168.006C149.793 167.675 149.845 167.343 149.892 167.006C149.996 166.337 150.095 165.662 150.2 164.987C150.613 162.282 151.038 159.515 151.468 156.696C151.899 153.877 152.341 151.006 152.789 148.09C153.01 146.632 153.237 145.163 153.464 143.687L153.633 142.578C153.703 142.201 153.72 141.869 153.609 141.532C153.406 140.863 152.76 140.354 152.044 140.302C151.713 140.274 151.352 140.371 150.991 140.417L149.909 140.588C149.188 140.703 148.466 140.817 147.751 140.931C146.319 141.16 144.894 141.389 143.48 141.612C140.652 142.063 137.865 142.509 135.125 142.944C132.385 143.379 129.691 143.807 127.055 144.231C125.734 144.442 124.431 144.648 123.14 144.854L122.174 145.008C121.854 145.071 121.522 145.088 121.254 145.197C120.69 145.408 120.26 145.912 120.143 146.483C118.869 156.444 117.711 165.439 116.74 173.032L116.728 173.13H116.629C108.449 173.072 101.833 173.021 97.2428 172.987C96.1024 172.987 95.0726 172.952 94.2115 172.975C93.7868 173.027 93.4435 173.29 93.2573 173.593C93.0712 173.896 93.0363 174.239 93.0886 174.525C93.2108 175.108 93.6413 175.4 93.9148 175.503C94.1999 175.611 94.3686 175.594 94.3628 175.605H94.3686Z" fill="#263238"/>
<path d="M122.994 146.006C123.078 146.017 122.256 152.965 121.155 161.52C120.054 170.081 119.095 177.012 119.006 177C118.922 176.988 119.744 170.041 120.845 161.48C121.946 152.919 122.905 145.988 122.994 146V146.006Z" fill="#263238"/>
<path d="M135.282 156.603C134.716 157.891 135.029 159.339 135.977 159.833C136.925 160.328 138.153 159.686 138.718 158.397C139.284 157.109 138.971 155.661 138.023 155.167C137.075 154.672 135.847 155.314 135.282 156.603Z" fill="white"/>
<rect x="102" y="32" width="99" height="15" rx="2.82133" fill="#F3852D" fill-opacity="0.2"/>
<path d="M109 39.5C109 38.1193 110.119 37 111.5 37H140.5C141.881 37 143 38.1193 143 39.5C143 40.8807 141.881 42 140.5 42H111.5C110.119 42 109 40.8807 109 39.5Z" fill="#F3852D" fill-opacity="0.4"/>
<rect x="206" y="32" width="99" height="15" rx="2.82133" fill="#F3852D" fill-opacity="0.2"/>
<path d="M213 39.5C213 38.1193 214.119 37 215.5 37H244.5C245.881 37 247 38.1193 247 39.5C247 40.8807 245.881 42 244.5 42H215.5C214.119 42 213 40.8807 213 39.5Z" fill="#F3852D" fill-opacity="0.4"/>
<rect x="102" y="53" width="99" height="15" rx="2.82133" fill="#F3852D" fill-opacity="0.2"/>
<path d="M109 60.5C109 59.1193 110.119 58 111.5 58H140.5C141.881 58 143 59.1193 143 60.5C143 61.8807 141.881 63 140.5 63H111.5C110.119 63 109 61.8807 109 60.5Z" fill="#F3852D" fill-opacity="0.4"/>
<rect x="206" y="53" width="99" height="15" rx="2.82133" fill="#F3852D" fill-opacity="0.2"/>
<path d="M213 60.5C213 59.1193 214.119 58 215.5 58H244.5C245.881 58 247 59.1193 247 60.5C247 61.8807 245.881 63 244.5 63H215.5C214.119 63 213 61.8807 213 60.5Z" fill="#F3852D" fill-opacity="0.4"/>
<rect x="206" y="75" width="99" height="15" rx="2.82133" fill="#F3852D" fill-opacity="0.2"/>
<path d="M213 82.5C213 81.1193 214.119 80 215.5 80H244.5C245.881 80 247 81.1193 247 82.5C247 83.8807 245.881 85 244.5 85H215.5C214.119 85 213 83.8807 213 82.5Z" fill="#F3852D" fill-opacity="0.4"/>
<rect x="102" y="75" width="99" height="15" rx="2.82133" fill="#F3852D" fill-opacity="0.2"/>
<path d="M109 82.5C109 81.1193 110.119 80 111.5 80H140.5C141.881 80 143 81.1193 143 82.5C143 83.8807 141.881 85 140.5 85H111.5C110.119 85 109 83.8807 109 82.5Z" fill="#F3852D" fill-opacity="0.4"/>
<rect x="102" y="96" width="99" height="15" rx="2.82133" fill="#F3852D" fill-opacity="0.2"/>
<path d="M109 103.5C109 102.119 110.119 101 111.5 101H140.5C141.881 101 143 102.119 143 103.5C143 104.881 141.881 106 140.5 106H111.5C110.119 106 109 104.881 109 103.5Z" fill="#F3852D" fill-opacity="0.4"/>
<rect x="206" y="96" width="99" height="15" rx="2.82133" fill="#F3852D" fill-opacity="0.2"/>
<path d="M213 103.5C213 102.119 214.119 101 215.5 101H244.5C245.881 101 247 102.119 247 103.5C247 104.881 245.881 106 244.5 106H215.5C214.119 106 213 104.881 213 103.5Z" fill="#F3852D" fill-opacity="0.4"/>
<rect x="181" y="122" width="46" height="15" rx="7.5" fill="#F3852D"/>
</g>
<defs>
<clipPath id="clip0_659_1513">
<rect width="396" height="247" fill="white"/>
</clipPath>
</defs>
</svg>
