<svg width="21" height="27" viewBox="0 0 21 27" fill="none" xmlns="http://www.w3.org/2000/svg">
<path d="M18.1466 13.6295C17.6293 13.331 16.9826 13.4206 16.5096 13.7852C14.8979 15.0278 12.7913 15.7824 10.5001 15.7824C8.20882 15.7824 6.10226 15.0278 4.49052 13.7852C4.01753 13.4206 3.37081 13.331 2.85353 13.6295C1.0649 14.6654 0 16.422 0 18.3228V23.5475C0 25.0339 1.35646 26.25 3.01435 26.25H17.9856C19.6435 26.25 21 25.0339 21 23.5475V18.3228C21 16.422 19.935 14.6654 18.1466 13.6295Z" fill="#AA2AE1"/>
<path d="M17.0625 6.5625C17.0625 10.1868 14.1243 13.125 10.5 13.125C6.87566 13.125 3.9375 10.1868 3.9375 6.5625C3.9375 2.93816 6.87566 0 10.5 0C14.1243 0 17.0625 2.93816 17.0625 6.5625Z" fill="#AA2AE1"/>
</svg>
