<svg width="28" height="28" viewBox="0 0 28 28" fill="none" xmlns="http://www.w3.org/2000/svg">
<path d="M23.625 7.43756H20.6062C21.0301 6.60155 21.1418 5.64175 20.9214 4.73073C20.7009 3.81971 20.1626 3.01723 19.4034 2.46757C18.6441 1.91791 17.7137 1.65713 16.7794 1.73211C15.845 1.80709 14.9681 2.21292 14.3063 2.87662C14.1957 2.98951 14.0934 3.11013 14 3.23756C13.9066 3.11013 13.8043 2.98951 13.6937 2.87662C13.0319 2.21292 12.155 1.80709 11.2206 1.73211C10.2863 1.65713 9.35589 1.91791 8.59665 2.46757C7.8374 3.01723 7.29915 3.81971 7.07865 4.73073C6.85815 5.64175 6.96988 6.60155 7.39375 7.43756H4.375C3.79573 7.44044 3.24099 7.67183 2.83138 8.08144C2.42177 8.49106 2.19037 9.04579 2.1875 9.62506V13.1251C2.18944 13.6288 2.36432 14.1166 2.68288 14.5068C3.00143 14.8971 3.44434 15.1661 3.9375 15.2688V21.8751C3.94037 22.4543 4.17177 23.0091 4.58138 23.4187C4.99099 23.8283 5.54573 24.0597 6.125 24.0626H21.875C22.4543 24.0597 23.009 23.8283 23.4186 23.4187C23.8282 23.0091 24.0596 22.4543 24.0625 21.8751V15.2688C24.5557 15.1661 24.9986 14.8971 25.3171 14.5068C25.6357 14.1166 25.8106 13.6288 25.8125 13.1251V9.62506C25.8096 9.04579 25.5782 8.49106 25.1686 8.08144C24.759 7.67183 24.2043 7.44044 23.625 7.43756ZM23.1875 12.6876H15.3125V10.0626H23.1875V12.6876ZM16.1656 4.72506C16.2878 4.60328 16.4328 4.50679 16.5924 4.44111C16.7519 4.37542 16.9228 4.34183 17.0953 4.34225C17.3554 4.34161 17.6098 4.41824 17.8262 4.56242C18.0426 4.70659 18.2113 4.91181 18.3109 5.15204C18.4106 5.39226 18.4366 5.65667 18.3856 5.91169C18.3347 6.16672 18.2092 6.40087 18.025 6.58444C17.6641 6.94537 16.5484 7.21881 15.3891 7.35006C15.5422 6.05944 15.8594 5.03131 16.1656 4.72506ZM9.975 4.72506C10.224 4.48319 10.5575 4.34789 10.9047 4.34789C11.2518 4.34789 11.5853 4.48319 11.8344 4.72506C12.1953 5.086 12.4688 6.20162 12.6 7.361C11.3094 7.20788 10.2812 6.89069 9.975 6.58444C9.73313 6.3354 9.59783 6.00191 9.59783 5.65475C9.59783 5.30759 9.73313 4.9741 9.975 4.72506ZM4.8125 10.0626H12.6875V12.6876H4.8125V10.0626ZM6.5625 15.3126H12.6875V21.4376H6.5625V15.3126ZM15.3125 21.4376V15.3126H21.4375V21.4376H15.3125Z" fill="#AA2AE1"/>
</svg>
