<svg width="40" height="40" viewBox="0 0 40 40" fill="none" xmlns="http://www.w3.org/2000/svg">
<path d="M20 39H1.00401V19.996C1.00401 9.55168 9.55569 1 20 1C30.4483 1 39 9.55168 39 20C39 30.4483 30.4483 39 20 39Z" stroke="#C3D431" stroke-width="2"/>
<path d="M23.48 15.904H18.12V19.088C18.344 18.7893 18.6747 18.5387 19.112 18.336C19.56 18.1333 20.0347 18.032 20.536 18.032C21.432 18.032 22.1573 18.224 22.712 18.608C23.2773 18.992 23.6773 19.4773 23.912 20.064C24.1573 20.6507 24.28 21.2693 24.28 21.92C24.28 22.7093 24.1253 23.4133 23.816 24.032C23.5173 24.64 23.064 25.12 22.456 25.472C21.8587 25.824 21.1227 26 20.248 26C19.0853 26 18.152 25.712 17.448 25.136C16.744 24.56 16.3227 23.7973 16.184 22.848H17.96C18.0773 23.3493 18.3387 23.7493 18.744 24.048C19.1493 24.336 19.656 24.48 20.264 24.48C21.0213 24.48 21.5867 24.2507 21.96 23.792C22.344 23.3333 22.536 22.7253 22.536 21.968C22.536 21.2 22.344 20.6133 21.96 20.208C21.576 19.792 21.0107 19.584 20.264 19.584C19.7413 19.584 19.2987 19.7173 18.936 19.984C18.584 20.24 18.328 20.592 18.168 21.04H16.44V14.304H23.48V15.904Z" fill="#C3D431"/>
<path opacity="0.1" d="M19.8965 0C8.95283 0 0 8.9994 0 20V40L34 5.92741C30.3893 2.27391 25.3943 0 19.8965 0Z" fill="white"/>
</svg>
