<svg width="30" height="30" viewBox="0 0 30 30" fill="none" xmlns="http://www.w3.org/2000/svg">
<path d="M15.8377 14.8461C17.707 14.8461 19.2224 13.3308 19.2224 11.4615C19.2224 9.59225 17.707 8.0769 15.8377 8.0769C13.9685 8.0769 12.4531 9.59225 12.4531 11.4615C12.4531 13.3308 13.9685 14.8461 15.8377 14.8461Z" stroke="#AA2AE1" stroke-width="2" stroke-linecap="round" stroke-linejoin="round"/>
<path d="M4 8.07692H5.69231V6.38462C5.69231 5.48696 6.0489 4.62607 6.68364 3.99133C7.31838 3.35659 8.17927 3 9.07692 3H22.6154C23.513 3 24.3739 3.35659 25.0087 3.99133C25.6434 4.62607 26 5.48696 26 6.38462V23.3077C26 24.2053 25.6434 25.0662 25.0087 25.701C24.3739 26.3357 23.513 26.6923 22.6154 26.6923H9.07692C8.17927 26.6923 7.31838 26.3357 6.68364 25.701C6.0489 25.0662 5.69231 24.2053 5.69231 23.3077V21.6154H4M4 14.8462H5.69231M4 11.4615H5.69231M4 18.2308H5.69231" stroke="#AA2AE1" stroke-width="2" stroke-linecap="round" stroke-linejoin="round"/>
<path fill-rule="evenodd" clip-rule="evenodd" d="M20.9273 19.9231V18.2308C20.9273 17.3332 20.5707 16.4723 19.936 15.8375C19.3012 15.2028 18.4403 14.8462 17.5427 14.8462H14.1581C13.2604 14.8462 12.3995 15.2028 11.7648 15.8375C11.13 16.4723 10.7734 17.3332 10.7734 18.2308V19.9231C10.7734 20.3719 10.9517 20.8024 11.2691 21.1198C11.5865 21.4371 12.0169 21.6154 12.4657 21.6154H19.235C19.6838 21.6154 20.1142 21.4371 20.4316 21.1198C20.749 20.8024 20.9273 20.3719 20.9273 19.9231Z" stroke="#AA2AE1" stroke-width="2" stroke-linecap="round" stroke-linejoin="round"/>
</svg>
