<svg width="33" height="31" viewBox="0 0 33 31" fill="none" xmlns="http://www.w3.org/2000/svg">
<path d="M6.25167 12.4238C6.7673 10.964 7.60435 9.59124 8.78292 8.41936C12.9682 4.2341 19.7517 4.2341 23.9369 8.41936L25.082 9.57115H21.7137C20.5285 9.57115 19.5709 10.5287 19.5709 11.714C19.5709 12.8993 20.5285 13.8569 21.7137 13.8569H30.2785C31.4637 13.8569 32.4213 12.8993 32.4213 11.714V3.14258C32.4213 1.95731 31.4637 0.999721 30.2785 0.999721C29.0932 0.999721 28.1356 1.95731 28.1356 3.14258V6.57115L26.9637 5.39258C21.1044 -0.466797 11.6088 -0.466797 5.74944 5.39258C4.11551 7.02651 2.93694 8.94838 2.21373 11.0042C1.81864 12.1225 2.40792 13.3412 3.51953 13.7363C4.63114 14.1314 5.85658 13.5421 6.25167 12.4305V12.4238ZM1.82533 18.2296C1.49051 18.3301 1.16908 18.5109 0.907924 18.7787C0.640067 19.0466 0.459263 19.368 0.365513 19.7162C0.345424 19.7966 0.325335 19.8836 0.311942 19.9707C0.291853 20.0845 0.285156 20.1984 0.285156 20.3122V28.8569C0.285156 30.0421 1.24275 30.9997 2.42801 30.9997C3.61328 30.9997 4.57087 30.0421 4.57087 28.8569V25.435L5.74944 26.6069C11.6088 32.4595 21.1044 32.4595 26.957 26.6069C28.591 24.9729 29.7762 23.0511 30.4994 21.002C30.8945 19.8836 30.3052 18.6649 29.1936 18.2698C28.082 17.8747 26.8566 18.464 26.4615 19.5756C25.9459 21.0354 25.1088 22.4082 23.9302 23.5801C19.745 27.7653 12.9615 27.7653 8.77623 23.5801L8.76953 23.5734L7.62444 22.4283H10.9994C12.1847 22.4283 13.1423 21.4707 13.1423 20.2854C13.1423 19.1002 12.1847 18.1426 10.9994 18.1426H2.4548C2.34766 18.1426 2.24051 18.1493 2.13337 18.1627C2.02623 18.1761 1.92578 18.1961 1.82533 18.2296Z" fill="#AA2AE1"/>
</svg>
