<svg width="34" height="34" viewBox="0 0 34 34" fill="none" xmlns="http://www.w3.org/2000/svg">
<path d="M15.5833 17.0001C14.025 17.0001 12.691 16.4452 11.5813 15.3355C10.4715 14.2258 9.91667 12.8917 9.91667 11.3334C9.91667 9.77508 10.4715 8.44105 11.5813 7.33133C12.691 6.22161 14.025 5.66675 15.5833 5.66675C17.1417 5.66675 18.4757 6.22161 19.5854 7.33133C20.6951 8.44105 21.25 9.77508 21.25 11.3334C21.25 12.8917 20.6951 14.2258 19.5854 15.3355C18.4757 16.4452 17.1417 17.0001 15.5833 17.0001ZM30.3167 32.3001L26.775 28.7584C26.2792 29.0417 25.7479 29.2779 25.1813 29.4667C24.6146 29.6556 24.0125 29.7501 23.375 29.7501C21.6042 29.7501 20.0992 29.1301 18.8601 27.89C17.621 26.6499 17.0009 25.145 17 23.3751C17 21.6042 17.62 20.0988 18.8601 18.8587C20.1001 17.6187 21.6051 16.9991 23.375 17.0001C25.1458 17.0001 26.6513 17.6201 27.8913 18.8602C29.1314 20.1002 29.7509 21.6052 29.75 23.3751C29.75 24.0126 29.6556 24.6147 29.4667 25.1813C29.2778 25.748 29.0417 26.2792 28.7583 26.7751L32.3 30.3167C32.5597 30.5765 32.6896 30.907 32.6896 31.3084C32.6896 31.7098 32.5597 32.0404 32.3 32.3001C32.0403 32.5598 31.7097 32.6897 31.3083 32.6897C30.9069 32.6897 30.5764 32.5598 30.3167 32.3001ZM23.375 26.9167C24.3667 26.9167 25.2049 26.5744 25.8896 25.8897C26.5743 25.2049 26.9167 24.3667 26.9167 23.3751C26.9167 22.3834 26.5743 21.5452 25.8896 20.8605C25.2049 20.1758 24.3667 19.8334 23.375 19.8334C22.3833 19.8334 21.5451 20.1758 20.8604 20.8605C20.1757 21.5452 19.8333 22.3834 19.8333 23.3751C19.8333 24.3667 20.1757 25.2049 20.8604 25.8897C21.5451 26.5744 22.3833 26.9167 23.375 26.9167ZM7.08334 28.3334C6.30417 28.3334 5.63692 28.0557 5.08159 27.5004C4.52625 26.9451 4.24906 26.2783 4.25 25.5001V24.4022C4.25 23.5994 4.4507 22.8556 4.85209 22.1709C5.25347 21.4862 5.80834 20.9667 6.51667 20.6126C7.72084 19.9987 9.07847 19.4792 10.5896 19.0542C12.1007 18.6292 13.7771 18.4167 15.6188 18.4167C15.1465 19.1487 14.7862 19.934 14.5378 20.7727C14.2894 21.6113 14.1657 22.4788 14.1667 23.3751C14.1667 24.2487 14.2909 25.1048 14.5393 25.9435C14.7876 26.7822 15.147 27.5788 15.6173 28.3334H7.08334Z" fill="#AA2AE1"/>
</svg>
