<svg width="30" height="30" viewBox="0 0 30 30" fill="none" xmlns="http://www.w3.org/2000/svg">
<path d="M11.5448 27C9.566 26.4092 7.77383 25.3161 6.3428 23.8271C6.80323 23.281 7.09025 22.6099 7.16713 21.8998C7.24401 21.1897 7.10726 20.4727 6.77438 19.8408C6.44149 19.2088 5.92761 18.6905 5.2985 18.3522C4.66938 18.0139 3.95365 17.8711 3.24288 17.9419C3.08095 17.1487 2.99958 16.3412 3 15.5317C3 14.2814 3.19143 13.0755 3.54796 11.9424H3.59821C4.20824 11.9426 4.80825 11.7873 5.3416 11.4912C5.87494 11.1951 6.32401 10.768 6.64641 10.2501C6.96881 9.73222 7.1539 9.14072 7.1842 8.53145C7.2145 7.92217 7.08901 7.31523 6.81958 6.76792C8.22214 5.46192 9.91834 4.51256 11.765 4C12.0655 4.59008 12.5234 5.08551 13.088 5.43149C13.6527 5.77747 14.302 5.9605 14.9642 5.96034C15.6264 5.9605 16.2757 5.77747 16.8404 5.43149C17.405 5.08551 17.8629 4.59008 18.1634 4C20.0101 4.51256 21.7063 5.46192 23.1089 6.76792C22.8375 7.31906 22.7121 7.93063 22.7447 8.5441C22.7773 9.15757 22.9668 9.7524 23.2951 10.2717C23.6234 10.7909 24.0795 11.2172 24.6197 11.5097C25.1599 11.8023 25.7662 11.9513 26.3805 11.9424C26.7447 13.104 26.9295 14.3144 26.9284 15.5317C26.9284 16.3572 26.8447 17.1636 26.6856 17.9425C25.9748 17.8717 25.259 18.0145 24.6299 18.3528C24.0008 18.6911 23.4869 19.2094 23.1541 19.8413C22.8212 20.4733 22.6844 21.1903 22.7613 21.9004C22.8382 22.6105 23.1252 23.2816 23.5856 23.8277C22.1545 25.3165 20.3624 26.4093 18.3836 27C18.1512 26.2757 17.6949 25.644 17.0803 25.1958C16.4658 24.7475 15.7248 24.506 14.9642 24.506C14.2036 24.506 13.4626 24.7475 12.8481 25.1958C12.2336 25.644 11.7772 26.2757 11.5448 27Z" stroke="#AA2AE1" stroke-width="2" stroke-linejoin="round"/>
<path d="M14.9687 19.7192C15.5186 19.7192 16.0632 19.6109 16.5712 19.4004C17.0792 19.19 17.5409 18.8815 17.9297 18.4927C18.3186 18.1039 18.627 17.6422 18.8374 17.1342C19.0479 16.6261 19.1562 16.0816 19.1562 15.5317C19.1562 14.9818 19.0479 14.4373 18.8374 13.9292C18.627 13.4212 18.3186 12.9596 17.9297 12.5707C17.5409 12.1819 17.0792 11.8734 16.5712 11.663C16.0632 11.4526 15.5186 11.3442 14.9687 11.3442C13.8581 11.3442 12.793 11.7854 12.0077 12.5707C11.2224 13.356 10.7813 14.4211 10.7812 15.5317C10.7813 16.6423 11.2224 17.7074 12.0077 18.4927C12.793 19.278 13.8581 19.7192 14.9687 19.7192Z" stroke="#AA2AE1" stroke-width="2" stroke-linejoin="round"/>
</svg>
