<svg width="144" height="860" viewBox="0 0 144 860" fill="none" xmlns="http://www.w3.org/2000/svg">
<path d="M2.134 30.524C3.542 29.3507 4.664 28.3753 5.5 27.598C6.336 26.806 7.03267 25.9847 7.59 25.134C8.14733 24.2833 8.426 23.4473 8.426 22.626C8.426 21.878 8.25 21.2913 7.898 20.866C7.546 20.4407 7.00333 20.228 6.27 20.228C5.53667 20.228 4.972 20.4773 4.576 20.976C4.18 21.46 3.97467 22.1273 3.96 22.978H0.968C1.02667 21.218 1.54733 19.8833 2.53 18.974C3.52733 18.0647 4.78867 17.61 6.314 17.61C7.986 17.61 9.26933 18.0573 10.164 18.952C11.0587 19.832 11.506 20.998 11.506 22.45C11.506 23.594 11.198 24.6867 10.582 25.728C9.966 26.7693 9.262 27.6787 8.47 28.456C7.678 29.2187 6.644 30.1427 5.368 31.228H11.858V33.78H0.99V31.492L2.134 30.524ZM13.7988 25.772C13.7988 23.2347 14.2535 21.2473 15.1628 19.81C16.0868 18.3727 17.6121 17.654 19.7388 17.654C21.8655 17.654 23.3835 18.3727 24.2928 19.81C25.2168 21.2473 25.6788 23.2347 25.6788 25.772C25.6788 28.324 25.2168 30.326 24.2928 31.778C23.3835 33.23 21.8655 33.956 19.7388 33.956C17.6121 33.956 16.0868 33.23 15.1628 31.778C14.2535 30.326 13.7988 28.324 13.7988 25.772ZM22.6428 25.772C22.6428 24.6867 22.5695 23.7773 22.4228 23.044C22.2908 22.296 22.0121 21.6873 21.5868 21.218C21.1761 20.7487 20.5601 20.514 19.7388 20.514C18.9175 20.514 18.2941 20.7487 17.8688 21.218C17.4581 21.6873 17.1795 22.296 17.0328 23.044C16.9008 23.7773 16.8348 24.6867 16.8348 25.772C16.8348 26.8867 16.9008 27.8253 17.0328 28.588C17.1648 29.336 17.4435 29.9447 17.8688 30.414C18.2941 30.8687 18.9175 31.096 19.7388 31.096C20.5601 31.096 21.1835 30.8687 21.6088 30.414C22.0341 29.9447 22.3128 29.336 22.4448 28.588C22.5768 27.8253 22.6428 26.8867 22.6428 25.772ZM27.6475 20.8V17.962H32.9495V34H29.7815V20.8H27.6475ZM39.5562 29.49C39.6735 30.1353 39.9375 30.634 40.3482 30.986C40.7735 31.3233 41.3382 31.492 42.0422 31.492C42.9515 31.492 43.6115 31.118 44.0222 30.37C44.4328 29.6073 44.6382 28.3313 44.6382 26.542C44.3008 27.0113 43.8242 27.378 43.2082 27.642C42.6068 27.906 41.9542 28.038 41.2502 28.038C40.3115 28.038 39.4608 27.8473 38.6982 27.466C37.9502 27.07 37.3562 26.4907 36.9162 25.728C36.4762 24.9507 36.2562 24.012 36.2562 22.912C36.2562 21.284 36.7402 19.9933 37.7082 19.04C38.6762 18.072 39.9962 17.588 41.6682 17.588C43.7508 17.588 45.2175 18.2553 46.0682 19.59C46.9335 20.9247 47.3662 22.934 47.3662 25.618C47.3662 27.5247 47.1975 29.0867 46.8602 30.304C46.5375 31.5213 45.9728 32.4453 45.1662 33.076C44.3742 33.7067 43.2888 34.022 41.9102 34.022C40.8248 34.022 39.9008 33.8167 39.1382 33.406C38.3755 32.9807 37.7888 32.4307 37.3782 31.756C36.9822 31.0667 36.7548 30.3113 36.6962 29.49H39.5562ZM41.8882 25.53C42.6508 25.53 43.2522 25.2953 43.6922 24.826C44.1322 24.3567 44.3522 23.726 44.3522 22.934C44.3522 22.0687 44.1175 21.4013 43.6482 20.932C43.1935 20.448 42.5702 20.206 41.7782 20.206C40.9862 20.206 40.3555 20.4553 39.8862 20.954C39.4315 21.438 39.2042 22.0833 39.2042 22.89C39.2042 23.6673 39.4242 24.3053 39.8642 24.804C40.3188 25.288 40.9935 25.53 41.8882 25.53Z" fill="#3E3B3F"/>
<path d="M2.134 299.524C3.542 298.351 4.664 297.375 5.5 296.598C6.336 295.806 7.03267 294.985 7.59 294.134C8.14733 293.283 8.426 292.447 8.426 291.626C8.426 290.878 8.25 290.291 7.898 289.866C7.546 289.441 7.00333 289.228 6.27 289.228C5.53667 289.228 4.972 289.477 4.576 289.976C4.18 290.46 3.97467 291.127 3.96 291.978H0.968C1.02667 290.218 1.54733 288.883 2.53 287.974C3.52733 287.065 4.78867 286.61 6.314 286.61C7.986 286.61 9.26933 287.057 10.164 287.952C11.0587 288.832 11.506 289.998 11.506 291.45C11.506 292.594 11.198 293.687 10.582 294.728C9.966 295.769 9.262 296.679 8.47 297.456C7.678 298.219 6.644 299.143 5.368 300.228H11.858V302.78H0.99V300.492L2.134 299.524ZM13.7988 294.772C13.7988 292.235 14.2535 290.247 15.1628 288.81C16.0868 287.373 17.6121 286.654 19.7388 286.654C21.8655 286.654 23.3835 287.373 24.2928 288.81C25.2168 290.247 25.6788 292.235 25.6788 294.772C25.6788 297.324 25.2168 299.326 24.2928 300.778C23.3835 302.23 21.8655 302.956 19.7388 302.956C17.6121 302.956 16.0868 302.23 15.1628 300.778C14.2535 299.326 13.7988 297.324 13.7988 294.772ZM22.6428 294.772C22.6428 293.687 22.5695 292.777 22.4228 292.044C22.2908 291.296 22.0121 290.687 21.5868 290.218C21.1761 289.749 20.5601 289.514 19.7388 289.514C18.9175 289.514 18.2941 289.749 17.8688 290.218C17.4581 290.687 17.1795 291.296 17.0328 292.044C16.9008 292.777 16.8348 293.687 16.8348 294.772C16.8348 295.887 16.9008 296.825 17.0328 297.588C17.1648 298.336 17.4435 298.945 17.8688 299.414C18.2941 299.869 18.9175 300.096 19.7388 300.096C20.5601 300.096 21.1835 299.869 21.6088 299.414C22.0341 298.945 22.3128 298.336 22.4448 297.588C22.5768 296.825 22.6428 295.887 22.6428 294.772ZM28.9895 299.524C30.3975 298.351 31.5195 297.375 32.3555 296.598C33.1915 295.806 33.8881 294.985 34.4455 294.134C35.0028 293.283 35.2815 292.447 35.2815 291.626C35.2815 290.878 35.1055 290.291 34.7535 289.866C34.4015 289.441 33.8588 289.228 33.1255 289.228C32.3921 289.228 31.8275 289.477 31.4315 289.976C31.0355 290.46 30.8301 291.127 30.8155 291.978H27.8235C27.8821 290.218 28.4028 288.883 29.3855 287.974C30.3828 287.065 31.6441 286.61 33.1695 286.61C34.8415 286.61 36.1248 287.057 37.0195 287.952C37.9141 288.832 38.3615 289.998 38.3615 291.45C38.3615 292.594 38.0535 293.687 37.4375 294.728C36.8215 295.769 36.1175 296.679 35.3255 297.456C34.5335 298.219 33.4995 299.143 32.2235 300.228H38.7135V302.78H27.8455V300.492L28.9895 299.524ZM40.6543 294.772C40.6543 292.235 41.1089 290.247 42.0183 288.81C42.9423 287.373 44.4676 286.654 46.5943 286.654C48.7209 286.654 50.2389 287.373 51.1483 288.81C52.0723 290.247 52.5343 292.235 52.5343 294.772C52.5343 297.324 52.0723 299.326 51.1483 300.778C50.2389 302.23 48.7209 302.956 46.5943 302.956C44.4676 302.956 42.9423 302.23 42.0183 300.778C41.1089 299.326 40.6543 297.324 40.6543 294.772ZM49.4983 294.772C49.4983 293.687 49.4249 292.777 49.2783 292.044C49.1463 291.296 48.8676 290.687 48.4423 290.218C48.0316 289.749 47.4156 289.514 46.5943 289.514C45.7729 289.514 45.1496 289.749 44.7243 290.218C44.3136 290.687 44.0349 291.296 43.8883 292.044C43.7563 292.777 43.6903 293.687 43.6903 294.772C43.6903 295.887 43.7563 296.825 43.8883 297.588C44.0203 298.336 44.2989 298.945 44.7243 299.414C45.1496 299.869 45.7729 300.096 46.5943 300.096C47.4156 300.096 48.0389 299.869 48.4643 299.414C48.8896 298.945 49.1683 298.336 49.3003 297.588C49.4323 296.825 49.4983 295.887 49.4983 294.772Z" fill="#3E3B3F"/>
<path d="M2.134 568.524C3.542 567.351 4.664 566.375 5.5 565.598C6.336 564.806 7.03267 563.985 7.59 563.134C8.14733 562.283 8.426 561.447 8.426 560.626C8.426 559.878 8.25 559.291 7.898 558.866C7.546 558.441 7.00333 558.228 6.27 558.228C5.53667 558.228 4.972 558.477 4.576 558.976C4.18 559.46 3.97467 560.127 3.96 560.978H0.968C1.02667 559.218 1.54733 557.883 2.53 556.974C3.52733 556.065 4.78867 555.61 6.314 555.61C7.986 555.61 9.26933 556.057 10.164 556.952C11.0587 557.832 11.506 558.998 11.506 560.45C11.506 561.594 11.198 562.687 10.582 563.728C9.966 564.769 9.262 565.679 8.47 566.456C7.678 567.219 6.644 568.143 5.368 569.228H11.858V571.78H0.99V569.492L2.134 568.524ZM13.7988 563.772C13.7988 561.235 14.2535 559.247 15.1628 557.81C16.0868 556.373 17.6121 555.654 19.7388 555.654C21.8655 555.654 23.3835 556.373 24.2928 557.81C25.2168 559.247 25.6788 561.235 25.6788 563.772C25.6788 566.324 25.2168 568.326 24.2928 569.778C23.3835 571.23 21.8655 571.956 19.7388 571.956C17.6121 571.956 16.0868 571.23 15.1628 569.778C14.2535 568.326 13.7988 566.324 13.7988 563.772ZM22.6428 563.772C22.6428 562.687 22.5695 561.777 22.4228 561.044C22.2908 560.296 22.0121 559.687 21.5868 559.218C21.1761 558.749 20.5601 558.514 19.7388 558.514C18.9175 558.514 18.2941 558.749 17.8688 559.218C17.4581 559.687 17.1795 560.296 17.0328 561.044C16.9008 561.777 16.8348 562.687 16.8348 563.772C16.8348 564.887 16.9008 565.825 17.0328 566.588C17.1648 567.336 17.4435 567.945 17.8688 568.414C18.2941 568.869 18.9175 569.096 19.7388 569.096C20.5601 569.096 21.1835 568.869 21.6088 568.414C22.0341 567.945 22.3128 567.336 22.4448 566.588C22.5768 565.825 22.6428 564.887 22.6428 563.772ZM28.9895 568.524C30.3975 567.351 31.5195 566.375 32.3555 565.598C33.1915 564.806 33.8881 563.985 34.4455 563.134C35.0028 562.283 35.2815 561.447 35.2815 560.626C35.2815 559.878 35.1055 559.291 34.7535 558.866C34.4015 558.441 33.8588 558.228 33.1255 558.228C32.3921 558.228 31.8275 558.477 31.4315 558.976C31.0355 559.46 30.8301 560.127 30.8155 560.978H27.8235C27.8821 559.218 28.4028 557.883 29.3855 556.974C30.3828 556.065 31.6441 555.61 33.1695 555.61C34.8415 555.61 36.1248 556.057 37.0195 556.952C37.9141 557.832 38.3615 558.998 38.3615 560.45C38.3615 561.594 38.0535 562.687 37.4375 563.728C36.8215 564.769 36.1175 565.679 35.3255 566.456C34.5335 567.219 33.4995 568.143 32.2235 569.228H38.7135V571.78H27.8455V569.492L28.9895 568.524ZM40.2803 558.8V555.962H45.5823V572H42.4143V558.8H40.2803Z" fill="#3E3B3F"/>
<path d="M2.134 837.524C3.542 836.351 4.664 835.375 5.5 834.598C6.336 833.806 7.03267 832.985 7.59 832.134C8.14733 831.283 8.426 830.447 8.426 829.626C8.426 828.878 8.25 828.291 7.898 827.866C7.546 827.441 7.00333 827.228 6.27 827.228C5.53667 827.228 4.972 827.477 4.576 827.976C4.18 828.46 3.97467 829.127 3.96 829.978H0.968C1.02667 828.218 1.54733 826.883 2.53 825.974C3.52733 825.065 4.78867 824.61 6.314 824.61C7.986 824.61 9.26933 825.057 10.164 825.952C11.0587 826.832 11.506 827.998 11.506 829.45C11.506 830.594 11.198 831.687 10.582 832.728C9.966 833.769 9.262 834.679 8.47 835.456C7.678 836.219 6.644 837.143 5.368 838.228H11.858V840.78H0.99V838.492L2.134 837.524ZM13.7988 832.772C13.7988 830.235 14.2535 828.247 15.1628 826.81C16.0868 825.373 17.6121 824.654 19.7388 824.654C21.8655 824.654 23.3835 825.373 24.2928 826.81C25.2168 828.247 25.6788 830.235 25.6788 832.772C25.6788 835.324 25.2168 837.326 24.2928 838.778C23.3835 840.23 21.8655 840.956 19.7388 840.956C17.6121 840.956 16.0868 840.23 15.1628 838.778C14.2535 837.326 13.7988 835.324 13.7988 832.772ZM22.6428 832.772C22.6428 831.687 22.5695 830.777 22.4228 830.044C22.2908 829.296 22.0121 828.687 21.5868 828.218C21.1761 827.749 20.5601 827.514 19.7388 827.514C18.9175 827.514 18.2941 827.749 17.8688 828.218C17.4581 828.687 17.1795 829.296 17.0328 830.044C16.9008 830.777 16.8348 831.687 16.8348 832.772C16.8348 833.887 16.9008 834.825 17.0328 835.588C17.1648 836.336 17.4435 836.945 17.8688 837.414C18.2941 837.869 18.9175 838.096 19.7388 838.096C20.5601 838.096 21.1835 837.869 21.6088 837.414C22.0341 836.945 22.3128 836.336 22.4448 835.588C22.5768 834.825 22.6428 833.887 22.6428 832.772ZM28.9895 837.524C30.3975 836.351 31.5195 835.375 32.3555 834.598C33.1915 833.806 33.8881 832.985 34.4455 832.134C35.0028 831.283 35.2815 830.447 35.2815 829.626C35.2815 828.878 35.1055 828.291 34.7535 827.866C34.4015 827.441 33.8588 827.228 33.1255 827.228C32.3921 827.228 31.8275 827.477 31.4315 827.976C31.0355 828.46 30.8301 829.127 30.8155 829.978H27.8235C27.8821 828.218 28.4028 826.883 29.3855 825.974C30.3828 825.065 31.6441 824.61 33.1695 824.61C34.8415 824.61 36.1248 825.057 37.0195 825.952C37.9141 826.832 38.3615 827.998 38.3615 829.45C38.3615 830.594 38.0535 831.687 37.4375 832.728C36.8215 833.769 36.1175 834.679 35.3255 835.456C34.5335 836.219 33.4995 837.143 32.2235 838.228H38.7135V840.78H27.8455V838.492L28.9895 837.524ZM41.6223 837.524C43.0303 836.351 44.1523 835.375 44.9883 834.598C45.8243 833.806 46.5209 832.985 47.0783 832.134C47.6356 831.283 47.9143 830.447 47.9143 829.626C47.9143 828.878 47.7383 828.291 47.3863 827.866C47.0343 827.441 46.4916 827.228 45.7583 827.228C45.0249 827.228 44.4603 827.477 44.0643 827.976C43.6683 828.46 43.4629 829.127 43.4483 829.978H40.4563C40.5149 828.218 41.0356 826.883 42.0183 825.974C43.0156 825.065 44.2769 824.61 45.8023 824.61C47.4743 824.61 48.7576 825.057 49.6523 825.952C50.5469 826.832 50.9943 827.998 50.9943 829.45C50.9943 830.594 50.6863 831.687 50.0703 832.728C49.4543 833.769 48.7503 834.679 47.9583 835.456C47.1663 836.219 46.1323 837.143 44.8563 838.228H51.3463V840.78H40.4783V838.492L41.6223 837.524Z" fill="#3E3B3F"/>
<circle cx="119" cy="25" r="25" fill="#4F46E5"/>
<path d="M110.477 26.2186L115.351 31.0928L127.536 18.9073" stroke="white" stroke-width="2.48" stroke-linecap="round" stroke-linejoin="round"/>
<rect x="116.5" y="50" width="5" height="220" fill="#4F46E5"/>
<circle cx="119" cy="295" r="25" fill="#4F46E5"/>
<path d="M110.477 296.219L115.351 301.093L127.536 288.907" stroke="white" stroke-width="2.48" stroke-linecap="round" stroke-linejoin="round"/>
<rect x="116.5" y="320" width="5" height="220" fill="#4F46E5"/>
<circle cx="119" cy="565" r="25" fill="#4F46E5"/>
<path d="M110.477 566.219L115.351 571.093L127.536 558.907" stroke="white" stroke-width="2.48" stroke-linecap="round" stroke-linejoin="round"/>
<rect x="116.5" y="590" width="5" height="220" fill="#4F46E5"/>
<circle cx="119" cy="835" r="25" fill="#4F46E5"/>
<path d="M110.477 836.219L115.351 841.093L127.536 828.907" stroke="white" stroke-width="2.48" stroke-linecap="round" stroke-linejoin="round"/>
</svg>
