<svg width="26" height="24" viewBox="0 0 26 24" fill="none" xmlns="http://www.w3.org/2000/svg">
<path d="M10.5 17V15.75H1.7625L1.75 20.75C1.75 22.1375 2.8625 23.25 4.25 23.25H21.75C23.1375 23.25 24.25 22.1375 24.25 20.75V15.75H15.5V17H10.5ZM23 5.75H17.9875V3.25L15.4875 0.75H10.4875L7.9875 3.25V5.75H3C1.625 5.75 0.5 6.875 0.5 8.25V12C0.5 13.3875 1.6125 14.5 3 14.5H10.5V12H15.5V14.5H23C24.375 14.5 25.5 13.375 25.5 12V8.25C25.5 6.875 24.375 5.75 23 5.75ZM15.5 5.75H10.5V3.25H15.5V5.75Z" fill="#AA2AE1"/>
</svg>
