<svg width="25" height="25" viewBox="0 0 25 25" fill="none" xmlns="http://www.w3.org/2000/svg">
<path d="M12.5013 22.1667C17.818 22.1667 22.168 17.8167 22.168 12.5001C22.168 7.18341 17.818 2.83341 12.5013 2.83341C7.18463 2.83341 2.83464 7.18341 2.83464 12.5001C2.83464 17.8167 7.18463 22.1667 12.5013 22.1667ZM12.5013 0.416748C19.1471 0.416748 24.5846 5.85425 24.5846 12.5001C24.5846 19.1459 19.1471 24.5834 12.5013 24.5834C5.85547 24.5834 0.417969 19.1459 0.417969 12.5001C0.417969 5.85425 5.85547 0.416748 12.5013 0.416748ZM13.1055 6.45841V13.7084H6.45963V11.8959H11.293V6.45841H13.1055Z" fill="#28A745"/>
</svg>
