<svg width="47" height="35" viewBox="0 0 47 35" fill="none" xmlns="http://www.w3.org/2000/svg">
<path d="M29.9922 0.857117C34.4725 0.857117 38.7692 2.64247 41.9372 5.82043C45.1053 8.99839 46.885 13.3086 46.885 17.8029C46.885 22.2972 45.1053 26.6075 41.9372 29.7854C38.7692 32.9634 34.4725 34.7487 29.9922 34.7487C25.5119 34.7487 21.2152 32.9634 18.0471 29.7854C14.8791 26.6075 13.0993 22.2972 13.0993 17.8029C13.0993 13.3086 14.8791 8.99839 18.0471 5.82043C21.2152 2.64247 25.5119 0.857117 29.9922 0.857117ZM29.9922 5.09357C26.632 5.09357 23.4094 6.43259 21.0334 8.81606C18.6574 11.1995 17.3225 14.4322 17.3225 17.8029C17.3225 21.1737 18.6574 24.4063 21.0334 26.7898C23.4094 29.1733 26.632 30.5123 29.9922 30.5123C33.3524 30.5123 36.575 29.1733 38.951 26.7898C41.327 24.4063 42.6618 21.1737 42.6618 17.8029C42.6618 14.4322 41.327 11.1995 38.951 8.81606C36.575 6.43259 33.3524 5.09357 29.9922 5.09357ZM27.8806 10.9137C27.8806 10.0391 28.5896 9.33002 29.4643 9.33002C30.3389 9.33002 31.048 10.0391 31.048 10.9137V17.3369L34.8524 21.1532C35.4691 21.7719 35.4691 22.7729 34.8524 23.3915C34.2329 24.0129 33.2265 24.0129 32.6071 23.3915L27.8806 18.6502V10.9137ZM2.54129 30.5123C1.98126 30.5123 1.44417 30.2891 1.04816 29.8919C0.65216 29.4946 0.429688 28.9559 0.429688 28.3941C0.429687 27.8323 0.65216 27.2935 1.04816 26.8962C1.44417 26.499 1.98126 26.2758 2.54129 26.2758H10.6287C11.2833 27.7798 12.128 29.199 13.0993 30.5123H2.54129ZM4.6529 19.9212C4.09287 19.9212 3.55577 19.698 3.15977 19.3007C2.76377 18.9035 2.54129 18.3647 2.54129 17.8029C2.54129 17.2411 2.76377 16.7024 3.15977 16.3051C3.55577 15.9079 4.09287 15.6847 4.6529 15.6847H8.9817L8.87612 17.8029L8.9817 19.9212H4.6529ZM6.76451 9.33002C6.20448 9.33002 5.66738 9.10685 5.27138 8.70961C4.87537 8.31236 4.6529 7.77358 4.6529 7.2118C4.6529 6.65001 4.87537 6.11123 5.27138 5.71398C5.66738 5.31674 6.20448 5.09357 6.76451 5.09357H13.0993C12.128 6.40687 11.2833 7.82608 10.6287 9.33002H6.76451Z" fill="#AA2AE1"/>
</svg>
