<svg width="52" height="52" viewBox="0 0 52 52" fill="none" xmlns="http://www.w3.org/2000/svg">
<rect x="0.722222" y="0.722222" width="50.5556" height="50.5556" rx="25.2778" fill="#CCECFF"/>
<path d="M34.4162 26.5552V26.5552C33.8469 26.2267 33.1351 26.3253 32.6146 26.7266C30.8408 28.0941 28.5225 28.9246 26.0009 28.9246C23.4794 28.9246 21.161 28.0941 19.3873 26.7266C18.8667 26.3253 18.155 26.2267 17.5857 26.5552V26.5552C15.6173 27.6953 14.4453 29.6285 14.4453 31.7204V37.4703C14.4453 39.1061 15.9381 40.4445 17.7627 40.4445H34.239C36.0636 40.4445 37.5564 39.1061 37.5564 37.4703V31.7204C37.5564 29.6285 36.3843 27.6953 34.4162 26.5552Z" fill="#AA2AE1"/>
<path d="M33.2257 18.7778C33.2257 22.7665 29.9922 26 26.0035 26C22.0148 26 18.7812 22.7665 18.7812 18.7778C18.7812 14.7891 22.0148 11.5556 26.0035 11.5556C29.9922 11.5556 33.2257 14.7891 33.2257 18.7778Z" fill="#AA2AE1"/>
<rect x="0.722222" y="0.722222" width="50.5556" height="50.5556" rx="25.2778" stroke="#CCECFF" stroke-width="1.44444"/>
</svg>
