<svg width="109" height="93" viewBox="0 0 109 93" fill="none" xmlns="http://www.w3.org/2000/svg">
<g clip-path="url(#clip0_2280_3047)">
<path fill-rule="evenodd" clip-rule="evenodd" d="M108.304 56.2913C107.332 54.9707 84.1356 23.8076 54.5113 23.8076C24.8871 23.8076 1.66861 54.9707 0.695692 56.2913C-0.231897 57.5458 -0.231897 59.2629 0.695692 60.5163C1.6675 61.8369 24.8639 93 54.5102 93C84.1566 93 107.331 61.8369 108.303 60.5163C109.23 59.2618 109.23 57.5447 108.303 56.2913H108.304ZM54.5113 85.8475C32.6848 85.8475 13.7748 65.1598 8.18495 58.4038C13.7737 51.6478 32.6406 30.9601 54.5113 30.9601C76.3821 30.9601 95.2257 51.6478 100.816 58.4038C95.2268 65.1818 76.3821 85.8475 54.5113 85.8475Z" fill="white"/>
<path fill-rule="evenodd" clip-rule="evenodd" d="M54.5143 36.9243C42.6292 36.9243 32.9531 46.5638 32.9531 58.4039C32.9531 70.244 42.6292 79.8834 54.5143 79.8834C66.3994 79.8834 76.0534 70.244 76.0534 58.4039C76.0534 46.5638 66.3994 36.9243 54.5143 36.9243ZM54.5143 72.7309C46.5839 72.7309 40.1328 66.3043 40.1328 58.4039C40.1328 50.5035 46.5839 44.0989 54.5143 44.0989C62.4447 44.0989 68.8737 50.5035 68.8737 58.4039C68.8737 66.3043 62.4226 72.7309 54.5143 72.7309Z" fill="white"/>
<path fill-rule="evenodd" clip-rule="evenodd" d="M53.0962 0C54.7093 0 56.0128 1.29855 56.0128 2.9055V14.4152C56.0128 16.0001 54.7093 17.3207 53.0962 17.3207C51.4832 17.3207 50.1797 16.0001 50.1797 14.4152V2.9055C50.1797 1.29855 51.4832 0 53.0962 0Z" fill="#F7EAFC"/>
<path fill-rule="evenodd" clip-rule="evenodd" d="M78.3889 5.96396C79.7809 6.75587 80.2662 8.53904 79.4713 9.92571L73.6836 19.8956C72.8886 21.2823 71.0987 21.7658 69.7068 20.9519C68.3148 20.1599 67.8295 18.3768 68.6244 16.9901L74.4121 7.02021C75.2071 5.63354 76.997 5.15002 78.3889 5.96396Z" fill="#F7EAFC"/>
<path fill-rule="evenodd" clip-rule="evenodd" d="M27.8016 5.96396C26.4097 6.75587 25.9243 8.53904 26.7413 9.92571L32.507 19.8956C33.3019 21.2823 35.114 21.7658 36.5059 20.9519C37.8978 20.1599 38.3611 18.3768 37.5662 16.9901L31.8005 7.02021C30.9835 5.63354 29.1935 5.15002 27.8016 5.96396Z" fill="#F7EAFC"/>
</g>
<defs>
<clipPath id="clip0_2280_3047">
<rect width="109" height="93" fill="white"/>
</clipPath>
</defs>
</svg>
