<svg width="50" height="50" viewBox="0 0 50 50" fill="none" xmlns="http://www.w3.org/2000/svg">
<path d="M5.67643 43.75C4.87782 43.75 4.28754 43.4028 3.9056 42.7083C3.52365 42.0139 3.52365 41.3194 3.9056 40.625L23.1764 7.29167C23.5584 6.59722 24.166 6.25 24.9993 6.25C25.8327 6.25 26.4403 6.59722 26.8223 7.29167L46.0931 40.625C46.475 41.3194 46.475 42.0139 46.0931 42.7083C45.7112 43.4028 45.1209 43.75 44.3223 43.75H5.67643ZM24.9993 20.8333C24.4091 20.8333 23.9146 21.0326 23.516 21.4312C23.116 21.8312 22.916 22.3264 22.916 22.9167V29.1667C22.916 29.7569 23.116 30.2514 23.516 30.65C23.9146 31.05 24.4091 31.25 24.9993 31.25C25.5896 31.25 26.0848 31.05 26.4848 30.65C26.8834 30.2514 27.0827 29.7569 27.0827 29.1667V22.9167C27.0827 22.3264 26.8834 21.8312 26.4848 21.4312C26.0848 21.0326 25.5896 20.8333 24.9993 20.8333ZM24.9993 37.5C25.5896 37.5 26.0848 37.3 26.4848 36.9C26.8834 36.5014 27.0827 36.0069 27.0827 35.4167C27.0827 34.8264 26.8834 34.3319 26.4848 33.9333C26.0848 33.5333 25.5896 33.3333 24.9993 33.3333C24.4091 33.3333 23.9146 33.5333 23.516 33.9333C23.116 34.3319 22.916 34.8264 22.916 35.4167C22.916 36.0069 23.116 36.5014 23.516 36.9C23.9146 37.3 24.4091 37.5 24.9993 37.5Z" fill="#FFCC00"/>
</svg>
