<svg width="56" height="56" viewBox="0 0 56 56" fill="none" xmlns="http://www.w3.org/2000/svg">
<g opacity="0.3">
<path d="M27.9883 6.37908C39.8999 6.37908 49.5864 16.0698 49.5864 27.9864C49.5864 39.9031 39.8999 49.5938 27.9883 49.5938C16.0768 49.5938 6.39022 39.9031 6.39022 27.9864C6.39022 16.0698 16.0768 6.37908 27.9883 6.37908ZM27.9883 3.56958C14.5031 3.56958 3.56836 14.509 3.56836 28C3.56836 41.4911 14.5031 52.4305 27.9883 52.4305C41.4736 52.4305 52.4083 41.4911 52.4083 28C52.4083 14.509 41.4736 3.56958 27.9883 3.56958Z" fill="#38B6FF"/>
<path d="M27.988 1.12651C42.8164 1.12651 54.85 13.1517 54.85 28C54.85 42.8483 42.8299 54.8735 27.988 54.8735C13.1461 54.8735 1.12603 42.8483 1.12603 28C1.12603 13.1517 13.1461 1.12651 27.988 1.12651ZM27.988 0C12.5627 0 0 12.5545 0 28C0 43.4455 12.5492 56 27.988 56C43.4269 56 55.976 43.4455 55.976 28C55.976 12.5545 43.4269 0 27.988 0Z" fill="#38B6FF"/>
<path d="M30.7013 24.6341H15.3574V27.05H30.7013V24.6341Z" fill="#38B6FF"/>
<path d="M30.7013 29.2622H15.3574V31.6781H30.7013V29.2622Z" fill="#38B6FF"/>
<path d="M29.6292 40.921C26.5903 40.921 23.7548 39.5502 21.6249 37.0664C19.5492 34.637 18.396 31.4067 18.396 27.9864C18.396 24.5662 19.5356 21.3495 21.6249 18.9065C23.7548 16.4227 26.5903 15.0519 29.6292 15.0519C32.6681 15.0519 35.5035 16.4227 37.6335 18.9065L35.802 20.4673C34.1469 18.5264 31.9491 17.4542 29.6292 17.4542C27.3093 17.4542 25.1251 18.5264 23.4564 20.4673C21.747 22.4624 20.8109 25.1362 20.8109 27.9729C20.8109 30.8095 21.747 33.4833 23.4564 35.4784C25.1115 37.4193 27.3093 38.4915 29.6292 38.4915C31.9491 38.4915 34.1333 37.4193 35.802 35.4784L37.6335 37.0393C35.5035 39.523 32.6681 40.8939 29.6292 40.8939V40.921Z" fill="#38B6FF"/>
</g>
</svg>
