<svg width="95" height="95" viewBox="0 0 95 95" fill="none" xmlns="http://www.w3.org/2000/svg">
<g opacity="0.8">
<path d="M47.0647 10.727C67.0951 10.727 83.3841 27.023 83.3841 47.062C83.3841 67.1011 67.0951 83.3971 47.0647 83.3971C27.0342 83.3971 10.7453 67.1011 10.7453 47.062C10.7453 27.023 27.0342 10.727 47.0647 10.727ZM47.0647 6.00259C24.3879 6.00259 6 24.3983 6 47.0849C6 69.7714 24.3879 88.1672 47.0647 88.1672C69.7415 88.1672 88.1294 69.7714 88.1294 47.0849C88.1294 24.3983 69.7415 6.00259 47.0647 6.00259Z" fill="#38B6FF"/>
<path d="M47.0647 1.89435C72.0001 1.89435 92.2358 22.116 92.2358 47.0849C92.2358 72.0538 72.0229 92.2754 47.0647 92.2754C22.1065 92.2754 1.89354 72.0538 1.89354 47.0849C1.89354 22.116 22.1065 1.89435 47.0647 1.89435ZM47.0647 0C21.1255 0 0 21.1117 0 47.0849C0 73.058 21.1027 94.1698 47.0647 94.1698C73.0267 94.1698 94.1294 73.058 94.1294 47.0849C94.1294 21.1117 73.0267 0 47.0647 0Z" fill="#38B6FF"/>
<path d="M41.8401 50.4171C45.2622 50.1432 49.574 49.2531 52.4485 46.6512C54.5246 44.7797 55.574 42.3148 55.574 39.3705C55.574 33.8472 50.92 29.7162 43.4371 28.5522L42.7983 32.7517C46.9276 33.3908 51.3306 35.4677 51.3306 39.3705C51.3306 41.1051 50.7603 42.4517 49.5968 43.5016C46.4257 46.3773 39.9238 46.423 34.6538 46.3317V49.2303L52.631 67.3293H58.631L41.8173 50.4171H41.8401Z" fill="#38B6FF"/>
<path d="M61.6424 28.5522H31.1177V32.7974H61.6424V28.5522Z" fill="#38B6FF"/>
<path d="M61.6424 37.7273H31.1177V41.9724H61.6424V37.7273Z" fill="#38B6FF"/>
</g>
</svg>
