<svg width="89" height="89" viewBox="0 0 89 89" fill="none" xmlns="http://www.w3.org/2000/svg">
<g opacity="0.7">
<path d="M44.0648 10.0646C62.8185 10.0646 78.0692 25.3219 78.0692 44.0836C78.0692 62.8453 62.8185 78.1025 44.0648 78.1025C25.3112 78.1025 10.0605 62.8453 10.0605 44.0836C10.0605 25.3219 25.3112 10.0646 44.0648 10.0646ZM44.0648 5.64133C22.8335 5.64133 5.61768 22.8645 5.61768 44.1049C5.61768 65.3454 22.8335 82.5686 44.0648 82.5686C65.2962 82.5686 82.5119 65.3454 82.5119 44.1049C82.5119 22.8645 65.2962 5.64133 44.0648 5.64133Z" fill="#38B6FF"/>
<path d="M44.0647 1.7736C67.4106 1.7736 86.3565 20.7062 86.3565 44.0836C86.3565 67.4609 67.432 86.3936 44.0647 86.3936C20.6974 86.3936 1.77284 67.4609 1.77284 44.0836C1.77284 20.7062 20.6974 1.7736 44.0647 1.7736ZM44.0647 0C19.7789 0 0 19.766 0 44.0836C0 68.4011 19.7576 88.1672 44.0647 88.1672C68.3718 88.1672 88.1294 68.4011 88.1294 44.0836C88.1294 19.766 68.3718 0 44.0647 0Z" fill="#38B6FF"/>
<path d="M46.1368 43.4425H42.228V62.2042H46.1368V43.4425Z" fill="#38B6FF"/>
<path d="M52.4592 25.963L44.1503 39.3611L35.692 25.963H30.4589L30.4375 25.9843L42.292 44.746L46.0727 44.7246L57.6923 25.963H52.4592Z" fill="#38B6FF"/>
<path d="M55.5779 41.5193H32.3174V45.4298H55.5779V41.5193Z" fill="#38B6FF"/>
<path d="M55.5779 48.9343H32.3174V52.8447H55.5779V48.9343Z" fill="#38B6FF"/>
</g>
</svg>
