<svg width="124" height="124" viewBox="0 0 124 124" fill="none" xmlns="http://www.w3.org/2000/svg">
<g opacity="0.8">
<path d="M61.9355 14.1163C88.2948 14.1163 109.73 35.5612 109.73 61.9318C109.73 88.3023 88.2948 109.747 61.9355 109.747C35.5762 109.747 14.1406 88.3023 14.1406 61.9318C14.1406 35.5612 35.5762 14.1163 61.9355 14.1163ZM61.9355 7.89911C32.0937 7.89911 7.896 32.1072 7.896 61.9618C7.896 91.8164 32.0937 116.024 61.9355 116.024C91.7773 116.024 115.975 91.8164 115.975 61.9618C115.975 32.1072 91.7773 7.89911 61.9355 7.89911Z" fill="#38B6FF"/>
<path d="M61.9353 2.4929C94.7493 2.4929 121.379 29.1037 121.379 61.9618C121.379 94.8199 94.7793 121.431 61.9353 121.431C29.0913 121.431 2.49183 94.8199 2.49183 61.9618C2.49183 29.1037 29.0913 2.4929 61.9353 2.4929ZM61.9353 0C27.8003 0 0 27.7822 0 61.9618C0 96.1414 27.7703 123.924 61.9353 123.924C96.1003 123.924 123.871 96.1414 123.871 61.9618C123.871 27.7822 96.1003 0 61.9353 0Z" fill="#38B6FF"/>
<path d="M64.6076 31.056H59.2637V92.8376H64.6076V31.056Z" fill="#38B6FF"/>
<path d="M62.0858 89.2034C61.6355 89.2034 61.1851 89.2034 60.7348 89.1734C49.0263 88.4826 45.934 79.7124 45.964 75.1772H48.6359H51.3079C51.3079 76.0181 51.6982 83.2866 61.0651 83.8572C65.8085 84.1576 69.8315 82.5057 71.8429 79.4421C73.314 77.2195 73.4341 74.5164 72.1732 72.0235C70.9723 69.6808 68.5105 68.3893 66.3489 67.248L65.8085 66.9476C62.5961 65.2356 60.8849 64.3646 60.7648 64.3045C60.7648 64.3045 59.0536 63.4335 55.6611 61.6314L55.1207 61.3611C52.5388 60.0096 48.9662 58.1474 47.0148 54.2729C44.8832 50.038 45.0934 45.3826 47.6452 41.5081C50.7075 36.8527 56.5017 34.2998 63.1966 34.7203C74.9052 35.4111 77.9974 44.1812 77.9674 48.7165H72.6235C72.6235 47.9056 72.2332 40.6071 62.8663 40.0364C58.1229 39.7361 54.0999 41.388 52.0885 44.4215C50.6174 46.6441 50.4973 49.3472 51.7582 51.8401C52.9591 54.1828 55.4209 55.4743 57.5825 56.6156L58.1229 56.916C61.3652 58.628 63.0465 59.499 63.1666 59.5591C63.1666 59.5591 64.8778 60.4301 68.2703 62.2322L68.8107 62.5025C71.3926 63.854 74.9652 65.7162 76.9166 69.5907C79.0482 73.8256 78.838 78.481 76.2862 82.3555C73.4341 86.6805 68.2103 89.2034 62.1158 89.2034H62.0858Z" fill="#38B6FF"/>
</g>
</svg>
