<svg width="89" height="89" viewBox="0 0 89 89" fill="none" xmlns="http://www.w3.org/2000/svg">
<g opacity="0.3">
<path d="M44.0648 10.0646C62.8185 10.0646 78.0692 25.3219 78.0692 44.0836C78.0692 62.8453 62.8185 78.1025 44.0648 78.1025C25.3112 78.1025 10.0605 62.8453 10.0605 44.0836C10.0605 25.3219 25.3112 10.0646 44.0648 10.0646ZM44.0648 5.64133C22.8335 5.64133 5.61768 22.8645 5.61768 44.1049C5.61768 65.3454 22.8335 82.5686 44.0648 82.5686C65.2962 82.5686 82.5119 65.3454 82.5119 44.1049C82.5119 22.8645 65.2962 5.64133 44.0648 5.64133Z" fill="#38B6FF"/>
<path d="M44.0647 1.7736C67.4106 1.7736 86.3565 20.7062 86.3565 44.0836C86.3565 67.4609 67.432 86.3936 44.0647 86.3936C20.6974 86.3936 1.77281 67.4609 1.77281 44.0836C1.77281 20.7062 20.6974 1.7736 44.0647 1.7736ZM44.0647 0C19.7789 0 0 19.766 0 44.0836C0 68.4011 19.7575 88.1672 44.0647 88.1672C68.3718 88.1672 88.1294 68.4011 88.1294 44.0836C88.1294 19.766 68.3718 0 44.0647 0Z" fill="#38B6FF"/>
<path d="M52.929 50.4301H31.0996V54.2337H52.929V50.4301Z" fill="#38B6FF"/>
<path d="M45.8377 46.947H31.0996V43.1434H45.8377C49.9173 43.1434 53.2281 39.8312 53.2281 35.7498C53.2281 31.6684 49.9173 28.3562 45.8377 28.3562H36.8667V24.5526H45.8377C52.0106 24.5526 57.0301 29.5743 57.0301 35.7498C57.0301 41.9253 52.0106 46.947 45.8377 46.947Z" fill="#38B6FF"/>
<path d="M38.7678 24.6381H34.9658V63.5932H38.7678V24.6381Z" fill="#38B6FF"/>
</g>
</svg>
