<svg width="610" height="319" viewBox="0 0 610 319" fill="none" xmlns="http://www.w3.org/2000/svg">
<path opacity="0.4" d="M-8.4812 1.19307C-8.58783 0.651179 -8.23499 0.125446 -7.69305 0.0188154C-7.15118 -0.0878153 -6.62543 0.265035 -6.5188 0.806928L-8.4812 1.19307ZM81 228L80.2213 228.627L81 228ZM265 315L265 314L265 315ZM335 215.5L334.072 215.129L335 215.5ZM421.5 315L421.725 314.026L421.5 315ZM609.5 245L605.459 255.817L598.112 246.909L609.5 245ZM608.627 247.016C608.2 247.367 607.57 247.304 607.22 246.877C606.869 246.45 606.932 245.82 607.359 245.47L608.627 247.016ZM599.679 251.592C600.115 251.253 600.743 251.333 601.082 251.769C601.42 252.206 601.34 252.834 600.904 253.172L599.679 251.592ZM597.779 255.568C597.339 255.902 596.711 255.816 596.378 255.376C596.044 254.936 596.13 254.309 596.57 253.975L597.779 255.568ZM588.665 259.81C589.114 259.488 589.739 259.59 590.061 260.039C590.383 260.487 590.281 261.112 589.832 261.434L588.665 259.81ZM586.622 263.716C586.171 264.034 585.547 263.925 585.229 263.474C584.911 263.022 585.02 262.398 585.472 262.08L586.622 263.716ZM577.369 267.629C577.828 267.323 578.449 267.447 578.755 267.906C579.062 268.366 578.937 268.987 578.478 269.293L577.369 267.629ZM575.186 271.464C574.723 271.765 574.103 271.635 573.802 271.172C573.5 270.71 573.631 270.09 574.093 269.788L575.186 271.464ZM565.803 275.047C566.273 274.757 566.889 274.903 567.179 275.373C567.469 275.843 567.322 276.459 566.852 276.749L565.803 275.047ZM563.484 278.803C563.011 279.088 562.396 278.936 562.111 278.463C561.826 277.99 561.978 277.375 562.451 277.09L563.484 278.803ZM553.979 282.048C554.46 281.775 555.07 281.943 555.343 282.424C555.615 282.904 555.447 283.514 554.967 283.787L553.979 282.048ZM551.524 285.717C551.041 285.984 550.433 285.81 550.165 285.326C549.898 284.843 550.072 284.235 550.556 283.967L551.524 285.717ZM541.906 288.603C542.396 288.349 543 288.54 543.254 289.031C543.508 289.521 543.316 290.125 542.826 290.379L541.906 288.603ZM539.311 292.175C538.818 292.424 538.216 292.225 537.968 291.732C537.719 291.239 537.918 290.638 538.411 290.389L539.311 292.175ZM529.585 294.674C530.085 294.44 530.68 294.656 530.914 295.157C531.148 295.657 530.932 296.252 530.431 296.486L529.585 294.674ZM526.843 298.135C526.34 298.362 525.748 298.139 525.52 297.636C525.293 297.132 525.516 296.54 526.019 296.313L526.843 298.135ZM517.018 300.207C517.528 299.996 518.113 300.239 518.324 300.75C518.535 301.26 518.292 301.845 517.781 302.056L517.018 300.207ZM514.121 303.539C513.607 303.743 513.026 303.492 512.822 302.978C512.618 302.465 512.869 301.884 513.383 301.68L514.121 303.539ZM504.206 305.133C504.726 304.948 505.298 305.22 505.483 305.74C505.668 306.261 505.396 306.832 504.875 307.017L504.206 305.133ZM501.143 308.31C500.619 308.487 500.052 308.206 499.875 307.682C499.699 307.159 499.98 306.592 500.503 306.415L501.143 308.31ZM491.154 309.357C491.684 309.203 492.239 309.508 492.393 310.038C492.548 310.568 492.243 311.123 491.713 311.278L491.154 309.357ZM487.913 312.348C487.38 312.493 486.83 312.179 486.685 311.646C486.541 311.113 486.855 310.563 487.388 310.418L487.913 312.348ZM477.874 312.762C478.413 312.643 478.947 312.984 479.066 313.524C479.184 314.063 478.843 314.596 478.304 314.715L477.874 312.762ZM474.437 315.524C473.896 315.631 473.369 315.279 473.262 314.737C473.155 314.195 473.507 313.669 474.049 313.562L474.437 315.524ZM464.397 315.191C464.944 315.115 465.449 315.497 465.525 316.044C465.601 316.591 465.219 317.096 464.672 317.172L464.397 315.191ZM460.742 317.666C460.194 317.728 459.699 317.334 459.637 316.785C459.575 316.236 459.969 315.741 460.518 315.679L460.742 317.666ZM450.784 316.447C451.336 316.423 451.803 316.85 451.827 317.402C451.851 317.954 451.423 318.421 450.871 318.445L450.784 316.447ZM446.899 318.557C446.347 318.565 445.893 318.123 445.886 317.571C445.879 317.018 446.321 316.565 446.873 316.558L446.899 318.557ZM437.126 316.289C437.676 316.327 438.092 316.805 438.053 317.356C438.014 317.907 437.536 318.322 436.986 318.284L437.126 316.289ZM433.033 317.935C432.484 317.876 432.086 317.383 432.145 316.834C432.203 316.285 432.696 315.887 433.245 315.946L433.033 317.935ZM423.621 314.442C424.161 314.555 424.508 315.084 424.395 315.625C424.283 316.166 423.753 316.513 423.212 316.4L423.621 314.442ZM419.236 315.484C418.701 315.35 418.375 314.807 418.509 314.271C418.643 313.735 419.186 313.41 419.722 313.544L419.236 315.484ZM409.814 310.592C410.336 310.772 410.614 311.341 410.434 311.863C410.254 312.385 409.684 312.663 409.162 312.483L409.814 310.592ZM405.211 311.048C404.695 310.852 404.436 310.274 404.633 309.758C404.829 309.242 405.407 308.983 405.923 309.18L405.211 311.048ZM396.401 305.123C396.901 305.359 397.115 305.955 396.88 306.454C396.644 306.954 396.049 307.168 395.549 306.933L396.401 305.123ZM391.775 305.087C391.283 304.837 391.086 304.235 391.336 303.742C391.586 303.25 392.188 303.053 392.68 303.303L391.775 305.087ZM383.62 298.29C384.093 298.574 384.246 299.189 383.962 299.662C383.678 300.136 383.063 300.289 382.59 300.004L383.62 298.29ZM379.021 297.791C378.556 297.493 378.421 296.875 378.718 296.41C379.016 295.945 379.634 295.809 380.1 296.107L379.021 297.791ZM371.584 290.216C372.026 290.547 372.117 291.173 371.787 291.616C371.457 292.058 370.83 292.149 370.387 291.819L371.584 290.216ZM367.061 289.258C366.628 288.915 366.556 288.286 366.899 287.853C367.242 287.421 367.871 287.348 368.304 287.692L367.061 289.258ZM360.451 280.951C360.855 281.327 360.878 281.96 360.502 282.365C360.126 282.769 359.494 282.792 359.089 282.416L360.451 280.951ZM356.06 279.507C355.668 279.117 355.666 278.484 356.055 278.092C356.444 277.7 357.077 277.698 357.469 278.088L356.06 279.507ZM350.466 270.483C350.821 270.906 350.765 271.537 350.342 271.892C349.919 272.246 349.288 272.191 348.933 271.767L350.466 270.483ZM346.295 268.488C345.958 268.051 346.039 267.423 346.476 267.086C346.913 266.748 347.541 266.829 347.879 267.267L346.295 268.488ZM342.048 258.762C342.332 259.235 342.179 259.85 341.706 260.134C341.232 260.419 340.618 260.266 340.333 259.792L342.048 258.762ZM338.254 256.116C337.995 255.628 338.181 255.023 338.668 254.764C339.156 254.505 339.762 254.691 340.02 255.179L338.254 256.116ZM335.915 245.786C336.094 246.309 335.816 246.878 335.293 247.056C334.771 247.235 334.202 246.957 334.023 246.434L335.915 245.786ZM332.797 242.372C332.657 241.838 332.977 241.292 333.511 241.152C334.046 241.013 334.592 241.333 334.732 241.867L332.797 242.372ZM333.21 231.789C333.231 232.341 332.799 232.805 332.247 232.825C331.696 232.845 331.232 232.413 331.212 231.862L333.21 231.789ZM331.267 227.595C331.302 227.044 331.777 226.625 332.328 226.66C332.88 226.695 333.298 227.17 333.263 227.722L331.267 227.595ZM335.22 217.787C335.043 218.31 334.475 218.59 333.952 218.412C333.429 218.234 333.149 217.666 333.327 217.144L335.22 217.787ZM334.931 213.114C335.159 212.611 335.752 212.388 336.254 212.617C336.757 212.845 336.98 213.438 336.752 213.94L334.931 213.114ZM342.116 205.104C341.773 205.537 341.144 205.61 340.711 205.267C340.278 204.924 340.205 204.295 340.548 203.862L342.116 205.104ZM343.422 200.595C343.808 200.2 344.441 200.192 344.836 200.578C345.232 200.964 345.239 201.597 344.853 201.992L343.422 200.595ZM352.965 195.596C352.491 195.88 351.876 195.725 351.593 195.251C351.309 194.777 351.464 194.163 351.937 193.88L352.965 195.596ZM355.774 191.837C356.274 191.602 356.87 191.817 357.105 192.317C357.34 192.816 357.125 193.412 356.625 193.647L355.774 191.837ZM366.459 190.385C365.919 190.497 365.389 190.15 365.277 189.609C365.165 189.068 365.512 188.539 366.053 188.427L366.459 190.385ZM370.333 187.736C370.882 187.672 371.378 188.065 371.442 188.614C371.506 189.162 371.113 189.659 370.564 189.723L370.333 187.736ZM380.952 189.633C380.403 189.58 380 189.091 380.054 188.541C380.108 187.991 380.597 187.589 381.146 187.643L380.952 189.633ZM385.436 188.244C385.979 188.343 386.339 188.864 386.239 189.408C386.14 189.951 385.619 190.31 385.075 190.211L385.436 188.244ZM395.036 193.156C394.526 192.943 394.286 192.358 394.498 191.848C394.711 191.338 395.297 191.098 395.807 191.311L395.036 193.156ZM399.73 193.159C400.218 193.416 400.405 194.021 400.148 194.51C399.89 194.998 399.285 195.185 398.797 194.928L399.73 193.159ZM407.324 200.802C406.91 200.436 406.872 199.804 407.239 199.391C407.605 198.977 408.237 198.939 408.65 199.306L407.324 200.802ZM411.753 202.352C412.127 202.759 412.1 203.392 411.693 203.765C411.286 204.139 410.653 204.112 410.28 203.705L411.753 202.352ZM416.189 212.163C415.936 211.672 416.129 211.069 416.621 210.817C417.112 210.564 417.715 210.757 417.967 211.249L416.189 212.163ZM419.747 215.223C419.945 215.738 419.688 216.317 419.173 216.515C418.657 216.714 418.079 216.457 417.88 215.941L419.747 215.223ZM420.314 225.977C420.251 225.429 420.645 224.933 421.194 224.87C421.743 224.808 422.238 225.202 422.301 225.751L420.314 225.977ZM422.583 229.977C422.592 230.529 422.151 230.984 421.599 230.993C421.047 231.002 420.592 230.562 420.583 230.009L422.583 229.977ZM419.554 239.639C419.678 239.101 420.214 238.765 420.753 238.888C421.291 239.012 421.627 239.548 421.504 240.087L419.554 239.639ZM420.417 244.005C420.247 244.531 419.683 244.818 419.157 244.647C418.632 244.477 418.345 243.912 418.515 243.387L420.417 244.005ZM414.587 252.314C414.856 251.832 415.465 251.658 415.947 251.927C416.43 252.195 416.603 252.804 416.335 253.287L414.587 252.314ZM414.253 256.75C413.954 257.214 413.334 257.347 412.871 257.047C412.407 256.748 412.274 256.129 412.573 255.665L414.253 256.75ZM406.663 263.494C407.025 263.076 407.657 263.031 408.074 263.393C408.491 263.755 408.537 264.386 408.175 264.804L406.663 263.494ZM405.471 267.775C405.09 268.174 404.457 268.189 404.058 267.808C403.658 267.427 403.643 266.794 404.024 266.394L405.471 267.775ZM396.86 273.144C397.281 272.786 397.912 272.836 398.27 273.256C398.628 273.677 398.578 274.308 398.157 274.666L396.86 273.144ZM395.051 277.217C394.618 277.559 393.989 277.486 393.646 277.053C393.304 276.62 393.377 275.991 393.81 275.649L395.051 277.217ZM385.814 281.461C386.273 281.153 386.894 281.277 387.201 281.736C387.508 282.195 387.385 282.816 386.926 283.123L385.814 281.461ZM383.571 285.298C383.103 285.592 382.486 285.451 382.192 284.984C381.898 284.516 382.039 283.899 382.507 283.605L383.571 285.298ZM373.967 288.584C374.453 288.321 375.06 288.502 375.323 288.987C375.586 289.473 375.405 290.08 374.919 290.343L373.967 288.584ZM371.358 292.215C370.866 292.466 370.264 292.271 370.013 291.779C369.761 291.287 369.957 290.685 370.448 290.434L371.358 292.215ZM361.528 294.677C362.033 294.454 362.623 294.682 362.847 295.187C363.071 295.692 362.842 296.283 362.337 296.506L361.528 294.677ZM358.652 298.092C358.143 298.305 357.557 298.065 357.344 297.555C357.131 297.046 357.371 296.46 357.881 296.247L358.652 298.092ZM348.659 299.838C349.179 299.65 349.752 299.918 349.94 300.438C350.128 300.957 349.859 301.53 349.34 301.718L348.659 299.838ZM345.56 303.046C345.037 303.224 344.469 302.945 344.29 302.422C344.112 301.9 344.392 301.331 344.914 301.153L345.56 303.046ZM335.472 304.137C336.002 303.982 336.557 304.286 336.712 304.817C336.867 305.347 336.562 305.902 336.032 306.057L335.472 304.137ZM332.177 307.146C331.644 307.291 331.094 306.977 330.949 306.445C330.803 305.912 331.117 305.362 331.65 305.216L332.177 307.146ZM322.043 307.626C322.581 307.503 323.117 307.839 323.241 308.378C323.364 308.916 323.027 309.452 322.489 309.575L322.043 307.626ZM318.574 310.438C318.034 310.552 317.503 310.207 317.389 309.667C317.274 309.127 317.619 308.596 318.16 308.481L318.574 310.438ZM308.432 310.34C308.976 310.247 309.493 310.613 309.586 311.157C309.678 311.702 309.312 312.218 308.768 312.311L308.432 310.34ZM304.815 312.953C304.269 313.038 303.759 312.663 303.674 312.118C303.59 311.572 303.964 311.061 304.51 310.977L304.815 312.953ZM294.688 312.299C295.236 312.236 295.732 312.63 295.795 313.178C295.858 313.727 295.465 314.223 294.916 314.286L294.688 312.299ZM290.944 314.712C290.394 314.767 289.904 314.366 289.85 313.816C289.795 313.266 290.196 312.777 290.746 312.722L290.944 314.712ZM280.855 313.516C281.406 313.482 281.88 313.901 281.914 314.453C281.947 315.004 281.528 315.478 280.977 315.512L280.855 313.516ZM276.995 315.725C276.443 315.75 275.975 315.323 275.95 314.771C275.925 314.22 276.352 313.752 276.903 313.727L276.995 315.725ZM266.989 313.992C267.542 313.988 267.993 314.432 267.997 314.984C268.001 315.537 267.557 315.988 267.005 315.992L266.989 313.992ZM262.972 315.994C262.42 315.99 261.975 315.54 261.978 314.987C261.982 314.435 262.432 313.99 262.985 313.994L262.972 315.994ZM252.962 313.767C253.514 313.789 253.943 314.253 253.922 314.805C253.9 315.357 253.435 315.787 252.883 315.765L252.962 313.767ZM248.851 315.579C248.299 315.549 247.876 315.079 247.905 314.527C247.935 313.976 248.405 313.552 248.957 313.582L248.851 315.579ZM238.961 312.871C239.511 312.92 239.917 313.406 239.868 313.956C239.818 314.506 239.333 314.912 238.782 314.863L238.961 312.871ZM234.762 314.473C234.213 314.416 233.814 313.924 233.871 313.375C233.929 312.825 234.421 312.427 234.97 312.484L234.762 314.473ZM225.03 311.25C225.577 311.329 225.956 311.836 225.877 312.383C225.798 312.929 225.291 313.309 224.745 313.23L225.03 311.25ZM220.748 312.621C220.203 312.533 219.832 312.02 219.919 311.475C220.007 310.929 220.52 310.558 221.065 310.646L220.748 312.621ZM211.217 308.853C211.759 308.963 212.108 309.491 211.997 310.032C211.887 310.573 211.359 310.923 210.818 310.812L211.217 308.853ZM206.86 309.969C206.321 309.849 205.981 309.315 206.101 308.776C206.221 308.237 206.755 307.897 207.294 308.017L206.86 309.969ZM197.572 305.631C198.106 305.774 198.422 306.323 198.278 306.856C198.134 307.39 197.586 307.706 197.052 307.562L197.572 305.631ZM193.158 306.475C192.627 306.322 192.322 305.767 192.475 305.237C192.628 304.706 193.183 304.4 193.713 304.554L193.158 306.475ZM184.163 301.552C184.686 301.73 184.965 302.298 184.787 302.82C184.609 303.343 184.041 303.623 183.518 303.445L184.163 301.552ZM179.706 302.107C179.187 301.92 178.918 301.346 179.106 300.827C179.294 300.308 179.867 300.039 180.386 300.227L179.706 302.107ZM171.056 296.598C171.566 296.81 171.806 297.396 171.594 297.905C171.381 298.415 170.796 298.656 170.286 298.443L171.056 296.598ZM166.571 296.852C166.065 296.629 165.836 296.039 166.058 295.533C166.28 295.028 166.871 294.798 167.376 295.021L166.571 296.852ZM158.316 290.768C158.81 291.014 159.01 291.615 158.764 292.109C158.517 292.603 157.916 292.804 157.422 292.557L158.316 290.768ZM153.824 290.715C153.335 290.458 153.146 289.854 153.402 289.365C153.659 288.876 154.263 288.687 154.752 288.943L153.824 290.715ZM146.002 284.08C146.478 284.36 146.637 284.973 146.357 285.449C146.077 285.925 145.465 286.084 144.988 285.804L146.002 284.08ZM141.526 283.723C141.055 283.434 140.908 282.818 141.197 282.347C141.486 281.877 142.102 281.73 142.572 282.019L141.526 283.723ZM134.171 276.577C134.627 276.888 134.744 277.51 134.433 277.966C134.122 278.423 133.5 278.54 133.044 278.229L134.171 276.577ZM129.725 275.92C129.274 275.6 129.169 274.976 129.488 274.526C129.808 274.075 130.432 273.969 130.882 274.289L129.725 275.92ZM122.857 268.309C123.292 268.649 123.369 269.277 123.029 269.713C122.689 270.148 122.06 270.225 121.625 269.885L122.857 268.309ZM118.459 267.365C118.03 267.017 117.964 266.387 118.311 265.958C118.659 265.529 119.289 265.463 119.718 265.811L118.459 267.365ZM112.084 259.34C112.497 259.707 112.535 260.339 112.169 260.752C111.803 261.165 111.171 261.204 110.758 260.838L112.084 259.34ZM107.753 258.131C107.346 257.758 107.318 257.126 107.691 256.719C108.064 256.311 108.697 256.284 109.104 256.657L107.753 258.131ZM101.861 249.742C102.253 250.131 102.255 250.764 101.865 251.156C101.476 251.547 100.843 251.549 100.451 251.16L101.861 249.742ZM97.6086 248.288C97.2232 247.893 97.2314 247.26 97.6269 246.874C98.0225 246.489 98.6556 246.497 99.041 246.893L97.6086 248.288ZM92.1871 239.584C92.5573 239.994 92.5251 240.626 92.1152 240.997C91.7053 241.367 91.073 241.334 90.7028 240.925L92.1871 239.584ZM88.0188 237.908C87.6547 237.493 87.6961 236.861 88.1113 236.497C88.5266 236.133 89.1584 236.174 89.5225 236.59L88.0188 237.908ZM83.0483 228.938C83.3976 229.365 83.3341 229.995 82.9064 230.345C82.4786 230.694 81.8487 230.631 81.4993 230.203L83.0483 228.938ZM79.0152 227.113C78.6734 226.679 78.748 226.051 79.1818 225.709C79.6157 225.367 80.2444 225.442 80.5862 225.876L79.0152 227.113ZM74.7873 218.116C75.1072 218.567 75.0015 219.191 74.5513 219.511C74.1011 219.831 73.4768 219.725 73.1569 219.275L74.7873 218.116ZM70.9162 216.061C70.6043 215.605 70.721 214.983 71.1768 214.671C71.6326 214.359 72.2549 214.476 72.5668 214.931L70.9162 216.061ZM67.2493 206.811C67.5429 207.279 67.4017 207.896 66.9339 208.19C66.4661 208.484 65.8489 208.342 65.5553 207.875L67.2493 206.811ZM63.5001 204.547C63.2132 204.075 63.3632 203.46 63.8351 203.173C64.3071 202.886 64.9222 203.036 65.2091 203.508L63.5001 204.547ZM60.3039 195.128C60.5753 195.609 60.4055 196.219 59.9244 196.491C59.4435 196.762 58.8335 196.592 58.5621 196.111L60.3039 195.128ZM56.6638 192.7C56.3981 192.216 56.5751 191.608 57.0593 191.342C57.5435 191.077 58.1514 191.254 58.4171 191.738L56.6638 192.7ZM53.8602 183.156C54.1127 183.647 53.9192 184.25 53.428 184.502C52.9368 184.755 52.3339 184.561 52.0814 184.07L53.8602 183.156ZM50.3061 180.573C50.0585 180.08 50.258 179.479 50.7517 179.231C51.2454 178.984 51.8463 179.183 52.0939 179.677L50.3061 180.573ZM47.8398 170.939C48.0759 171.438 47.8625 172.035 47.3633 172.271C46.864 172.507 46.2679 172.293 46.0318 171.794L47.8398 170.939ZM44.3813 168.265C44.1495 167.764 44.368 167.17 44.8692 166.938C45.3705 166.706 45.9648 166.924 46.1967 167.426L44.3813 168.265ZM42.2042 158.558C42.426 159.064 42.1957 159.654 41.6899 159.875C41.1841 160.097 40.5943 159.867 40.3725 159.361L42.2042 158.558ZM38.818 155.779C38.6 155.272 38.8347 154.684 39.3421 154.466C39.8495 154.248 40.4376 154.482 40.6556 154.99L38.818 155.779ZM36.8962 146.019C37.1053 146.53 36.8604 147.114 36.3492 147.323C35.838 147.532 35.2541 147.287 35.045 146.776L36.8962 146.019ZM33.5793 143.158C33.3737 142.645 33.6225 142.063 34.135 141.858C34.6476 141.652 35.2299 141.901 35.4355 142.413L33.5793 143.158ZM31.8854 133.36C32.0831 133.875 31.8252 134.454 31.3095 134.651C30.7938 134.849 30.2155 134.591 30.0179 134.075L31.8854 133.36ZM28.6295 130.42C28.4349 129.903 28.6962 129.327 29.213 129.132C29.7299 128.937 30.3066 129.199 30.5012 129.716L28.6295 130.42ZM27.1375 120.585C27.3248 121.104 27.0555 121.677 26.5359 121.865C26.0164 122.052 25.4434 121.783 25.256 121.263L27.1375 120.585ZM23.9436 117.592C23.7591 117.071 24.0315 116.5 24.552 116.315C25.0726 116.131 25.6442 116.403 25.8287 116.924L23.9436 117.592ZM22.6364 107.73C22.8143 108.253 22.5346 108.821 22.0117 108.999C21.4889 109.177 20.9208 108.897 20.743 108.374L22.6364 107.73ZM19.4965 104.68C19.3212 104.156 19.6037 103.59 20.1274 103.415C20.6511 103.239 21.2178 103.522 21.3931 104.045L19.4965 104.68ZM18.3592 94.7987C18.5283 95.3244 18.2392 95.8877 17.7134 96.0568C17.1877 96.2259 16.6244 95.9368 16.4553 95.411L18.3592 94.7987ZM15.2653 91.6822C15.0986 91.1557 15.3903 90.5937 15.9168 90.427C16.4434 90.2603 17.0053 90.552 17.172 91.0785L15.2653 91.6822ZM14.2853 81.7829C14.4462 82.3112 14.1484 82.87 13.6201 83.0309C13.0917 83.1918 12.533 82.894 12.3721 82.3656L14.2853 81.7829ZM11.2516 78.6585C11.0929 78.1295 11.3931 77.572 11.9221 77.4134C12.4511 77.2547 13.0086 77.5549 13.1672 78.0839L11.2516 78.6585ZM10.4164 68.7359C10.5696 69.2665 10.2636 69.8208 9.73297 69.974C9.20239 70.1272 8.64807 69.8212 8.49487 69.2906L10.4164 68.7359ZM7.41418 65.5179C7.26318 64.9866 7.57141 64.4336 8.10266 64.2826C8.63391 64.1316 9.18695 64.4398 9.33801 64.9711L7.41418 65.5179ZM6.72565 55.603C6.87134 56.1357 6.55762 56.6857 6.0249 56.8314C5.49219 56.9771 4.9422 56.6634 4.79651 56.1307L6.72565 55.603ZM3.77515 52.3673C3.63153 51.834 3.94739 51.2853 4.48071 51.1417C5.01398 50.9981 5.56274 51.314 5.70636 51.8472L3.77515 52.3673ZM3.21655 42.4176C3.35492 42.9523 3.03363 43.4979 2.49896 43.6363C1.96429 43.7746 1.4187 43.4534 1.28033 42.9187L3.21655 42.4176ZM0.323547 39.1922C0.187256 38.657 0.51062 38.1126 1.04584 37.9763C1.58099 37.84 2.12537 38.1634 2.26172 38.6986L0.323547 39.1922ZM-0.108093 29.1961C0.0228271 29.7327 -0.305969 30.2738 -0.842468 30.4047C-1.37903 30.5356 -1.9201 30.2068 -2.05109 29.6703L-0.108093 29.1961ZM-2.95862 25.9187C-3.0874 25.3816 -2.75641 24.8418 -2.21936 24.7131C-1.68231 24.5843 -1.14252 24.9153 -1.01373 25.4523L-2.95862 25.9187ZM-3.23102 15.982C-3.10809 16.5204 -3.44489 17.0565 -3.98334 17.1795C-4.52179 17.3024 -5.05792 16.9655 -5.18085 16.4271L-3.23102 15.982ZM-6.04742 12.5886C-6.16772 12.0496 -5.82831 11.5151 -5.28925 11.3948C-4.75024 11.2745 -4.21576 11.614 -4.09546 12.153L-6.04742 12.5886ZM-6.13831 2.68039C-6.02667 3.22128 -6.37469 3.75025 -6.91553 3.86189C-7.45642 3.97353 -7.98541 3.62556 -8.09705 3.08468L-6.13831 2.68039ZM600.904 253.172C599.872 253.972 598.83 254.771 597.779 255.568L596.57 253.975C597.616 253.182 598.652 252.387 599.679 251.592L600.904 253.172ZM589.832 261.434C588.77 262.197 587.7 262.958 586.622 263.716L585.472 262.08C586.544 261.326 587.609 260.569 588.665 259.81L589.832 261.434ZM578.478 269.293C577.387 270.02 576.29 270.744 575.186 271.464L574.093 269.788C575.191 269.072 576.283 268.352 577.369 267.629L578.478 269.293ZM566.852 276.749C565.735 277.439 564.612 278.123 563.484 278.803L562.451 277.09C563.574 276.414 564.691 275.733 565.803 275.047L566.852 276.749ZM554.967 283.787C553.824 284.436 552.676 285.079 551.524 285.717L550.556 283.967C551.701 283.333 552.842 282.693 553.979 282.048L554.967 283.787ZM542.826 290.379C541.658 290.984 540.486 291.583 539.311 292.175L538.411 290.389C539.579 289.801 540.744 289.205 541.906 288.603L542.826 290.379ZM530.431 296.486C529.238 297.044 528.041 297.593 526.843 298.135L526.019 296.313C527.21 295.774 528.399 295.228 529.585 294.674L530.431 296.486ZM517.781 302.056C516.562 302.559 515.342 303.054 514.121 303.539L513.383 301.68C514.595 301.198 515.807 300.707 517.018 300.207L517.781 302.056ZM504.875 307.017C503.631 307.459 502.387 307.89 501.143 308.31L500.503 306.415C501.737 305.998 502.972 305.571 504.206 305.133L504.875 307.017ZM491.713 311.278C490.445 311.647 489.179 312.004 487.913 312.348L487.388 310.418C488.642 310.077 489.897 309.724 491.154 309.357L491.713 311.278ZM478.304 314.715C477.013 314.999 475.724 315.269 474.437 315.524L474.049 313.562C475.321 313.31 476.596 313.043 477.874 312.762L478.304 314.715ZM464.672 317.172C463.358 317.354 462.048 317.519 460.742 317.666L460.518 315.679C461.807 315.533 463.1 315.37 464.397 315.191L464.672 317.172ZM450.871 318.445C449.542 318.502 448.218 318.54 446.899 318.557L446.873 316.558C448.171 316.541 449.475 316.503 450.784 316.447L450.871 318.445ZM436.986 318.284C435.66 318.191 434.343 318.075 433.033 317.935L433.245 315.946C434.531 316.083 435.824 316.197 437.126 316.289L436.986 318.284ZM423.212 316.4C422.564 316.265 421.918 316.123 421.275 315.974L421.725 314.026C422.354 314.171 422.986 314.31 423.621 314.442L423.212 316.4ZM421.275 315.974C420.596 315.818 419.916 315.654 419.236 315.484L419.722 313.544C420.39 313.711 421.058 313.872 421.725 314.026L421.275 315.974ZM409.162 312.483C407.842 312.028 406.524 311.549 405.211 311.048L405.923 309.18C407.217 309.673 408.514 310.144 409.814 310.592L409.162 312.483ZM395.549 306.933C394.284 306.337 393.026 305.721 391.775 305.087L392.68 303.303C393.913 303.929 395.154 304.536 396.401 305.123L395.549 306.933ZM382.59 300.004C381.389 299.283 380.199 298.545 379.021 297.791L380.1 296.107C381.261 296.85 382.435 297.578 383.62 298.29L382.59 300.004ZM370.387 291.819C369.263 290.979 368.153 290.125 367.061 289.258L368.304 287.692C369.381 288.547 370.475 289.388 371.584 290.216L370.387 291.819ZM359.089 282.416C358.058 281.458 357.048 280.488 356.06 279.507L357.469 278.088C358.441 279.053 359.435 280.008 360.451 280.951L359.089 282.416ZM348.933 271.767C348.025 270.684 347.145 269.59 346.295 268.488L347.879 267.267C348.712 268.347 349.575 269.419 350.466 270.483L348.933 271.767ZM340.333 259.792C339.601 258.574 338.907 257.348 338.254 256.116L340.02 255.179C340.656 256.378 341.333 257.573 342.048 258.762L340.333 259.792ZM334.023 246.434C333.56 245.083 333.151 243.729 332.797 242.372L334.732 241.867C335.073 243.173 335.468 244.48 335.915 245.786L334.023 246.434ZM331.212 231.862C331.16 230.436 331.177 229.013 331.267 227.595L333.263 227.722C333.178 229.071 333.161 230.427 333.21 231.789L331.212 231.862ZM333.327 217.144C333.556 216.469 333.804 215.797 334.072 215.129L335.928 215.871C335.674 216.507 335.438 217.146 335.22 217.787L333.327 217.144ZM334.072 215.129C334.345 214.444 334.632 213.773 334.931 213.114L336.752 213.94C336.466 214.571 336.191 215.215 335.928 215.871L334.072 215.129ZM340.548 203.862C341.46 202.711 342.42 201.622 343.422 200.595L344.853 201.992C343.899 202.97 342.985 204.007 342.116 205.104L340.548 203.862ZM351.937 193.88C353.186 193.133 354.466 192.452 355.774 191.837L356.625 193.647C355.377 194.234 354.154 194.884 352.965 195.596L351.937 193.88ZM366.053 188.427C367.469 188.133 368.897 187.903 370.333 187.736L370.564 189.723C369.186 189.883 367.816 190.104 366.459 190.385L366.053 188.427ZM381.146 187.643C382.584 187.783 384.016 187.984 385.436 188.244L385.075 190.211C383.711 189.961 382.335 189.768 380.952 189.633L381.146 187.643ZM395.807 191.311C397.142 191.869 398.452 192.485 399.73 193.159L398.797 194.928C397.573 194.282 396.317 193.691 395.036 193.156L395.807 191.311ZM408.65 199.306C409.733 200.266 410.769 201.282 411.753 202.352L410.28 203.705C409.344 202.686 408.356 201.718 407.324 200.802L408.65 199.306ZM417.967 211.249C418.624 212.526 419.219 213.851 419.747 215.223L417.88 215.941C417.378 214.637 416.813 213.377 416.189 212.163L417.967 211.249ZM422.301 225.751C422.383 226.469 422.449 227.197 422.498 227.933L420.502 228.067C420.455 227.361 420.392 226.665 420.314 225.977L422.301 225.751ZM422.498 227.933C422.543 228.615 422.571 229.296 422.583 229.977L420.583 230.009C420.572 229.363 420.545 228.715 420.502 228.067L422.498 227.933ZM421.504 240.087C421.202 241.4 420.84 242.706 420.417 244.005L418.515 243.387C418.92 242.143 419.267 240.893 419.554 239.639L421.504 240.087ZM416.335 253.287C415.688 254.45 414.993 255.605 414.253 256.75L412.573 255.665C413.29 254.555 413.962 253.438 414.587 252.314L416.335 253.287ZM408.175 264.804C407.309 265.803 406.407 266.794 405.471 267.775L404.024 266.394C404.939 265.436 405.819 264.468 406.663 263.494L408.175 264.804ZM398.157 274.666C397.149 275.526 396.113 276.376 395.051 277.217L393.81 275.649C394.853 274.822 395.87 273.987 396.86 273.144L398.157 274.666ZM386.926 283.123C385.829 283.857 384.71 284.582 383.571 285.298L382.507 283.605C383.63 282.899 384.733 282.184 385.814 281.461L386.926 283.123ZM374.919 290.343C373.749 290.976 372.562 291.6 371.358 292.215L370.448 290.434C371.638 289.826 372.811 289.21 373.967 288.584L374.919 290.343ZM362.337 296.506C361.123 297.044 359.894 297.573 358.652 298.092L357.881 296.247C359.11 295.733 360.326 295.21 361.528 294.677L362.337 296.506ZM349.34 301.718C348.091 302.17 346.831 302.613 345.56 303.046L344.914 301.153C346.174 300.724 347.422 300.285 348.659 299.838L349.34 301.718ZM336.032 306.057C334.756 306.429 333.471 306.792 332.177 307.146L331.65 305.216C332.933 304.866 334.207 304.506 335.472 304.137L336.032 306.057ZM322.489 309.575C321.192 309.872 319.887 310.16 318.574 310.438L318.16 308.481C319.462 308.206 320.756 307.92 322.043 307.626L322.489 309.575ZM308.768 312.311C307.456 312.535 306.139 312.749 304.815 312.953L304.51 310.977C305.823 310.774 307.13 310.561 308.432 310.34L308.768 312.311ZM294.916 314.286C293.597 314.438 292.273 314.58 290.944 314.712L290.746 312.722C292.064 312.591 293.379 312.45 294.688 312.299L294.916 314.286ZM280.977 315.512C279.653 315.593 278.326 315.664 276.995 315.725L276.903 313.727C278.224 313.666 279.541 313.596 280.855 313.516L280.977 315.512ZM267.005 315.992C266.337 315.997 265.669 316 265 316L265 314C265.664 314 266.327 313.997 266.989 313.992L267.005 315.992ZM265 316C264.323 316 263.647 315.998 262.972 315.994L262.985 313.994C263.655 313.998 264.327 314 265 314L265 316ZM252.883 315.765C251.534 315.712 250.19 315.65 248.851 315.579L248.957 313.582C250.287 313.652 251.621 313.714 252.962 313.767L252.883 315.765ZM238.782 314.863C237.437 314.743 236.097 314.613 234.762 314.473L234.97 312.484C236.295 312.623 237.625 312.752 238.961 312.871L238.782 314.863ZM224.745 313.23C223.407 313.037 222.075 312.834 220.748 312.621L221.065 310.646C222.381 310.858 223.703 311.059 225.03 311.25L224.745 313.23ZM210.818 310.812C209.493 310.542 208.174 310.261 206.86 309.969L207.294 308.017C208.596 308.306 209.904 308.585 211.217 308.853L210.818 310.812ZM197.052 307.562C195.748 307.211 194.45 306.848 193.158 306.475L193.713 304.554C194.994 304.924 196.28 305.283 197.572 305.631L197.052 307.562ZM183.518 303.445C182.242 303.011 180.971 302.565 179.706 302.107L180.386 300.227C181.639 300.68 182.898 301.121 184.163 301.552L183.518 303.445ZM170.286 298.443C169.042 297.925 167.803 297.394 166.571 296.852L167.376 295.021C168.597 295.558 169.824 296.084 171.056 296.598L170.286 298.443ZM157.422 292.557C156.217 291.955 155.018 291.341 153.824 290.715L154.752 288.943C155.935 289.563 157.123 290.171 158.316 290.768L157.422 292.557ZM144.988 285.804C143.829 285.123 142.674 284.429 141.526 283.723L142.572 282.019C143.71 282.718 144.854 283.405 146.002 284.08L144.988 285.804ZM133.044 278.229C131.932 277.471 130.826 276.701 129.725 275.92L130.882 274.289C131.973 275.063 133.069 275.826 134.171 276.577L133.044 278.229ZM121.625 269.885C120.565 269.056 119.509 268.216 118.459 267.365L119.718 265.811C120.759 266.655 121.806 267.488 122.857 268.309L121.625 269.885ZM110.758 260.838C109.751 259.947 108.75 259.045 107.753 258.131L109.104 256.657C110.093 257.562 111.086 258.457 112.084 259.34L110.758 260.838ZM100.451 251.16C99.4993 250.213 98.5518 249.256 97.6086 248.288L99.041 246.893C99.9769 247.853 100.917 248.803 101.861 249.742L100.451 251.16ZM90.7028 240.925C89.8042 239.929 88.9095 238.924 88.0188 237.908L89.5225 236.59C90.4069 237.598 91.2951 238.596 92.1871 239.584L90.7028 240.925ZM81.4993 230.203C81.0724 229.68 80.6464 229.155 80.2213 228.627L81.7787 227.373C82.201 227.897 82.6242 228.419 83.0483 228.938L81.4993 230.203ZM80.2213 228.627C79.8179 228.127 79.4158 227.622 79.0152 227.113L80.5862 225.876C80.9824 226.379 81.3799 226.878 81.7787 227.373L80.2213 228.627ZM73.1569 219.275C72.4049 218.216 71.658 217.145 70.9162 216.061L72.5668 214.931C73.3021 216.006 74.0422 217.068 74.7873 218.116L73.1569 219.275ZM65.5553 207.875C64.8655 206.775 64.1804 205.666 63.5001 204.547L65.2091 203.508C65.8846 204.619 66.5647 205.721 67.2493 206.811L65.5553 207.875ZM58.5621 196.111C57.9249 194.982 57.2921 193.845 56.6638 192.7L58.4171 191.738C59.0417 192.876 59.6707 194.006 60.3039 195.128L58.5621 196.111ZM52.0814 184.07C51.4854 182.911 50.8936 181.745 50.3061 180.573L52.0939 179.677C52.6784 180.843 53.2672 182.002 53.8602 183.156L52.0814 184.07ZM46.0318 171.794C45.4775 170.622 44.9274 169.446 44.3813 168.265L46.1967 167.426C46.7403 168.601 47.288 169.772 47.8398 170.939L46.0318 171.794ZM40.3725 159.361C39.8503 158.17 39.3321 156.976 38.818 155.779L40.6556 154.99C41.1678 156.182 41.684 157.372 42.2042 158.558L40.3725 159.361ZM35.045 146.776C34.5524 145.572 34.0638 144.365 33.5793 143.158L35.4355 142.413C35.9184 143.617 36.4053 144.819 36.8962 146.019L35.045 146.776ZM30.0179 134.075C29.5509 132.857 29.0881 131.638 28.6295 130.42L30.5012 129.716C30.9585 130.93 31.4199 132.145 31.8854 133.36L30.0179 134.075ZM25.256 121.263C24.8143 120.038 24.3768 118.814 23.9436 117.592L25.8287 116.924C26.2607 118.142 26.697 119.363 27.1375 120.585L25.256 121.263ZM20.743 108.374C20.3231 107.14 19.9075 105.908 19.4965 104.68L21.3931 104.045C21.8031 105.27 22.2176 106.499 22.6364 107.73L20.743 108.374ZM16.4553 95.411C16.0538 94.163 15.6572 92.9199 15.2653 91.6822L17.172 91.0785C17.563 92.3133 17.9587 93.5536 18.3592 94.7987L16.4553 95.411ZM12.3721 82.3656C11.9935 81.1227 11.62 79.8868 11.2516 78.6585L13.1672 78.0839C13.5349 79.3095 13.9076 80.5427 14.2853 81.7829L12.3721 82.3656ZM8.49487 69.2906C8.12878 68.0224 7.76855 66.7646 7.41418 65.5179L9.33801 64.9711C9.69165 66.2152 10.0511 67.4704 10.4164 68.7359L8.49487 69.2906ZM4.79651 56.1307C4.44934 54.8613 4.10889 53.6066 3.77515 52.3673L5.70636 51.8472C6.03937 53.084 6.37915 54.3362 6.72565 55.603L4.79651 56.1307ZM1.28033 42.9187C0.953247 41.655 0.634338 40.4125 0.323547 39.1922L2.26172 38.6986C2.57184 39.9164 2.89014 41.1564 3.21655 42.4176L1.28033 42.9187ZM-2.05109 29.6703C-2.36499 28.384 -2.66754 27.1328 -2.95862 25.9187L-1.01373 25.4523C-0.723267 26.664 -0.421387 27.9125 -0.108093 29.1961L-2.05109 29.6703ZM-5.18085 16.4271C-5.49152 15.0662 -5.7804 13.7851 -6.04742 12.5886L-4.09546 12.153C-3.8291 13.3464 -3.54095 14.6243 -3.23102 15.982L-5.18085 16.4271ZM-8.09705 3.08468C-8.22467 2.46633 -8.32056 1.99414 -8.38464 1.67619C-8.41663 1.51722 -8.44073 1.3968 -8.45685 1.31594C-8.46484 1.27551 -8.47095 1.24497 -8.47498 1.22445C-8.47699 1.21419 -8.47858 1.20644 -8.47955 1.2012C-8.4801 1.19859 -8.48047 1.1966 -8.48077 1.19524C-8.4809 1.19456 -8.48102 1.19404 -8.48108 1.19368C-8.48108 1.1935 -8.48114 1.19336 -8.48114 1.19326C-8.48114 1.19321 -8.48114 1.19317 -8.4812 1.19314C-8.4812 1.19312 -8.4812 1.1931 -8.4812 1.1931C-8.4812 1.19308 -8.4812 1.19307 -7.5 1C-6.5188 0.806928 -6.5188 0.806922 -6.5188 0.806919C-6.5188 0.806921 -6.5188 0.80692 -6.5188 0.806924C-6.5188 0.806933 -6.5188 0.806951 -6.5188 0.806979C-6.5188 0.807036 -6.5188 0.807132 -6.51874 0.807268C-6.51868 0.80754 -6.51862 0.807969 -6.51849 0.808557C-6.51825 0.809732 -6.51788 0.811539 -6.51746 0.813976C-6.51648 0.81885 -6.51501 0.826242 -6.51306 0.836138C-6.50916 0.855929 -6.50323 0.885733 -6.4953 0.925423C-6.47949 1.0048 -6.45575 1.12373 -6.42401 1.2812C-6.3606 1.59613 -6.26532 2.06522 -6.13831 2.68039L-8.09705 3.08468Z" fill="#AA2AE1"/>
</svg>
