<svg width="63" height="63" viewBox="0 0 63 63" fill="none" xmlns="http://www.w3.org/2000/svg">
<g opacity="0.2">
<path d="M31.0267 7.08666C44.2315 7.08666 54.9697 17.8295 54.9697 31.0399C54.9697 44.2503 44.2315 54.9931 31.0267 54.9931C17.822 54.9931 7.08379 44.2503 7.08379 31.0399C7.08379 17.8295 17.822 7.08666 31.0267 7.08666ZM31.0267 3.97214C16.0774 3.97214 3.95557 16.0992 3.95557 31.0549C3.95557 46.0106 16.0774 58.1377 31.0267 58.1377C45.976 58.1377 58.0979 46.0106 58.0979 31.0549C58.0979 16.0992 45.976 3.97214 31.0267 3.97214Z" fill="#38B6FF"/>
<path d="M31.0266 1.26387C47.4648 1.26387 60.8049 14.5946 60.8049 31.0549C60.8049 47.5152 47.4798 60.846 31.0266 60.846C14.5733 60.846 1.24828 47.5002 1.24828 31.0399C1.24828 14.5796 14.5733 1.24882 31.0266 1.24882M31.0266 0C13.9266 0 0 13.9175 0 31.0399C0 48.1622 13.9116 62.0797 31.0266 62.0797C48.1416 62.0797 62.0531 48.1622 62.0531 31.0399C62.0531 13.9175 48.1416 0 31.0266 0Z" fill="#38B6FF"/>
<path d="M25.2061 42.4748L23.4766 40.579C24.8752 38.2469 27.1763 34.1394 27.462 33.026C27.7328 31.9276 27.0109 30.6938 25.8528 29.1892C23.9879 26.7668 23.5969 23.8479 24.8151 21.3653C25.9882 18.973 28.3644 17.4985 31.0415 17.4985C34.8615 17.4985 37.9747 20.613 37.9747 24.4347H35.2976C35.2976 22.0875 33.3876 20.1616 31.0415 20.1616C29.4021 20.1616 27.9433 21.0794 27.2214 22.5389C26.4544 24.1037 26.7251 25.9393 27.9734 27.5492C29.3871 29.3848 30.6354 31.401 30.0639 33.6729C29.8082 34.6961 28.6652 36.8928 27.6124 38.7886C29.3269 38.3522 31.3723 38.1416 32.9816 38.8187C35.5082 39.8719 38.1251 39.3603 39.1026 38.6682L40.6367 40.8649C38.8771 42.0987 35.2375 42.6554 31.9589 41.2862C30.0789 40.5038 26.3792 41.9181 25.2212 42.4748H25.2061Z" fill="#38B6FF"/>
<path d="M34.3051 29.7159H23.6421V32.394H34.3051V29.7159Z" fill="#38B6FF"/>
</g>
</svg>
