<svg width="114" height="115" viewBox="0 0 114 115" fill="none" xmlns="http://www.w3.org/2000/svg">
<g opacity="0.2">
<path d="M57 13.0192C81.2589 13.0192 100.986 32.7552 100.986 57.0245C100.986 81.2937 81.2589 101.03 57 101.03C32.7412 101.03 13.0136 81.2937 13.0136 57.0245C13.0136 32.7552 32.7412 13.0192 57 13.0192ZM57 7.29739C29.5361 7.29739 7.2666 29.5765 7.2666 57.0521C7.2666 84.5278 29.5361 106.807 57 106.807C84.4639 106.807 106.733 84.5278 106.733 57.0521C106.733 29.5765 84.4639 7.29739 57 7.29739Z" fill="#38B6FF"/>
<path d="M57 2.29425C87.1992 2.29425 111.707 26.7846 111.707 57.0244C111.707 87.2642 87.2269 111.755 57 111.755C26.7732 111.755 2.29326 87.2642 2.29326 57.0244C2.29326 26.7846 26.7732 2.29425 57 2.29425ZM57 0C25.5851 0 0 25.5684 0 57.0244C0 88.4805 25.5574 114.049 57 114.049C88.4426 114.049 114 88.4805 114 57.0244C114 25.5684 88.4426 0 57 0Z" fill="#38B6FF"/>
<path d="M59.6798 56.1951H54.6235V80.4644H59.6798V56.1951Z" fill="#38B6FF"/>
<path d="M67.8583 33.5844L57.1103 50.9157L46.169 33.5844H39.3997L39.3721 33.6121L54.7065 57.8813L59.597 57.8537L74.6275 33.5844H67.8583Z" fill="#38B6FF"/>
<path d="M71.8919 53.7074H41.8032V58.7658H71.8919V53.7074Z" fill="#38B6FF"/>
<path d="M71.8919 63.299H41.8032V68.3574H71.8919V63.299Z" fill="#38B6FF"/>
</g>
</svg>
