<svg width="340" height="265" viewBox="0 0 340 265" fill="none" xmlns="http://www.w3.org/2000/svg">
<path d="M90.4485 68.7094C94.4366 80.7936 97.7027 93.222 100.212 105.96C102.946 119.775 104.794 133.942 105.765 148.401C106.074 152.98 106.306 157.628 106.934 162.095C107.707 167.569 109.065 172.768 111.893 177.226C112.477 178.156 114.239 181.659 116.156 185.368C116.508 186.048 116.869 186.737 117.222 187.417C119.482 191.755 121.7 195.783 122.216 195.714C129.057 194.827 129.994 180.075 129.985 177.691C129.96 164.557 129.117 151.663 127.467 139.063C127.132 136.463 126.754 133.881 126.35 131.308C126.35 131.265 126.333 131.222 126.324 131.17C125.456 125.722 124.433 120.282 123.763 114.739C123.625 113.612 123.505 112.484 123.402 111.348C122.817 104.902 122.817 98.2915 124.184 91.3285C125.026 87.068 126.367 82.6613 125.989 78.7279C125.447 73.1678 121.554 69.1569 119.121 64.4489C114.704 55.8678 115.193 44.9972 112.942 35.3574C111.601 29.6251 109.28 24.3318 106.968 19.0558L98.7598 0.344205C98.4246 -0.421815 96.7572 0.215101 96.6799 1.13605C95.468 15.2257 94.0068 29.4099 90.182 43.9815C89.1678 47.8633 87.9731 51.7967 87.8012 55.5063C87.5778 60.3004 89.0647 64.5178 90.4485 68.718V68.7094Z" fill="#7FB2FF"/>
<path d="M87.3473 87.3812C88.5941 90.3828 89.1249 93.542 89.7131 96.676C91.7927 107.703 94.6938 118.585 98.4034 129.287C98.8021 130.441 99.2081 131.584 99.6238 132.735C101.074 136.726 102.632 140.684 104.308 144.618C104.358 144.733 104.41 144.856 104.46 144.971C106.196 148.966 108.692 153.188 115.869 154.633C117.491 154.953 118.787 154.144 119.813 152.815C120.263 152.233 120.666 151.553 121.018 150.82C122.525 147.724 123.235 143.737 123.553 142.626C125.014 137.582 125.69 132.566 124.319 127.879C122.881 123.01 119.297 118.631 117.665 113.805C116.233 109.56 116.337 105.065 116.617 100.528C116.92 95.7101 117.435 90.8551 116.532 86.2262C115.116 78.957 110.261 72.4216 105.442 65.9595C102.434 61.9278 99.4178 57.8971 96.3089 53.8877C91.4987 47.685 86.4653 41.5645 80.857 35.6173C79.1371 33.7999 76.4035 31.7982 71.9414 32.4097C72.9969 40.2227 74.0513 48.0272 75.1227 55.8293C75.2553 56.8102 75.3878 57.7911 75.5203 58.772C76.1771 63.6338 76.8363 68.5127 78.9869 73.0685C81.2966 77.9675 85.2726 82.4243 87.3376 87.3738L87.3473 87.3812Z" fill="#ABD0FF"/>
<path d="M99.9375 12.2049C99.9375 12.4029 100.264 32.3452 102.954 54.4135C106.573 84.1506 112.555 103.404 120.712 111.641C121.545 112.476 122.267 113.518 122.869 114.748C124.717 118.475 125.568 123.984 125.43 131.179C125.19 143.831 121.88 161.708 115.555 184.301C115.46 184.654 115.357 185.007 115.254 185.36C115.606 186.04 115.967 186.728 116.32 187.408C116.577 186.487 116.844 185.575 117.102 184.646C122.276 166.166 125.43 150.941 126.573 139.054C127.888 125.387 126.539 116.117 122.508 111.349C122.31 111.116 122.104 110.884 121.898 110.677C102.92 91.5267 101.545 12.9709 101.536 12.1791C101.536 11.7832 101.167 11.4647 100.728 11.4733C100.29 11.4733 99.9375 11.8004 99.9461 12.1963L99.9375 12.2049Z" fill="#ABD0FF"/>
<path d="M79.2865 45.1135C85.1671 52.0488 92.4711 69.3269 99.5366 89.0778C105.124 104.694 110.564 121.851 115.036 136.654C116.804 142.486 118.41 147.95 119.821 152.814C120.272 152.232 120.674 151.552 121.026 150.818C119.617 145.971 118.022 140.585 116.297 134.877C114.544 129.095 112.652 122.985 110.677 116.781C107.549 106.981 104.581 98.1063 101.768 90.1834C93.2282 66.0719 86.167 50.6544 80.7082 44.2092C80.4708 43.9286 79.9641 43.9016 79.5732 44.1541C79.1824 44.4067 79.0577 44.8317 79.295 45.1123L79.2865 45.1135Z" fill="#7FB2FF"/>
<path d="M190.113 69.5676C181.725 73.1005 173.9 78.0152 166.774 83.9531C158.03 91.243 138.347 103.462 109.001 98.2042C68.1738 90.8919 23.5201 137.066 46.0607 207.014C68.6014 276.963 263.806 287.024 294.001 204.729C322.2 127.894 273.078 34.5971 190.113 69.5676Z" fill="#D9EBFF"/>
<path d="M205.205 47.5361H130.773C121.516 47.5361 114.013 55.0504 114.013 64.3197V242.613C114.013 251.882 121.516 259.397 130.773 259.397H205.205C214.462 259.397 221.966 251.882 221.966 242.613V64.3197C221.966 55.0504 214.462 47.5361 205.205 47.5361Z" fill="white"/>
<path d="M214.015 263.683H121.954C115.216 263.683 109.724 258.192 109.724 251.435V55.4977C109.724 48.7499 115.207 43.25 121.954 43.25H214.015C220.754 43.25 226.246 48.7412 226.246 55.4977V251.444C226.246 258.192 220.762 263.692 214.015 263.692V263.683ZM121.963 51.8225C119.943 51.8225 118.293 53.4665 118.293 55.4977V251.444C118.293 253.467 119.934 255.119 121.963 255.119H214.024C216.043 255.119 217.694 253.475 217.694 251.444V55.4977C217.694 53.4751 216.052 51.8225 214.024 51.8225H121.963Z" fill="#7FB2FF"/>
<path d="M177.744 46.3486H155.905C153.702 46.3486 151.917 48.1366 151.917 50.3423V51.8743C151.917 54.0799 153.702 55.8679 155.905 55.8679H177.744C179.947 55.8679 181.732 54.0799 181.732 51.8743V50.3423C181.732 48.1366 179.947 46.3486 177.744 46.3486Z" fill="#7FB2FF"/>
<path d="M90.1815 110.358C93.0694 118.836 93.2757 127.34 95.5448 135.835C97.5045 143.168 100.977 150.424 104.234 157.671C111.695 174.248 119.697 193.054 116.551 209.425C115.666 214.055 112.511 217.3 105.764 216.25C105.343 216.181 104.913 216.104 104.466 216C103.951 215.88 103.409 215.751 102.851 215.579C94.2298 213.065 89.9409 205.448 87.0787 200C83.8384 193.812 80.6669 187.623 77.6501 181.409C75.4497 176.873 73.3612 172.268 73.0002 167.698C72.7165 164.135 73.4987 160.692 73.3182 157.129C72.6736 144.614 60.3656 132.229 58.8099 119.637C58.1137 114.008 59.6178 108.603 59.0677 102.974C58.5348 97.5169 56.0853 92.017 54.2459 86.543C50.5931 75.6896 49.2866 64.7243 50.3696 54.1636C50.4642 53.277 51.9339 52.9672 52.9653 53.6213C55.3117 55.1103 56.9104 57.2965 58.3028 59.3277C64.0528 67.7281 69.8114 76.1285 75.5615 84.5289C81.3459 92.9724 87.1733 101.51 90.1901 110.358H90.1815Z" fill="#7FB2FF"/>
<path d="M55.4492 62.2454C55.6297 62.6672 73.4556 105.375 89.8119 151.586C110.096 208.908 119.318 246.211 117.29 262.659C116.714 262.598 116.121 262.504 115.511 262.401C117.625 246.598 108.248 208.633 88.1874 151.947C71.8484 105.788 54.0396 63.132 53.8677 62.7102C53.6614 62.2196 53.8505 61.7118 54.2889 61.5827C54.7272 61.4536 55.2515 61.7462 55.4492 62.2454Z" fill="#ABD0FF"/>
<path d="M223.186 202.737C225.386 192.736 230.638 184.344 232.133 173.998C233.534 164.247 231.549 153.083 232.554 143.151C234.256 126.281 244.493 113.491 244.278 95.8385C244.192 88.5656 242.31 80.6902 242.301 73.4432C242.293 64.6899 245.034 57.0899 249.212 50.5486C249.787 49.6449 251.859 50.6175 252.117 51.9085C253.535 59.1212 254.326 66.1789 255.108 73.2194C256.354 84.3998 257.592 95.5803 258.838 106.761C259.869 116.022 260.901 125.378 259.474 133.683C258.503 139.347 256.397 144.468 256.01 150.389C255.366 160.236 259.508 171.898 257.815 181.271C256.44 188.871 251.326 194.406 249.701 201.885C247.295 212.979 252.684 227.818 247.381 237.208C243.857 243.439 235.013 241.236 229.082 233.077C221.639 222.834 221.398 210.931 223.203 202.728L223.186 202.737Z" fill="#7FB2FF"/>
<path d="M249.367 203.865C253.243 199.415 258.495 195.757 260.343 190.154C262.001 185.136 260.884 178.724 260.652 172.768C259.887 153.402 268.43 138.641 277.189 124.225C287.03 108.026 297.224 92.0087 310.391 77.8158C311.027 77.1272 314.087 78.8314 313.975 79.8126L311.783 99.4967C310.202 113.724 308.62 127.969 304.727 141.017C297.739 164.445 283.343 183.897 278.607 208.495C277.034 216.672 276.449 225.374 273.802 232.999C271.8 238.757 268.37 251.943 256.208 250.79C241.674 249.404 241.631 234.936 241.33 229.763C240.746 219.478 243.428 210.682 249.367 203.873V203.865Z" fill="#ABD0FF"/>
<path d="M235.357 234.6C235.666 234.6 235.95 234.325 236.027 233.912C241.966 202.006 245.851 170.59 249.625 138.547C249.625 138.503 249.625 138.452 249.625 138.409V135.207L249.693 134.372C249.943 131.506 250.175 128.803 250.175 125.825C251.421 111.478 252.461 94.6337 250.725 78.4354C250.673 77.9448 250.329 77.6006 249.943 77.6694C249.564 77.7383 249.298 78.1944 249.349 78.685C251.068 94.7026 250.028 111.426 248.791 125.67C248.791 125.705 248.791 125.739 248.791 125.774C248.791 128.674 248.559 131.342 248.318 134.174L248.241 135.061C248.241 135.061 248.241 135.13 248.241 135.164V138.34C244.468 170.323 240.591 201.67 234.669 233.49C234.583 233.972 234.807 234.463 235.176 234.583C235.228 234.6 235.288 234.609 235.34 234.609L235.357 234.6Z" fill="#ABD0FF"/>
<path d="M251.868 246.641C252.212 246.641 252.512 246.349 252.555 245.961C252.908 242.536 253.784 239.248 254.635 236.063C255.375 233.3 256.139 230.452 256.535 227.568C263.015 207.333 271.009 183.371 281.108 158.988C281.108 158.979 281.116 158.962 281.125 158.953C281.409 158.162 281.624 157.456 281.83 156.767C282.036 156.07 282.234 155.416 282.5 154.684C284.254 150.501 285.99 146.327 287.726 142.17C294.611 125.653 301.727 108.577 309.05 91.931C309.213 91.5523 309.076 91.0875 308.732 90.9067C308.388 90.7174 307.976 90.8809 307.804 91.2596C300.472 107.914 293.356 124.999 286.463 141.524C284.726 145.69 282.982 149.864 281.237 154.056C281.237 154.065 281.228 154.082 281.22 154.09C280.936 154.882 280.721 155.588 280.515 156.277C280.309 156.974 280.111 157.628 279.844 158.36C269.711 182.821 261.7 206.851 255.211 227.121C255.194 227.164 255.185 227.215 255.177 227.267C254.799 230.064 254.077 232.767 253.312 235.624C252.444 238.869 251.55 242.226 251.18 245.781C251.137 246.202 251.412 246.581 251.79 246.633C251.816 246.633 251.842 246.633 251.868 246.633V246.641Z" fill="#7FB2FF"/>
<path d="M210.654 197.435C210.654 197.435 202.154 199.234 200.736 200C199.318 200.766 198.501 203.245 198.501 203.245L200.753 205.087L205.111 202.393C205.111 202.393 209.296 203.761 211.445 202.031C213.594 200.301 210.654 197.427 210.654 197.427V197.435Z" fill="#EC9F90"/>
<path d="M234.48 167.819C228.222 165.503 227.887 170.461 227.887 170.461C227.887 170.461 226.744 180.479 227.707 188.665L210.654 197.444L211.445 202.049C211.445 202.049 232.726 199.613 234.849 197.229C236.74 195.111 238.459 179.49 238.811 176.073C238.811 176.073 240.737 170.134 234.48 167.819Z" fill="#001AAE"/>
<path d="M237.29 257.296H171.504V264.182H237.29V257.296Z" fill="#FCD17D"/>
<path d="M244.681 250.523H178.896V257.409H244.681V250.523Z" fill="#FCD17D"/>
<path d="M178.896 250.523L244.681 257.409H178.896V250.523Z" fill="#FFA600"/>
<path d="M244.681 250.523V257.409L178.896 250.523H244.681Z" fill="#FFD165"/>
<path d="M186.39 250.523H184.697V257.391H186.39V250.523Z" fill="#FFD165"/>
<path d="M195.493 250.523H193.799V257.391H195.493V250.523Z" fill="#FFD165"/>
<path d="M205.66 250.523H203.967V257.391H205.66V250.523Z" fill="#FFD165"/>
<path d="M215.286 250.523H213.593V257.391H215.286V250.523Z" fill="#FFD165"/>
<path d="M226.529 250.523H224.835V257.391H226.529V250.523Z" fill="#FFD165"/>
<path d="M237.496 250.523H235.803V257.391H237.496V250.523Z" fill="#FFD165"/>
<path d="M237.462 257.176H171.676V264.062H237.462V257.176Z" fill="#FCD17D"/>
<path d="M171.676 257.176L237.462 264.062H171.676V257.176Z" fill="#FFA600"/>
<path d="M237.462 257.176V264.062L171.676 257.176H237.462Z" fill="#FFD165"/>
<path d="M179.171 257.176H177.478V264.045H179.171V257.176Z" fill="#FFD165"/>
<path d="M188.264 257.176H186.571V264.045H188.264V257.176Z" fill="#FFD165"/>
<path d="M198.432 257.176H196.739V264.045H198.432V257.176Z" fill="#FFD165"/>
<path d="M208.067 257.176H206.374V264.045H208.067V257.176Z" fill="#FFD165"/>
<path d="M219.301 257.176H217.607V264.045H219.301V257.176Z" fill="#FFD165"/>
<path d="M230.276 257.176H228.583V264.045H230.276V257.176Z" fill="#FFD165"/>
<path d="M202.364 213.51C218.824 206.192 226.243 186.897 218.935 170.414C211.627 153.931 192.359 146.501 175.899 153.819C159.439 161.137 152.019 180.432 159.327 196.915C166.635 213.399 185.903 220.828 202.364 213.51Z" fill="#FFA600"/>
<path d="M184.723 216.999C202.733 216.999 217.332 202.379 217.332 184.344C217.332 166.31 202.733 151.689 184.723 151.689C166.713 151.689 152.114 166.31 152.114 184.344C152.114 202.379 166.713 216.999 184.723 216.999Z" fill="#FFD165"/>
<path d="M194.891 210.226C192.158 211.25 189.253 211.844 186.253 211.973C178.879 212.274 171.839 209.675 166.416 204.665C160.993 199.656 157.847 192.831 157.546 185.446C157.245 178.061 159.841 171.012 164.843 165.581C169.845 160.15 176.661 157 184.036 156.699C191.41 156.398 198.449 158.997 203.873 164.006C209.296 169.015 212.442 175.841 212.743 183.226C213.044 190.61 210.448 197.659 205.446 203.09C202.48 206.309 198.879 208.728 194.9 210.226H194.891ZM175.509 158.756C171.582 160.236 168.023 162.629 165.092 165.805C160.15 171.167 157.589 178.139 157.881 185.429C158.173 192.719 161.285 199.458 166.639 204.407C171.994 209.356 178.956 211.921 186.236 211.62C193.516 211.327 200.246 208.212 205.188 202.849C210.13 197.487 212.691 190.516 212.399 183.226C212.107 175.935 208.995 169.196 203.641 164.247C198.286 159.298 191.324 156.733 184.044 157.026C181.079 157.146 178.208 157.732 175.509 158.747V158.756Z" fill="#FFA600"/>
<path d="M194.521 195.74C187.903 198.227 182.239 196.454 178.621 191.393L193.653 185.73L192.312 182.149L176.738 188.011C176.584 187.658 176.429 187.314 176.291 186.944C176.248 186.823 176.214 186.711 176.171 186.591L192.312 180.514L190.972 176.934L175.217 182.864C174.126 175.858 177.572 170.401 184.302 167.87C187.13 166.803 189.734 166.519 191.702 166.7L191.41 162.706C190.018 162.534 187.001 162.637 182.755 164.23C173.601 167.673 169.012 175.608 170.55 184.611L166.949 185.971L168.29 189.551L171.53 188.329C171.59 188.501 171.633 188.665 171.693 188.837C171.813 189.156 171.951 189.448 172.08 189.758L168.29 191.187L169.63 194.767L173.833 193.184C178.646 200.835 186.777 202.858 194.994 199.768C199.137 198.21 202.068 196.179 203.383 194.759L201.165 191.608C199.721 193.132 197.203 194.716 194.521 195.723V195.74Z" fill="#FFA600"/>
<path d="M261.855 264.148H234.48C226.229 264.148 219.533 254.551 219.533 242.717V221.285H277.059L276.802 242.717C276.802 254.551 270.115 264.148 261.855 264.148Z" fill="#3858BF"/>
<path d="M157.864 236.408H92.0781V243.293H157.864V236.408Z" fill="#FCD17D"/>
<path d="M150.868 243.172H85.082V250.058H150.868V243.172Z" fill="#FCD17D"/>
<path d="M148.006 249.946H82.2197V256.832H148.006V249.946Z" fill="#FCD17D"/>
<path d="M152.742 256.711H86.9556V263.597H152.742V256.711Z" fill="#FCD17D"/>
<path d="M157.83 236.167H92.0439V243.052H157.83V236.167Z" fill="#FCD17D"/>
<path d="M92.0439 236.167L157.83 243.052H92.0439V236.167Z" fill="#FFA600"/>
<path d="M157.83 236.167V243.052L92.0439 236.167H157.83Z" fill="#FFD165"/>
<path d="M99.5301 236.167H97.8369V243.035H99.5301V236.167Z" fill="#FFD165"/>
<path d="M108.632 236.167H106.939V243.035H108.632V236.167Z" fill="#FFD165"/>
<path d="M118.8 236.167H117.107V243.035H118.8V236.167Z" fill="#FFD165"/>
<path d="M128.427 236.167H126.733V243.035H128.427V236.167Z" fill="#FFD165"/>
<path d="M139.669 236.167H137.976V243.035H139.669V236.167Z" fill="#FFD165"/>
<path d="M150.636 236.167H148.943V243.035H150.636V236.167Z" fill="#FFD165"/>
<path d="M150.868 243.172H85.082V250.058H150.868V243.172Z" fill="#FCD17D"/>
<path d="M85.082 243.172L150.868 250.058H85.082V243.172Z" fill="#FFA600"/>
<path d="M150.868 243.172V250.058L85.082 243.172H150.868Z" fill="#FFD165"/>
<path d="M92.577 243.172H90.8838V250.041H92.577V243.172Z" fill="#FFD165"/>
<path d="M101.67 243.172H99.9771V250.041H101.67V243.172Z" fill="#FFD165"/>
<path d="M111.838 243.172H110.145V250.041H111.838V243.172Z" fill="#FFD165"/>
<path d="M121.473 243.172H119.78V250.041H121.473V243.172Z" fill="#FFD165"/>
<path d="M132.715 243.172H131.022V250.041H132.715V243.172Z" fill="#FFD165"/>
<path d="M143.682 243.172H141.989V250.041H143.682V243.172Z" fill="#FFD165"/>
<path d="M148.006 250.179H82.2197V257.064H148.006V250.179Z" fill="#FCD17D"/>
<path d="M82.2197 250.179L148.006 257.064H82.2197V250.179Z" fill="#FFA600"/>
<path d="M148.006 250.179V257.064L82.2197 250.179H148.006Z" fill="#FFD165"/>
<path d="M89.7147 250.179H88.0215V257.047H89.7147V250.179Z" fill="#FFD165"/>
<path d="M98.808 250.179H97.1147V257.047H98.808V250.179Z" fill="#FFD165"/>
<path d="M108.976 250.179H107.283V257.047H108.976V250.179Z" fill="#FFD165"/>
<path d="M118.611 250.179H116.917V257.047H118.611V250.179Z" fill="#FFD165"/>
<path d="M129.845 250.179H128.151V257.047H129.845V250.179Z" fill="#FFD165"/>
<path d="M140.82 250.179H139.127V257.047H140.82V250.179Z" fill="#FFD165"/>
<path d="M152.742 257.099H86.9556V263.984H152.742V257.099Z" fill="#FCD17D"/>
<path d="M86.9556 257.099L152.742 263.984H86.9556V257.099Z" fill="#FFA600"/>
<path d="M152.742 257.099V263.984L86.9556 257.099H152.742Z" fill="#FFD165"/>
<path d="M94.4505 257.099H92.7573V263.967H94.4505V257.099Z" fill="#FFD165"/>
<path d="M103.544 257.099H101.851V263.967H103.544V257.099Z" fill="#FFD165"/>
<path d="M113.712 257.099H112.019V263.967H113.712V257.099Z" fill="#FFD165"/>
<path d="M123.347 257.099H121.653V263.967H123.347V257.099Z" fill="#FFD165"/>
<path d="M134.58 257.099H132.887V263.967H134.58V257.099Z" fill="#FFD165"/>
<path d="M145.556 257.099H143.863V263.967H145.556V257.099Z" fill="#FFD165"/>
<path d="M235.82 265H222.713C222.171 265 221.905 264.398 222.292 264.054L228.764 258.209L228.196 255.49L233.31 254.861L234.11 258.098L235.829 265H235.82Z" fill="#34759A"/>
<path d="M234.11 258.097L228.772 258.209L227.87 254.129L233.396 253.579L234.11 258.097Z" fill="#EC9F90"/>
<path d="M273.526 265H260.41C259.869 265 259.602 264.346 259.989 263.967L266.461 257.641L265.894 254.698L271.008 254.018L271.807 257.521L273.526 264.991V265Z" fill="#34759A"/>
<path d="M271.807 257.529L266.461 257.641L265.885 254.698L270.999 254.026L271.807 257.529Z" fill="#EC9F90"/>
<path d="M255.357 188.785L255.692 189.069C255.692 189.069 261.829 199.966 261.511 209.382C261.193 218.798 262.765 226.002 262.765 226.002L273.518 252.451C273.518 252.451 269.547 256.737 265.378 255.481L252.434 230.805L245.644 210.837C245.644 210.837 236.981 222.757 231.652 227.147C231.652 227.147 233.886 232.896 235.829 253.811C235.829 253.811 228.205 255.593 226.331 254.749L220.487 226.105L237.608 197.874L235.365 192.159L255.357 188.777V188.785Z" fill="#3482FF"/>
<path d="M260.393 196.291C260.393 196.291 246.718 201.705 236.619 198.899L226.718 175.118C226.718 175.118 224.603 167.905 230.01 164.144C235.416 160.382 243.478 163.206 248.489 173.629C253.5 184.06 260.393 196.291 260.393 196.291Z" fill="#0037E6"/>
<path d="M208.746 188.811C208.746 188.811 200.065 188.424 198.501 188.811C196.936 189.199 195.527 191.393 195.527 191.393L197.246 193.743L202.136 192.228C202.136 192.228 205.849 194.604 208.359 193.468C210.869 192.332 208.746 188.811 208.746 188.811Z" fill="#EC9F90"/>
<path d="M223.71 151.405C223.71 151.405 220.856 151.715 220.169 148.582C219.481 145.449 221.355 143.564 223.71 144.503C223.71 144.503 222.653 140.896 226.314 141.051C229.976 141.206 231.385 144.029 231.385 144.029C231.385 144.029 235.614 141.68 237.496 146.224C239.379 150.769 235.305 157.981 235.305 157.981L232.142 160.262L223.719 151.397L223.71 151.405Z" fill="#34759A"/>
<path d="M223.297 150.011L222.197 160.83L226.168 161.398L228.05 166.106C228.05 166.106 232.752 166.416 233.843 163.283L231.024 158.343C231.024 158.343 234.78 154.341 231.179 154.031L229.615 155.046C229.615 155.046 227.81 154.496 228.987 151.827C230.165 149.159 223.289 150.011 223.289 150.011H223.297Z" fill="#EC9F90"/>
<path d="M239.215 166.106C233.732 162.302 232.167 167.01 232.167 167.01C232.167 167.01 228.558 176.426 227.449 184.585L208.746 188.811L208.359 193.468C208.359 193.468 229.572 196.446 232.228 194.664C234.583 193.08 240.152 178.397 241.347 175.178C241.347 175.178 244.699 169.91 239.215 166.098V166.106Z" fill="#3482FF"/>
<path d="M104.031 106.991H100.636V103.591H98.7964V106.991H95.4014V108.832H98.7964V112.232H100.636V108.832H104.031V106.991Z" fill="#3482FF"/>
<path d="M302.088 75.4573L300.695 74.063L297.06 77.7037L293.424 74.063L292.023 75.4573L295.659 79.1067L292.023 82.7474L293.424 84.1417L297.06 80.501L300.695 84.1417L302.088 82.7474L298.452 79.1067L302.088 75.4573Z" fill="#7FB2FF"/>
<path d="M238.898 79.3035H234.61V75H232.289V79.3035H228V81.6188H232.289V85.9222H234.61V81.6188H238.898V79.3035Z" fill="white"/>
<path d="M117.261 163.575C117.261 163.575 122.573 156.259 128.091 157.112L131.279 158.497C131.279 158.497 130.918 160.477 128.942 160.098C126.965 159.719 125.59 160.417 125.59 160.417L122.186 163.73L117.252 163.575H117.261Z" fill="#FFB0A3"/>
<path d="M87.7373 165.064L105.452 166.906L119.014 160.554L122.195 163.722C122.195 163.722 111.081 173.189 108.279 173.99C105.477 174.79 87.4709 172.707 87.4709 172.707C87.4709 172.707 83.7493 171.967 83.0788 168.077C82.4084 164.186 87.7373 165.056 87.7373 165.056V165.064Z" fill="#0037E6"/>
<path d="M142.336 201.166C160.118 198.307 172.219 181.554 169.364 163.748C166.51 145.941 149.78 133.823 131.998 136.682C114.216 139.54 102.115 156.293 104.97 174.099C107.825 191.906 124.554 204.024 142.336 201.166Z" fill="#FFA600"/>
<path d="M136.697 200.185C154.581 198.062 167.361 181.822 165.241 163.913C163.121 146.004 146.904 133.206 129.02 135.329C111.135 137.452 98.3557 153.691 100.476 171.601C102.596 189.51 118.812 202.308 136.697 200.185Z" fill="#FFD165"/>
<path d="M122.409 193.338C108.691 187.486 102.039 171.649 107.574 157.688C110.299 150.82 115.524 145.423 122.297 142.497C129.07 139.571 136.574 139.459 143.432 142.178C150.291 144.898 155.68 150.14 158.603 156.922C161.525 163.704 161.637 171.218 158.921 178.087C153.299 192.262 137.218 199.217 123.062 193.588C122.847 193.502 122.633 193.416 122.418 193.321L122.409 193.338ZM143.957 142.772C143.742 142.678 143.527 142.592 143.312 142.506C136.539 139.812 129.122 139.923 122.435 142.815C115.748 145.707 110.582 151.035 107.892 157.817C102.426 171.606 108.992 187.236 122.547 193.02C122.761 193.106 122.968 193.201 123.183 193.287C137.167 198.847 153.05 191.978 158.603 177.975C161.293 171.193 161.181 163.765 158.293 157.069C155.5 150.587 150.42 145.527 143.957 142.772Z" fill="#FFA600"/>
<path d="M123.905 186.307L125.907 181.599C123.226 180.402 120.793 178.371 119.659 176.503L122.108 173.852C123.312 175.686 125.357 177.605 127.961 178.715C131.271 180.127 134.313 179.171 135.448 176.512C136.539 173.947 135.396 171.589 132.543 168.714C128.589 164.824 126.569 161.424 128.288 157.37C129.938 153.497 133.935 151.732 138.516 152.86L140.519 148.152L143.407 149.383L141.481 153.91C144.232 155.192 145.83 156.759 146.845 158.127L144.369 160.709C143.63 159.728 142.16 157.895 139.178 156.621C135.594 155.089 133.325 156.656 132.534 158.523C131.503 160.95 132.706 162.896 136.049 166.304C140.012 170.306 141.404 173.766 139.633 177.915C138.069 181.599 134.038 183.957 128.898 182.7L126.836 187.555L123.905 186.307Z" fill="#FFA600"/>
<path d="M69.241 264.079H80.423C80.423 264.079 79.8557 261.833 77.4492 261.359C76.4779 261.17 75.6872 260.645 75.0769 260.094C74.1745 259.276 73.7017 258.381 73.7017 258.381C73.7017 258.381 79.9503 235.16 82.5202 227.258L77.028 221.079L73.7361 224.186C73.7361 224.186 71.3553 245.927 68.5791 258.304C68.2955 259.569 68.0033 260.74 67.7196 261.781C67.4016 262.926 68.1666 264.079 69.2495 264.079H69.241Z" fill="#FFB0A3"/>
<path d="M92.3101 233.137L96.5732 258.984L97.1576 262.504C97.3123 263.416 98.0257 264.088 98.868 264.088H107.609C107.609 264.088 107.824 261.798 104.953 261.213C104.343 261.084 103.802 260.826 103.337 260.464C101.61 259.164 100.81 256.668 100.819 255.567C100.819 254.155 99.9682 229.849 99.9682 229.849L92.3187 233.146L92.3101 233.137Z" fill="#FFB0A3"/>
<path d="M83.0789 137.677C83.0789 137.677 92.4303 137.729 92.6022 143.358C92.7741 148.995 88.2187 155.95 89.1556 158.317C90.0924 160.684 89.9549 173.74 77.157 174.954C64.3591 176.167 62.5627 167.492 66.3015 160.968C70.0404 154.443 77.0281 139.003 83.0789 137.668V137.677Z" fill="#001AAE"/>
<path d="M97.4755 183.63L99.332 195.326L102.461 233.137C102.461 233.137 88.8204 243.612 74.4668 237.896C74.4668 237.896 70.3584 234.652 65.124 235.461L77.8532 196.049C77.8532 196.049 81.1365 184.43 84.8495 182.872C91.3043 180.161 97.4669 183.63 97.4669 183.63H97.4755Z" fill="#0037E6"/>
<path d="M79.8475 172.071L84.8583 182.812C84.8583 182.812 92.336 185.592 97.4758 183.526L98.722 172.398C98.722 172.398 96.6506 169.368 94.3128 166.02C92.7915 163.842 88.0127 163.464 86.0101 165.202L79.8389 172.062L79.8475 172.071Z" fill="#001AAE"/>
<path d="M112.268 176.055C112.268 176.055 119.805 171.072 124.679 173.818L127.18 176.236C127.18 176.236 126.148 177.958 124.429 176.908C122.71 175.857 121.181 176.021 121.181 176.021L116.832 177.932L112.268 176.055Z" fill="#FFB0A3"/>
<path d="M96.0657 257.167L100.948 257.262C101.145 257.408 101.403 257.159 101.704 257.185L107.892 263.115C108.279 263.468 108.013 264.07 107.471 264.07H95.3867L96.0743 257.167H96.0657Z" fill="#34759A"/>
<path d="M68.5536 257.167L73.4356 257.262C73.6332 257.408 73.8911 257.159 74.1833 257.185L80.3717 263.115C80.7585 263.468 80.492 264.07 79.9505 264.07H67.187L68.5622 257.167H68.5536Z" fill="#34759A"/>
<path d="M92.6021 143.357C92.6021 143.357 93.6249 145.475 94.0461 151.482C94.4672 157.49 93.7109 157.043 93.7109 157.043L90.737 157.989L89.2759 164.926L81.7725 166.002C81.7725 166.002 85.8637 163.369 86.0098 157.989C86.1559 152.619 83.1563 155.201 83.7923 151.327C84.4283 147.454 86.2934 151.474 86.2934 151.474C86.2934 151.474 91.3043 150.166 92.5935 143.357H92.6021Z" fill="#EC9F90"/>
<path d="M87.1788 165.486L100.045 175.023L114.966 173.844L116.831 177.932C116.831 177.932 103.105 182.89 100.2 182.657C97.295 182.425 81.1709 174.136 81.1709 174.136C81.1709 174.136 78.7557 172.2 78.6869 168.258C78.6182 164.772 81.1365 164.092 83.1993 164.118C84.6346 164.135 86.027 164.634 87.1874 165.495L87.1788 165.486Z" fill="#3482FF"/>
<path d="M192.235 82.6699L192.132 82.7732V88.6604H142.952V96.9231H192.132V102.81L192.235 102.914L203.031 92.7917L192.235 82.6699Z" fill="#3482FF"/>
<path d="M143.579 125.584L143.691 125.489V119.602H192.871V111.34H143.691V105.452L143.579 105.349L132.792 115.471L143.579 125.584Z" fill="#3482FF"/>
</svg>
