<svg width="687" height="480" viewBox="0 0 687 480" fill="none" xmlns="http://www.w3.org/2000/svg">
<path opacity="0.4" d="M696.985 76.2895C697.458 76.5741 698.072 76.4212 698.357 75.9479C698.642 75.4747 698.489 74.8602 698.015 74.5756L696.985 76.2895ZM418.5 19.9326L417.874 19.1528L418.5 19.9326ZM486.5 416.433L487.282 417.056L486.5 416.433ZM250 416.433L250.935 416.079L250 416.433ZM302.5 359.433L303.253 358.774L302.5 359.433ZM112.5 455.433L112.244 456.399L112.5 455.433ZM0 395.433L3.68606 406.375L11.3198 397.712L0 395.433ZM0.848582 397.513C1.26645 397.874 1.89794 397.828 2.25906 397.41C2.62017 396.992 2.57417 396.361 2.1563 396L0.848582 397.513ZM10.0174 402.426C9.58217 402.086 8.95374 402.164 8.61381 402.599C8.27389 403.034 8.35119 403.663 8.78647 404.003L10.0174 402.426ZM12.0547 406.515C12.4951 406.848 13.1223 406.761 13.4556 406.321C13.7888 405.88 13.702 405.253 13.2616 404.92L12.0547 406.515ZM21.4713 410.909C21.0196 410.591 20.3958 410.699 20.078 411.151C19.7601 411.603 19.8686 412.227 20.3202 412.544L21.4713 410.909ZM23.6869 414.881C24.1426 415.193 24.765 415.076 25.0769 414.62C25.3887 414.164 25.2721 413.542 24.8163 413.23L23.6869 414.881ZM33.2867 418.828C32.8212 418.531 32.2029 418.668 31.9058 419.133C31.6087 419.599 31.7453 420.217 32.2109 420.514L33.2867 418.828ZM35.6798 422.696C36.1491 422.987 36.7656 422.843 37.0567 422.374C37.3478 421.904 37.2033 421.288 36.7339 420.997L35.6798 422.696ZM45.4578 426.216C44.9794 425.94 44.3679 426.104 44.092 426.583C43.8161 427.061 43.9803 427.673 44.4587 427.949L45.4578 426.216ZM48.0253 429.974C48.5073 430.244 49.1166 430.072 49.3863 429.59C49.6559 429.108 49.4838 428.499 49.0018 428.229L48.0253 429.974ZM57.959 433.049C57.4684 432.795 56.8651 432.987 56.6115 433.478C56.3579 433.968 56.55 434.572 57.0407 434.825L57.959 433.049ZM60.6849 436.678C61.1789 436.925 61.7796 436.725 62.0266 436.231C62.2735 435.737 62.0733 435.136 61.5793 434.889L60.6849 436.678ZM70.7451 439.277C70.2429 439.047 69.6495 439.268 69.4197 439.771C69.1899 440.273 69.4107 440.866 69.9129 441.096L70.7451 439.277ZM73.6491 442.774C74.1545 442.996 74.7447 442.767 74.9674 442.262C75.1901 441.756 74.9609 441.166 74.4555 440.944L73.6491 442.774ZM83.8374 444.876C83.3242 444.672 82.7427 444.922 82.5386 445.435C82.3345 445.949 82.5851 446.53 83.0983 446.734L83.8374 444.876ZM86.9092 448.217C87.4254 448.413 88.003 448.154 88.1994 447.638C88.3958 447.122 88.1366 446.544 87.6204 446.348L86.9092 448.217ZM97.1841 449.778C96.6607 449.602 96.0935 449.883 95.9172 450.406C95.7409 450.93 96.0223 451.497 96.5457 451.673L97.1841 449.778ZM100.445 452.952C100.971 453.12 101.534 452.83 101.702 452.303C101.87 451.777 101.579 451.215 101.053 451.047L100.445 452.952ZM110.787 453.935C110.254 453.789 109.704 454.102 109.558 454.635C109.412 455.167 109.725 455.718 110.258 455.864L110.787 453.935ZM114.14 456.889C114.676 457.024 115.219 456.7 115.354 456.164C115.489 455.629 115.164 455.085 114.629 454.95L114.14 456.889ZM124.125 457.042C123.582 456.939 123.059 457.295 122.956 457.838C122.853 458.381 123.209 458.904 123.752 459.007L124.125 457.042ZM127.623 459.698C128.168 459.789 128.683 459.422 128.775 458.877C128.866 458.332 128.498 457.817 127.953 457.726L127.623 459.698ZM137.592 459.075C137.043 459.013 136.548 459.407 136.485 459.956C136.423 460.505 136.817 461 137.366 461.062L137.592 459.075ZM141.288 461.469C141.838 461.521 142.326 461.117 142.377 460.567C142.429 460.017 142.025 459.529 141.475 459.478L141.288 461.469ZM151.188 460.155C150.636 460.129 150.168 460.556 150.143 461.107C150.117 461.659 150.544 462.127 151.095 462.153L151.188 460.155ZM155.018 462.299C155.57 462.314 156.03 461.879 156.046 461.327C156.061 460.775 155.626 460.315 155.074 460.299L155.018 462.299ZM164.817 460.362C164.265 460.371 163.824 460.825 163.832 461.377C163.841 461.929 164.295 462.37 164.847 462.362L164.817 460.362ZM168.779 462.27C169.331 462.253 169.764 461.791 169.746 461.239C169.729 460.687 169.267 460.254 168.715 460.271L168.779 462.27ZM178.447 459.764C177.896 459.804 177.482 460.283 177.522 460.834C177.561 461.384 178.04 461.799 178.591 461.759L178.447 459.764ZM182.51 461.444C183.06 461.396 183.466 460.91 183.418 460.36C183.369 459.81 182.884 459.404 182.334 459.452L182.51 461.444ZM192.024 458.407C191.476 458.477 191.089 458.977 191.159 459.525C191.228 460.073 191.729 460.461 192.277 460.391L192.024 458.407ZM196.173 459.864C196.72 459.786 197.1 459.279 197.022 458.733C196.944 458.186 196.437 457.806 195.89 457.884L196.173 459.864ZM205.513 456.321C204.97 456.419 204.61 456.94 204.709 457.484C204.807 458.027 205.328 458.387 205.872 458.288L205.513 456.321ZM209.724 457.557C210.265 457.45 210.618 456.924 210.511 456.382C210.403 455.84 209.877 455.488 209.336 455.595L209.724 457.557ZM218.859 453.522C218.321 453.65 217.989 454.189 218.117 454.726C218.245 455.264 218.784 455.596 219.321 455.468L218.859 453.522ZM223.149 454.526C223.685 454.39 224.008 453.845 223.872 453.31C223.736 452.775 223.192 452.451 222.656 452.588L223.149 454.526ZM232.054 449.999C231.525 450.156 231.223 450.713 231.38 451.242C231.538 451.771 232.094 452.073 232.624 451.916L232.054 449.999ZM236.377 450.767C236.904 450.601 237.196 450.04 237.03 449.513C236.864 448.986 236.303 448.694 235.776 448.86L236.377 450.767ZM245.002 445.738C244.483 445.926 244.215 446.5 244.403 447.019C244.591 447.538 245.165 447.806 245.684 447.618L245.002 445.738ZM249.375 446.243C249.891 446.045 250.149 445.467 249.951 444.951C249.754 444.436 249.175 444.178 248.66 444.375L249.375 446.243ZM257.674 440.678C257.168 440.9 256.938 441.49 257.16 441.995C257.382 442.501 257.972 442.731 258.478 442.509L257.674 440.678ZM262.057 440.896C262.559 440.663 262.777 440.069 262.544 439.568C262.312 439.067 261.718 438.849 261.217 439.081L262.057 440.896ZM269.917 434.759C269.429 435.019 269.245 435.624 269.505 436.112C269.764 436.599 270.37 436.784 270.857 436.524L269.917 434.759ZM274.335 434.616C274.816 434.344 274.986 433.734 274.714 433.253C274.442 432.773 273.832 432.603 273.351 432.875L274.335 434.616ZM281.645 427.815C281.184 428.119 281.057 428.739 281.362 429.2C281.666 429.661 282.286 429.788 282.747 429.484L281.645 427.815ZM285.987 427.272C286.438 426.954 286.546 426.33 286.227 425.879C285.909 425.428 285.285 425.32 284.834 425.639L285.987 427.272ZM292.516 419.689C292.096 420.048 292.046 420.679 292.405 421.099C292.764 421.519 293.395 421.569 293.815 421.21L292.516 419.689ZM296.737 418.607C297.141 418.23 297.163 417.598 296.787 417.194C296.411 416.789 295.778 416.767 295.374 417.143L296.737 418.607ZM302.035 410.107C301.684 410.534 301.745 411.164 302.171 411.515C302.598 411.866 303.228 411.805 303.579 411.378L302.035 410.107ZM305.989 408.254C306.311 407.806 306.21 407.181 305.762 406.858C305.313 406.536 304.689 406.637 304.366 407.085L305.989 408.254ZM309.197 398.805C308.971 399.309 309.196 399.901 309.7 400.127C310.204 400.353 310.796 400.127 311.022 399.623L309.197 398.805ZM312.481 395.889C312.656 395.365 312.373 394.798 311.849 394.624C311.326 394.449 310.759 394.732 310.584 395.256L312.481 395.889ZM312.292 385.965C312.273 386.517 312.706 386.979 313.258 386.998C313.81 387.016 314.272 386.583 314.291 386.031L312.292 385.965ZM314.174 381.993C314.124 381.443 313.637 381.038 313.087 381.088C312.537 381.139 312.132 381.625 312.182 382.175L314.174 381.993ZM309.938 373.017C310.144 373.53 310.726 373.779 311.239 373.573C311.751 373.367 312 372.785 311.795 372.273L309.938 373.017ZM310.112 368.63C309.856 368.14 309.252 367.951 308.762 368.207C308.273 368.463 308.084 369.067 308.34 369.557L310.112 368.63ZM303.034 361.613C303.383 362.041 304.013 362.104 304.441 361.755C304.869 361.406 304.933 360.776 304.583 360.348L303.034 361.613ZM301.849 357.284C301.456 356.896 300.822 356.901 300.435 357.294C300.047 357.688 300.052 358.321 300.445 358.708L301.849 357.284ZM292.647 353.495C293.156 353.71 293.743 353.473 293.958 352.964C294.173 352.456 293.935 351.869 293.427 351.653L292.647 353.495ZM289.573 350.346C289.038 350.207 288.492 350.527 288.353 351.062C288.214 351.596 288.534 352.142 289.069 352.281L289.573 350.346ZM279.655 351.479C280.206 351.437 280.618 350.957 280.576 350.406C280.534 349.855 280.053 349.443 279.503 349.485L279.655 351.479ZM275.498 350.036C274.957 350.144 274.605 350.67 274.712 351.212C274.82 351.754 275.346 352.105 275.888 351.998L275.498 350.036ZM266.913 355.147C267.404 354.895 267.598 354.292 267.345 353.801C267.093 353.309 266.49 353.116 265.999 353.368L266.913 355.147ZM262.512 355.402C262.051 355.706 261.922 356.326 262.225 356.787C262.529 357.249 263.149 357.377 263.61 357.074L262.512 355.402ZM256.389 363.297C256.758 362.886 256.723 362.254 256.312 361.885C255.9 361.517 255.268 361.551 254.9 361.963L256.389 363.297ZM252.37 365.091C252.045 365.537 252.143 366.163 252.59 366.488C253.036 366.813 253.661 366.715 253.987 366.268L252.37 365.091ZM249.355 374.624C249.563 374.112 249.316 373.529 248.805 373.321C248.293 373.114 247.71 373.36 247.502 373.872L249.355 374.624ZM246.166 377.658C246.006 378.186 246.305 378.744 246.834 378.904C247.362 379.064 247.92 378.765 248.08 378.236L246.166 377.658ZM246.308 387.661C246.354 387.111 245.945 386.627 245.395 386.581C244.844 386.535 244.361 386.944 244.315 387.495L246.308 387.661ZM244.134 391.489C244.13 392.041 244.574 392.492 245.126 392.497C245.678 392.501 246.13 392.057 246.134 391.505L244.134 391.489ZM246.88 401.131C246.794 400.586 246.281 400.213 245.736 400.3C245.19 400.387 244.818 400.899 244.905 401.444L246.88 401.131ZM245.64 405.343C245.757 405.883 246.29 406.225 246.83 406.107C247.369 405.99 247.711 405.457 247.594 404.917L245.64 405.343ZM250.257 414.222C250.074 413.701 249.503 413.428 248.982 413.611C248.461 413.795 248.188 414.366 248.371 414.887L250.257 414.222ZM249.81 418.699C250.015 419.211 250.598 419.46 251.11 419.254C251.623 419.048 251.871 418.466 251.666 417.953L249.81 418.699ZM255.837 426.951C255.578 426.463 254.973 426.277 254.485 426.536C253.997 426.795 253.811 427.4 254.07 427.888L255.837 426.951ZM256.04 431.415C256.32 431.892 256.933 432.051 257.409 431.771C257.885 431.491 258.044 430.878 257.764 430.402L256.04 431.415ZM263.249 438.643C262.917 438.202 262.291 438.112 261.849 438.444C261.407 438.775 261.318 439.402 261.649 439.844L263.249 438.643ZM264.163 443.04C264.514 443.466 265.145 443.527 265.571 443.176C265.997 442.825 266.058 442.194 265.707 441.768L264.163 443.04ZM272.426 449.037C272.029 448.653 271.396 448.664 271.012 449.061C270.629 449.459 270.64 450.092 271.037 450.475L272.426 449.037ZM274.015 453.225C274.429 453.59 275.061 453.551 275.426 453.137C275.792 452.723 275.752 452.091 275.338 451.725L274.015 453.225ZM283.115 457.864C282.664 457.546 282.04 457.654 281.722 458.105C281.404 458.556 281.512 459.18 281.963 459.498L283.115 457.864ZM285.325 461.763C285.789 462.062 286.408 461.928 286.707 461.464C287.006 460.999 286.871 460.38 286.407 460.081L285.325 461.763ZM295.007 465.016C294.515 464.765 293.913 464.961 293.662 465.453C293.412 465.945 293.607 466.547 294.1 466.798L295.007 465.016ZM297.743 468.565C298.245 468.797 298.839 468.578 299.07 468.077C299.302 467.575 299.083 466.981 298.581 466.75L297.743 468.565ZM307.785 470.494C307.265 470.309 306.693 470.581 306.508 471.101C306.323 471.622 306.595 472.194 307.116 472.378L307.785 470.494ZM310.939 473.663C311.465 473.829 312.027 473.538 312.194 473.011C312.361 472.485 312.069 471.923 311.543 471.756L310.939 473.663ZM321.137 474.365C320.598 474.242 320.062 474.578 319.938 475.117C319.815 475.655 320.152 476.191 320.69 476.315L321.137 474.365ZM324.645 477.156C325.187 477.263 325.713 476.91 325.82 476.368C325.926 475.826 325.573 475.3 325.031 475.194L324.645 477.156ZM334.854 476.749C334.306 476.683 333.807 477.073 333.741 477.621C333.674 478.17 334.065 478.668 334.613 478.735L334.854 476.749ZM338.632 479.165C339.182 479.216 339.67 478.812 339.721 478.262C339.772 477.712 339.368 477.225 338.818 477.174L338.632 479.165ZM348.763 477.76C348.211 477.746 347.752 478.182 347.738 478.734C347.724 479.286 348.16 479.745 348.712 479.759L348.763 477.76ZM352.736 479.811C353.288 479.811 353.736 479.364 353.736 478.812C353.736 478.259 353.288 477.811 352.736 477.811L352.736 479.811ZM362.693 477.503C362.142 477.537 361.723 478.011 361.757 478.562C361.791 479.113 362.265 479.533 362.817 479.499L362.693 477.503ZM366.85 479.201C367.401 479.154 367.808 478.669 367.761 478.119C367.714 477.569 367.229 477.161 366.679 477.208L366.85 479.201ZM376.575 476.066C376.028 476.145 375.649 476.652 375.729 477.199C375.808 477.745 376.315 478.124 376.862 478.045L376.575 476.066ZM380.841 477.422C381.385 477.331 381.753 476.815 381.661 476.27C381.57 475.726 381.054 475.358 380.509 475.45L380.841 477.422ZM390.291 473.522C389.752 473.644 389.414 474.179 389.536 474.718C389.658 475.257 390.193 475.595 390.732 475.473L390.291 473.522ZM394.658 474.539C395.194 474.406 395.52 473.863 395.387 473.327C395.253 472.791 394.71 472.465 394.174 472.599L394.658 474.539ZM403.776 469.923C403.249 470.086 402.953 470.645 403.115 471.173C403.278 471.701 403.838 471.997 404.366 471.834L403.776 469.923ZM408.204 470.605C408.728 470.431 409.012 469.865 408.838 469.341C408.663 468.817 408.097 468.533 407.573 468.707L408.204 470.605ZM416.947 465.309C416.433 465.511 416.18 466.091 416.383 466.605C416.585 467.119 417.165 467.372 417.679 467.17L416.947 465.309ZM421.416 465.652C421.925 465.438 422.165 464.852 421.952 464.343C421.738 463.834 421.152 463.594 420.643 463.807L421.416 465.652ZM429.728 459.704C429.231 459.945 429.024 460.544 429.265 461.04C429.506 461.537 430.104 461.745 430.601 461.504L429.728 459.704ZM434.209 459.704C434.701 459.452 434.895 458.849 434.643 458.358C434.391 457.866 433.788 457.672 433.296 457.924L434.209 459.704ZM442.035 453.128C441.558 453.407 441.398 454.02 441.678 454.497C441.957 454.973 442.57 455.133 443.046 454.853L442.035 453.128ZM446.502 452.774C446.972 452.484 447.117 451.868 446.827 451.398C446.537 450.928 445.921 450.782 445.451 451.072L446.502 452.774ZM453.773 445.591C453.321 445.909 453.212 446.532 453.529 446.984C453.846 447.436 454.47 447.546 454.922 447.229L453.773 445.591ZM458.196 444.872C458.641 444.544 458.735 443.918 458.407 443.474C458.079 443.029 457.453 442.935 457.009 443.263L458.196 444.872ZM464.839 437.105C464.416 437.46 464.36 438.09 464.715 438.514C465.069 438.937 465.7 438.993 466.123 438.638L464.839 437.105ZM469.183 436.008C469.597 435.643 469.637 435.011 469.272 434.597C468.907 434.183 468.275 434.143 467.86 434.508L469.183 436.008ZM475.113 427.685C474.723 428.076 474.725 428.709 475.116 429.099C475.508 429.488 476.141 429.487 476.53 429.096L475.113 427.685ZM479.34 426.197C479.719 425.795 479.701 425.163 479.299 424.784C478.897 424.405 478.264 424.423 477.885 424.825L479.34 426.197ZM484.465 417.356C484.115 417.783 484.177 418.413 484.603 418.764C485.03 419.114 485.66 419.053 486.011 418.626L484.465 417.356ZM488.541 415.437C488.875 414.996 488.788 414.369 488.348 414.036C487.908 413.702 487.28 413.789 486.947 414.229L488.541 415.437ZM492.33 406.093C492.055 406.573 492.222 407.184 492.701 407.458C493.181 407.732 493.791 407.566 494.066 407.086L492.33 406.093ZM495.981 403.521C496.229 403.028 496.03 402.427 495.537 402.179C495.044 401.93 494.442 402.129 494.194 402.622L495.981 403.521ZM497.996 393.634C497.815 394.156 498.091 394.726 498.612 394.907C499.134 395.089 499.704 394.813 499.885 394.291L497.996 393.634ZM501.106 390.464C501.261 389.934 500.956 389.379 500.426 389.225C499.896 389.07 499.341 389.375 499.186 389.905L501.106 390.464ZM501.339 380.37C501.25 380.915 501.619 381.43 502.164 381.519C502.709 381.609 503.223 381.239 503.313 380.694L501.339 380.37ZM503.873 376.721C503.938 376.172 503.546 375.675 502.998 375.61C502.449 375.545 501.952 375.937 501.887 376.485L503.873 376.721ZM502.532 366.712C502.523 367.264 502.963 367.719 503.515 367.728C504.067 367.737 504.522 367.297 504.531 366.745L502.532 366.712ZM504.522 362.717C504.511 362.165 504.054 361.726 503.502 361.738C502.949 361.749 502.511 362.206 502.522 362.758L504.522 362.717ZM501.911 352.97C501.967 353.52 502.458 353.92 503.008 353.863C503.557 353.807 503.957 353.316 503.901 352.767L501.911 352.97ZM503.43 348.752C503.358 348.204 502.855 347.819 502.308 347.891C501.76 347.963 501.375 348.466 501.447 349.013L503.43 348.752ZM499.846 339.335C499.953 339.876 500.479 340.229 501.021 340.122C501.563 340.015 501.915 339.489 501.808 338.947L499.846 339.335ZM500.979 334.988C500.86 334.449 500.326 334.108 499.787 334.228C499.248 334.347 498.907 334.881 499.026 335.42L500.979 334.988ZM496.661 325.893C496.807 326.426 497.357 326.739 497.89 326.593C498.423 326.448 498.736 325.897 498.59 325.365L496.661 325.893ZM497.489 321.485C497.334 320.955 496.778 320.652 496.248 320.807C495.718 320.963 495.415 321.518 495.57 322.048L497.489 321.485ZM492.615 312.671C492.79 313.195 493.358 313.476 493.881 313.301C494.405 313.125 494.686 312.558 494.51 312.034L492.615 312.671ZM493.198 308.22C493.015 307.699 492.444 307.426 491.923 307.609C491.402 307.792 491.128 308.363 491.312 308.884L493.198 308.22ZM487.903 299.659C488.102 300.174 488.681 300.43 489.196 300.231C489.711 300.032 489.967 299.453 489.768 298.938L487.903 299.659ZM488.299 295.199C488.095 294.686 487.513 294.436 487 294.641C486.487 294.846 486.237 295.427 486.442 295.94L488.299 295.199ZM482.676 286.832C482.893 287.34 483.48 287.576 483.988 287.359C484.496 287.142 484.732 286.554 484.515 286.046L482.676 286.832ZM482.928 282.374C482.706 281.868 482.117 281.638 481.611 281.859C481.105 282.08 480.874 282.67 481.095 283.176L482.928 282.374ZM477.05 274.162C477.281 274.664 477.874 274.883 478.376 274.653C478.878 274.422 479.098 273.828 478.867 273.326L477.05 274.162ZM477.19 269.711C476.957 269.211 476.361 268.995 475.861 269.229C475.361 269.463 475.145 270.058 475.379 270.558L477.19 269.711ZM471.118 261.62C471.359 262.117 471.957 262.324 472.454 262.083C472.951 261.842 473.159 261.244 472.918 260.747L471.118 261.62ZM471.174 257.176C470.931 256.68 470.332 256.476 469.836 256.719C469.34 256.963 469.136 257.562 469.379 258.058L471.174 257.176ZM464.958 249.18C465.207 249.673 465.808 249.871 466.301 249.623C466.795 249.374 466.993 248.773 466.744 248.28L464.958 249.18ZM464.952 244.741C464.701 244.249 464.099 244.053 463.607 244.303C463.115 244.553 462.919 245.155 463.169 245.648L464.952 244.741ZM458.637 236.818C458.891 237.309 459.494 237.501 459.985 237.247C460.475 236.993 460.667 236.39 460.413 235.899L458.637 236.818ZM458.587 232.379C458.332 231.889 457.728 231.699 457.238 231.954C456.748 232.209 456.558 232.813 456.813 233.303L458.587 232.379ZM452.215 224.512C452.472 225.001 453.076 225.189 453.565 224.932C454.054 224.676 454.242 224.071 453.986 223.582L452.215 224.512ZM452.138 220.068C451.88 219.58 451.275 219.392 450.787 219.649C450.298 219.907 450.111 220.511 450.368 221L452.138 220.068ZM445.743 212.229C446 212.718 446.605 212.905 447.094 212.647C447.582 212.389 447.769 211.784 447.511 211.296L445.743 212.229ZM445.659 207.785C445.402 207.297 444.797 207.11 444.308 207.367C443.82 207.625 443.633 208.23 443.89 208.718L445.659 207.785ZM439.267 199.934C439.524 200.423 440.128 200.611 440.617 200.354C441.106 200.098 441.295 199.493 441.038 199.004L439.267 199.934ZM439.204 195.502C438.948 195.013 438.344 194.824 437.854 195.079C437.365 195.335 437.176 195.94 437.432 196.429L439.204 195.502ZM432.845 187.602C433.098 188.093 433.701 188.286 434.192 188.032C434.683 187.779 434.875 187.176 434.622 186.685L432.845 187.602ZM432.815 183.171C432.563 182.68 431.96 182.485 431.469 182.737C430.977 182.989 430.783 183.592 431.035 184.083L432.815 183.171ZM426.534 175.209C426.782 175.703 427.383 175.903 427.876 175.655C428.37 175.408 428.57 174.807 428.322 174.313L426.534 175.209ZM426.558 170.774C426.312 170.28 425.712 170.077 425.217 170.323C424.723 170.568 424.52 171.168 424.766 171.663L426.558 170.774ZM420.402 162.726C420.641 163.224 421.239 163.434 421.737 163.195C422.235 162.956 422.444 162.359 422.206 161.861L420.402 162.726ZM420.503 158.285C420.267 157.786 419.671 157.572 419.171 157.808C418.672 158.044 418.458 158.64 418.694 159.14L420.503 158.285ZM414.526 150.118C414.753 150.622 415.345 150.846 415.849 150.619C416.352 150.392 416.576 149.8 416.349 149.296L414.526 150.118ZM414.733 145.672C414.51 145.167 413.92 144.938 413.415 145.161C412.909 145.384 412.68 145.974 412.903 146.479L414.733 145.672ZM409.001 137.346C409.211 137.857 409.796 138.1 410.307 137.889C410.817 137.678 411.06 137.094 410.849 136.583L409.001 137.346ZM409.353 132.902C409.148 132.389 408.566 132.139 408.053 132.344C407.541 132.55 407.291 133.131 407.496 133.644L409.353 132.902ZM403.95 124.366C404.138 124.885 404.712 125.153 405.231 124.964C405.75 124.775 406.018 124.201 405.829 123.682L403.95 124.366ZM404.498 119.937C404.317 119.416 403.748 119.139 403.226 119.32C402.704 119.502 402.428 120.071 402.609 120.593L404.498 119.937ZM399.541 111.133C399.7 111.662 400.258 111.962 400.787 111.803C401.316 111.644 401.616 111.087 401.457 110.558L399.541 111.133ZM400.353 106.75C400.205 106.218 399.653 105.907 399.121 106.055C398.589 106.204 398.279 106.755 398.427 107.287L400.353 106.75ZM396.013 97.6157C396.131 98.1552 396.664 98.497 397.203 98.3791C397.743 98.2611 398.084 97.7281 397.966 97.1886L396.013 97.6157ZM397.175 93.3293C397.072 92.7868 396.548 92.431 396.006 92.5347C395.463 92.6383 395.107 93.1621 395.211 93.7046L397.175 93.3293ZM393.701 83.8201C393.763 84.369 394.257 84.7641 394.806 84.7026C395.355 84.6411 395.75 84.1463 395.689 83.5974L393.701 83.8201ZM395.323 79.7166C395.281 79.1659 394.8 78.7534 394.25 78.7954C393.699 78.8373 393.286 79.3178 393.328 79.8685L395.323 79.7166ZM393.071 69.8397C393.056 70.3918 393.49 70.852 394.042 70.8677C394.595 70.8834 395.055 70.4485 395.07 69.8965L393.071 69.8397ZM395.272 66.0197C395.314 65.469 394.901 64.9887 394.35 64.9468C393.8 64.9049 393.319 65.3173 393.277 65.868L395.272 66.0197ZM394.699 55.9277C394.583 56.4676 394.927 56.9995 395.467 57.1157C396.007 57.2319 396.539 56.8884 396.655 56.3485L394.699 55.9277ZM397.595 52.5396C397.744 52.0077 397.433 51.456 396.901 51.3072C396.37 51.1585 395.818 51.4691 395.669 52.001L397.595 52.5396ZM399.135 42.5739C398.903 43.075 399.121 43.6695 399.622 43.9017C400.123 44.1338 400.718 43.9158 400.95 43.4147L399.135 42.5739ZM402.707 39.9325C402.972 39.448 402.794 38.8404 402.309 38.5753C401.825 38.3102 401.217 38.4881 400.952 38.9726L402.707 39.9325ZM406.477 30.5941C406.137 31.0291 406.213 31.6576 406.648 31.9979C407.083 32.3382 407.712 32.2615 408.052 31.8265L406.477 30.5941ZM410.598 28.778C410.965 28.3654 410.928 27.7333 410.515 27.3662C410.103 26.9991 409.47 27.0361 409.103 27.4487L410.598 28.778ZM416.268 20.4779C415.846 20.835 415.794 21.4661 416.151 21.8874C416.508 22.3087 417.139 22.3607 417.561 22.0036L416.268 20.4779ZM420.707 19.4793C421.147 19.1457 421.233 18.5185 420.899 18.0783C420.566 17.6382 419.939 17.5518 419.499 17.8854L420.707 19.4793ZM428.071 12.2676C427.59 12.5387 427.419 13.1485 427.69 13.6297C427.961 14.1109 428.571 14.2812 429.052 14.0101L428.071 12.2676ZM432.586 12.138C433.081 11.892 433.282 11.2918 433.036 10.7973C432.79 10.3028 432.19 10.1014 431.695 10.3474L432.586 12.138ZM441.121 6.35282C440.6 6.53827 440.329 7.11033 440.515 7.63055C440.7 8.15077 441.272 8.42214 441.792 8.23669L441.121 6.35282ZM445.599 6.97337C446.127 6.81078 446.423 6.2511 446.26 5.72329C446.098 5.19548 445.538 4.89941 445.01 5.062L445.599 6.97337ZM454.917 2.54964C454.376 2.65953 454.026 3.18738 454.136 3.72862C454.246 4.26986 454.774 4.61954 455.315 4.50965L454.917 2.54964ZM459.25 3.78351C459.795 3.69277 460.163 3.17758 460.072 2.63281C459.981 2.08803 459.466 1.71995 458.921 1.81069L459.25 3.78351ZM469.046 0.545244C468.496 0.592518 468.088 1.07691 468.136 1.62717C468.183 2.17743 468.667 2.58518 469.218 2.5379L469.046 0.545244ZM473.258 2.2495C473.81 2.21798 474.231 1.74544 474.2 1.19405C474.168 0.642667 473.696 0.221236 473.144 0.252758L473.258 2.2495ZM483.325 0.00370556C482.772 7.80225e-05 482.322 0.444843 482.318 0.997116C482.314 1.54939 482.759 2.00003 483.311 2.00366L483.325 0.00370556ZM487.33 2.07643C487.882 2.09267 488.343 1.65832 488.359 1.10627C488.375 0.554224 487.941 0.0935352 487.389 0.0772928L487.33 2.07643ZM497.562 0.64662C497.011 0.601846 496.529 1.01179 496.484 1.56226C496.439 2.11272 496.849 2.59526 497.4 2.64004L497.562 0.64662ZM501.4 3.00329C501.949 3.05831 502.439 2.65743 502.494 2.10789C502.549 1.55836 502.148 1.06826 501.599 1.01324L501.4 3.00329ZM511.699 2.24719C511.153 2.16881 510.646 2.54846 510.568 3.09516C510.489 3.64185 510.869 4.14857 511.416 4.22695L511.699 2.24719ZM515.411 4.83169C515.956 4.91856 516.469 4.54683 516.556 4.00142C516.643 3.45601 516.271 2.94345 515.725 2.85659L515.411 4.83169ZM525.731 4.63712C525.189 4.53089 524.664 4.88412 524.557 5.42609C524.451 5.96807 524.805 6.49354 525.346 6.59977L525.731 4.63712ZM529.32 7.40592C529.86 7.51927 530.39 7.17297 530.504 6.63244C530.617 6.09191 530.271 5.56184 529.73 5.44849L529.32 7.40592ZM539.633 7.68492C539.096 7.55527 538.556 7.88537 538.426 8.42222C538.296 8.95907 538.626 9.49938 539.163 9.62903L539.633 7.68492ZM543.091 10.601C543.626 10.7367 544.17 10.4127 544.306 9.87735C544.441 9.34199 544.117 8.79801 543.582 8.66233L543.091 10.601ZM553.393 11.2879C552.861 11.1382 552.309 11.4479 552.159 11.9796C552.01 12.5112 552.319 13.0635 552.851 13.2131L553.393 11.2879ZM556.735 14.3269C557.265 14.4817 557.821 14.1774 557.976 13.6472C558.13 13.1171 557.826 12.5618 557.296 12.407L556.735 14.3269ZM567.009 15.3659C566.483 15.1991 565.921 15.4906 565.754 16.017C565.587 16.5435 565.878 17.1056 566.405 17.2725L567.009 15.3659ZM570.257 18.5118C570.782 18.6832 571.346 18.3965 571.518 17.8715C571.689 17.3465 571.402 16.7819 570.877 16.6105L570.257 18.5118ZM580.496 19.8605C579.975 19.6785 579.404 19.9537 579.222 20.4751C579.04 20.9965 579.315 21.5668 579.837 21.7488L580.496 19.8605ZM583.651 23.0966C584.171 23.2826 584.743 23.0118 584.929 22.4918C585.115 21.9718 584.844 21.3994 584.324 21.2134L583.651 23.0966ZM593.854 24.7214C593.337 24.526 592.76 24.7863 592.565 25.3028C592.369 25.8194 592.629 26.3965 593.146 26.592L593.854 24.7214ZM596.914 28.0326C597.429 28.2316 598.008 27.9753 598.207 27.4601C598.406 26.9449 598.149 26.3659 597.634 26.1669L596.914 28.0326ZM607.078 29.9063C606.567 29.6988 605.983 29.9455 605.776 30.4573C605.568 30.9691 605.815 31.5522 606.327 31.7598L607.078 29.9063ZM610.052 33.2841C610.563 33.4948 611.148 33.2518 611.358 32.7413C611.569 32.2308 611.326 31.6462 610.816 31.4354L610.052 33.2841ZM620.16 35.3774C619.653 35.1589 619.065 35.393 618.846 35.9002C618.628 36.4074 618.862 36.9957 619.369 37.2142L620.16 35.3774ZM623.111 38.8395C623.617 39.061 624.207 38.8304 624.428 38.3245C624.65 37.8186 624.419 37.2289 623.913 37.0074L623.111 38.8395ZM633.175 41.1415C632.672 40.9128 632.079 41.135 631.85 41.6377C631.622 42.1404 631.844 42.7333 632.347 42.962L633.175 41.1415ZM636.034 44.6518C636.536 44.8833 637.13 44.6644 637.361 44.163C637.593 43.6615 637.374 43.0674 636.873 42.836L636.034 44.6518ZM646.059 47.1521C645.56 46.9138 644.963 47.1246 644.725 47.6229C644.487 48.1212 644.698 48.7182 645.196 48.9564L646.059 47.1521ZM648.793 50.6878C649.29 50.9287 649.888 50.721 650.129 50.224C650.37 49.727 650.162 49.1288 649.665 48.888L648.793 50.6878ZM658.784 53.3811C658.291 53.1337 657.69 53.3335 657.442 53.8273C657.195 54.3211 657.395 54.922 657.889 55.1693L658.784 53.3811ZM661.544 57.0124C662.037 57.2623 662.638 57.0657 662.888 56.5732C663.138 56.0807 662.942 55.4789 662.449 55.2289L661.544 57.0124ZM671.439 59.8658C670.949 59.6093 670.345 59.798 670.089 60.2871C669.832 60.7763 670.021 61.3807 670.51 61.6371L671.439 59.8658ZM674.12 63.5424C674.608 63.8015 675.214 63.6161 675.473 63.1283C675.732 62.6406 675.547 62.0352 675.059 61.7761L674.12 63.5424ZM683.943 66.5752C683.459 66.3092 682.851 66.4859 682.585 66.9699C682.319 67.4539 682.495 68.0619 682.979 68.3279L683.943 66.5752ZM686.577 70.3196C687.059 70.5887 687.668 70.4159 687.937 69.9336C688.206 69.4513 688.033 68.8422 687.551 68.5731L686.577 70.3196ZM696.375 73.6055C695.898 73.3263 695.285 73.4863 695.006 73.9628C694.727 74.4394 694.887 75.052 695.364 75.3312L696.375 73.6055ZM8.78647 404.003C9.79996 404.794 10.8902 405.633 12.0547 406.515L13.2616 404.92C12.1053 404.045 11.0232 403.212 10.0174 402.426L8.78647 404.003ZM20.3202 412.544C21.4047 413.308 22.5272 414.087 23.6869 414.881L24.8163 413.23C23.664 412.442 22.5487 411.667 21.4713 410.909L20.3202 412.544ZM32.2109 420.514C33.3419 421.236 34.4984 421.964 35.6798 422.696L36.7339 420.997C35.5599 420.269 34.4106 419.545 33.2867 418.828L32.2109 420.514ZM44.4587 427.949C45.6285 428.623 46.8175 429.299 48.0253 429.974L49.0018 428.229C47.8017 427.558 46.6202 426.886 45.4578 426.216L44.4587 427.949ZM57.0407 434.825C58.2403 435.445 59.4552 436.063 60.6849 436.678L61.5793 434.889C60.3577 434.279 59.1508 433.665 57.959 433.049L57.0407 434.825ZM69.9129 441.096C71.1457 441.66 72.3913 442.22 73.6491 442.774L74.4555 440.944C73.2064 440.393 71.9695 439.838 70.7451 439.277L69.9129 441.096ZM83.0983 446.734C84.358 447.235 85.6284 447.73 86.9092 448.217L87.6204 446.348C86.349 445.864 85.088 445.373 83.8374 444.876L83.0983 446.734ZM96.5457 451.673C97.8364 452.108 99.1364 452.534 100.445 452.952L101.053 451.047C99.7546 450.632 98.4648 450.209 97.1841 449.778L96.5457 451.673ZM110.258 455.864C110.918 456.045 111.58 456.223 112.244 456.399L112.756 454.466C112.098 454.291 111.441 454.114 110.787 453.935L110.258 455.864ZM112.244 456.399C112.874 456.566 113.506 456.73 114.14 456.889L114.629 454.95C114.003 454.792 113.378 454.631 112.756 454.466L112.244 456.399ZM123.752 459.007C125.036 459.251 126.327 459.482 127.623 459.698L127.953 457.726C126.671 457.511 125.395 457.284 124.125 457.042L123.752 459.007ZM137.366 461.062C138.669 461.211 139.977 461.346 141.288 461.469L141.475 459.478C140.176 459.356 138.882 459.222 137.592 459.075L137.366 461.062ZM151.095 462.153C152.401 462.213 153.708 462.262 155.018 462.299L155.074 460.299C153.777 460.263 152.481 460.215 151.188 460.155L151.095 462.153ZM164.847 462.362C166.157 462.342 167.468 462.312 168.779 462.27L168.715 460.271C167.415 460.312 166.116 460.343 164.817 460.362L164.847 462.362ZM178.591 461.759C179.898 461.664 181.204 461.559 182.51 461.444L182.334 459.452C181.039 459.566 179.743 459.67 178.447 459.764L178.591 461.759ZM192.277 460.391C193.578 460.225 194.877 460.049 196.173 459.864L195.89 457.884C194.604 458.068 193.315 458.242 192.024 458.407L192.277 460.391ZM205.872 458.288C207.16 458.054 208.444 457.81 209.724 457.557L209.336 455.595C208.066 455.846 206.791 456.088 205.513 456.321L205.872 458.288ZM219.321 455.468C220.603 455.163 221.879 454.849 223.149 454.526L222.656 452.588C221.396 452.908 220.13 453.22 218.859 453.522L219.321 455.468ZM232.624 451.916C233.883 451.542 235.134 451.159 236.377 450.767L235.776 448.86C234.543 449.248 233.303 449.628 232.054 449.999L232.624 451.916ZM245.684 447.618C246.925 447.168 248.155 446.71 249.375 446.243L248.66 444.375C247.451 444.838 246.232 445.292 245.002 445.738L245.684 447.618ZM258.478 442.509C259.684 441.98 260.878 441.442 262.057 440.896L261.217 439.081C260.05 439.622 258.869 440.154 257.674 440.678L258.478 442.509ZM270.857 436.524C272.035 435.897 273.194 435.261 274.335 434.616L273.351 432.875C272.225 433.511 271.08 434.139 269.917 434.759L270.857 436.524ZM282.747 429.484C283.85 428.755 284.931 428.018 285.987 427.272L284.834 425.639C283.795 426.372 282.732 427.097 281.645 427.815L282.747 429.484ZM293.815 421.21C294.821 420.351 295.795 419.484 296.737 418.607L295.374 417.143C294.454 417.999 293.501 418.848 292.516 419.689L293.815 421.21ZM303.579 411.378C304.428 410.346 305.232 409.305 305.989 408.254L304.366 407.085C303.635 408.1 302.858 409.107 302.035 410.107L303.579 411.378ZM311.022 399.623C311.575 398.388 312.063 397.143 312.481 395.889L310.584 395.256C310.188 396.444 309.724 397.628 309.197 398.805L311.022 399.623ZM314.291 386.031C314.335 384.69 314.297 383.344 314.174 381.993L312.182 382.175C312.298 383.443 312.334 384.706 312.292 385.965L314.291 386.031ZM311.795 372.273C311.307 371.057 310.747 369.843 310.112 368.63L308.34 369.557C308.944 370.713 309.477 371.866 309.938 373.017L311.795 372.273ZM304.583 360.348C304.155 359.823 303.711 359.298 303.253 358.774L301.747 360.091C302.191 360.598 302.62 361.106 303.034 361.613L304.583 360.348ZM303.253 358.774C302.799 358.255 302.331 357.759 301.849 357.284L300.445 358.708C300.891 359.149 301.326 359.609 301.747 360.091L303.253 358.774ZM293.427 351.653C292.174 351.123 290.886 350.688 289.573 350.346L289.069 352.281C290.291 352.6 291.486 353.004 292.647 353.495L293.427 351.653ZM279.503 349.485C278.168 349.587 276.83 349.772 275.498 350.036L275.888 351.998C277.143 351.749 278.401 351.575 279.655 351.479L279.503 349.485ZM265.999 353.368C264.812 353.978 263.647 354.657 262.512 355.402L263.61 357.074C264.686 356.368 265.789 355.725 266.913 355.147L265.999 353.368ZM254.9 361.963C254.014 362.951 253.169 363.994 252.37 365.091L253.987 366.268C254.746 365.226 255.549 364.235 256.389 363.297L254.9 361.963ZM247.502 373.872C247.007 375.092 246.56 376.354 246.166 377.658L248.08 378.236C248.457 376.992 248.883 375.787 249.355 374.624L247.502 373.872ZM244.315 387.495C244.206 388.797 244.145 390.128 244.134 391.489L246.134 391.505C246.145 390.194 246.204 388.912 246.308 387.661L244.315 387.495ZM244.905 401.444C245.108 402.724 245.352 404.024 245.64 405.343L247.594 404.917C247.314 403.634 247.077 402.372 246.88 401.131L244.905 401.444ZM248.371 414.887C248.593 415.516 248.824 416.149 249.065 416.786L250.935 416.079C250.7 415.456 250.474 414.837 250.257 414.222L248.371 414.887ZM249.065 416.786C249.307 417.429 249.556 418.066 249.81 418.699L251.666 417.953C251.417 417.334 251.173 416.709 250.935 416.079L249.065 416.786ZM254.07 427.888C254.705 429.086 255.362 430.261 256.04 431.415L257.764 430.402C257.101 429.273 256.458 428.123 255.837 426.951L254.07 427.888ZM261.649 439.844C262.466 440.932 263.304 441.998 264.163 443.04L265.707 441.768C264.867 440.749 264.047 439.708 263.249 438.643L261.649 439.844ZM271.037 450.475C272.01 451.415 273.003 452.332 274.015 453.225L275.338 451.725C274.349 450.852 273.378 449.956 272.426 449.037L271.037 450.475ZM281.963 459.498C283.067 460.277 284.188 461.031 285.325 461.763L286.407 460.081C285.293 459.365 284.196 458.625 283.115 457.864L281.963 459.498ZM294.1 466.798C295.3 467.409 296.515 467.998 297.743 468.565L298.581 466.75C297.376 466.193 296.185 465.615 295.007 465.016L294.1 466.798ZM307.116 472.378C308.379 472.827 309.654 473.255 310.939 473.663L311.543 471.756C310.279 471.356 309.027 470.935 307.785 470.494L307.116 472.378ZM320.69 476.315C322 476.615 323.319 476.895 324.645 477.156L325.031 475.194C323.725 474.937 322.426 474.661 321.137 474.365L320.69 476.315ZM334.613 478.735C335.947 478.896 337.287 479.04 338.632 479.165L338.818 477.174C337.49 477.05 336.169 476.909 334.854 476.749L334.613 478.735ZM348.712 479.759C350.049 479.794 351.391 479.811 352.736 479.811L352.736 477.811C351.408 477.811 350.084 477.794 348.763 477.76L348.712 479.759ZM362.817 479.499C364.159 479.416 365.504 479.316 366.85 479.201L366.679 477.208C365.349 477.322 364.02 477.421 362.693 477.503L362.817 479.499ZM376.862 478.045C378.188 477.853 379.514 477.645 380.841 477.422L380.509 475.45C379.198 475.67 377.886 475.876 376.575 476.066L376.862 478.045ZM390.732 475.473C392.042 475.177 393.351 474.865 394.658 474.539L394.174 472.599C392.881 472.921 391.587 473.229 390.291 473.522L390.732 475.473ZM404.366 471.834C405.648 471.439 406.928 471.029 408.204 470.605L407.573 468.707C406.311 469.127 405.045 469.532 403.776 469.923L404.366 471.834ZM417.679 467.17C418.93 466.677 420.175 466.171 421.416 465.652L420.643 463.807C419.416 464.321 418.184 464.822 416.947 465.309L417.679 467.17ZM430.601 461.504C431.81 460.917 433.013 460.317 434.209 459.704L433.296 457.924C432.114 458.531 430.924 459.124 429.728 459.704L430.601 461.504ZM443.046 454.853C444.206 454.173 445.358 453.48 446.502 452.774L445.451 451.072C444.32 451.771 443.181 452.456 442.035 453.128L443.046 454.853ZM454.922 447.229C456.023 446.456 457.115 445.671 458.196 444.872L457.009 443.263C455.94 444.052 454.861 444.828 453.773 445.591L454.922 447.229ZM466.123 438.638C467.155 437.774 468.175 436.897 469.183 436.008L467.86 434.508C466.865 435.386 465.857 436.252 464.839 437.105L466.123 438.638ZM476.53 429.096C477.48 428.142 478.417 427.176 479.34 426.197L477.885 424.825C476.974 425.79 476.05 426.743 475.113 427.685L476.53 429.096ZM486.011 418.626C486.438 418.106 486.862 417.582 487.282 417.056L485.718 415.809C485.304 416.328 484.887 416.843 484.465 417.356L486.011 418.626ZM487.282 417.056C487.71 416.519 488.13 415.979 488.541 415.437L486.947 414.229C486.546 414.758 486.137 415.285 485.718 415.809L487.282 417.056ZM494.066 407.086C494.739 405.909 495.377 404.721 495.981 403.521L494.194 402.622C493.607 403.79 492.985 404.947 492.33 406.093L494.066 407.086ZM499.885 394.291C500.325 393.026 500.732 391.75 501.106 390.464L499.186 389.905C498.821 391.158 498.425 392.402 497.996 393.634L499.885 394.291ZM503.313 380.694C503.529 379.379 503.715 378.054 503.873 376.721L501.887 376.485C501.733 377.79 501.55 379.085 501.339 380.37L503.313 380.694ZM504.531 366.745C504.553 365.409 504.55 364.067 504.522 362.717L502.522 362.758C502.55 364.084 502.553 365.402 502.532 366.712L504.531 366.745ZM503.901 352.767C503.764 351.434 503.607 350.096 503.43 348.752L501.447 349.013C501.622 350.339 501.777 351.658 501.911 352.97L503.901 352.767ZM501.808 338.947C501.549 337.632 501.272 336.313 500.979 334.988L499.026 335.42C499.316 336.73 499.59 338.035 499.846 339.335L501.808 338.947ZM498.59 325.365C498.237 324.075 497.87 322.782 497.489 321.485L495.57 322.048C495.947 323.334 496.311 324.616 496.661 325.893L498.59 325.365ZM494.51 312.034C494.084 310.766 493.647 309.495 493.198 308.22L491.312 308.884C491.757 310.15 492.191 311.412 492.615 312.671L494.51 312.034ZM489.768 298.938C489.287 297.694 488.798 296.448 488.299 295.199L486.442 295.94C486.938 297.182 487.425 298.422 487.903 299.659L489.768 298.938ZM484.515 286.046C483.993 284.824 483.464 283.6 482.928 282.374L481.095 283.176C481.629 284.396 482.156 285.615 482.676 286.832L484.515 286.046ZM478.867 273.326C478.314 272.123 477.755 270.917 477.19 269.711L475.379 270.558C475.941 271.761 476.498 272.962 477.05 274.162L478.867 273.326ZM472.918 260.747C472.341 259.558 471.759 258.367 471.174 257.176L469.379 258.058C469.963 259.246 470.543 260.434 471.118 261.62L472.918 260.747ZM466.744 248.28C466.149 247.1 465.552 245.921 464.952 244.741L463.169 245.648C463.768 246.826 464.365 248.003 464.958 249.18L466.744 248.28ZM460.413 235.899C459.806 234.726 459.197 233.553 458.587 232.379L456.813 233.303C457.422 234.475 458.031 235.647 458.637 236.818L460.413 235.899ZM453.986 223.582C453.37 222.411 452.754 221.239 452.138 220.068L450.368 221C450.984 222.171 451.6 223.341 452.215 224.512L453.986 223.582ZM447.511 211.296C446.894 210.125 446.276 208.955 445.659 207.785L443.89 208.718C444.507 209.888 445.125 211.058 445.743 212.229L447.511 211.296ZM441.038 199.004C440.425 197.836 439.814 196.669 439.204 195.502L437.432 196.429C438.042 197.596 438.654 198.764 439.267 199.934L441.038 199.004ZM434.622 186.685C434.017 185.512 433.414 184.341 432.815 183.171L431.035 184.083C431.635 185.255 432.239 186.428 432.845 187.602L434.622 186.685ZM428.322 174.313C427.73 173.132 427.142 171.952 426.558 170.774L424.766 171.663C425.351 172.843 425.941 174.025 426.534 175.209L428.322 174.313ZM422.206 161.861C421.632 160.666 421.064 159.474 420.503 158.285L418.694 159.14C419.258 160.333 419.827 161.528 420.402 162.726L422.206 161.861ZM416.349 149.296C415.803 148.085 415.264 146.877 414.733 145.672L412.903 146.479C413.437 147.689 413.978 148.902 414.526 150.118L416.349 149.296ZM410.849 136.583C410.341 135.352 409.842 134.125 409.353 132.902L407.496 133.644C407.988 134.874 408.49 136.108 409.001 137.346L410.849 136.583ZM405.829 123.682C405.374 122.429 404.93 121.181 404.498 119.937L402.609 120.593C403.044 121.846 403.491 123.104 403.95 124.366L405.829 123.682ZM401.457 110.558C401.074 109.282 400.706 108.013 400.353 106.75L398.427 107.287C398.783 108.563 399.155 109.845 399.541 111.133L401.457 110.558ZM397.966 97.1886C397.684 95.8944 397.42 94.6079 397.175 93.3293L395.211 93.7046C395.459 95.0011 395.726 96.3049 396.013 97.6157L397.966 97.1886ZM395.689 83.5974C395.543 82.2942 395.42 81.0005 395.323 79.7166L393.328 79.8685C393.428 81.1768 393.553 82.4942 393.701 83.8201L395.689 83.5974ZM395.07 69.8965C395.107 68.5923 395.174 67.3 395.272 66.0197L393.277 65.868C393.178 67.1808 393.109 68.5049 393.071 69.8397L395.07 69.8965ZM396.655 56.3485C396.931 55.0644 397.244 53.7947 397.595 52.5396L395.669 52.001C395.307 53.2959 394.984 54.605 394.699 55.9277L396.655 56.3485ZM400.95 43.4147C401.495 42.2389 402.08 41.078 402.707 39.9325L400.952 38.9726C400.304 40.1573 399.699 41.3579 399.135 42.5739L400.95 43.4147ZM408.052 31.8265C408.859 30.7955 409.707 29.7792 410.598 28.778L409.103 27.4487C408.185 28.481 407.31 29.5296 406.477 30.5941L408.052 31.8265ZM417.561 22.0036C418.073 21.5697 418.594 21.1392 419.126 20.7123L417.874 19.1528C417.329 19.5907 416.793 20.0324 416.268 20.4779L417.561 22.0036ZM419.126 20.7123C419.648 20.2934 420.175 19.8824 420.707 19.4793L419.499 17.8854C418.952 18.2997 418.41 18.7222 417.874 19.1528L419.126 20.7123ZM429.052 14.0101C430.212 13.3569 431.39 12.733 432.586 12.138L431.695 10.3474C430.469 10.9574 429.261 11.5972 428.071 12.2676L429.052 14.0101ZM441.792 8.23669C443.046 7.78981 444.315 7.36891 445.599 6.97337L445.01 5.062C443.699 5.4659 442.402 5.89595 441.121 6.35282L441.792 8.23669ZM455.315 4.50965C456.615 4.24579 457.927 4.00393 459.25 3.78351L458.921 1.81069C457.575 2.03488 456.24 2.28099 454.917 2.54964L455.315 4.50965ZM469.218 2.5379C470.555 2.42299 471.902 2.32703 473.258 2.2495L473.144 0.252758C471.77 0.331345 470.403 0.428656 469.046 0.545244L469.218 2.5379ZM483.311 2.00366C484.644 2.01242 485.984 2.03682 487.33 2.07643L487.389 0.0772928C486.028 0.0372501 484.673 0.0125622 483.325 0.00370556L483.311 2.00366ZM497.4 2.64004C498.728 2.74811 500.062 2.86933 501.4 3.00329L501.599 1.01324C500.249 0.878068 498.903 0.75572 497.562 0.64662L497.4 2.64004ZM511.416 4.22695C512.744 4.41742 514.076 4.61913 515.411 4.83169L515.725 2.85659C514.381 2.64243 513.039 2.43917 511.699 2.24719L511.416 4.22695ZM525.346 6.59977C526.669 6.85906 527.994 7.1279 529.32 7.40592L529.73 5.44849C528.396 5.16871 527.063 4.89813 525.731 4.63712L525.346 6.59977ZM539.163 9.62903C540.472 9.94514 541.781 10.2693 543.091 10.601L543.582 8.66233C542.266 8.32875 540.949 8.00282 539.633 7.68492L539.163 9.62903ZM552.851 13.2131C554.147 13.5778 555.442 13.9492 556.735 14.3269L557.296 12.407C555.996 12.0275 554.695 11.6544 553.393 11.2879L552.851 13.2131ZM566.405 17.2725C567.691 17.6802 568.975 18.0934 570.257 18.5118L570.877 16.6105C569.591 16.1904 568.301 15.7755 567.009 15.3659L566.405 17.2725ZM579.837 21.7488C581.112 22.1939 582.383 22.6432 583.651 23.0966L584.324 21.2134C583.052 20.7584 581.776 20.3073 580.496 19.8605L579.837 21.7488ZM593.146 26.592C594.407 27.0692 595.663 27.5495 596.914 28.0326L597.634 26.1669C596.38 25.6822 595.119 25.2003 593.854 24.7214L593.146 26.592ZM606.327 31.7598C607.576 32.2661 608.818 32.7743 610.052 33.2841L610.816 31.4354C609.577 30.9241 608.331 30.4143 607.078 29.9063L606.327 31.7598ZM619.369 37.2142C620.626 37.7556 621.873 38.2975 623.111 38.8395L623.913 37.0074C622.672 36.4638 621.421 35.9204 620.16 35.3774L619.369 37.2142ZM632.347 42.962C633.588 43.5266 634.817 44.0901 636.034 44.6518L636.873 42.836C635.652 42.2727 634.419 41.7077 633.175 41.1415L632.347 42.962ZM645.196 48.9564C646.411 49.5372 647.61 50.1146 648.793 50.6878L649.665 48.888C648.479 48.3132 647.277 47.7344 646.059 47.1521L645.196 48.9564ZM657.889 55.1693C659.131 55.7914 660.349 56.406 661.544 57.0124L662.449 55.2289C661.252 54.621 660.03 54.0048 658.784 53.3811L657.889 55.1693ZM670.51 61.6371C671.751 62.2874 672.955 62.923 674.12 63.5424L675.059 61.7761C673.89 61.1551 672.682 60.5178 671.439 59.8658L670.51 61.6371ZM682.979 68.3279C684.258 69.0307 685.458 69.6958 686.577 70.3196L687.551 68.5731C686.429 67.9472 685.225 67.28 683.943 66.5752L682.979 68.3279ZM695.364 75.3312C695.898 75.644 696.304 75.884 696.576 76.0456C696.712 76.1264 696.814 76.1876 696.883 76.2285C696.917 76.2489 696.943 76.2643 696.96 76.2745C696.968 76.2796 696.974 76.2834 696.979 76.2859C696.981 76.2871 696.982 76.288 696.983 76.2886C696.984 76.2889 696.984 76.2892 696.984 76.2893C696.984 76.2894 696.984 76.2894 696.985 76.2894C696.985 76.2894 696.985 76.2895 696.985 76.2895C696.985 76.2895 696.985 76.2895 697.5 75.4325C698.015 74.5756 698.015 74.5756 698.015 74.5756C698.015 74.5756 698.015 74.5755 698.015 74.5755C698.015 74.5755 698.015 74.5755 698.015 74.5755C698.015 74.5754 698.015 74.5753 698.015 74.5752C698.015 74.575 698.014 74.5748 698.013 74.5744C698.012 74.5737 698.011 74.5727 698.008 74.5713C698.004 74.5686 697.997 74.5645 697.988 74.5592C697.97 74.5485 697.944 74.5327 697.909 74.5118C697.839 74.4699 697.735 74.4078 697.597 74.326C697.321 74.1624 696.912 73.9204 696.375 73.6055L695.364 75.3312Z" fill="#AA2AE1"/>
</svg>
